<?xml version="1.0" encoding="UTF-8"?>
<svg version="1.1" xmlns="http://www.w3.org/2000/svg" width="512" height="512">
<path d="M0 0 C8.6635134 8.07398438 16.21394107 19.21060538 16.96289062 31.30322266 C17.01637681 33.9314745 17.04340406 36.55878611 17.0625 39.1875 C17.14078877 45.42450509 17.22274146 49.5590179 21.875 54.1875 C23.48541079 55.46272357 25.13029012 56.69610731 26.8125 57.875 C28.03343709 58.92299251 29.24217121 59.98539054 30.4375 61.0625 C31.08203125 61.61550781 31.7265625 62.16851562 32.390625 62.73828125 C35.71949935 65.67520749 38.94959413 68.71346241 42.1875 71.75 C47.17597373 76.42577623 52.19948979 81.05211008 57.296875 85.609375 C60.84518798 88.8050606 64.34827726 92.04875265 67.85375977 95.29125977 C71.51960932 98.68202286 75.19274129 102.0645631 78.875 105.4375 C79.36669678 105.88794678 79.85839355 106.33839355 80.36499023 106.80249023 C81.84732316 108.16017963 83.32986995 109.51763507 84.8125 110.875 C91.53938606 117.03354189 98.25568077 123.20311854 104.95458984 129.39208984 C110.06690615 134.11361697 115.19597717 138.8166967 120.32861328 143.51611328 C122.82414407 145.80142496 125.31824527 148.0882958 127.8125 150.375 C128.81249325 151.29167404 129.81249324 152.2083407 130.8125 153.125 C148.8125 169.625 148.8125 169.625 150.31347656 171.00097656 C151.31011319 171.91450603 152.30685741 172.82791815 153.30371094 173.74121094 C155.85608061 176.07990938 158.4063548 178.42082914 160.953125 180.765625 C161.47390625 181.24451172 161.9946875 181.72339844 162.53125 182.21679688 C163.96412106 183.53452651 165.39615404 184.85316728 166.828125 186.171875 C167.30830078 186.59235107 167.78847656 187.01282715 168.28320312 187.44604492 C169.8125 188.875 169.8125 188.875 171.38867188 190.7355957 C175.69148374 195.37949849 178.99258461 196.35914967 185.3125 196.63671875 C188.14803943 196.66855858 190.97765234 196.62550372 193.8125 196.5625 C211.08585912 196.30721908 211.08585912 196.30721908 217.8125 200.875 C221.51874776 204.77131174 222.93314824 207.82024847 222.94951439 213.15737438 C222.95458893 214.03622962 222.95966347 214.91508486 222.96489179 215.82057208 C222.96563843 217.27005731 222.96563843 217.27005731 222.96640015 218.74882507 C222.9707824 219.77479902 222.97516465 220.80077296 222.9796797 221.85783702 C222.99308591 225.31237168 222.99925067 228.76688083 223.00537109 232.22143555 C223.0132706 234.69162614 223.02153945 237.16181557 223.03015137 239.63200378 C223.05412277 247.05688022 223.06930154 254.48175245 223.08221143 261.90665433 C223.08592385 264.00400466 223.08989704 266.10135433 223.0939641 268.198704 C223.11920109 281.22481486 223.14125275 294.25092678 223.15369225 307.27705669 C223.15662191 310.29399812 223.15958358 313.31093951 223.16259766 316.32788086 C223.16334371 317.07772079 223.16408976 317.82756073 223.16485842 318.60012309 C223.17751018 330.74520269 223.2107312 342.89013583 223.25239949 355.03514697 C223.29483507 367.50609841 223.31838914 379.9769749 223.32361281 392.44799834 C223.3270251 399.44925982 223.3387585 406.45029241 223.37171555 413.45148277 C223.40267156 420.03835364 223.40812379 426.62489809 223.39633179 433.21185493 C223.39611068 435.62896078 223.40444628 438.04608491 223.42198563 440.46312714 C223.44463843 443.76465187 223.4363988 447.06472473 223.42050171 450.36625671 C223.4343838 451.32142659 223.44826588 452.27659647 223.46256864 453.2607109 C223.3875798 459.58708893 222.22921832 464.18166933 217.8125 468.875 C211.8911873 473.64246095 205.20024347 473.44437108 197.91255188 473.3896637 C196.72909768 473.39660922 195.54564348 473.40355475 194.32632703 473.41071075 C191.05880386 473.42579275 187.79186912 473.42305616 184.52434623 473.41255772 C180.9939845 473.40554739 177.46371458 473.42157718 173.93338013 473.43455505 C167.02519927 473.45616711 160.11718331 473.45607582 153.20897976 473.44792951 C147.5951619 473.44162476 141.98139206 473.44277088 136.36757469 473.44920158 C135.56802283 473.45010324 134.76847096 473.45100489 133.94469025 473.45193387 C132.32035817 473.45378509 130.6960261 473.45564765 129.07169404 473.45752143 C113.8504804 473.47408908 98.62935953 473.46538834 83.40815147 473.44853585 C69.47982556 473.43382827 55.55171516 473.44848394 41.623417 473.47730602 C27.31828906 473.50668741 13.01326063 473.51767672 -1.29189616 473.50812382 C-2.90927142 473.50710126 -4.5266467 473.50610666 -6.14402199 473.5051403 C-6.93978639 473.50466391 -7.7355508 473.50418752 -8.55542928 473.5036967 C-14.16424124 473.50153153 -19.77295904 473.51134167 -25.38175011 473.52591133 C-32.2143182 473.54341275 -39.04661117 473.54334852 -45.87916835 473.52055968 C-49.3654957 473.50939927 -52.85133791 473.50629499 -56.33764458 473.52486038 C-60.11506518 473.54070043 -63.89114646 473.5259229 -67.66850281 473.50318909 C-68.7729657 473.51502482 -69.87742859 473.52686054 -71.01536006 473.53905493 C-78.40248541 473.44835505 -78.40248541 473.44835505 -82.40743732 470.52323818 C-84.1875 467.875 -84.1875 467.875 -84.1875 464.875 C-90.4575 464.875 -96.7275 464.875 -103.1875 464.875 C-103.5175 466.525 -103.8475 468.175 -104.1875 469.875 C-106.48991746 472.38989955 -107.88409977 472.83770056 -111.28106308 473.25531673 C-112.50587513 473.25774663 -113.73068718 473.26017653 -114.99261475 473.26268005 C-116.0183297 473.27075836 -116.0183297 473.27075836 -117.06476617 473.27899987 C-119.35553513 473.29330431 -121.64572825 473.28616981 -123.93652344 473.27905273 C-125.5792894 473.28475519 -127.2220514 473.29171897 -128.86480713 473.29985046 C-133.32783198 473.31781524 -137.79066057 473.31660674 -142.25371075 473.31090808 C-145.98116418 473.30781963 -149.70857972 473.31390517 -153.43602777 473.31994683 C-162.23309996 473.33400264 -171.03007509 473.33242326 -179.82714844 473.32104492 C-188.89533081 473.30957489 -197.96321706 473.32361815 -207.03136039 473.3504414 C-214.82090706 473.37261793 -222.61036092 473.37923101 -230.39993691 473.37336498 C-235.0503652 473.36999739 -239.70060387 473.37239676 -244.35100555 473.38961601 C-248.72761164 473.40511317 -253.10378058 473.40109901 -257.48036957 473.38231087 C-259.08311888 473.37863199 -260.68590075 473.381713 -262.28862 473.39219666 C-278.62763666 473.49087736 -278.62763666 473.49087736 -284.1875 468.875 C-289.16615048 463.07801315 -289.90814063 457.8329082 -289.81568909 450.39317322 C-289.82278347 449.36222158 -289.82987786 448.33126995 -289.83718723 447.26907736 C-289.85473704 443.82735756 -289.83667673 440.38677152 -289.81860352 436.94506836 C-289.82374341 434.4725137 -289.83102521 431.9999627 -289.84028625 429.52742004 C-289.85687715 423.51682504 -289.85017304 417.50667176 -289.83219803 411.49611466 C-289.81815259 406.61028177 -289.81428339 401.72453713 -289.8176403 396.83868599 C-289.81811775 396.14239994 -289.81859519 395.44611388 -289.8190871 394.72872825 C-289.82011346 393.31409662 -289.82116882 391.89946501 -289.82225286 390.48483343 C-289.83081314 377.98648729 -289.81416618 365.48829816 -289.78442383 352.98999023 C-289.75558181 340.86980598 -289.74850665 328.74984784 -289.76391602 316.62963867 C-289.78068595 303.42124479 -289.78470482 290.21295817 -289.76720566 277.00456148 C-289.76536132 275.59554042 -289.7635266 274.18651934 -289.76170158 272.77749825 C-289.76078949 272.08428734 -289.7598774 271.39107644 -289.75893768 270.67685915 C-289.75333767 265.79787462 -289.75663439 260.91894255 -289.76324654 256.03996086 C-289.77179578 249.47105965 -289.75879325 242.90243589 -289.73139763 236.33357048 C-289.72450967 233.92251553 -289.72442018 231.51143018 -289.73161316 229.10037613 C-289.74029896 225.80983457 -289.72436512 222.52030046 -289.7021637 219.22984314 C-289.71040446 218.27517102 -289.71864523 217.32049889 -289.72713572 216.33689731 C-289.65234944 210.33365736 -288.71639845 206.78003241 -285.1875 201.875 C-279.74542499 197.6546153 -276.19944052 196.76164657 -269.421875 197.05078125 C-252.15118636 198.12526692 -252.15118636 198.12526692 -237.0859375 191.25537109 C-234.77579066 188.80592851 -232.61577223 186.29346491 -230.56933594 183.61962891 C-228.6054285 181.14010902 -226.32366214 179.12928351 -223.9375 177.0625 C-223.1640625 176.37671875 -222.390625 175.6909375 -221.59375 174.984375 C-220.7996875 174.28828125 -220.005625 173.5921875 -219.1875 172.875 C-218.2490625 172.03453125 -217.310625 171.1940625 -216.34375 170.328125 C-215.3846875 169.49796875 -214.425625 168.6678125 -213.4375 167.8125 C-212.57640625 167.05839844 -211.7153125 166.30429688 -210.828125 165.52734375 C-207.64949067 163.53834623 -205.87460241 163.47707501 -202.1875 163.875 C-201.1975 164.205 -200.2075 164.535 -199.1875 164.875 C-191.19742016 159.23279985 -191.19742016 159.23279985 -186.63671875 151.1640625 C-186.79378982 149.4903544 -186.98066588 147.81913851 -187.19921875 146.15234375 C-187.18369207 143.13499145 -186.30353211 142.2848475 -184.1875 140.1875 C-182.8756707 139.05786922 -181.54185669 137.95327629 -180.1875 136.875 C-179.01688668 135.8586948 -177.85036725 134.83765929 -176.6875 133.8125 C-175.68976563 132.95205078 -175.68976563 132.95205078 -174.671875 132.07421875 C-171.37000762 129.15133929 -168.15532936 126.13982319 -164.9375 123.125 C-158.39468706 116.99612508 -151.80609526 110.92194871 -145.1875 104.875 C-143.18676337 103.0424698 -141.18713714 101.20872979 -139.1875 99.375 C-138.18752026 98.45831123 -137.18752028 97.54164454 -136.1875 96.625 C-135.445 95.944375 -135.445 95.944375 -134.6875 95.25 C-106.1875 69.125 -106.1875 69.125 -104.68481445 67.74755859 C-103.6937392 66.83905948 -102.70269063 65.93053126 -101.71166992 65.02197266 C-99.07534941 62.60509204 -96.43844738 60.18884956 -93.80078125 57.7734375 C-93.24841797 57.26748047 -92.69605469 56.76152344 -92.12695312 56.24023438 C-91.06201789 55.2647895 -89.99692006 54.2895221 -88.93164062 53.31445312 C-86.526939 51.12911536 -86.526939 51.12911536 -84.1875 48.875 C-84.11109935 46.7124371 -84.04036078 44.54951278 -83.99951172 42.38598633 C-83.62819099 26.22768716 -79.71656968 15.01328895 -68.5625 3.0625 C-48.30203875 -15.59845115 -22.2879732 -14.8586488 0 0 Z M-58.4375 88.5 C-59.48550781 89.45132813 -59.48550781 89.45132813 -60.5546875 90.421875 C-61.42351562 91.23140625 -62.29234375 92.0409375 -63.1875 92.875 C-64.01749512 93.6474707 -64.01749512 93.6474707 -64.86425781 94.43554688 C-67.42986641 96.8246416 -69.99294685 99.21638477 -72.55126953 101.61328125 C-76.87811115 105.6658637 -81.25221456 109.65802295 -85.671875 113.609375 C-89.22018798 116.8050606 -92.72327726 120.04875265 -96.22875977 123.29125977 C-99.89460932 126.68202286 -103.56774129 130.0645631 -107.25 133.4375 C-107.74169678 133.88794678 -108.23339355 134.33839355 -108.73999023 134.80249023 C-110.71538838 136.61178494 -112.6911981 138.42062988 -114.66699219 140.22949219 C-120.35072346 145.43364692 -126.02709185 150.64547632 -131.6875 155.875 C-137.34638968 161.10312079 -143.02132832 166.31344089 -148.70361328 171.51611328 C-150.19733666 172.88400804 -151.69056365 174.25244234 -153.18359375 175.62109375 C-153.68004395 176.07613281 -154.17649414 176.53117187 -154.68798828 177 C-155.68017579 177.90980137 -156.67204285 178.81995235 -157.66357422 179.73046875 C-160.29223753 182.14332687 -162.9280815 184.54771397 -165.57421875 186.94140625 C-166.12658203 187.44285156 -166.67894531 187.94429688 -167.24804688 188.4609375 C-168.31095933 189.42559755 -169.37597792 190.38794341 -170.44335938 191.34765625 C-173.19217945 193.81047542 -173.19217945 193.81047542 -175.1875 196.875 C-81.4675 196.875 12.2525 196.875 108.8125 196.875 C104.86990884 192.27531032 101.13830305 188.13175065 96.6875 184.125 C96.12619385 183.61332275 95.5648877 183.10164551 94.98657227 182.57446289 C93.82830547 181.51887875 92.66855908 180.46491579 91.50732422 179.41259766 C89.40687492 177.50700421 87.31758887 175.58947436 85.22900391 173.67089844 C83.7463736 172.30916932 82.26212543 170.94922652 80.77734375 169.58984375 C77.28683804 166.39395375 73.7984664 163.19573812 70.31005859 159.99755859 C67.82321125 157.71774634 65.33593204 155.43840942 62.84765625 153.16015625 C61.85673672 152.25264142 60.86585136 151.34508927 59.875 150.4375 C59.38475342 149.98850342 58.89450684 149.53950684 58.3894043 149.0769043 C55.74864976 146.65639187 53.11322395 144.23031589 50.484375 141.796875 C49.92838623 141.28261963 49.37239746 140.76836426 48.79956055 140.23852539 C47.69271295 139.21333181 46.58737764 138.18650281 45.48364258 137.15795898 C42.25797817 134.16294455 38.94716669 131.3160856 35.5625 128.5 C32.82618199 126.08442256 31.90846371 125.1522285 30.6875 121.625 C30.8125 118.875 30.8125 118.875 31.51171875 116.91796875 C32.06165544 114.80544326 32.06165544 114.80544326 30.58984375 113.12890625 C28.67317649 111.36687456 26.75308127 109.61069919 24.8125 107.875 C24.30976563 107.34777344 23.80703125 106.82054687 23.2890625 106.27734375 C21.72005028 104.62722097 21.72005028 104.62722097 18.8125 102.875 C16.80827146 102.84786463 16.80827146 102.84786463 14.75 103.25 C10.07910584 103.99141177 9.5313233 103.54688184 5.8125 100.875 C3.55606598 98.94558026 1.39907426 96.9226795 -0.75 94.875 C-5.647452 89.95048153 -5.647452 89.95048153 -11.1875 85.875 C-13.41062928 85.90428819 -13.41062928 85.90428819 -15.625 86.625 C-16.36621094 86.82609375 -17.10742188 87.0271875 -17.87109375 87.234375 C-18.63550781 87.44578125 -19.39992188 87.6571875 -20.1875 87.875 C-29.8976828 90.24093286 -40.61866123 89.65121619 -50.05078125 86.53125 C-53.97758241 85.32521235 -55.53199914 85.84316813 -58.4375 88.5 Z " fill="#010101" transform="translate(289.1875,25.125)"/>
<path d="M0 0 C139.26 0 278.52 0 422 0 C422.33 11.55 422.66 23.1 423 35 C426.47825081 39.0745356 426.47825081 39.0745356 430 40 C430 46.6 430 53.2 430 60 C428.35 60.66 426.7 61.32 425 62 C396 91 422.33893217 143.98920721 422 185 C282.74 185 143.48 185 0 185 C0 123.95 0 62.9 0 0 Z " fill="#F4FBFE" transform="translate(45,267)"/>
<path d="M0 0 C0.76717295 0.00234117 1.5343459 0.00468233 2.32476652 0.00709444 C3.13604013 0.005641 3.94731375 0.00418756 4.78317142 0.00269008 C7.53691776 -0.00099691 10.29060969 0.0025289 13.04435575 0.00595194 C15.02441058 0.00480119 17.0044652 0.00321397 18.98451936 0.0012247 C24.45309057 -0.0029749 29.92164446 -0.00087511 35.39021575 0.00221092 C41.27711741 0.00446225 47.16401598 0.00098674 53.05091703 -0.00176901 C63.92604126 -0.00597043 74.80115949 -0.00558977 85.67628404 -0.00285754 C95.72134866 -0.00034611 105.76641124 0.00031665 115.81147611 -0.00088018 C116.4767087 -0.00095657 117.14194129 -0.00103295 117.82733244 -0.00111165 C120.5274446 -0.00142297 123.22755675 -0.00174137 125.9276689 -0.00207142 C151.278404 -0.00513329 176.62913555 -0.0023524 201.9798701 0.00302548 C224.52309573 0.0077714 247.06631571 0.00734679 269.6095413 0.00256449 C294.91267424 -0.0027853 320.21580404 -0.00491618 345.51893747 -0.00182325 C348.21424901 -0.00150251 350.90956056 -0.00118967 353.60487211 -0.00088018 C354.26857041 -0.0008011 354.93226872 -0.00072203 355.6160791 -0.00064055 C365.65704237 0.00049892 375.69800339 -0.00083708 385.73896635 -0.00335974 C397.15120869 -0.00615691 408.56344416 -0.00542124 419.97568572 -0.00007899 C425.80453738 0.00255915 431.63337754 0.00356119 437.46222913 0.00027186 C442.78900034 -0.00268881 448.1157493 -0.00110217 453.44251847 0.00424941 C455.37856334 0.00537459 457.31461005 0.00478022 459.25065374 0.00237362 C461.86432386 -0.00062826 464.47791581 0.00241192 467.0915817 0.00709444 C467.85875465 0.00475328 468.6259276 0.00241211 469.41634822 0 C474.59402377 0.01878524 474.59402377 0.01878524 475.70817411 1.13293558 C475.80845768 4.25304259 475.84254826 7.35109488 475.83515775 10.4716807 C475.83671774 11.46413278 475.83827773 12.45658487 475.839885 13.47911125 C475.84389964 16.83183307 475.84070356 20.18451025 475.83756864 23.53723246 C475.83892248 25.92981594 475.84070231 28.32239922 475.8428787 30.71498209 C475.84697905 36.55525461 475.84635975 42.39551537 475.84346606 48.23578757 C475.84121218 52.98022678 475.84089943 57.72466238 475.84198987 62.46910197 C475.84214311 63.14309053 475.84229634 63.8170791 475.84245422 64.51149157 C475.84277393 65.8804753 475.84309814 67.24945904 475.84342681 68.61844277 C475.84628172 81.47026982 475.84299441 94.32208975 475.83762644 107.17391562 C475.83315839 118.21315631 475.83393432 129.25238649 475.8385452 140.29162699 C475.84389077 153.09592286 475.84600703 165.90021249 475.84293294 178.70450932 C475.84261437 180.06859594 475.8423 181.43268257 475.84198987 182.7967692 C475.8418356 183.4680123 475.84168132 184.13925539 475.84152237 184.83083919 C475.84065716 189.57228149 475.84212018 194.31371984 475.84446943 199.05516154 C475.84755887 205.4309702 475.84537487 211.80676363 475.83957517 218.18257052 C475.83824687 220.53003442 475.83864287 222.87749999 475.84083784 225.22496325 C475.84354659 228.41472875 475.84017159 231.60442918 475.83515775 234.79419047 C475.83738847 235.73609594 475.8396192 236.67800142 475.84191751 237.64844948 C475.82232391 244.01878578 475.82232391 244.01878578 474.70817411 245.13293558 C473.18984709 245.23209625 471.66690945 245.26140208 470.14534891 245.26322085 C469.15305691 245.26684519 468.16076492 245.27046954 467.13840348 245.27420372 C466.03512453 245.27313547 464.93184559 245.27206721 463.79513395 245.27096659 C462.63328936 245.27378787 461.47144478 245.27660915 460.27439278 245.27951592 C457.03491793 245.28643799 453.79547369 245.2888899 450.5559926 245.28956705 C447.06782359 245.29140154 443.57966711 245.29900542 440.09150541 245.30604655 C434.04229422 245.31758957 427.99308583 245.32582478 421.94386709 245.33216578 C412.3862648 245.34247428 402.82869749 245.36303329 393.27111661 245.38528544 C390.0038352 245.39276574 386.73655363 245.40017939 383.46927202 245.40757281 C382.24436385 245.41034866 382.24436385 245.41034866 380.99471005 245.41318058 C371.69225161 245.4341216 362.38978929 245.45294313 353.0873245 245.47082621 C352.23661403 245.47246439 351.38590357 245.47410257 350.50941399 245.4757904 C336.72231788 245.50207718 322.93521907 245.52071863 309.1481085 245.53741811 C295.00479072 245.5548262 280.86152566 245.58365846 266.71824998 245.62230748 C257.98824384 245.6457353 249.25832366 245.65970454 240.52828584 245.66163512 C234.54690789 245.66374118 228.56561549 245.67664256 222.58427592 245.69811444 C219.13064405 245.71016725 215.67718201 245.71727913 212.22353017 245.711402 C208.48288725 245.70753088 204.7427511 245.721886 201.0021652 245.74093729 C199.35728503 245.73264275 199.35728503 245.73264275 197.67917496 245.72418064 C196.67905973 245.73302048 195.67894449 245.74186032 194.64852273 245.75096804 C193.78482134 245.75232457 192.92111994 245.7536811 192.03124577 245.75507873 C189.13620789 246.22596817 187.79128124 247.08261359 185.70817411 249.13293558 C185.37817411 250.45293558 185.04817411 251.77293558 184.70817411 253.13293558 C177.77817411 253.13293558 170.84817411 253.13293558 163.70817411 253.13293558 C162.71817411 250.65793558 162.71817411 250.65793558 161.70817411 248.13293558 C158.09091765 245.72143128 156.4336843 245.87630895 152.12806547 245.86119181 C151.45650517 245.85610497 150.78494488 245.85101814 150.09303427 245.84577715 C147.83822483 245.83109004 145.58363353 245.83058229 143.32877958 245.82995707 C141.71421225 245.82229772 140.09964893 245.8137517 138.48509061 245.80438334 C135.00652854 245.78609173 131.52802038 245.77406155 128.04941785 245.76684481 C122.55443546 245.75537782 117.05957269 245.72993129 111.56464994 245.70253092 C102.87842381 245.6608641 94.192192 245.62845513 85.50591326 245.60005677 C69.93778286 245.54908039 54.36970185 245.48706092 38.80165625 245.41471636 C33.33344598 245.38973364 27.86525166 245.37032963 22.3970052 245.35533422 C19.00340167 245.34516355 15.60982292 245.33101813 12.21623838 245.31585795 C10.63635562 245.30967835 9.05646504 245.30523262 7.47657239 245.30259997 C5.32910701 245.29881558 3.18175225 245.28902609 1.03431547 245.27769572 C-0.17025868 245.2738408 -1.37483283 245.26998589 -2.61590922 245.26601416 C-5.29182589 245.13293558 -5.29182589 245.13293558 -6.29182589 244.13293558 C-6.39210946 241.01282857 -6.42620004 237.91477628 -6.41880953 234.79419047 C-6.42036952 233.80173838 -6.42192951 232.8092863 -6.42353678 231.78675991 C-6.42755142 228.4340381 -6.42435534 225.08136092 -6.42122042 221.72863871 C-6.42257426 219.33605523 -6.42435409 216.94347195 -6.42653048 214.55088907 C-6.43063083 208.71061656 -6.43001153 202.87035579 -6.42711784 197.0300836 C-6.42486396 192.28564439 -6.42455122 187.54120879 -6.42564166 182.7967692 C-6.42579489 182.12278063 -6.42594812 181.44879206 -6.426106 180.7543796 C-6.42642571 179.38539586 -6.42674992 178.01641213 -6.42707859 176.64742839 C-6.4299335 163.79560135 -6.42664619 150.94378142 -6.42127822 138.09195554 C-6.41681017 127.05271485 -6.4175861 116.01348468 -6.42219698 104.97424418 C-6.42754255 92.16994831 -6.42965881 79.36565868 -6.42658472 66.56136185 C-6.42626615 65.19727522 -6.42595178 63.83318859 -6.42564166 62.46910197 C-6.42548738 61.79785887 -6.4253331 61.12661578 -6.42517415 60.43503198 C-6.42430895 55.69358968 -6.42577196 50.95215132 -6.42812121 46.21070963 C-6.43121065 39.83490097 -6.42902665 33.45910754 -6.42322695 27.08330065 C-6.42189865 24.73583674 -6.42229465 22.38837117 -6.42448962 20.04090792 C-6.42719837 16.85114242 -6.42382337 13.66144199 -6.41880953 10.4716807 C-6.42104025 9.52977523 -6.42327098 8.58786975 -6.4255693 7.61742169 C-6.40221141 0.02322801 -6.40221141 0.02322801 0 0 Z M23.70817411 30.13293558 C23.70817411 91.18293558 23.70817411 152.23293558 23.70817411 215.13293558 C162.96817411 215.13293558 302.22817411 215.13293558 445.70817411 215.13293558 C446.03817411 175.20293558 446.36817411 135.27293558 446.70817411 94.13293558 C449.70817411 91.13293558 449.70817411 91.13293558 453.70817411 90.13293558 C453.70817411 83.53293558 453.70817411 76.93293558 453.70817411 70.13293558 C451.72817411 69.14293558 449.74817411 68.15293558 447.70817411 67.13293558 C442.18448774 56.08556284 446.06092554 42.47923551 445.70817411 30.13293558 C306.44817411 30.13293558 167.18817411 30.13293558 23.70817411 30.13293558 Z " fill="#DF7D84" transform="translate(21.291825890541077,236.86706441640854)"/>
<path d="M0 0 C0.73894872 -0.00350607 1.47789745 -0.00701215 2.23923856 -0.01062447 C4.72899464 -0.0199691 7.21851838 -0.01500731 9.70828438 -0.01015663 C11.50587535 -0.01389135 13.3034647 -0.01849215 15.10105145 -0.02388728 C20.05153508 -0.03615472 25.00195132 -0.03585242 29.9524467 -0.03349853 C35.28724831 -0.03309131 40.62202805 -0.0441204 45.95681953 -0.05361366 C56.41252813 -0.07024491 66.86821418 -0.07572416 77.3239349 -0.07683842 C85.82016913 -0.07778784 94.31639591 -0.08189284 102.81262779 -0.08823967 C126.88576739 -0.10585751 150.95888913 -0.11507764 175.03203522 -0.11357872 C176.97977339 -0.11345885 176.97977339 -0.11345885 178.96685982 -0.11333656 C180.26693199 -0.1132548 181.56700416 -0.11317304 182.90647246 -0.1130888 C203.98307171 -0.11227564 225.05959954 -0.13141944 246.13617812 -0.1596133 C267.76251615 -0.18831497 289.38881932 -0.2021551 311.01517689 -0.20042574 C323.16276637 -0.19976092 335.31028096 -0.20529345 347.45785332 -0.22678185 C357.79942497 -0.24495788 368.1408878 -0.24937044 378.48246847 -0.235763 C383.76116036 -0.22921538 389.03964326 -0.22918071 394.31831551 -0.2464695 C399.14820216 -0.26212606 403.97771283 -0.25941286 408.8075899 -0.24190123 C410.55723069 -0.23881493 412.30689902 -0.24252464 414.05650733 -0.25362138 C416.43116567 -0.26768798 418.80449521 -0.2572004 421.17910767 -0.24050903 C422.20299138 -0.25541357 422.20299138 -0.25541357 423.24755961 -0.27061921 C428.15329734 -0.19749344 430.94043116 1.19007031 434.71539497 4.25726891 C436.75108256 7.31080028 436.96818686 7.93610587 436.99005318 11.37396812 C436.99958519 12.19847466 437.0091172 13.02298119 437.01893806 13.87247276 C437.01757095 15.20376717 437.01757095 15.20376717 437.01617622 16.56195641 C437.02046135 17.47808708 437.02474648 18.39421776 437.02916145 19.33810997 C437.03490496 21.27648657 437.03540486 23.21488474 437.0310688 25.153265 C437.02791434 28.11409036 437.05134847 31.07391126 437.0767231 34.03461266 C437.07899669 35.91872598 437.07969931 37.80284199 437.07867622 39.68695641 C437.08788597 40.57043755 437.09709572 41.45391869 437.10658455 42.36417198 C437.07094743 47.11753544 436.88705455 50.4381162 433.71539497 54.25726891 C431.55914497 54.88617516 431.55914497 54.88617516 429.21539497 54.81976891 C428.44195747 54.82105797 427.66851997 54.82234703 426.87164497 54.82367516 C424.71539497 54.25726891 424.71539497 54.25726891 421.71539497 50.25726891 C421.71539497 38.70726891 421.71539497 27.15726891 421.71539497 15.25726891 C282.45539497 15.25726891 143.19539497 15.25726891 -0.28460503 15.25726891 C-0.28460503 76.30726891 -0.28460503 137.35726891 -0.28460503 200.25726891 C138.97539497 200.25726891 278.23539497 200.25726891 421.71539497 200.25726891 C421.71539497 160.32726891 421.71539497 120.39726891 421.71539497 79.25726891 C425.71539497 75.25726891 425.71539497 75.25726891 428.65289497 74.75726891 C432.71337673 75.4202047 434.00350025 76.10802527 436.71539497 79.25726891 C437.48483868 83.28223039 437.37683236 87.2796621 437.33062935 91.36615562 C437.33617836 92.60555901 437.34172737 93.84496239 437.34744453 95.12192345 C437.35723423 98.519236 437.34463285 101.9150281 437.32115936 105.31217909 C437.30104117 108.87013593 437.30693057 112.42805945 437.30926704 115.98605919 C437.30921347 121.96315406 437.28945793 127.93993287 437.25738716 133.91693687 C437.2205277 140.81979905 437.21170691 147.72224669 437.21868467 154.62519443 C437.22499919 161.27167393 437.21421573 167.91801176 437.19471931 174.56446266 C437.18656048 177.3896862 437.18383298 180.21483717 437.18541145 183.04007149 C437.18645692 186.99006525 437.16223268 190.93968638 437.13531685 194.88959312 C437.13824745 196.05863182 437.14117805 197.22767052 437.14419746 198.43213463 C437.03778104 208.55340351 437.03778104 208.55340351 433.71539497 213.25726891 C430.13978788 215.64100697 427.61482436 215.53998688 423.48857498 215.51733112 C422.74372701 215.52113679 421.99887904 215.52494247 421.23145992 215.52886346 C418.71562922 215.53923533 416.20002182 215.53526284 413.68417549 215.53142357 C411.87023537 215.53587294 410.0562972 215.54118598 408.2423619 215.54729229 C403.24208567 215.56151876 398.24187144 215.56313471 393.24157786 215.56269538 C387.8549684 215.56433949 382.4683848 215.57739831 377.08178902 215.58888817 C365.2968832 215.61176806 353.51199535 215.61966185 341.72707033 215.62471461 C334.37316843 215.62796787 327.01927178 215.63448805 319.66537285 215.641716 C299.31739469 215.66128508 278.96942143 215.67768774 258.62143326 215.68059254 C257.31854748 215.68078011 256.0156617 215.68096768 254.67329454 215.68116093 C252.03186091 215.68152719 249.39042728 215.68189089 246.74899365 215.68225204 C245.43772542 215.68243485 244.1264572 215.68261766 242.77545357 215.68280602 C240.8061599 215.68307684 240.8061599 215.68307684 238.79708253 215.68335313 C217.51279747 215.68689655 196.22862398 215.71392803 174.94437291 215.7513039 C153.10901874 215.78934176 131.27371477 215.80874968 109.43832672 215.80905205 C97.17168582 215.80963761 84.90516549 215.81819288 72.63855553 215.84704971 C62.1955405 215.87150307 51.75269002 215.87888743 41.30965413 215.86380219 C35.97839193 215.85660872 30.64745506 215.85759532 25.31622887 215.88021278 C20.43941099 215.90070485 15.56317057 215.89829444 10.68635963 215.87733794 C8.91853466 215.87382425 7.15066885 215.87883189 5.38289751 215.89304238 C2.98585612 215.91107529 0.59087422 215.89850904 -1.80610275 215.87809467 C-2.49802214 215.89065805 -3.18994152 215.90322142 -3.90282816 215.9161655 C-7.6841932 215.84687522 -9.21067863 215.31710672 -12.18951142 212.9059673 C-15.63943523 208.54444015 -15.4330567 204.65858007 -15.43177605 199.33737755 C-15.43545273 198.52163163 -15.43912942 197.70588571 -15.44291753 196.86542022 C-15.45396124 194.12249497 -15.45779934 191.3796076 -15.46160698 188.63666344 C-15.46787099 186.673914 -15.47451773 184.71116575 -15.4815197 182.74841881 C-15.49893228 177.40959215 -15.50948165 172.07077445 -15.51772523 166.73192644 C-15.52287365 163.39825885 -15.52894938 160.06459405 -15.53523636 156.73092842 C-15.55428708 146.30583078 -15.56851984 135.88074022 -15.57684833 125.45562851 C-15.58662865 113.41143776 -15.61296948 101.3674304 -15.65334922 89.3233043 C-15.68347391 80.01963172 -15.69831364 70.71601183 -15.70162934 61.41229141 C-15.70398351 55.85258088 -15.71299191 50.2930663 -15.73809052 44.73340797 C-15.76131317 39.50491472 -15.76562788 34.27674726 -15.75532913 29.04821587 C-15.75483229 27.12813422 -15.76119635 25.20803684 -15.77488518 23.28800392 C-15.7925167 20.66865159 -15.78554154 18.05047967 -15.77235222 15.43112755 C-15.78332146 14.66954846 -15.79429071 13.90796936 -15.80559236 13.12331212 C-15.76211171 9.55206649 -15.39469976 7.435714 -13.50412083 4.37140274 C-9.17806688 0.25074858 -5.9404754 0.00634181 0 0 Z " fill="#040303" transform="translate(45.28460502624512,251.74273109436035)"/>
<path d="M0 0 C0.76172012 -0.01253311 1.52344025 -0.02506622 2.3082428 -0.03797913 C3.52549294 -0.01809181 3.52549294 -0.01809181 4.76733398 0.00219727 C5.61964096 -0.00021469 6.47194794 -0.00262665 7.3500824 -0.00511169 C9.15303193 -0.00413398 10.95601175 0.00924167 12.75878906 0.03417969 C15.48081073 0.06819591 18.19952736 0.05490925 20.92163086 0.03540039 C33.94239907 0.04600411 46.12261145 1.13333599 55.95092773 10.63110352 C61.98060773 17.0113463 65.96985837 25.21692723 66.45092773 34.06860352 C65.9915639 42.89155712 62.47982418 50.87356342 56.95092773 57.63110352 C58.03760742 58.53989258 58.03760742 58.53989258 59.14624023 59.46704102 C68.06372666 67.19552925 75.13978616 75.22693094 76.20092773 87.52954102 C76.62622721 98.72023358 74.12952531 108.07267776 66.79467773 116.66625977 C60.00371271 123.90324156 51.83415834 129.10687845 41.63659668 129.78500366 C40.78706421 129.79786407 39.93753174 129.81072449 39.06225586 129.82397461 C38.0944519 129.84003754 37.12664795 129.85610046 36.1295166 129.87265015 C31.73096584 129.9172191 27.33256139 129.95811895 22.93383789 129.98120117 C20.61179614 129.99780346 18.28980637 130.02514897 15.96801758 130.06323242 C12.6183017 130.11786543 9.26977844 130.1398498 5.91967773 130.15454102 C4.88105591 130.17721039 3.84243408 130.19987976 2.77233887 130.22323608 C1.80453491 130.22038605 0.83673096 130.21753601 -0.16040039 130.21459961 C-1.00993286 130.22268646 -1.85946533 130.23077332 -2.73474121 130.23910522 C-5.04907227 129.63110352 -5.04907227 129.63110352 -7.3212738 127.80789185 C-9.92397106 123.02248519 -9.61474331 118.58596946 -9.58251953 113.21899414 C-9.5911351 112.06562057 -9.59975067 110.91224701 -9.60862732 109.72392273 C-9.6313298 105.91150472 -9.62454036 102.09981915 -9.61547852 98.28735352 C-9.61938926 96.30793159 -9.62331043 94.32850929 -9.62877792 92.34909105 C-9.64576518 86.12807006 -9.64222261 79.90729444 -9.62548828 73.6862793 C-9.60856084 67.27345059 -9.62441176 60.86130227 -9.65671116 54.44854784 C-9.68341873 48.93668607 -9.69068024 43.42503595 -9.68219608 37.91311598 C-9.67727092 34.62364675 -9.68156338 31.33467717 -9.6999836 28.04524231 C-9.71737436 24.37739232 -9.70293004 20.71100367 -9.68017578 17.04321289 C-9.69186798 15.95630661 -9.70356018 14.86940033 -9.71560669 13.7495575 C-9.62304444 6.42785764 -9.62304444 6.42785764 -6.76269531 2.45729065 C-4.17127464 0.71334206 -3.04932919 0.00442143 0 0 Z " fill="#040404" transform="translate(318.049072265625,290.368896484375)"/>
<path d="M0 0 C0.76172012 -0.01253311 1.52344025 -0.02506622 2.3082428 -0.03797913 C3.52549294 -0.01809181 3.52549294 -0.01809181 4.76733398 0.00219727 C5.61964096 -0.00021469 6.47194794 -0.00262665 7.3500824 -0.00511169 C9.15303193 -0.00413398 10.95601175 0.00924167 12.75878906 0.03417969 C15.48081073 0.06819591 18.19952736 0.05490925 20.92163086 0.03540039 C33.51009008 0.04529147 44.87179227 1.06692966 54.90795898 9.49438477 C63.02454827 17.98343704 65.42526552 26.09314024 65.23608398 37.46704102 C64.87474361 45.45284488 61.72320371 52.32488169 56.95092773 58.63110352 C57.45881836 58.97141602 57.96670898 59.31172852 58.48999023 59.66235352 C67.47568237 65.98935772 73.76855375 74.69844907 75.95092773 85.63110352 C76.92488021 97.35599293 73.98002793 107.19021274 66.95092773 116.63110352 C60.25488125 123.88168801 51.41783756 129.00219705 41.45899963 129.84098816 C38.53435798 129.94410455 35.61564028 129.98685859 32.68920898 130.00219727 C31.62099411 130.01122574 30.55277924 130.02025421 29.45219421 130.02955627 C27.20399766 130.04401106 24.9557595 130.05293358 22.70751953 130.05664062 C19.26385717 130.06860202 15.82195038 130.11789036 12.37866211 130.16821289 C10.19051979 130.17767055 8.00236651 130.18490872 5.81420898 130.18969727 C4.78499832 130.20922958 3.75578766 130.2287619 2.69538879 130.24888611 C1.73726791 130.24280838 0.77914703 130.23673065 -0.20800781 130.23046875 C-1.04849167 130.2355394 -1.88897552 130.24061005 -2.75492859 130.24583435 C-5.04907227 129.63110352 -5.04907227 129.63110352 -7.31829834 127.80690002 C-9.92566172 123.02264982 -9.61474876 118.58687618 -9.58251953 113.21899414 C-9.5911351 112.06562057 -9.59975067 110.91224701 -9.60862732 109.72392273 C-9.6313298 105.91150472 -9.62454036 102.09981915 -9.61547852 98.28735352 C-9.61938926 96.30793159 -9.62331043 94.32850929 -9.62877792 92.34909105 C-9.64576518 86.12807006 -9.64222261 79.90729444 -9.62548828 73.6862793 C-9.60856084 67.27345059 -9.62441176 60.86130227 -9.65671116 54.44854784 C-9.68341873 48.93668607 -9.69068024 43.42503595 -9.68219608 37.91311598 C-9.67727092 34.62364675 -9.68156338 31.33467717 -9.6999836 28.04524231 C-9.71737436 24.37739232 -9.70293004 20.71100367 -9.68017578 17.04321289 C-9.69186798 15.95630661 -9.70356018 14.86940033 -9.71560669 13.7495575 C-9.62304444 6.42785764 -9.62304444 6.42785764 -6.76269531 2.45729065 C-4.17127464 0.71334206 -3.04932919 0.00442143 0 0 Z " fill="#030303" transform="translate(127.049072265625,290.368896484375)"/>
<path d="M0 0 C139.26 0 278.52 0 422 0 C422 0.33 422 0.66 422 1 C287.03 1 152.06 1 13 1 C13.33 57.43 13.66 113.86 14 172 C148.64 172.33 283.28 172.66 422 173 C422 176.96 422 180.92 422 185 C282.74 185 143.48 185 0 185 C0 123.95 0 62.9 0 0 Z " fill="#E1F1F8" transform="translate(45,267)"/>
<path d="M0 0 C0.79520554 0.00091644 1.59041107 0.00183289 2.40971375 0.0027771 C4.08822615 0.00880304 5.76672831 0.0245189 7.44506836 0.04931641 C9.9930866 0.08567166 12.53964075 0.0903364 15.08789062 0.08984375 C16.72527279 0.09968245 18.36264523 0.11134272 20 0.125 C20.75235428 0.12722565 21.50470856 0.12945129 22.27986145 0.13174438 C33.32373419 0.32637376 44.5364975 4.10712377 52.63671875 11.8359375 C60.66520156 20.70643192 63.41387442 29.39593233 63.06640625 41.3515625 C62.44288332 50.91224735 57.83557107 58.46095883 51.30859375 65.26171875 C44.91495996 70.65036519 36.9216957 74.66464545 28.44921875 74.5234375 C26.59296875 74.4925 26.59296875 74.4925 24.69921875 74.4609375 C28.9621535 79.98198767 33.38286896 85.2932812 38.13671875 90.3984375 C42.44064059 95.02108619 46.48075256 99.7875506 50.41796875 104.73046875 C52.06159294 106.69775181 53.69325938 108.52300877 55.48046875 110.34765625 C56.8571875 111.76498047 56.8571875 111.76498047 58.26171875 113.2109375 C59.10863281 114.05140625 59.95554687 114.891875 60.828125 115.7578125 C63.22612777 119.22215054 63.16523108 121.32993235 62.69921875 125.4609375 C61.13671875 127.8984375 61.13671875 127.8984375 58.69921875 129.4609375 C55.31026484 130.01138577 52.85938741 130.28655197 49.96362305 128.22583008 C48.14302962 126.44249335 46.47860696 124.58695243 44.82421875 122.6484375 C44.21199463 121.96209229 43.59977051 121.27574707 42.96899414 120.56860352 C38.85178462 115.91726952 34.91307796 111.12467539 31.0390625 106.26953125 C27.69195039 102.25187915 24.10318399 98.4765763 20.51342773 94.67626953 C16.30499954 90.19331127 12.44517202 85.54795084 8.69921875 80.66796875 C6.56061024 78.30798084 4.44519962 77.03575527 1.69921875 75.4609375 C1.71032181 76.06371017 1.72142487 76.66648285 1.73286438 77.28752136 C1.84354431 83.56530936 1.91892179 89.84281993 1.97387695 96.12133789 C1.99901 98.46390034 2.03312183 100.80638445 2.07641602 103.14868164 C2.13711803 106.51728649 2.16544126 109.88485399 2.1875 113.25390625 C2.21330643 114.29991501 2.23911285 115.34592377 2.26570129 116.42362976 C2.26849988 123.69058682 2.26849988 123.69058682 -0.63989258 127.6262207 C-3.30078125 129.4609375 -3.30078125 129.4609375 -6.36328125 130.0234375 C-9.98797685 129.32934685 -11.00085724 128.29803358 -13.30078125 125.4609375 C-13.80693913 123.09021759 -13.80693913 123.09021759 -13.81544495 120.41320801 C-13.8281694 119.39537735 -13.84089386 118.37754669 -13.85400391 117.32887268 C-13.84747803 116.2180986 -13.84095215 115.10732452 -13.83422852 113.96289062 C-13.84284409 112.78854965 -13.85145966 111.61420868 -13.8603363 110.40428162 C-13.87914649 107.18720236 -13.87989201 103.970772 -13.87101483 100.75366783 C-13.86590311 98.06717037 -13.87319884 95.38076523 -13.88048691 92.69427729 C-13.89748451 86.35681233 -13.8939212 80.01958817 -13.87719727 73.68212891 C-13.86026925 67.14490581 -13.87611924 60.60835012 -13.90842015 54.07119989 C-13.93511106 48.45661558 -13.94239371 42.8422391 -13.93390507 37.22759771 C-13.92897503 33.87501555 -13.93119488 30.52283511 -13.95169258 27.17030334 C-13.96906086 23.43269818 -13.95465778 19.69653096 -13.93188477 15.95898438 C-13.94357697 14.8482103 -13.95526917 13.73743622 -13.96731567 12.59300232 C-13.87455438 5.13167961 -13.87455438 5.13167961 -11.00115967 1.77267456 C-7.33033864 -0.01046515 -3.99370339 -0.07567458 0 0 Z " fill="#030404" transform="translate(231.30078125,290.5390625)"/>
<path d="M0 0 C1.1511882 0.00394052 1.1511882 0.00394052 2.32563272 0.00796065 C3.13720593 0.0068068 3.94877915 0.00565296 4.78494549 0.00446415 C7.53970286 0.00179002 10.29440329 0.00632614 13.04915777 0.01075396 C15.02992514 0.01031842 17.01069245 0.00944383 18.99145946 0.00816479 C24.46196282 0.00591644 29.9324468 0.00994574 35.40294769 0.01494285 C41.29187402 0.01924232 47.18079916 0.01780129 53.06972662 0.01704058 C63.94832839 0.01648072 74.82692306 0.02038019 85.70552304 0.02638146 C95.75317809 0.03187731 105.80083103 0.03511075 115.84848753 0.03613123 C116.51386524 0.03619997 117.17924296 0.03626871 117.86478363 0.03633953 C121.24369623 0.03667785 124.62260883 0.03697924 128.00152143 0.03726641 C151.9542865 0.03936861 175.90704825 0.04611095 199.85981146 0.05556902 C223.13422534 0.06474865 246.40863831 0.07183462 269.68305364 0.07607684 C270.40006895 0.07620836 271.11708427 0.07633989 271.85582731 0.0764754 C279.05617965 0.07779388 286.25653199 0.0790697 293.45688434 0.08031426 C308.12573424 0.08285069 322.79458408 0.08567194 337.46343389 0.08866534 C338.13793128 0.08880263 338.81242868 0.08893992 339.50736539 0.08908137 C384.57366066 0.098287 429.63995401 0.11415353 474.706247 0.13100848 C474.706247 0.46100848 474.706247 0.79100848 474.706247 1.13100848 C318.616247 1.13100848 162.526247 1.13100848 1.706247 1.13100848 C-22.94527932 130.65482903 -22.94527932 130.65482903 7.706247 237.13100848 C10.54951646 237.6235451 12.79301091 237.80621552 15.63041559 237.76186499 C16.42634369 237.76932259 17.2222718 237.77678018 18.04231894 237.78446376 C20.72021864 237.80343506 23.39670999 237.78669614 26.07460943 237.77024493 C28.0093394 237.77655395 29.94406326 237.78505518 31.87877497 237.79556516 C37.2035542 237.81812282 42.52790136 237.8094864 47.8526943 237.79587957 C53.59162156 237.7866364 59.33045826 237.80614694 65.06936041 237.8222011 C75.01513648 237.84607147 84.96078861 237.85164219 94.90658918 237.84485468 C109.28659659 237.8350674 123.66646625 237.85276835 138.04645138 237.87722199 C161.3758427 237.91614593 184.70519458 237.93281937 208.03461614 237.93545184 C230.69967563 237.93806226 253.36468951 237.95114703 276.02973333 237.97842059 C276.72829387 237.97925701 277.4268544 237.98009344 278.14658344 237.98095521 C285.16177675 237.98936646 292.17696978 237.99799074 299.19216264 238.00677111 C358.03017922 238.0803941 416.86818621 238.11806854 475.706247 238.13100848 C475.74879056 240.13055594 475.74705483 242.13142484 475.706247 244.13100848 C474.09642269 245.74083278 472.37164982 245.25863028 470.1434218 245.26129374 C469.15112981 245.26491809 468.15883781 245.26854243 467.13647637 245.27227661 C466.03319742 245.27120836 464.92991848 245.27014011 463.79320684 245.26903948 C462.63136226 245.27186076 461.46951767 245.27468204 460.27246568 245.27758881 C457.03299082 245.28451088 453.79354658 245.2869628 450.5540655 245.28763995 C447.06589649 245.28947443 443.57774 245.29707832 440.0895783 245.30411944 C434.04036711 245.31566246 427.99115872 245.32389768 421.94193998 245.33023867 C412.38433769 245.34054718 402.82677039 245.36110618 393.26918951 245.38335833 C390.00190809 245.39083863 386.73462652 245.39825228 383.46734491 245.4056457 C382.24243674 245.40842155 382.24243674 245.40842155 380.99278295 245.41125347 C371.6903245 245.43219449 362.38786218 245.45101602 353.08539739 245.4688991 C352.23468693 245.47053728 351.38397646 245.47217546 350.50748689 245.47386329 C336.72039077 245.50015008 322.93329197 245.51879152 309.1461814 245.535491 C295.00286361 245.55289909 280.85959855 245.58173136 266.71632287 245.62038037 C257.98631673 245.64380819 249.25639655 245.65777744 240.52635873 245.65970801 C234.54498079 245.66181408 228.56368838 245.67471545 222.58234882 245.69618733 C219.12871694 245.70824014 215.6752549 245.71535202 212.22160307 245.70947489 C208.48096014 245.70560378 204.74082399 245.7199589 201.00023809 245.73901019 C199.35535792 245.73071564 199.35535792 245.73071564 197.67724785 245.72225353 C196.67713262 245.73109337 195.67701738 245.73993322 194.64659563 245.74904093 C193.78289423 245.75039746 192.91919283 245.75175399 192.02931866 245.75315163 C189.13428078 246.22404106 187.78935414 247.08068648 185.706247 249.13100848 C185.376247 250.45100848 185.046247 251.77100848 184.706247 253.13100848 C177.776247 253.13100848 170.846247 253.13100848 163.706247 253.13100848 C162.716247 250.65600848 162.716247 250.65600848 161.706247 248.13100848 C158.08899054 245.71950417 156.43175719 245.87438184 152.12613836 245.8592647 C151.45457806 245.85417787 150.78301777 245.84909103 150.09110716 245.84385005 C147.83629772 245.82916294 145.58170642 245.82865519 143.32685247 245.82802996 C141.71228515 245.82037061 140.09772182 245.81182459 138.48316351 245.80245623 C135.00460144 245.78416463 131.52609327 245.77213444 128.04749075 245.7649177 C122.55250836 245.75345071 117.05764558 245.72800418 111.56272283 245.70060381 C102.87649671 245.658937 94.19026489 245.62652803 85.50398615 245.59812966 C69.93585575 245.54715328 54.36777474 245.48513381 38.79972914 245.41278926 C33.33151887 245.38780653 27.86332455 245.36840252 22.39507809 245.35340711 C19.00147457 245.34323644 15.60789581 245.32909103 12.21431127 245.31393084 C10.63442851 245.30775124 9.05453794 245.30330551 7.47464529 245.30067286 C5.32717991 245.29688847 3.17982514 245.28709898 1.03238836 245.27576861 C-0.17218579 245.27191369 -1.37675993 245.26805878 -2.61783633 245.26408705 C-5.293753 245.13100848 -5.293753 245.13100848 -6.293753 244.13100848 C-6.39403657 241.01090147 -6.42812715 237.91284918 -6.42073664 234.79226336 C-6.42229663 233.79981128 -6.42385662 232.80735919 -6.42546389 231.78483281 C-6.42947853 228.43211099 -6.42628245 225.07943381 -6.42314753 221.7267116 C-6.42450136 219.33412812 -6.4262812 216.94154484 -6.42845759 214.54896197 C-6.43255793 208.70868945 -6.43193864 202.86842869 -6.42904495 197.02815649 C-6.42679107 192.28371728 -6.42647832 187.53928168 -6.42756876 182.79484209 C-6.427722 182.12085353 -6.42787523 181.44686496 -6.42803311 180.75245249 C-6.42835282 179.38346876 -6.42867703 178.01448502 -6.4290057 176.64550129 C-6.43186061 163.79367424 -6.42857329 150.94185431 -6.42320533 138.09002843 C-6.41873728 127.05078775 -6.41951321 116.01155757 -6.42412409 104.97231707 C-6.42946966 92.1680212 -6.43158592 79.36373157 -6.42851183 66.55943474 C-6.42819326 65.19534811 -6.42787889 63.83126149 -6.42756876 62.46717486 C-6.42741449 61.79593176 -6.42726021 61.12468867 -6.42710126 60.43310487 C-6.42623605 55.69166257 -6.42769906 50.95022422 -6.43004832 46.20878252 C-6.43313776 39.83297386 -6.43095376 33.45718043 -6.42515406 27.08137354 C-6.42382576 24.73390964 -6.42422176 22.38644407 -6.42641672 20.03898081 C-6.42912548 16.84921531 -6.42575048 13.65951488 -6.42073664 10.46975359 C-6.42296736 9.52784812 -6.42519808 8.58594264 -6.4274964 7.61549458 C-6.40413713 0.02084925 -6.40413713 0.02084925 0 0 Z " fill="#D7626B" transform="translate(21.293752998113632,236.8689915239811)"/>
<path d="M0 0 C9.66180921 5.56150437 16.50795638 13.75720079 19.53125 24.45703125 C20.65216517 35.34033548 19.02002421 44.66855895 12.84375 53.76953125 C7.89143501 59.85701165 0.29226543 64.99291331 -7.46875 66.45703125 C-18.49182741 67.56157038 -27.04103719 66.93278808 -36.46875 60.45703125 C-39.34375 58.08203125 -39.34375 58.08203125 -41.46875 55.45703125 C-41.96890625 54.87179688 -42.4690625 54.2865625 -42.984375 53.68359375 C-50.24415949 44.76745066 -51.58334904 35.82334937 -50.46875 24.45703125 C-48.51182125 15.20728137 -42.35568946 7.93862251 -34.765625 2.53125 C-24.29675779 -3.88169643 -11.46342395 -4.88576653 0 0 Z " fill="#E07E85" transform="translate(271.46875,32.54296875)"/>
<path d="M0 0 C3.23386286 1.61693143 4.89609296 2.62949121 7.390625 5.01171875 C8.01839844 5.60533203 8.64617187 6.19894531 9.29296875 6.81054688 C10.26169922 7.73963867 10.26169922 7.73963867 11.25 8.6875 C15.75254226 12.97366241 20.30482875 17.16393429 25 21.23852539 C28.36685842 24.2038432 31.61622012 27.29200327 34.875 30.375 C40.03596428 35.23619178 45.23046221 40.04746458 50.51953125 44.76953125 C54.05813295 47.95148648 57.54808882 51.18512054 61.04150391 54.41650391 C64.7072891 57.80716714 68.3803261 61.18964079 72.0625 64.5625 C72.55419678 65.01294678 73.04589355 65.46339355 73.55249023 65.92749023 C75.03482316 67.28517963 76.51736995 68.64263507 78 70 C79.97944081 71.81220092 81.95864599 73.62465832 83.9375 75.4375 C84.42855225 75.88730225 84.91960449 76.33710449 85.42553711 76.80053711 C88.61085502 79.72045506 91.78706192 82.65003251 94.95922852 85.58422852 C99.28257748 89.58315206 103.61469804 93.56883934 108 97.5 C111.82204506 100.92623457 115.60634152 104.39034993 119.375 107.875 C119.9210791 108.3798291 120.4671582 108.8846582 121.02978516 109.40478516 C122.13577278 110.42737577 123.24172976 111.44999952 124.34765625 112.47265625 C133.17725135 120.68527864 133.17725135 120.68527864 142.25 128.625 C143.1575 129.40875 144.065 130.1925 145 131 C145 131.33 145 131.66 145 132 C141.50088305 132.20537903 138.00333334 132.32829941 134.5 132.4375 C133.51773438 132.49615234 132.53546875 132.55480469 131.5234375 132.61523438 C126.20314855 132.73937445 122.84273058 132.46682263 118.7421875 128.90234375 C117.47620123 127.61964854 116.22842482 126.31871176 115 125 C113.77097071 123.84822859 112.53407642 122.70478627 111.2890625 121.5703125 C110.06674962 120.42289544 108.8454118 119.27443887 107.625 118.125 C102.63622948 113.44687197 97.60999725 108.82067523 92.51171875 104.26171875 C87.8582295 100.07140728 83.27312358 95.80653832 78.67773438 91.55273438 C75.9328251 89.01233522 73.18540353 86.47465958 70.4375 83.9375 C69.89963867 83.44088867 69.36177734 82.94427734 68.80761719 82.43261719 C64.69840512 78.64045102 60.58258367 74.85555096 56.45556641 71.08276367 C53.92639 68.77026646 51.40547633 66.44977857 48.8984375 64.11328125 C39.46662554 54.12689914 39.46662554 54.12689914 27.6875 48.5 C25.09129817 48.91622902 25.09129817 48.91622902 23.03637695 49.66943359 C21 50 21 50 17.73046875 47.7890625 C16.53035076 46.75619322 15.34992793 45.70011089 14.1875 44.625 C13.28717041 43.79887207 13.28717041 43.79887207 12.36865234 42.95605469 C8.11516862 38.76699927 8.11516862 38.76699927 7.62109375 35.4765625 C7.95472566 34.00237497 8.33210353 32.53735804 8.75390625 31.0859375 C9.21676302 28.91086284 9.21676302 28.91086284 7.83984375 26.9140625 C4.19309489 22.73031985 0.00748085 19.12786269 -4.30078125 15.640625 C-6 14 -6 14 -8 10 C-5.36 6.7 -2.72 3.4 0 0 Z " fill="#A1A9DF" transform="translate(299,90)"/>
<path d="M0 0 C3.45195767 1.4258086 5.1014256 3.09746334 7.25 6.125 C8.03117187 7.21167969 8.03117187 7.21167969 8.828125 8.3203125 C9.40820312 9.15175781 9.40820312 9.15175781 10 10 C8.60352107 13.19163856 6.98396794 15.21134086 4.4375 17.57421875 C3.72835449 18.23695801 3.01920898 18.89969727 2.28857422 19.58251953 C1.53334473 20.27716309 0.77811523 20.97180664 0 21.6875 C-0.77456543 22.4079248 -1.54913086 23.12834961 -2.34716797 23.87060547 C-6.99376702 28.18259492 -11.68060355 32.44756835 -16.4140625 36.6640625 C-19.81427801 39.73555627 -23.15603434 42.86751043 -26.5 46 C-31.4473695 50.6332508 -36.43104004 55.21649275 -41.484375 59.734375 C-45.03268798 62.9300606 -48.53577726 66.17375265 -52.04125977 69.41625977 C-57.18490577 74.173925 -62.3484194 78.90959798 -67.51611328 83.64111328 C-70.01164407 85.92642496 -72.50574527 88.2132958 -75 90.5 C-75.99999325 91.41667404 -76.99999324 92.3333407 -78 93.25 C-78.495 93.70375 -78.99 94.1575 -79.5 94.625 C-84 98.75 -84 98.75 -85.49975586 100.12475586 C-86.50059668 101.04220685 -87.50141045 101.95968736 -88.50219727 102.87719727 C-90.98911261 105.15710551 -93.47648315 107.43651293 -95.96484375 109.71484375 C-101.35969359 114.65525058 -106.74721883 119.60351419 -112.125 124.5625 C-112.68179443 125.07546631 -113.23858887 125.58843262 -113.81225586 126.11694336 C-115.90630681 128.04953787 -117.98482788 129.98482788 -120 132 C-122.33837891 132.22705078 -122.33837891 132.22705078 -125.2265625 132.1953125 C-126.7734375 132.18564453 -126.7734375 132.18564453 -128.3515625 132.17578125 C-129.97191406 132.15064453 -129.97191406 132.15064453 -131.625 132.125 C-132.71296875 132.11597656 -133.8009375 132.10695312 -134.921875 132.09765625 C-137.61480152 132.07403409 -140.30729255 132.04109556 -143 132 C-142.26523438 131.26652344 -141.53046875 130.53304687 -140.7734375 129.77734375 C-139.10663027 128.1081889 -137.44383574 126.43499214 -135.7890625 124.75390625 C-132.29671679 121.21743342 -128.80845735 117.75972346 -125 114.5625 C-122.01070034 112.34610067 -122.01070034 112.34610067 -121 110 C-120.85624578 106.62177584 -120.92463652 104.22609045 -122 101 C-110.93017728 89.18409205 -110.93017728 89.18409205 -106.296875 88.7421875 C-104.6851944 89.12171229 -103.07696832 89.51622516 -101.47265625 89.92578125 C-96.77160846 90.06688695 -93.84006452 86.47866107 -90.53125 83.4765625 C-89.6959375 82.65929687 -88.860625 81.84203125 -88 81 C-87.3503125 80.36835938 -86.700625 79.73671875 -86.03125 79.0859375 C-84.89191796 77.95178424 -83.76279679 76.80727374 -82.64453125 75.65234375 C-80.99158397 73.99154399 -79.27748362 72.46377609 -77.5 70.9375 C-73.48638698 67.47614768 -69.61697027 63.87301115 -65.75 60.25 C-59.20718706 54.12112508 -52.61859526 48.04694871 -46 42 C-43.99926337 40.1674698 -41.99963714 38.33372979 -40 36.5 C-39.00002026 35.58331123 -38.00002028 34.66664454 -37 33.75 C-36.505 33.29625 -36.01 32.8425 -35.5 32.375 C-34 31 -32.5 29.625 -31 28.25 C-30.50483887 27.79608887 -30.00967773 27.34217773 -29.49951172 26.87451172 C-28.50119339 25.95941367 -27.50282114 25.04437445 -26.50439453 24.12939453 C-23.9782158 21.81421148 -21.45303168 19.4979599 -18.9296875 17.1796875 C-12.65314103 11.41553255 -6.34678882 5.68683511 0 0 Z " fill="#A1A9DF" transform="translate(211,90)"/>
<path d="M0 0 C9.1265625 -0.1546875 9.1265625 -0.1546875 18.4375 -0.3125 C20.33943115 -0.35802002 22.2413623 -0.40354004 24.20092773 -0.45043945 C33.81819261 -0.58492968 41.13103423 -0.43555363 48.52075195 6.40844727 C53.58607279 11.89382355 55.6602326 18.0346551 55.4140625 25.375 C54.46824661 31.37111586 51.63680443 36.90631879 47.0625 40.9375 C40.80176473 45.15391355 36.51014232 46.4369384 29.1015625 46.29296875 C28.36059326 46.28994751 27.61962402 46.28692627 26.85620117 46.28381348 C24.11232391 46.26822486 21.36864662 46.2263414 18.625 46.1875 C9.405625 46.0946875 9.405625 46.0946875 0 46 C0 30.82 0 15.64 0 0 Z " fill="#F2F9FC" transform="translate(324,359)"/>
<path d="M0 0 C9.1265625 -0.1546875 9.1265625 -0.1546875 18.4375 -0.3125 C20.33943115 -0.35802002 22.2413623 -0.40354004 24.20092773 -0.45043945 C40.59674063 -0.68196568 40.59674063 -0.68196568 47 5 C49.15625 7.16796875 49.15625 7.16796875 50.5 9.1875 C50.9640625 9.86167969 51.428125 10.53585937 51.90625 11.23046875 C55.36761767 16.83046716 54.45485224 23.62547658 54 30 C52.55763277 36.01751935 49.02625196 39.26560993 44.09765625 42.7734375 C38.87468932 45.82746285 34.40014952 46.27446413 28.41796875 46.1953125 C27.69565063 46.19329834 26.97333252 46.19128418 26.22912598 46.18920898 C23.54851875 46.17879886 20.86800254 46.15087645 18.1875 46.125 C12.185625 46.08375 6.18375 46.0425 0 46 C0 30.82 0 15.64 0 0 Z " fill="#F3FAFD" transform="translate(133,359)"/>
<path d="M0 0 C4.269375 -0.0825 8.53875 -0.165 12.9375 -0.25 C14.26515381 -0.28641602 15.59280762 -0.32283203 16.96069336 -0.36035156 C27.27676412 -0.45632221 34.58024729 1.75690807 42 9 C46.00501461 14.66226204 46.64407822 20.20267448 46 27 C43.60745463 34.17763611 40.66454175 38.32781307 33.9375 41.75 C29.07713836 44.05958538 25.42493901 45.12402409 20.01953125 45.09765625 C18.97128174 45.09515869 17.92303223 45.09266113 16.84301758 45.09008789 C15.51294678 45.08098389 14.18287598 45.07187988 12.8125 45.0625 C8.584375 45.041875 4.35625 45.02125 0 45 C0 30.15 0 15.3 0 0 Z " fill="#F1F8FB" transform="translate(233,306)"/>
<path d="M0 0 C7.1775 -0.12375 7.1775 -0.12375 14.5 -0.25 C15.99337891 -0.28641602 17.48675781 -0.32283203 19.02539062 -0.36035156 C27.73955854 -0.43300869 33.18959842 0.13193455 40.09375 5.68359375 C44.24977048 10.86707485 44.7840356 15.36699405 44.45703125 21.9375 C43.63899439 27.41904613 41.61945216 30.423165 37.625 34.3125 C32.57699905 37.55764346 28.00390977 38.24782221 22.0703125 38.1953125 C20.90773926 38.19031738 19.74516602 38.18532227 18.54736328 38.18017578 C17.0879834 38.16196777 15.62860352 38.14375977 14.125 38.125 C9.46375 38.08375 4.8025 38.0425 0 38 C0 25.46 0 12.92 0 0 Z " fill="#EFF6F9" transform="translate(324,306)"/>
<path d="M0 0 C7.115625 -0.185625 7.115625 -0.185625 14.375 -0.375 C16.58775635 -0.45693604 16.58775635 -0.45693604 18.84521484 -0.54052734 C27.3947728 -0.64790194 33.3736609 0.36675785 40 6 C44.13876879 10.57069224 44.62824547 15.21809647 44.38671875 21.28125 C43.61092484 26.73531626 41.48958354 30.51041646 37.625 34.375 C32.54165883 37.52183025 27.9917331 38.24771445 22.0703125 38.1953125 C20.90773926 38.19031738 19.74516602 38.18532227 18.54736328 38.18017578 C17.0879834 38.16196777 15.62860352 38.14375977 14.125 38.125 C9.46375 38.08375 4.8025 38.0425 0 38 C0 25.46 0 12.92 0 0 Z " fill="#F0F7FA" transform="translate(133,306)"/>
<path d="M0 0 C1.9375 0.8125 1.9375 0.8125 4 2 C4.33 2.99 4.66 3.98 5 5 C4.5138623 5.41975098 4.02772461 5.83950195 3.52685547 6.27197266 C-1.37959375 10.53317729 -6.15470113 14.90932066 -10.875 19.375 C-16.03596428 24.23619178 -21.23046221 29.04746458 -26.51953125 33.76953125 C-29.49553322 36.44558972 -32.43696289 39.15740178 -35.375 41.875 C-43.19164754 49.10379155 -51.0108848 56.32911605 -58.9375 63.4375 C-63.90649532 67.8976702 -68.80957356 72.42683514 -73.7109375 76.9609375 C-76.79874907 79.81666458 -79.89750771 82.66023944 -83 85.5 C-87.17599631 89.32328927 -91.34152804 93.15765835 -95.5 97 C-100.66183213 101.76895893 -105.83582283 106.52436525 -111.01953125 111.26953125 C-113.58461499 113.61782349 -116.14409215 115.97213955 -118.70166016 118.32861328 C-120.21336612 119.71636985 -121.73332249 121.0946429 -123.25390625 122.47265625 C-124.94246275 124.02670469 -126.60355392 125.61206967 -128.21484375 127.24609375 C-131.76900242 130.74394891 -133.89346022 132.40573303 -139 132.4375 C-140.33671384 132.32685983 -141.67275437 132.19355665 -143 132 C-141.8951821 130.8951821 -140.78997765 129.79074967 -139.68359375 128.6875 C-138.42071997 127.42169612 -137.16390639 126.14984126 -135.91015625 124.875 C-132.37643418 121.29899408 -128.85233513 117.79655912 -125 114.5625 C-122.01070034 112.34610067 -122.01070034 112.34610067 -121 110 C-120.85624578 106.62177584 -120.92463652 104.22609045 -122 101 C-110.93017728 89.18409205 -110.93017728 89.18409205 -106.296875 88.7421875 C-104.6851944 89.12171229 -103.07696832 89.51622516 -101.47265625 89.92578125 C-96.77160846 90.06688695 -93.84006452 86.47866107 -90.53125 83.4765625 C-89.6959375 82.65929687 -88.860625 81.84203125 -88 81 C-87.3503125 80.36835938 -86.700625 79.73671875 -86.03125 79.0859375 C-84.89191796 77.95178424 -83.76279679 76.80727374 -82.64453125 75.65234375 C-80.99158397 73.99154399 -79.27748362 72.46377609 -77.5 70.9375 C-73.48638698 67.47614768 -69.61697027 63.87301115 -65.75 60.25 C-59.20718706 54.12112508 -52.61859526 48.04694871 -46 42 C-43.99926337 40.1674698 -41.99963714 38.33372979 -40 36.5 C-39.00002026 35.58331123 -38.00002028 34.66664454 -37 33.75 C-36.505 33.29625 -36.01 32.8425 -35.5 32.375 C-34 31 -32.5 29.625 -31 28.25 C-30.50483887 27.79608887 -30.00967773 27.34217773 -29.49951172 26.87451172 C-28.50119339 25.95941367 -27.50282114 25.04437445 -26.50439453 24.12939453 C-23.9782158 21.81421148 -21.45303168 19.4979599 -18.9296875 17.1796875 C-12.65314103 11.41553255 -6.34678882 5.68683511 0 0 Z " fill="#8891D7" transform="translate(211,90)"/>
<path d="M0 0 C0.03738281 0.96679688 0.07476562 1.93359375 0.11328125 2.9296875 C0.85581648 17.63479695 3.73801493 28.36581191 14.75 38.8125 C24.83743012 46.94381249 35.51612039 48.07984606 48 49 C46.09571866 54.71284403 39.57979187 57.15368293 34.5 59.875 C25.53314838 62.83406104 14.70593821 62.37302478 6.25 58.3125 C2.24202619 55.9699649 -1.05722433 53.63519347 -4 50 C-4.50015625 49.41476563 -5.0003125 48.82953125 -5.515625 48.2265625 C-12.77074989 39.31614213 -14.12574483 30.36096506 -13 19 C-11.8860271 13.96960664 -6.21860234 0 0 0 Z " fill="#DC636D" transform="translate(234,38)"/>
<path d="M0 0 C3.81271791 3.17726492 7.45516471 6.399999 10.9375 9.9375 C13.40501603 12.43785369 15.89837903 14.83570125 18.5625 17.125 C22.55775112 20.56295676 26.40448556 24.14681753 30.25 27.75 C36.79278101 33.87889625 43.38102346 39.95347549 50 46 C51.97993913 47.81165745 53.95891562 49.62436315 55.9375 51.4375 C56.43016357 51.88891357 56.92282715 52.34032715 57.43041992 52.80541992 C61.67716613 56.69901784 65.91020885 60.60735025 70.14208984 64.51708984 C75.25440615 69.23861697 80.38347717 73.9416967 85.51611328 78.64111328 C88.51271731 81.38528868 91.50738983 84.1315719 94.50244141 86.87744141 C96.98928875 89.15725366 99.47656796 91.43659058 101.96484375 93.71484375 C106.08054139 97.4840703 110.19567583 101.25372487 114.29296875 105.04296875 C115.11909668 105.80697998 115.11909668 105.80697998 115.96191406 106.58642578 C117.0618324 107.60399556 118.16144686 108.62189392 119.26074219 109.64013672 C123.47925691 113.5401523 127.75881892 117.36740714 132.07421875 121.16015625 C134 123 134 123 136 126 C129.38432412 126.82695949 129.38432412 126.82695949 126.21484375 124.93359375 C124.05289608 123.03773194 122.03526242 121.03202671 120 119 C118.20764629 117.30971896 116.40286444 115.63330889 114.59741211 113.95703125 C112.61696746 112.11753915 110.64406752 110.27020765 108.671875 108.421875 C104.99536312 104.98570711 101.26290983 101.61608962 97.51171875 98.26171875 C92.8582295 94.07140728 88.27312358 89.80653832 83.67773438 85.55273438 C80.9328251 83.01233522 78.18540353 80.47465958 75.4375 77.9375 C74.89963867 77.44088867 74.36177734 76.94427734 73.80761719 76.43261719 C69.69840512 72.64045102 65.58258367 68.85555096 61.45556641 65.08276367 C58.92639 62.77026646 56.40547633 60.44977857 53.8984375 58.11328125 C44.46662554 48.12689914 44.46662554 48.12689914 32.6875 42.5 C30.09129817 42.91622902 30.09129817 42.91622902 28.03637695 43.66943359 C26 44 26 44 22.73046875 41.7890625 C21.53035076 40.75619322 20.34992793 39.70011089 19.1875 38.625 C18.28717041 37.79887207 18.28717041 37.79887207 17.36865234 36.95605469 C13.11516862 32.76699927 13.11516862 32.76699927 12.62109375 29.4765625 C12.95472566 28.00237497 13.33210353 26.53735804 13.75390625 25.0859375 C14.21676302 22.91086284 14.21676302 22.91086284 12.83984375 20.9140625 C9.19309489 16.73031985 5.00748085 13.12786269 0.69921875 9.640625 C-1.11510298 7.88886609 -2.01320278 6.30419655 -3 4 C-2.01 2.68 -1.02 1.36 0 0 Z " fill="#8892D7" transform="translate(294,96)"/>
</svg>
