<?xml version="1.0" encoding="UTF-8"?>
<svg version="1.1" xmlns="http://www.w3.org/2000/svg" width="512" height="512">
<path d="M0 0 C1.85457787 1.37444533 3.70873425 2.74945953 5.5625 4.125 C9.6202409 6.65840437 12.09530248 7.25937978 16.671875 6.21875 C21.03728966 4.96279047 25.28908122 3.40649287 29.55078125 1.83935547 C33.08426274 0.62841953 36.64406466 -0.13800697 40.3125 -0.8125 C42.00826172 -1.13154297 42.00826172 -1.13154297 43.73828125 -1.45703125 C52.47694353 -2.91173072 60.97807916 -3.2416995 69.8125 -3.25 C70.92223175 -3.25151062 70.92223175 -3.25151062 72.05438232 -3.25305176 C83.30952814 -3.2426792 94.02779794 -2.63242076 105 0 C106.25683594 0.2784375 107.51367188 0.556875 108.80859375 0.84375 C132.42721556 6.54564413 153.55798397 18.38668417 172 34 C175.53528821 32.74436315 177.95688257 31.35648863 180.75 28.875 C185.06514508 25.42288393 189.60082604 22.99390334 194.5625 20.625 C195.62452637 20.10655518 195.62452637 20.10655518 196.70800781 19.57763672 C201.51781742 17.35095552 205.68866136 16.25535282 211 16 C214.56412751 17.89581251 215.69990163 19.11846103 217 22.9375 C217 26.78090343 216.39890545 27.99331044 214 31 C211.26823367 32.59822993 208.37838488 33.71847895 205.4375 34.875 C198.30613868 37.83986739 192.05707406 41.12999071 186 46 C187.585935 49.54748619 189.7425206 52.37846287 192.125 55.4375 C213.07212327 83.00239387 223.21740394 114.38980634 223.25 148.875 C223.25100708 149.61199127 223.25201416 150.34898254 223.25305176 151.10830688 C223.23743238 168.00180925 221.71207158 184.97112771 214.83203125 200.6640625 C213.75473404 203.26443508 213.08880943 205.18030075 213 208 C214.40134493 211.20624171 216.16456662 213.9695714 218.0703125 216.90234375 C225.72483072 229.18985984 225.70836013 244.95201202 223.33984375 258.8828125 C219.10397174 274.10261237 209.52572848 286.61736475 196.125 294.9375 C181.66065685 302.73030503 166.9758921 304.4793562 151 301 C147.25083771 299.84404492 143.6160229 298.52020555 140 297 C139.938125 298.216875 139.87625 299.43375 139.8125 300.6875 C139.09194221 307.21369485 136.56273541 313.00516466 134 319 C133.48373047 320.23943359 133.48373047 320.23943359 132.95703125 321.50390625 C131.53865962 324.64748091 130.20758206 326.82435364 127.5625 329.0625 C124.5741397 330.15580255 123.00108364 329.94319771 120 329 C119.690625 330.1446875 119.690625 330.1446875 119.375 331.3125 C117.44105609 336.49898594 114.7214854 341.19033084 112 346 C112.66 346.66 113.32 347.32 114 348 C115.11873884 355.66037206 112.15858178 359.82428016 107.8125 365.9375 C107.18045654 366.85337891 106.54841309 367.76925781 105.8972168 368.71289062 C94.20385255 385.50635058 81.44625454 401.414889 67.46875 416.359375 C66.0537283 417.87291087 64.65005398 419.39766593 63.28125 420.953125 C51.63092347 433.67337948 33.98432311 441.90383354 17 444 C16.0203125 444.12117188 15.040625 444.24234375 14.03125 444.3671875 C8.0928333 444.95814644 2.39056305 444.98858836 -3.5625 444.5625 C-4.81417969 444.47355469 -6.06585938 444.38460938 -7.35546875 444.29296875 C-9.67415304 444.10657934 -11.99041992 443.88396264 -14.30078125 443.61328125 C-18.86521924 443.25949381 -21.75258724 443.10953336 -25.56640625 445.83203125 C-27.86991195 448.12035734 -29.94975654 450.48418043 -32 453 C-45.5503435 466.89778821 -61.17460037 478.35316329 -78 488 C-78.57782227 488.33338379 -79.15564453 488.66676758 -79.75097656 489.01025391 C-89.15897368 494.39094147 -98.72211801 498.57047805 -109 502 C-110.48886719 502.51240234 -110.48886719 502.51240234 -112.0078125 503.03515625 C-118.25530021 504.90592207 -124.27228743 505.26885385 -130.75 505.3125 C-131.54253174 505.31813965 -132.33506348 505.3237793 -133.15161133 505.32958984 C-137.02004115 505.28181646 -140.38806917 504.97781126 -144.1015625 503.8671875 C-148.67020313 502.85091674 -151.18800078 503.4391431 -155.625 504.8125 C-180.56755374 512.34669407 -208.70488213 508.98079513 -231.76953125 497.11328125 C-239.11304147 493.1518966 -245.69627137 488.46879768 -252 483 C-253.22976562 481.98679687 -253.22976562 481.98679687 -254.484375 480.953125 C-273.24562578 464.98858241 -284.9433485 441.34306239 -288 417 C-288.31131726 412.28794633 -288.3802862 407.59650818 -288.375 402.875 C-288.37556396 401.60269531 -288.37612793 400.33039063 -288.37670898 399.01953125 C-288.26131499 389.10195378 -286.88773926 380.46343469 -284 371 C-282.69344868 366.55907946 -283.54736406 364.33700659 -285 360 C-288.66579185 328.60302967 -270.74974765 297.52072249 -251.99609375 273.703125 C-251.00085528 272.46595906 -250.00218494 271.23154558 -249 270 C-248.51031738 269.39607422 -248.02063477 268.79214844 -247.51611328 268.16992188 C-246.04478731 266.37114947 -244.56970312 264.58145399 -243.0625 262.8125 C-242.63512543 262.30448349 -242.20775085 261.79646698 -241.76742554 261.27305603 C-239.21061445 258.30389564 -236.66483509 255.63579663 -233.58398438 253.20727539 C-228.44904608 249.0379659 -223.95998711 245.18125326 -223.01538086 238.35180664 C-222.70915483 233.08958384 -223.05176803 227.87437092 -223.4375 222.625 C-223.63552786 219.07659833 -223.79605216 215.52780124 -223.93359375 211.9765625 C-223.96869049 211.1198999 -224.00378723 210.2632373 -224.03994751 209.38061523 C-224.32275621 198.49503 -221.37925606 188.35531918 -216.25 178.75 C-215.90275879 178.08436035 -215.55551758 177.4187207 -215.19775391 176.73291016 C-206.52682684 160.50773665 -193.34000804 148.24209869 -179 137 C-177.89384493 136.09487251 -176.78978943 135.18717496 -175.6875 134.27734375 C-160.08369357 121.46406159 -143.43710239 110.16204536 -126 100 C-125.26040039 99.56703613 -124.52080078 99.13407227 -123.75878906 98.68798828 C-115.50394159 93.88728414 -107.14082656 89.43631029 -98.4375 85.5 C-97.72400391 85.17362549 -97.01050781 84.84725098 -96.27539062 84.51098633 C-90.01312127 81.76503092 -83.86714042 80 -77 80 C-77.27714844 79.25234375 -77.55429688 78.5046875 -77.83984375 77.734375 C-78.20207031 76.74953125 -78.56429687 75.7646875 -78.9375 74.75 C-79.29714844 73.77546875 -79.65679687 72.8009375 -80.02734375 71.796875 C-84.47039919 59.02086015 -83.22676366 43.28808675 -78 31 C-77.50886719 29.71996094 -77.50886719 29.71996094 -77.0078125 28.4140625 C-71.76476552 16.28234067 -60.59250989 5.80894825 -48.625 0.50390625 C-33.56114236 -5.43085016 -15.02288738 -7.29446939 0 0 Z " fill="#010101" transform="translate(288,4)"/>
<path d="M0 0 C6.12547796 3.21488368 8.87643724 9.45161229 11.6875 15.4375 C12.0700293 16.24936768 12.45255859 17.06123535 12.84667969 17.89770508 C23.81151806 41.76639427 31.13500226 66.92088475 37.5625 92.3125 C37.75730957 93.08190918 37.95211914 93.85131836 38.15283203 94.64404297 C38.98829193 97.95331251 39.81456009 101.26454084 40.6328125 104.578125 C41.25871462 107.09225283 41.89964615 109.60268135 42.5546875 112.109375 C45.4144812 123.08532426 47.53382027 134.15674648 49.5625 145.3125 C49.72280701 146.18958618 49.88311401 147.06667236 50.04827881 147.97033691 C52.70389088 162.57773992 54.8811432 177.20182095 56.6875 191.9375 C56.81634583 192.98442017 56.94519165 194.03134033 57.07794189 195.10998535 C59.94492828 218.55048029 61.7085452 241.72702012 61.91094971 265.34729004 C61.92839102 267.29518387 61.95129291 269.24303794 61.98016357 271.1907959 C62.32395118 297.37206865 52.80924225 314.7780764 35.04296875 333.62109375 C32.560332 336.24825795 32.560332 336.24825795 30.46484375 338.95703125 C28.73574538 341.09798878 27.03504643 342.79520556 24.9375 344.5625 C22.73165994 346.4382691 20.55854095 348.3162391 18.453125 350.3046875 C-2.05942367 369.61477642 -33.84264962 391.9448748 -63.125 392.8125 C-67.53726572 392.58917054 -70.78500864 391.96055624 -74.4375 389.3125 C-86.90815118 375.02374567 -92.37219964 354.89980019 -98.4375 337.3125 C-98.65720459 336.67627716 -98.87690918 336.04005432 -99.10327148 335.384552 C-101.87293708 327.33144823 -104.37386684 319.26414813 -106.4375 311 C-106.94460244 309.02846306 -107.4524248 307.05711117 -107.9609375 305.0859375 C-108.68668061 302.25393082 -109.40999112 299.42140393 -110.12597656 296.58691406 C-110.75870131 294.09608452 -111.40858585 291.61033645 -112.0625 289.125 C-112.33513672 288.02128052 -112.33513672 288.02128052 -112.61328125 286.89526367 C-113.7341003 282.69666357 -114.86837109 279.90213113 -118.4375 277.3125 C-122.06399951 277.22333846 -122.06399951 277.22333846 -125.4375 278.3125 C-127.93060643 282.05215964 -127.4978261 283.60320641 -127.0625 288 C-126.95164062 289.17949219 -126.84078125 290.35898437 -126.7265625 291.57421875 C-126.63117188 292.47785156 -126.53578125 293.38148438 -126.4375 294.3125 C-134.41669871 292.41846109 -142.22542606 290.23374837 -150 287.625 C-151.03358643 287.27832275 -152.06717285 286.93164551 -153.13208008 286.57446289 C-194.6394738 272.41499568 -194.6394738 272.41499568 -201.5546875 261.55859375 C-206.28353081 249.52724461 -200.09847958 235.49019537 -195.37109375 224.3671875 C-187.62098649 206.88958613 -177.12292672 190.62789775 -164.4375 176.3125 C-163.63183594 175.38695312 -162.82617188 174.46140625 -161.99609375 173.5078125 C-155.9455992 166.6512328 -155.9455992 166.6512328 -152.4375 164.3125 C-150.73326471 168.94656958 -149.82598169 173.50865039 -149.125 178.375 C-148.86497127 180.08359139 -148.60313463 181.79190826 -148.33984375 183.5 C-148.19659668 184.43070313 -148.05334961 185.36140625 -147.90576172 186.3203125 C-145.37904892 202.46598094 -142.50369083 218.55833621 -139.32556152 234.58834839 C-139.02700602 236.10355195 -138.73356344 237.6197726 -138.44543457 239.13699341 C-138.03993731 241.26262089 -137.61449657 243.38330307 -137.18359375 245.50390625 C-136.82285767 247.33223999 -136.82285767 247.33223999 -136.45483398 249.19750977 C-135.33519039 252.62576333 -134.32199956 254.17298822 -131.4375 256.3125 C-127.81100049 256.40166154 -127.81100049 256.40166154 -124.4375 255.3125 C-121.54488562 250.97357842 -122.10532729 247.2852473 -122.953125 242.25024414 C-123.31664063 240.68971313 -123.31664063 240.68971313 -123.6875 239.09765625 C-123.96247314 237.87747803 -124.23744629 236.6572998 -124.52075195 235.40014648 C-124.66985016 234.74762909 -124.81894836 234.09511169 -124.9725647 233.42282104 C-128.44580607 218.12482856 -131.18790328 202.7237706 -133.75 187.25 C-133.92039795 186.22810577 -134.0907959 185.20621155 -134.26635742 184.15335083 C-147.58870497 104.03172889 -147.58870497 104.03172889 -129.22387695 78.1262207 C-122.45207375 69.04818815 -114.02991539 61.52330055 -105.19140625 54.5078125 C-102.36318004 52.25325487 -99.62315223 49.91373891 -96.875 47.5625 C-73.89882581 28.43542716 -47.81561057 12.31386354 -20.4375 0.3125 C-19.58414063 -0.07164063 -18.73078125 -0.45578125 -17.8515625 -0.8515625 C-12.06067662 -2.85682072 -5.55731135 -2.57051667 0 0 Z " fill="#75B6EA" transform="translate(220.4375,101.6875)"/>
<path d="M0 0 C0.67562988 0.31308105 1.35125977 0.62616211 2.04736328 0.94873047 C29.27916158 13.78648115 50.69552276 36.1948143 64 63 C64.73283203 64.39798828 64.73283203 64.39798828 65.48046875 65.82421875 C80.52889537 96.03712669 82.7935208 134.32991172 72.10961914 166.35717773 C71.43580782 168.25084945 70.72889778 170.12686841 70 172 C69.74734375 172.64984863 69.4946875 173.29969727 69.234375 173.96923828 C56.56610178 205.81845704 35.19348138 230.94809175 6.12109375 249.13671875 C3.49040385 250.20740469 2.64643487 249.94263258 0 249 C-1.97924805 247.55786133 -1.97924805 247.55786133 -4.07421875 245.76953125 C-8.98878033 241.84048599 -14.08214431 239.23464527 -19.8125 236.6875 C-20.83786865 236.22456543 -21.8632373 235.76163086 -22.91967773 235.28466797 C-35.34187684 229.79581098 -48.14461994 225.35213916 -61 221 C-62.20817383 220.58387451 -63.41634766 220.16774902 -64.66113281 219.73901367 C-73.23040587 216.82090389 -81.85134661 214.30029825 -90.625 212.0625 C-91.27477814 211.89524414 -91.92455627 211.72798828 -92.59402466 211.55566406 C-106.95993345 207.86649851 -121.44400751 204.8427498 -136 202 C-137.61275479 196.56765871 -138.93130392 191.10619828 -140.171875 185.578125 C-140.59338869 183.72778224 -141.01527646 181.87752466 -141.4375 180.02734375 C-142.0903051 177.15917848 -142.74089332 174.29059476 -143.38476562 171.42041016 C-145.99162878 159.82067621 -148.92347309 148.46016884 -152.65234375 137.16748047 C-153.99141765 133.1034803 -155.13118372 129.00494815 -156.25 124.875 C-161.64545618 105.88283264 -169.31760609 81.73672027 -182.65234375 66.76171875 C-184.20975141 64.72580323 -184.83599647 63.56617283 -185 61 C-178.13293077 46.15027269 -164.54569908 31.20269925 -152 21 C-151.06542969 20.22785156 -150.13085938 19.45570312 -149.16796875 18.66015625 C-107.31797973 -15.17446237 -48.78332871 -23.02293917 0 0 Z " fill="#F2D4B5" transform="translate(418,29)"/>
<path d="M0 0 C8.26747037 0.53307674 16.13961779 2.21443328 24.1875 4.125 C24.8453952 4.28028168 25.50329041 4.43556335 26.18112183 4.59555054 C38.62642476 7.54373964 50.85219664 10.99661444 63 15 C64.72331543 15.56291748 64.72331543 15.56291748 66.48144531 16.13720703 C118.85984897 33.35360356 118.85984897 33.35360356 125.953125 45.5078125 C128.57442669 51.74807547 127.87554377 57.06424809 125.3828125 63.234375 C124.43794081 65.48358309 123.46153482 67.70005752 122.40356445 69.8984375 C120.19132368 74.65589665 119.57764928 77.73399453 121 83 C121.66 83.66 122.32 84.32 123 85 C122.47039832 91.31108673 118.96894947 97.20912256 115 102 C112.58731822 102.74334386 110.7021729 102.69092086 108.19140625 102.6484375 C105.13205281 103.13924286 104.31509683 104.39172596 102.4375 106.8125 C101.26038392 108.52052492 100.11596212 110.2514063 99 112 C97.79383825 113.83476276 96.58537447 115.66801359 95.375 117.5 C94.37533203 119.01787109 94.37533203 119.01787109 93.35546875 120.56640625 C78.58494721 142.44746332 59.84552582 167.91087296 36 180 C35.030625 180.556875 34.06125 181.11375 33.0625 181.6875 C24.46389573 185.37261611 16.27584893 186.27837719 7 186.3125 C6.07952881 186.31789795 5.15905762 186.3232959 4.21069336 186.32885742 C-0.14449364 186.28268369 -3.15135262 186.20212327 -7 184 C-6.56429688 183.41734375 -6.12859375 182.8346875 -5.6796875 182.234375 C-1.00558009 175.79988948 2.63725745 169.19708923 6 162 C6.5775 160.824375 7.155 159.64875 7.75 158.4375 C10.72008792 150.26975822 11.29865972 141.91680926 11.23046875 133.29296875 C11.23001053 132.32394119 11.22955231 131.35491364 11.2290802 130.35652161 C11.22608488 128.32889566 11.21828154 126.30127145 11.20581055 124.27368164 C11.18744253 121.17781403 11.18530212 118.08224483 11.18554688 114.98632812 C11.18063436 113.00520576 11.17480721 111.0240854 11.16796875 109.04296875 C11.16685593 108.12412399 11.1657431 107.20527924 11.16459656 106.2585907 C11.1310982 101.71690582 10.85812955 97.47520496 10 93 C9.85528969 91.41483803 9.73531135 89.82721612 9.640625 88.23828125 C8.68299701 73.64453475 7.19251096 59.14909492 5.5 44.625 C5.39240356 43.69329987 5.28480713 42.76159973 5.1739502 41.80166626 C4.10984418 32.62067034 2.99968513 23.48010975 1.39746094 14.37451172 C0.88978856 11.34157465 0.59402565 8.31635914 0.375 5.25 C0.30023438 4.24453125 0.22546875 3.2390625 0.1484375 2.203125 C0.09945313 1.47609375 0.05046875 0.7490625 0 0 Z " fill="#69A3D2" transform="translate(285,247)"/>
<path d="M0 0 C3.89393417 1.17764879 7.40346526 2.64835701 10.99194336 4.56201172 C29.04765763 14.15520725 48.66996041 20.02273906 68.22045898 25.72607422 C68.91390411 25.92994247 69.60734924 26.13381073 70.32180786 26.34385681 C72.21684836 26.89980268 74.11385856 27.4490218 76.01098633 27.99780273 C79 29 79 29 82 31 C82.92240028 33.55296593 83.68157238 36.01027189 84.375 38.625 C84.81412046 40.1890786 85.2542464 41.75287521 85.6953125 43.31640625 C85.91477539 44.1067627 86.13423828 44.89711914 86.36035156 45.71142578 C92.13404501 66.36890759 99.65968035 86.56152229 109.375 105.6875 C111 109 111 109 111 111 C101.61980626 113.9846071 92.74873395 114.52689901 83 114 C82.26942383 113.96277832 81.53884766 113.92555664 80.78613281 113.88720703 C61.18387227 112.72436107 44.13238408 105.59106767 29 93 C28.40703125 92.54109375 27.8140625 92.0821875 27.203125 91.609375 C13.37969409 80.57599437 5.12902923 64.57220428 0 48 C-0.3196875 47.09636719 -0.639375 46.19273437 -0.96875 45.26171875 C-5.34557751 31.25992333 -4.47674327 13.8832336 0 0 Z " fill="#37638B" transform="translate(18,383)"/>
<path d="M0 0 C0.66 0.33 1.32 0.66 2 1 C3.66234488 6.29872432 4.16503979 12.0502699 4.92578125 17.53515625 C7.43282726 35.20347633 10.64277993 52.77748783 14.11294556 70.28088379 C14.41107039 71.79395183 14.70407731 73.30803785 14.99179077 74.82312012 C15.3973768 76.94920579 15.82291269 79.07034523 16.25390625 81.19140625 C16.61464233 83.01973999 16.61464233 83.01973999 16.98266602 84.88500977 C18.09503139 88.29097805 19.21608645 89.79107257 22 92 C22.70125 92.165 23.4025 92.33 24.125 92.5 C26 93 26 93 26.99609375 94.56640625 C28.3242616 97.78605049 29.17278378 101.05089961 29.9375 104.4375 C30.11345703 105.09298828 30.28941406 105.74847656 30.47070312 106.42382812 C30.90234375 108.37109375 30.90234375 108.37109375 31 112 C29.36757827 113.700222 27.70011842 115.36747039 26 117 C25.61075821 120.36277423 25.61075821 120.36277423 26.1875 123.8125 C26.32542969 124.97394531 26.46335937 126.13539063 26.60546875 127.33203125 C26.73566406 128.21246094 26.86585937 129.09289062 27 130 C19.02080129 128.10596109 11.21207394 125.92124837 3.4375 123.3125 C2.40391357 122.96582275 1.37032715 122.61914551 0.30541992 122.26196289 C-41.2019738 108.10249568 -41.2019738 108.10249568 -48.1171875 97.24609375 C-52.84603081 85.21474461 -46.66097958 71.17769537 -41.93359375 60.0546875 C-34.18676547 42.58448069 -23.69490554 26.29946609 -11 12 C-10.18273438 11.07445312 -9.36546875 10.14890625 -8.5234375 9.1953125 C-2.95394737 2.95394737 -2.95394737 2.95394737 0 0 Z " fill="#69A2D1" transform="translate(67,266)"/>
<path d="M0 0 C0.763125 0.4125 1.52625 0.825 2.3125 1.25 C2.3125 0.59 2.3125 -0.07 2.3125 -0.75 C9.27104071 -5.85292986 14.85153846 -6.50256329 23.3125 -5.75 C30.51251672 -3.76790585 34.97340216 1.31606273 38.6875 7.5625 C40.28062771 14.41294914 40.00695745 20.41746696 36.44140625 26.5546875 C34.87319584 28.90971628 33.66927159 30.63392805 31.3125 32.25 C27.33762383 32.81783945 25.24760779 32.87340519 21.875 30.625 C19.85317687 27.55182885 19.78494483 25.86752119 20.3125 22.25 C21.3125 20.91666667 22.3125 19.58333333 23.3125 18.25 C23.72952122 15.1657691 23.72952122 15.1657691 23.3125 12.25 C21.37647953 9.87801043 21.37647953 9.87801043 17.875 10 C14.20829382 9.96190353 14.20829382 9.96190353 11.3125 12.25 C11.5290625 12.93964844 11.745625 13.62929687 11.96875 14.33984375 C14.22783522 21.96425636 16.06646113 28.8896919 12.75 36.4375 C9.46520658 42.27325002 4.64982494 46.15972791 -1.6875 48.25 C-9.24789081 49.23514183 -15.10611205 47.96822508 -21.6875 44.25 C-22.698125 43.693125 -23.70875 43.13625 -24.75 42.5625 C-32.71117959 36.29518841 -38.08870262 29.37082744 -39.6875 19.25 C-39.80414183 12.66806834 -39.88649623 5.87459651 -35.39453125 0.68359375 C-23.69705379 -9.1401459 -12.67498088 -6.24780897 0 0 Z " fill="#F18B74" transform="translate(305.6875,83.75)"/>
<path d="M0 0 C5.2759446 3.00109399 9.49641508 7.78810219 11.75 13.4375 C12.69389618 22.12869992 11.58130815 28.19053778 6.75 35.4375 C6.09 35.4375 5.43 35.4375 4.75 35.4375 C5.17152344 36.32953125 5.59304688 37.2215625 6.02734375 38.140625 C6.57519531 39.31109375 7.12304688 40.4815625 7.6875 41.6875 C8.23277344 42.84765625 8.77804687 44.0078125 9.33984375 45.203125 C11.93242527 51.14954467 13.01357827 57.24333356 11.1015625 63.58984375 C8.43718355 69.52207209 4.22709108 73.78120213 -1.64453125 76.578125 C-7.75941943 78.59502965 -14.16802841 78.2208262 -20.0625 75.6875 C-21.47320459 74.96586071 -22.87088875 74.21782228 -24.25 73.4375 C-25.796875 72.57125 -25.796875 72.57125 -27.375 71.6875 C-34.63591543 66.00504445 -39.34673321 59.14730037 -42.25 50.4375 C-42.83567647 44.09642595 -42.68033946 37.96034652 -39.25 32.4375 C-34.00452716 26.4477371 -28.95722784 23.89011806 -21 23.125 C-15.8775279 23.55187268 -11.1550446 24.94735987 -6.25 26.4375 C-3.80102153 22.76403229 -3.93462284 20.77393601 -4.25 16.4375 C-6.12217348 14.14762192 -6.12217348 14.14762192 -9.125 14.125 C-12.24585401 14.16490127 -12.24585401 14.16490127 -14.25 15.9375 C-16.25 17.4375 -16.25 17.4375 -19.25 17.875 C-22.25 17.4375 -22.25 17.4375 -24.625 15.875 C-26.89970619 12.46294071 -26.88534983 10.46138226 -26.25 6.4375 C-20.05594819 -1.82123575 -9.32347826 -4.13584504 0 0 Z " fill="#F18B74" transform="translate(422.25,168.5625)"/>
<path d="M0 0 C1.58409994 0.11487748 3.16728963 0.24234508 4.75 0.375 C5.63171875 0.44460937 6.5134375 0.51421875 7.421875 0.5859375 C10.09136532 1.01467382 11.73434411 1.54010542 14 3 C14.65014648 4.74780273 14.65014648 4.74780273 14.87109375 6.93359375 C14.96777344 7.78679199 15.06445312 8.63999023 15.1640625 9.51904297 C15.25429688 10.48213379 15.34453125 11.44522461 15.4375 12.4375 C15.67515002 14.63678705 15.91348756 16.83599987 16.15234375 19.03515625 C16.28237793 20.28570801 16.41241211 21.53625977 16.54638672 22.82470703 C17.03808486 27.45144897 17.61512908 32.0667535 18.19140625 36.68359375 C22.00388889 67.46825189 25.2258373 98.38639704 25.3125 129.4375 C25.31805908 130.66243164 25.32361816 131.88736328 25.3293457 133.14941406 C25.17991262 151.31128103 20.11281578 168.83077633 10 184 C12.64 184.33 15.28 184.66 18 185 C18 185.33 18 185.66 18 186 C14.58340509 186.05816623 11.16693795 186.09365195 7.75 186.125 C6.29787109 186.15013672 6.29787109 186.15013672 4.81640625 186.17578125 C3.41455078 186.18544922 3.41455078 186.18544922 1.984375 186.1953125 C0.69611816 186.21102295 0.69611816 186.21102295 -0.61816406 186.22705078 C-3.17903596 185.98293323 -4.79511029 185.28990512 -7 184 C-6.56429688 183.41734375 -6.12859375 182.8346875 -5.6796875 182.234375 C-1.00558009 175.79988948 2.63725745 169.19708923 6 162 C6.5775 160.824375 7.155 159.64875 7.75 158.4375 C10.72008792 150.26975822 11.29865972 141.91680926 11.23046875 133.29296875 C11.23001053 132.32394119 11.22955231 131.35491364 11.2290802 130.35652161 C11.22608488 128.32889566 11.21828154 126.30127145 11.20581055 124.27368164 C11.18744253 121.17781403 11.18530212 118.08224483 11.18554688 114.98632812 C11.18063436 113.00520576 11.17480721 111.0240854 11.16796875 109.04296875 C11.16685593 108.12412399 11.1657431 107.20527924 11.16459656 106.2585907 C11.1310982 101.71690582 10.85812955 97.47520496 10 93 C9.85528969 91.41483803 9.73531135 89.82721612 9.640625 88.23828125 C8.68299701 73.64453475 7.19251096 59.14909492 5.5 44.625 C5.39240356 43.69329987 5.28480713 42.76159973 5.1739502 41.80166626 C4.10984418 32.62067034 2.99968513 23.48010975 1.39746094 14.37451172 C0.88978856 11.34157465 0.59402565 8.31635914 0.375 5.25 C0.30023438 4.24453125 0.22546875 3.2390625 0.1484375 2.203125 C0.09945313 1.47609375 0.05046875 0.7490625 0 0 Z " fill="#5D90BA" transform="translate(285,247)"/>
<path d="M0 0 C3.89393417 1.17764879 7.40346526 2.64835701 10.99194336 4.56201172 C29.04765763 14.15520725 48.66996041 20.02273906 68.22045898 25.72607422 C68.91390411 25.92994247 69.60734924 26.13381073 70.32180786 26.34385681 C72.21684836 26.89980268 74.11385856 27.4490218 76.01098633 27.99780273 C79 29 79 29 82 31 C82.92240028 33.55296593 83.68157238 36.01027189 84.375 38.625 C84.81412046 40.1890786 85.2542464 41.75287521 85.6953125 43.31640625 C85.91477539 44.1067627 86.13423828 44.89711914 86.36035156 45.71142578 C92.13404501 66.36890759 99.65968035 86.56152229 109.375 105.6875 C111 109 111 109 111 111 C104.19925959 112.90420731 98.08076251 114.40850553 91 114 C91 113.67 91 113.34 91 113 C92.98 112.67 94.96 112.34 97 112 C96.29037109 110.576875 96.29037109 110.576875 95.56640625 109.125 C87.39809156 92.43686528 81.1953823 75.04209663 75.5 57.375 C75.16162109 56.32634766 74.82324219 55.27769531 74.47460938 54.19726562 C72.98607137 49.48510288 71.60501068 44.92411471 71 40 C69.72898437 39.73574219 68.45796875 39.47148437 67.1484375 39.19921875 C61.87519822 38.024528 56.76435663 36.46919971 51.625 34.8125 C50.66674316 34.50425293 49.70848633 34.19600586 48.72119141 33.87841797 C10.86469644 21.57646429 10.86469644 21.57646429 -2 13 C-1.85769192 11.58297487 -1.71099254 10.1663904 -1.5625 8.75 C-1.48128906 7.96109375 -1.40007813 7.1721875 -1.31640625 6.359375 C-1.02365007 4.17635361 -0.57935581 2.1226818 0 0 Z " fill="#31587C" transform="translate(18,383)"/>
<path d="M0 0 C0.66 0.33 1.32 0.66 2 1 C3.66234488 6.29872432 4.16503979 12.0502699 4.92578125 17.53515625 C7.43282726 35.20347633 10.64277993 52.77748783 14.11294556 70.28088379 C14.41107039 71.79395183 14.70407731 73.30803785 14.99179077 74.82312012 C15.3973768 76.94920579 15.82291269 79.07034523 16.25390625 81.19140625 C16.49439697 82.41029541 16.7348877 83.62918457 16.98266602 84.88500977 C18.09503139 88.29097805 19.21608645 89.79107257 22 92 C22.70125 92.165 23.4025 92.33 24.125 92.5 C26 93 26 93 26.99609375 94.56640625 C28.3242616 97.78605049 29.17278378 101.05089961 29.9375 104.4375 C30.11345703 105.09298828 30.28941406 105.74847656 30.47070312 106.42382812 C30.90234375 108.37109375 30.90234375 108.37109375 31 112 C29.36757827 113.700222 27.70011842 115.36747039 26 117 C25.61075821 120.36277423 25.61075821 120.36277423 26.1875 123.8125 C26.32542969 124.97394531 26.46335938 126.13539063 26.60546875 127.33203125 C26.73566406 128.21246094 26.86585937 129.09289062 27 130 C25.06077578 129.54901762 23.12366406 129.08894441 21.1875 128.625 C20.10855469 128.36976563 19.02960938 128.11453125 17.91796875 127.8515625 C15 127 15 127 12 125 C11.39697266 122.94775391 11.39697266 122.94775391 11.0390625 120.3515625 C10.31207416 115.74929339 9.40662601 111.24637874 8.3359375 106.7109375 C8.01907752 105.3646135 7.70234986 104.01825835 7.38574219 102.671875 C7.2211853 101.97384766 7.05662842 101.27582031 6.88708496 100.55664062 C2.3834215 81.36963863 -1.54388462 62.08320874 -5.12353516 42.70361328 C-5.67989947 39.69537776 -6.2535253 36.69162759 -6.84912109 33.69091797 C-7.59166399 29.94771492 -8.26992309 26.19485415 -8.9375 22.4375 C-9.15631836 21.37466797 -9.37513672 20.31183594 -9.60058594 19.21679688 C-10.74488427 12.26878186 -10.74488427 12.26878186 -8.60595703 8.62548828 C-6.84237884 6.57549718 -5.0268011 4.78650887 -3 3 C-1.99492038 2.00510556 -0.9930785 1.00687392 0 0 Z " fill="#5E91BB" transform="translate(67,266)"/>
<path d="M0 0 C0.66 0 1.32 0 2 0 C7.14357722 11.04491359 7.72123991 21.76067251 3.9375 33.375 C-0.88443691 45.40946788 -8.95460248 53.32152471 -20.47265625 58.921875 C-26.00861076 61.28342592 -30.78835216 62.35839827 -36.8125 62.3125 C-37.51375 62.31121094 -38.215 62.30992187 -38.9375 62.30859375 C-44.53266523 62.2051711 -48.88933176 61.19028639 -54 59 C-54 58.34 -54 57.68 -54 57 C-52.06910083 55.5684713 -50.13740715 54.24524371 -48.125 52.9375 C-42.78149343 49.35864074 -37.97159165 45.5117309 -33.265625 41.109375 C-31.21202601 39.19740352 -29.09906029 37.41211677 -26.9375 35.625 C-19.75890635 29.33833582 -14.23931139 21.4555846 -8.6875 13.75 C-8.07479248 12.90103149 -8.07479248 12.90103149 -7.44970703 12.03491211 C-4.69805645 8.15398775 -2.30737368 4.16066468 0 0 Z " fill="#D7BDA0" transform="translate(491,229)"/>
<path d="M0 0 C0 0.66 0 1.32 0 2 C-2.36940159 3.55425444 -4.74530704 5.00593632 -7.1875 6.4375 C-15.17514372 11.27072544 -22.06134506 16.78450303 -29 23 C-29.89460938 23.76183594 -30.78921875 24.52367188 -31.7109375 25.30859375 C-40.66267894 33.03463521 -47.63357214 42.0839941 -54.08227539 51.93652344 C-55.00670163 53.32432281 -55.99780672 54.66727363 -57 56 C-57.66 56 -58.32 56 -59 56 C-63.14076508 46.61426581 -63.67247771 34.90206087 -60.375 25.1875 C-54.93402877 12.25808404 -46.00158018 3.3329216 -33 -2 C-22.15886847 -6.26437861 -10.33569791 -4.90507698 0 0 Z " fill="#D7BDA0" transform="translate(283,19)"/>
<path d="M0 0 C4.8714404 2.86197123 8.14395694 6.94665485 11 11.75 C12.59312771 18.60044914 12.31945745 24.60496696 8.75390625 30.7421875 C7.18569584 33.09721628 5.98177159 34.82142805 3.625 36.4375 C-0.34987617 37.00533945 -2.43989221 37.06090519 -5.8125 34.8125 C-7.83432313 31.73932885 -7.90255517 30.05502119 -7.375 26.4375 C-6.375 25.10416667 -5.375 23.77083333 -4.375 22.4375 C-3.95797878 19.3532691 -3.95797878 19.3532691 -4.375 16.4375 C-6.31102047 14.06551043 -6.31102047 14.06551043 -9.8125 14.1875 C-13.47920618 14.14940353 -13.47920618 14.14940353 -16.375 16.4375 C-20.28554241 16.86410463 -22.49530578 17.02396281 -25.8125 14.8125 C-27.87291771 11.68066508 -28.0517545 10.12205227 -27.375 6.4375 C-20.67749171 -2.03287814 -9.92564296 -4.42836378 0 0 Z " fill="#040303" transform="translate(333.375,79.5625)"/>
<path d="M0 0 C5.2759446 3.00109399 9.49641508 7.78810219 11.75 13.4375 C12.69517939 22.14051541 11.8965498 28.44053133 6.4375 35.375 C3.75 37.4375 3.75 37.4375 0.6875 38 C-2.25 37.4375 -2.25 37.4375 -4.625 35.875 C-6.83646281 32.55780578 -6.67660463 30.34804241 -6.25 26.4375 C-5.59 25.4475 -4.93 24.4575 -4.25 23.4375 C-3.91661404 19.89562169 -3.91661404 19.89562169 -4.25 16.4375 C-6.12217348 14.14762192 -6.12217348 14.14762192 -9.125 14.125 C-12.24585401 14.16490127 -12.24585401 14.16490127 -14.25 15.9375 C-16.25 17.4375 -16.25 17.4375 -19.25 17.875 C-22.25 17.4375 -22.25 17.4375 -24.625 15.875 C-26.89970619 12.46294071 -26.88534983 10.46138226 -26.25 6.4375 C-20.05594819 -1.82123575 -9.32347826 -4.13584504 0 0 Z " fill="#040302" transform="translate(422.25,168.5625)"/>
<path d="M0 0 C3.5 0.5625 3.5 0.5625 5.8125 1.9375 C7.57743957 4.68296155 7.91740151 6.3273992 8.4375 9.5 C9.0344713 12.85488001 9.50487974 14.57014493 11.375 17.5 C15.36826978 20.13555805 19.18780527 20.90272443 23.85546875 21.7890625 C26.5 22.5625 26.5 22.5625 28.5 25.5625 C28.9375 29 28.9375 29 28.5 32.5625 C26.42943094 35.16740946 24.83870156 36.24831494 21.5859375 37.01171875 C13.76918716 37.65127105 6.46770442 33.81744314 0.54296875 28.95703125 C-4.41317026 23.67466537 -7.58991301 16.49487018 -8 9.25 C-7.23313527 3.59437265 -5.81017339 0.93377787 0 0 Z " fill="#060504" transform="translate(345.5,137.4375)"/>
<path d="M0 0 C3.71552427 0.61925405 4.6588831 1.60364964 7 4.5 C7.63769531 7.04272461 7.63769531 7.04272461 7.828125 9.90234375 C7.94486572 11.47689331 7.94486572 11.47689331 8.06396484 13.08325195 C8.15605225 14.74360474 8.15605225 14.74360474 8.25 16.4375 C8.32299316 17.56309326 8.39598633 18.68868652 8.47119141 19.84838867 C8.669705 23.06482033 8.83902254 26.28150296 9 29.5 C9.04672852 30.2847168 9.09345703 31.06943359 9.14160156 31.87792969 C9.70110404 41.60575016 9.70110404 41.60575016 7.19921875 44.796875 C5 46.5 5 46.5 1.4375 46.9375 C-2 46.5 -2 46.5 -3.875 45.1875 C-8.81320937 37.78018595 -7.23632314 25.08923022 -7.3125 16.5625 C-7.34150391 15.45326172 -7.37050781 14.34402344 -7.40039062 13.20117188 C-7.40876953 12.13576172 -7.41714844 11.07035156 -7.42578125 9.97265625 C-7.44036377 9.01625244 -7.45494629 8.05984863 -7.4699707 7.07446289 C-6.66266451 2.6521025 -4.34096389 0.72349398 0 0 Z " fill="#6AA5D4" transform="translate(181,405.5)"/>
<path d="M0 0 C0.80147461 0.01409912 1.60294922 0.02819824 2.42871094 0.04272461 C3.03489258 0.06085205 3.64107422 0.07897949 4.265625 0.09765625 C4.12463379 0.88712646 3.98364258 1.67659668 3.83837891 2.48999023 C-0.02536758 24.20956743 -0.02536758 24.20956743 -2.734375 46.09765625 C-8.63318528 43.54366586 -13.01533764 38.23715643 -15.609375 32.41015625 C-18.16669284 24.88027595 -18.91477347 16.35786755 -15.796875 8.8359375 C-11.97343823 3.03789687 -6.97988067 -0.1597958 0 0 Z " fill="#E6846E" transform="translate(283.734375,78.90234375)"/>
<path d="M0 0 C1.9375 1.625 1.9375 1.625 3 4 C3.25 7.375 3.25 7.375 2 11 C-0.654725 13.56600669 -3.79378891 15.20302083 -7 17 C-8.30461558 17.77788848 -9.60791012 18.55799509 -10.91015625 19.33984375 C-12.31391636 20.16608387 -13.71887204 20.99029603 -15.125 21.8125 C-15.79345947 22.21001465 -16.46191895 22.6075293 -17.15063477 23.01708984 C-21.40798609 25.43862555 -24.9967423 26.82852972 -30 27 C-33.41741842 24.600536 -34.75178494 23.08312028 -35.6875 19 C-34.75070475 14.91216618 -32.27454828 13.33283927 -29 11 C-26.59919423 9.52619869 -24.13321695 8.21824412 -21.625 6.9375 C-20.9637915 6.59533447 -20.30258301 6.25316895 -19.62133789 5.90063477 C-18.32490202 5.23064743 -17.02718233 4.56313691 -15.72802734 3.8984375 C-14.28830574 3.14989618 -12.86964165 2.36102631 -11.45703125 1.5625 C-7.28452686 -0.76183513 -4.57904507 -1.70383072 0 0 Z " fill="#6094BE" transform="translate(354,299)"/>
<path d="M0 0 C3.66844441 2.70487552 4.60835923 5.29941323 5.36914062 9.73730469 C5.47419922 10.46336914 5.57925781 11.18943359 5.6875 11.9375 C5.80416016 12.68805664 5.92082031 13.43861328 6.04101562 14.21191406 C6.38078222 16.47222575 6.69155691 18.73523274 7 21 C7.19207031 22.26457031 7.38414063 23.52914063 7.58203125 24.83203125 C8.58286459 33.01641601 8.58286459 33.01641601 6 37.375 C3 39 3 39 -0.625 39.0625 C-4.48972315 37.8458279 -5.07419244 37.45242812 -7 34 C-7.79858338 31.01098408 -8.25405951 27.99835737 -8.6875 24.9375 C-8.8119751 24.08857178 -8.9364502 23.23964355 -9.06469727 22.36499023 C-11.32176495 6.18599587 -11.32176495 6.18599587 -8.375 1.3125 C-5.26794769 -0.40455522 -3.50031342 -0.58338557 0 0 Z " fill="#6AA5D4" transform="translate(119,282)"/>
<path d="M0 0 C2.85426058 1.21425307 5.50684007 2.69446212 8.1875 4.25 C8.88552734 4.63285156 9.58355469 5.01570313 10.30273438 5.41015625 C14.39559597 7.7389205 17.43694906 9.9230226 20 14 C19.936318 17.18409977 19.51040601 19.14932332 17.875 21.875 C14.80954758 23.71427145 12.53819444 23.33148764 9 23 C5.7432593 21.68290929 2.77268621 19.96890277 -0.25 18.1875 C-1.05179688 17.73568359 -1.85359375 17.28386719 -2.6796875 16.81835938 C-9.70061574 12.79717556 -9.70061574 12.79717556 -12 10 C-12.5 6.5625 -12.5 6.5625 -12 3 C-8.21184107 -1.5917078 -5.53892665 -1.24343251 0 0 Z " fill="#6AA5D4" transform="translate(220,307)"/>
<path d="M0 0 C2.375 1.625 2.375 1.625 4 4 C4.75460306 9.71097318 2.59167877 13.77396636 0.125 18.75 C-0.23980469 19.51699219 -0.60460937 20.28398437 -0.98046875 21.07421875 C-3.69889987 26.69889987 -3.69889987 26.69889987 -6 29 C-9.00879646 29.33970283 -11.09786724 29.55524039 -14 29 C-16.5625 26.875 -16.5625 26.875 -18 24 C-17.66304683 18.65576603 -15.51742304 14.43194617 -13.125 9.75 C-12.77308594 9.03070313 -12.42117187 8.31140625 -12.05859375 7.5703125 C-11.71183594 6.88195312 -11.36507812 6.19359375 -11.0078125 5.484375 C-10.69473145 4.86272461 -10.38165039 4.24107422 -10.05908203 3.60058594 C-7.44393563 -0.35167312 -4.35103148 -0.53277936 0 0 Z " fill="#6AA5D4" transform="translate(209,159)"/>
</svg>
