<?xml version="1.0" encoding="UTF-8"?>
<svg version="1.1" xmlns="http://www.w3.org/2000/svg" width="512" height="512">
<path d="M0 0 C1.31914902 -0.01283524 2.63829803 -0.02567047 3.99742126 -0.03889465 C5.43781149 -0.04706774 6.87820601 -0.05451038 8.31860352 -0.0612793 C9.04892351 -0.06535482 9.77924351 -0.06943035 10.53169441 -0.07362938 C14.40459023 -0.0944732 18.2774509 -0.10877675 22.15039062 -0.11816406 C26.11760169 -0.12916699 30.08424231 -0.16349952 34.05125332 -0.20333576 C37.12883924 -0.22971383 40.20629427 -0.23787492 43.28398323 -0.24144554 C44.74418002 -0.24626469 46.20437286 -0.25774216 47.66445732 -0.27648354 C65.35147695 -0.48922378 79.98692085 4.2903276 92.86547852 16.5246582 C95.79428652 19.39166644 98.55118087 22.39349446 101.31079102 25.4230957 C111.55352138 36.47913513 118.37367277 43.14650865 133.46264648 44.83081055 C143.73868189 46.56839917 152.49038231 53.94313093 159.51000977 61.17700195 C160.15583008 61.81379883 160.80165039 62.4505957 161.46704102 63.10668945 C172.03056959 74.19954517 176.85022423 90.04746473 176.51000977 105.17700195 C175.50000424 109.8847963 172.88796046 113.79905126 169.51000977 117.17700195 C163.93122531 120.12615751 159.42915278 120.6101172 153.18164062 120.56518555 C152.27342056 120.5704425 151.3652005 120.57569946 150.42945862 120.58111572 C147.44441237 120.59425821 144.45990465 120.58559873 141.47485352 120.57543945 C139.39172768 120.57746166 137.30860254 120.58037433 135.22547913 120.58413696 C130.86704749 120.58855238 126.50880072 120.58215372 122.15039062 120.56811523 C116.56956001 120.5510133 110.98916193 120.56087604 105.40834713 120.57883263 C101.10946911 120.58968246 96.81069334 120.58621877 92.51181221 120.57844925 C90.45415762 120.57645112 88.39649369 120.5788929 86.33885002 120.58588791 C83.4619785 120.5935232 80.58580409 120.58186934 77.70898438 120.56518555 C76.86258392 120.57125824 76.01618347 120.57733093 75.14413452 120.58358765 C69.35261605 120.52149725 65.08785088 119.50624623 60.64672852 115.4934082 C60.16848633 114.91461914 59.69024414 114.33583008 59.19750977 113.73950195 C58.70637695 113.16329102 58.21524414 112.58708008 57.70922852 111.9934082 C53.95125205 106.30135917 55.04724294 98.6618586 56.22875977 92.31762695 C57.82358922 85.21231098 59.79272668 78.6892006 63.36157227 72.2902832 C64.61629311 69.98142613 65.57349301 67.62998849 66.51000977 65.17700195 C64.72136134 63.36143407 62.92929356 61.54948573 61.13500977 59.73950195 C60.62711914 59.22323242 60.11922852 58.70696289 59.59594727 58.17504883 C55.70380338 54.25729874 54.01914941 53.05683951 48.55712891 53.01586914 C47.52588394 53.0062616 46.49463898 52.99665405 45.43214417 52.98675537 C44.31444138 52.98250549 43.19673859 52.97825562 42.04516602 52.97387695 C40.9009166 52.96817688 39.75666718 52.96247681 38.57774353 52.956604 C36.15421476 52.94714577 33.73067308 52.94061676 31.30712891 52.93676758 C27.59132604 52.92705116 23.87607359 52.89603037 20.16040039 52.86450195 C17.80949223 52.85797324 15.4585801 52.85272225 13.10766602 52.84887695 C11.43414818 52.83035675 11.43414818 52.83035675 9.7268219 52.8114624 C8.17522621 52.81596405 8.17522621 52.81596405 6.59228516 52.82055664 C5.68120499 52.81691101 4.77012482 52.81326538 3.83143616 52.80950928 C1.03268902 53.25256406 0.18861631 53.93156247 -1.48999023 56.17700195 C-2.5872299 59.46872096 -2.6284619 61.91724218 -2.64820862 65.38420105 C-2.65799744 66.68410477 -2.66778625 67.98400848 -2.6778717 69.32330322 C-2.68377592 70.76696741 -2.68958637 72.21063197 -2.6953125 73.65429688 C-2.70489095 75.17196418 -2.71490102 76.68962882 -2.72531128 78.20729065 C-2.75236996 82.33093136 -2.77337431 86.45458354 -2.79331326 90.578264 C-2.81516687 94.88645123 -2.84255862 99.19460312 -2.86936951 103.50276184 C-2.91930485 111.66248146 -2.96424057 119.8222207 -3.00739187 127.98197871 C-3.05675705 137.27089124 -3.11167785 146.5597683 -3.16707146 155.84864652 C-3.28090444 174.95806541 -3.38774062 194.06751776 -3.48999023 213.17700195 C-2.92052673 213.17034012 -2.35106323 213.16367828 -1.76434326 213.15681458 C4.27252432 213.0893889 10.30928168 213.04476755 16.34643555 213.01220703 C18.58638873 212.99730819 20.82631376 212.97698221 23.06616211 212.95068359 C63.21879292 212.49174496 93.2828557 223.51018569 125.51000977 247.17700195 C128.35989026 245.2839854 131.20502352 243.39001579 134.01000977 241.4309082 C146.40391369 233.04565758 158.77865555 230.03844946 173.50976562 230 C174.60820801 229.9934288 175.70665039 229.9868576 176.83837891 229.98008728 C180.46720456 229.96040796 184.09598884 229.94870131 187.72485352 229.9387207 C188.96937349 229.93464518 190.21389347 229.93056965 191.49612617 229.92637062 C197.40947441 229.90767459 203.32280966 229.89310681 209.23618025 229.88475865 C216.02228889 229.87501608 222.80806877 229.84876743 229.59406179 229.80825776 C235.50256469 229.77421923 241.41095945 229.76259397 247.31955147 229.75855446 C249.81636338 229.75371066 252.31317235 229.74216047 254.80991936 229.72351646 C277.69497732 229.56329732 296.82709824 231.81481136 313.87329102 248.4934082 C321.65067277 256.40905453 321.65067277 256.40905453 323.80200195 260.83506775 C325.30231856 263.42638278 325.30231856 263.42638278 328.11254883 263.7893219 C329.15636719 263.78391891 330.20018555 263.77851593 331.27563477 263.77294922 C333.05393677 263.78304771 333.05393677 263.78304771 334.86816406 263.79335022 C336.79462769 263.76862892 336.79462769 263.76862892 338.76000977 263.7434082 C340.09701404 263.74637057 341.43401478 263.75210559 342.77099609 263.76048279 C347.0175599 263.78124407 351.26348808 263.76160236 355.51000977 263.73950195 C360.40692587 263.71829533 365.30316964 263.71410756 370.20007324 263.74000359 C372.14685365 263.74332186 374.09362646 263.72179229 376.0402832 263.69960022 C387.20076684 263.73260155 397.37215369 266.10781977 405.51000977 274.17700195 C412.85837523 283.09379324 414.87052875 290.21070486 414.88500977 301.61450195 C414.90950195 302.62577148 414.93399414 303.63704102 414.95922852 304.67895508 C414.98430054 311.08485761 414.34822748 314.98778703 410.51000977 320.17700195 C405.20179139 324.3793415 401.39768979 325.31852195 394.76000977 325.23950195 C393.77516602 325.23047852 392.79032227 325.22145508 391.77563477 325.2121582 C391.02797852 325.20055664 390.28032227 325.18895508 389.51000977 325.17700195 C389.52572021 326.1127002 389.54143066 327.04839844 389.55761719 328.01245117 C390.08216036 363.99566998 390.08216036 363.99566998 386.51000977 377.17700195 C386.21199463 378.27987549 386.21199463 378.27987549 385.90795898 379.4050293 C379.70375989 401.43806892 366.09356188 427.04887593 345.58032227 438.86450195 C344.77336914 439.25637695 343.96641602 439.64825195 343.13500977 440.05200195 C340.9432593 441.13152698 340.9432593 441.13152698 339.51000977 443.17700195 C338.1606436 448.72966528 338.35205939 454.50342458 338.51000977 460.17700195 C339.18805664 460.14219727 339.86610352 460.10739258 340.56469727 460.0715332 C349.38498782 459.81498736 356.85325232 460.67150794 363.88500977 466.36450195 C369.24050096 471.47115214 372.36723637 477.76815963 372.60766602 485.19262695 C372.59026367 486.79364258 372.59026367 486.79364258 372.57250977 488.42700195 C372.56348633 489.5046582 372.55446289 490.58231445 372.54516602 491.69262695 C372.52776367 492.92239258 372.52776367 492.92239258 372.51000977 494.17700195 C374.01567505 494.1612915 374.01567505 494.1612915 375.55175781 494.14526367 C379.28837495 494.10896742 383.0249766 494.08606655 386.76171875 494.06713867 C388.37665429 494.05710299 389.99157177 494.04347144 391.60644531 494.02612305 C393.93241852 494.00176731 396.25815072 493.99049448 398.58422852 493.98168945 C399.30213058 493.97136688 400.02003265 493.96104431 400.75968933 493.95040894 C405.65900094 493.94932108 409.34937416 494.54588755 413.29516602 497.5246582 C414.8609853 499.65437382 414.94307973 500.98749174 414.94750977 503.61450195 C414.9668457 504.37633789 414.98618164 505.13817383 415.00610352 505.9230957 C414.29368672 509.159824 413.15110606 510.17249639 410.51000977 512.17700195 C407.59930496 512.56891249 405.06783962 512.71456137 402.15783691 512.68036652 C401.30347959 512.68618028 400.44912226 512.69199404 399.56887531 512.69798398 C396.68634112 512.71266167 393.8046481 512.69866261 390.92211914 512.68493652 C388.84261385 512.68954236 386.76311182 512.69589314 384.68361664 512.7038455 C378.95389533 512.72060542 373.22443914 512.7122622 367.49471664 512.69990063 C361.32149167 512.69087966 355.14831345 512.70480515 348.97509766 512.71582031 C337.57562292 512.73261082 326.17625674 512.73111097 314.77678466 512.72017444 C304.24668848 512.7101213 293.71662343 512.70748116 283.18652344 512.71226501 C282.48866012 512.71257056 281.7907968 512.7128761 281.07178611 512.71319089 C278.23909487 512.7144362 275.40640364 512.7157098 272.57371244 512.71702995 C245.98843036 512.72927228 219.4032024 512.7181621 192.81792867 512.69664236 C169.18661422 512.67765923 145.55538597 512.67935771 121.92407227 512.69848633 C95.38813198 512.71989421 68.85223953 512.72840414 42.31629181 512.71603727 C39.48869325 512.71475436 36.66109467 512.713503 33.83349609 512.71226501 C33.13724395 512.71194871 32.4409918 512.7116324 31.7236411 512.7113065 C21.19888565 512.7067522 10.67416473 512.7120859 0.14941406 512.72218323 C-11.81496333 512.73360433 -23.77923887 512.73040885 -35.74361229 512.70906025 C-41.85239825 512.69852067 -47.96100889 512.69447748 -54.0697937 512.70765686 C-59.65577658 512.71952639 -65.24142066 512.71310834 -70.82737255 512.69174665 C-72.85422523 512.68725743 -74.8811062 512.68959838 -76.90794086 512.6992498 C-79.65164674 512.71131835 -82.39417428 512.69903656 -85.13781738 512.68036652 C-86.33322537 512.69441351 -86.33322537 512.69441351 -87.55278301 512.70874429 C-91.11568405 512.65989594 -93.10225251 512.47188431 -95.97879791 510.28421354 C-98.1925891 507.19729577 -98.05046654 504.99020169 -97.88061523 501.30200195 C-97.48999023 499.17700195 -97.48999023 499.17700195 -95.73999023 496.67700195 C-91.32184644 493.73157276 -86.82787256 494.04247032 -81.66186523 494.0793457 C-80.9128595 494.08076065 -80.16385376 494.0821756 -79.39215088 494.08363342 C-77.00805611 494.08921536 -74.62405645 494.1017645 -72.23999023 494.11450195 C-70.62019993 494.11951929 -69.00040814 494.12408179 -67.38061523 494.12817383 C-63.41703712 494.13917888 -59.45352978 494.15643104 -55.48999023 494.17700195 C-55.50231689 493.36585938 -55.51464355 492.5547168 -55.52734375 491.71899414 C-55.53693115 490.64810547 -55.54651855 489.5772168 -55.55639648 488.47387695 C-55.56872314 487.41523438 -55.5810498 486.3565918 -55.59375 485.26586914 C-55.34035026 477.72230809 -52.58820699 472.35166857 -47.45483398 466.90356445 C-41.35562485 461.54402084 -34.65283911 460.01841341 -26.67749023 460.11450195 C-25.70166992 460.12352539 -24.72584961 460.13254883 -23.72045898 460.1418457 C-22.61637695 460.15924805 -22.61637695 460.15924805 -21.48999023 460.17700195 C-20.65196101 449.8648726 -20.65196101 449.8648726 -24.47827148 440.79418945 C-26.32385797 439.57473527 -28.2086069 438.41346635 -30.11889648 437.2980957 C-49.40186959 425.16524009 -61.83655795 402.88981756 -68.30249023 381.61450195 C-68.4975415 380.97915527 -68.69259277 380.34380859 -68.89355469 379.68920898 C-72.6733714 366.34730632 -72.76627268 352.95071285 -72.68530273 339.21606445 C-72.68156335 337.33035432 -72.67872076 335.44464223 -72.67672729 333.55892944 C-72.66916362 328.64353889 -72.64957931 323.72827028 -72.62731934 318.81292725 C-72.60670259 313.77805225 -72.59769204 308.74315717 -72.58764648 303.70825195 C-72.56632512 293.86444896 -72.53227917 284.02073567 -72.48999023 274.17700195 C-73.10867981 274.18257614 -73.72736938 274.18815033 -74.36480713 274.19389343 C-75.17601013 274.19822891 -75.98721313 274.20256439 -76.82299805 274.20703125 C-77.62731262 274.21260544 -78.4316272 274.21817963 -79.26031494 274.22392273 C-84.79634871 274.1074237 -89.21024129 272.23892129 -93.42749023 268.73950195 C-98.05539484 262.98968108 -97.8559099 258.22546337 -97.86499023 251.05200195 C-97.90172852 249.55926758 -97.90172852 249.55926758 -97.93920898 248.03637695 C-97.98237186 237.01545594 -94.56848296 229.33461992 -87.00170898 221.38012695 C-79.72164208 214.99450061 -72.19546875 212.99831932 -62.73999023 213.11450195 C-61.69391602 213.12126953 -61.69391602 213.12126953 -60.62670898 213.12817383 C-58.91443221 213.13990175 -57.2021999 213.15783543 -55.48999023 213.17700195 C-55.49367741 212.36715347 -55.49736458 211.55730499 -55.50116348 210.72291565 C-55.58976136 190.95590739 -55.65581941 171.18893368 -55.69723892 151.42176819 C-55.71780496 141.86224201 -55.74581067 132.30284892 -55.79174805 122.7434082 C-55.83179928 114.40483472 -55.85746627 106.0663577 -55.86634421 97.7276907 C-55.87152822 93.31834904 -55.88358598 88.90928318 -55.91291046 84.50003052 C-55.94036971 80.33690448 -55.94837474 76.17416382 -55.94242096 72.01095581 C-55.94350774 70.49540094 -55.95127805 68.97983111 -55.96681213 67.46435547 C-56.14712435 48.9408698 -52.01610995 31.11526616 -38.83764648 17.30200195 C-28.03588751 7.52470264 -14.84689305 0.1260052 0 0 Z M51.54763985 466.43665409 C51.20522192 467.01096889 50.86280399 467.58528368 50.51000977 468.17700195 C49.89770508 468.9968457 49.28540039 469.81668945 48.65454102 470.66137695 C44.27140126 478.11657068 40.51000977 485.407649 40.51000977 494.17700195 C118.39000977 494.17700195 196.27000977 494.17700195 276.51000977 494.17700195 C275.58937415 485.61447768 275.58937415 485.61447768 272.51000977 478.23950195 C271.70563477 476.5862793 271.70563477 476.5862793 270.88500977 474.8996582 C270.11415659 473.64573711 269.3195584 472.40629595 268.51000977 471.17700195 C268.00947649 470.34961801 267.50894321 469.52223406 266.99324226 468.66977787 C263.82540472 464.29201865 260.93779707 461.14794306 255.4819603 460.2491436 C250.34532853 459.76349763 245.20949767 459.85835278 240.05639648 459.93066406 C238.07628142 459.92201695 236.09618117 459.90907086 234.11611938 459.89216614 C228.75612609 459.85947697 223.39816106 459.88933878 218.03830862 459.93254161 C212.42284031 459.96910608 206.80747517 459.95433878 201.19192505 459.94691467 C191.76490423 459.94245128 182.33868258 459.97802126 172.91186523 460.03808594 C162.01820996 460.10706798 151.12578861 460.11578637 140.23196971 460.09157366 C129.7426394 460.06939597 119.25374794 460.08689643 108.76446915 460.12347603 C104.30442382 460.13851017 99.8446689 460.14020312 95.38460922 460.13123894 C90.13262198 460.12269095 84.88192772 460.14907726 79.63021469 460.20231438 C77.70457901 460.21634727 75.77881485 460.21855027 73.85315704 460.20798111 C61.28045648 459.62306013 61.28045648 459.62306013 51.54763985 466.43665409 Z " fill="#000000" transform="translate(97.489990234375,-0.177001953125)"/>
<path d="M0 0 C12.61429476 -0.1164689 25.22845907 -0.20500502 37.84318447 -0.25906086 C43.7023732 -0.28502078 49.5611908 -0.32016736 55.42016602 -0.37719727 C61.08716988 -0.43200578 66.75381949 -0.46152249 72.42106819 -0.47438622 C74.57016631 -0.48353918 76.71924771 -0.50140954 78.86819267 -0.52865028 C102.93887796 -0.82130797 122.88331053 4.99977934 141.5690918 20.56762695 C147.35287602 25.38046097 153.41941523 29.33816121 160 33 C160.8979126 33.50225098 160.8979126 33.50225098 161.81396484 34.01464844 C182.45034342 45.39913079 203.77374172 49.73434491 227.125 50.5625 C228.27226562 50.60568359 229.41953125 50.64886719 230.6015625 50.69335938 C233.40095143 50.79833646 236.20041215 50.90049465 239 51 C239.00142502 51.93214828 239.00285004 52.86429657 239.00431824 53.82469177 C239.02103455 62.63709497 239.063949 71.44903913 239.13209057 80.261199 C239.16628736 84.79097976 239.19145912 89.32042588 239.19555664 93.8503418 C239.19985536 98.22731521 239.2284474 102.60353465 239.27343178 106.98027229 C239.28635674 108.64464986 239.29073228 110.30911789 239.28615379 111.97353935 C239.26461558 122.18673279 239.57642204 130.42234312 247.0625 138.12109375 C247.701875 138.55550781 248.34125 138.98992187 249 139.4375 C249.9590625 140.11619141 249.9590625 140.11619141 250.9375 140.80859375 C256.81121898 144.20155642 261.77409496 144.29663943 268.43066406 144.29052734 C270.0047831 144.30060318 270.0047831 144.30060318 271.61070251 144.31088257 C275.07905823 144.32987572 278.54722051 144.33378767 282.015625 144.3359375 C284.4307259 144.34236523 286.84582603 144.34909358 289.26092529 144.35610962 C294.32484746 144.36808621 299.38870139 144.37179011 304.45263672 144.37060547 C310.93006323 144.37040243 317.40705026 144.39768784 323.88437271 144.43214989 C328.87392166 144.45442913 333.86336509 144.45844266 338.85295868 144.45738602 C341.24028791 144.45974106 343.62762008 144.46855909 346.01490021 144.48405075 C349.36082873 144.50372758 352.70581288 144.49786489 356.05175781 144.48583984 C357.0307756 144.49707886 358.0097934 144.50831787 359.01847839 144.51989746 C366.75652772 144.44951354 372.78785317 142.6410985 378.8125 137.6875 C383.90928054 131.42574105 386.1089195 125.97805889 386.20532227 117.86645508 C386.21522186 117.14425278 386.22512146 116.42205048 386.23532104 115.67796326 C386.26689759 113.29185255 386.29167822 110.90572194 386.31640625 108.51953125 C386.3369791 106.86471541 386.35797566 105.20990479 386.37937927 103.55509949 C386.43456575 99.20024847 386.48399013 94.84535029 386.53222656 90.49041748 C386.59130018 85.2649037 386.65750933 80.03947607 386.72252655 74.81403351 C386.82049302 66.87607497 386.90937846 58.9380611 387 51 C399.87 51 412.74 51 426 51 C426.0928125 59.6934375 426.0928125 59.6934375 426.1875 68.5625 C426.21481201 70.3576001 426.24212402 72.1527002 426.27026367 74.00219727 C426.50972622 100.98822052 417.83860777 123.58331221 399 143 C398.38898438 143.68449219 397.77796875 144.36898437 397.1484375 145.07421875 C381.209075 162.33620921 356.96916285 170.27050536 334.05003357 171.37079048 C327.48606002 171.56977322 320.92370607 171.55325135 314.35742188 171.53344727 C311.85640458 171.54052326 309.35539156 171.54927525 306.85438538 171.55955505 C300.82022484 171.57956282 294.7863339 171.58112539 288.75216782 171.57292951 C283.83959721 171.5665795 278.92708124 171.56781177 274.01451111 171.57420158 C272.95797205 171.57555407 272.95797205 171.57555407 271.88008878 171.57693387 C270.44833234 171.57878543 269.01657591 171.58064799 267.5848195 171.58252143 C254.2200802 171.59902325 240.85544709 171.59044546 227.49071425 171.57353585 C215.31350771 171.55884031 203.13654796 171.57347876 190.95937318 171.60230602 C178.3939723 171.6318263 165.82868481 171.64263606 153.26325083 171.63312382 C151.8373302 171.63210147 150.41140956 171.63110685 148.98548889 171.6301403 C148.28426225 171.62966391 147.58303561 171.62918752 146.86055967 171.6286967 C141.96493283 171.62654947 137.06941549 171.6362452 132.17381287 171.65091133 C125.56117452 171.67044877 118.94891694 171.66314358 112.33627129 171.63871193 C109.92624063 171.63374765 107.51617444 171.63707789 105.10617256 171.64986038 C83.63251606 171.7546439 64.71132817 168.95128616 46 158 C44.44152344 157.09701172 44.44152344 157.09701172 42.8515625 156.17578125 C23.57831456 144.42702052 10.06394506 125.23703849 3.25 103.875 C3.03907715 103.21798096 2.8281543 102.56096191 2.61083984 101.8840332 C2.41441895 101.23909912 2.21799805 100.59416504 2.015625 99.9296875 C1.84321289 99.36491699 1.67080078 98.80014648 1.49316406 98.21826172 C0.07490223 91.8388919 -0.1429665 85.51644666 -0.11352539 79.01367188 C-0.11367142 78.15418945 -0.11381744 77.29470703 -0.1139679 76.40917969 C-0.11327662 73.59567658 -0.1055213 70.78224141 -0.09765625 67.96875 C-0.09578928 66.00720252 -0.09436669 64.04565456 -0.09336853 62.08410645 C-0.08956534 56.94179987 -0.07975397 51.7995219 -0.06866455 46.65722656 C-0.05840302 41.40169664 -0.05386078 36.14616207 -0.04882812 30.890625 C-0.0381296 20.59373749 -0.02107977 10.29687113 0 0 Z " fill="#00BBD3" transform="translate(43,273)"/>
<path d="M0 0 C7.84290279 -0.10232824 15.68563027 -0.17185119 23.52905273 -0.21972656 C26.19148591 -0.23742784 28.85303133 -0.26689782 31.51538086 -0.30175781 C66.89866298 -0.75309212 66.89866298 -0.75309212 82 10 C83.36125 10.928125 83.36125 10.928125 84.75 11.875 C92.63859208 19.32533696 99.32206097 30.37719092 100.18598175 41.36553001 C100.25935098 44.15781944 100.2702373 46.94381965 100.25878906 49.73706055 C100.2622937 50.79479675 100.26579834 51.85253296 100.26940918 52.94232178 C100.27818185 56.423855 100.2723943 59.90518361 100.265625 63.38671875 C100.26697263 65.81093891 100.26891398 68.23515881 100.27142334 70.65937805 C100.2743683 75.73233623 100.27009597 80.80522386 100.26074219 85.87817383 C100.24932982 92.38505743 100.25592248 98.89177637 100.26788712 105.39865398 C100.27510705 110.40085598 100.27281747 115.40301878 100.26763153 120.40522194 C100.26629635 122.80504183 100.26793814 125.20486526 100.27259064 127.60468102 C100.27765996 130.95359129 100.26994049 134.30223283 100.25878906 137.65112305 C100.26283752 138.64497513 100.26688599 139.63882721 100.27105713 140.66279602 C100.26541748 141.57532135 100.25977783 142.48784668 100.25396729 143.42802429 C100.25321323 144.21904887 100.25245918 145.01007345 100.25168228 145.82506847 C99.966531 148.28922486 99.28553656 149.88891891 98 152 C94.63526444 154.4280216 91.34430125 154.27051443 87.29125977 154.30639648 C86.62571075 154.31472 85.96016174 154.32304352 85.27444458 154.33161926 C83.08003854 154.35566365 80.88592993 154.36448359 78.69140625 154.37109375 C77.1621034 154.38006313 75.63280144 154.38918503 74.10350037 154.39845276 C70.89995188 154.41492931 67.69650775 154.42264063 64.49291992 154.42553711 C60.39247851 154.43092494 56.29302036 154.46862567 52.19285679 154.51428127 C49.03493177 154.54405341 45.87724375 154.55126065 42.7191906 154.55226326 C41.20771714 154.55646399 39.69624287 154.56889265 38.18490791 154.58978081 C36.06858451 154.61670673 33.95454324 154.61186993 31.83813477 154.59936523 C30.0342202 154.60697121 30.0342202 154.60697121 28.19386292 154.61473083 C23.84994509 153.77864604 22.48712947 152.66317017 20 149 C19.29772695 145.55371874 19.35048682 142.18727755 19.40405273 138.68041992 C19.3999942 137.64225128 19.39593567 136.60408264 19.39175415 135.53445435 C19.38623682 133.28098225 19.39224561 131.02745916 19.40841484 128.77403831 C19.43385179 125.19415266 19.42902733 121.61541804 19.41651917 118.03547668 C19.39575415 110.4193585 19.4154188 102.80359475 19.4375 95.1875 C19.45867536 86.39526708 19.46297063 77.60340772 19.43699837 68.81118202 C19.43366773 65.30827157 19.45476719 61.80609298 19.47740173 58.30326843 C19.5064659 37.44812139 16.70681458 19.25611586 1.50390625 3.70703125 C0 2 0 2 0 0 Z " fill="#E71D62" transform="translate(313,247)"/>
<path d="M0 0 C0.90504272 -0.00708481 1.81008545 -0.01416962 2.74255371 -0.02146912 C3.72847504 -0.0189917 4.71439636 -0.01651428 5.73019409 -0.01396179 C7.29703949 -0.02162819 7.29703949 -0.02162819 8.89553833 -0.02944946 C12.35854797 -0.0433765 15.82135893 -0.04238446 19.28439331 -0.04008484 C21.70178297 -0.04397381 24.11917196 -0.0483089 26.53656006 -0.05307007 C31.61577562 -0.0605417 36.69492171 -0.06023689 41.7741394 -0.05497742 C48.23830809 -0.04922171 54.70218661 -0.06601431 61.16630745 -0.08932209 C66.16822943 -0.1041718 71.17008365 -0.10491527 76.17202377 -0.10181236 C78.55190474 -0.10232128 80.93178994 -0.10747709 83.31164932 -0.11762428 C100.71627976 -0.18265001 117.44132138 0.5897999 134.02658081 6.38569641 C134.89661743 6.68427551 135.76665405 6.98285461 136.66305542 7.29048157 C151.5518079 12.60158659 164.01655248 20.48673024 176.19845581 30.51069641 C192.35863994 43.36741749 211.40466131 50.19394772 231.94454956 51.4030304 C237.14987469 51.78736425 240.31764941 52.82742597 244.46408081 56.26069641 C246.53131795 59.36155212 246.70905504 59.99001322 246.65939331 63.49116516 C246.652948 64.29360657 246.64650269 65.09604797 246.63986206 65.92280579 C246.62310425 66.75618469 246.60634644 67.5895636 246.58908081 68.44819641 C246.57554565 69.71566711 246.57554565 69.71566711 246.56173706 71.00874329 C246.53818785 73.09284884 246.50231728 75.17680858 246.46408081 77.26069641 C211.83756639 77.87758649 183.68921385 70.39902828 156.46408081 48.26069641 C138.27227803 34.3933578 118.13308923 27.16987817 95.30831909 27.05537415 C94.08824661 27.04547455 92.86817413 27.03557495 91.61112976 27.02537537 C88.27895202 26.99926615 84.94679723 26.97737196 81.61458063 26.95737338 C78.12720374 26.93543972 74.63986937 26.90808729 71.15252686 26.88131714 C64.55475529 26.8314897 57.95695999 26.78651415 51.35914218 26.74329478 C43.84521226 26.69383713 36.33132503 26.63895074 28.81743646 26.58361518 C13.36635741 26.46994796 -2.08476097 26.36307596 -17.53591919 26.26069641 C-17.58164672 24.17887051 -17.61428742 22.09675435 -17.64138794 20.01460266 C-17.66096558 18.85517151 -17.68054321 17.69574036 -17.70071411 16.50117493 C-17.40997878 10.78424144 -15.23375936 7.83119857 -11.03591919 3.94819641 C-7.24931139 1.39223615 -4.61637936 0.01208606 0 0 Z " fill="#F1F1F1" transform="translate(34.535919189453125,229.7393035888672)"/>
<path d="M0 0 C1.21832016 -0.00145523 2.43664032 -0.00291046 3.69187927 -0.00440979 C6.24732881 -0.00276208 8.80278945 0.00867099 11.3581543 0.02954102 C15.23985488 0.05854713 19.12019002 0.0501132 23.00195312 0.03710938 C25.50130863 0.04334698 28.00065988 0.05173808 30.5 0.0625 C32.21613243 0.05809654 32.21613243 0.05809654 33.9669342 0.05360413 C50.42012388 0.24361776 61.81339497 5.09459792 73.31640625 16.77734375 C74.13882813 17.63328125 74.96125 18.48921875 75.80859375 19.37109375 C76.6696875 20.25023438 77.53078125 21.129375 78.41796875 22.03515625 C80.51604999 24.17986152 82.60412229 26.33336658 84.68359375 28.49609375 C81.41825336 31.01903128 78.14653708 32.86748016 74.43359375 34.68359375 C73.3559375 35.21339844 72.27828125 35.74320313 71.16796875 36.2890625 C70.348125 36.68738281 69.52828125 37.08570313 68.68359375 37.49609375 C68.30138672 37.09293945 67.91917969 36.68978516 67.52539062 36.27441406 C65.75582824 34.4207389 63.96999795 32.58353807 62.18359375 30.74609375 C61.58289063 30.111875 60.9821875 29.47765625 60.36328125 28.82421875 C54.1315119 22.45985856 47.43148538 18.42498453 38.36108398 18.30322266 C37.27242538 18.28715973 36.18376678 18.2710968 35.06211853 18.25454712 C30.06835616 18.2099369 25.07472594 18.16900523 20.08081055 18.14599609 C17.45344157 18.12947278 14.82611687 18.10223134 12.19897461 18.06396484 C8.40064283 18.00894776 4.60336517 17.9872795 0.8046875 17.97265625 C-0.35922012 17.94998688 -1.52312775 17.9273175 -2.7223053 17.90396118 C-11.7619581 17.92715628 -18.13984422 20.13668516 -25.19140625 25.80859375 C-31.83609362 34.21216895 -31.90004682 41.80456372 -31.86230469 52.09179688 C-31.87104874 53.66932185 -31.88153742 55.24683797 -31.89363098 56.82434082 C-31.92140992 61.08826497 -31.92489747 65.35189856 -31.92391109 69.61590004 C-31.92704719 74.07891925 -31.95267988 78.54180893 -31.97589111 83.00476074 C-32.01640137 91.44765924 -32.03678011 99.89048059 -32.04986501 108.33346128 C-32.06575192 117.94901056 -32.10417467 127.56442888 -32.14445829 137.17990208 C-32.22678915 156.9519258 -32.28012449 176.72393652 -32.31640625 196.49609375 C-37.92640625 196.49609375 -43.53640625 196.49609375 -49.31640625 196.49609375 C-49.43234516 175.45084088 -49.52147837 154.40566542 -49.57546711 133.36015701 C-49.60120572 123.58748729 -49.63627286 113.81502014 -49.69360352 104.04248047 C-49.74357183 95.520828 -49.77572881 86.99932229 -49.78684872 78.47752738 C-49.79334483 73.96876328 -49.80852103 69.46041891 -49.84505653 64.95178986 C-49.87922875 60.69997877 -49.88941687 56.44875659 -49.88194466 52.19682121 C-49.8833098 50.64409868 -49.8931154 49.09135455 -49.91243362 47.5387516 C-50.06939482 34.26218794 -47.33027229 23.97268152 -38.53515625 13.75 C-27.80877567 2.85365917 -14.91798984 -0.14674166 0 0 Z " fill="#7D8C92" transform="translate(109.31640625,16.50390625)"/>
<path d="M0 0 C13.36764741 7.5756395 22.14047575 18.57770148 26.29197311 33.39027596 C27.17661417 37.81199641 27.03217813 42.30916008 27.04150391 46.80249023 C27.05154953 47.91541946 27.06159515 49.02834869 27.07194519 50.17500305 C27.10273094 53.83801782 27.11979977 57.50095964 27.13671875 61.1640625 C27.15543407 63.70997239 27.17500776 66.2558761 27.19540405 68.80177307 C27.241456 74.80806365 27.27887796 80.81434751 27.31207693 86.82071787 C27.35037766 93.66240393 27.39976682 100.50399611 27.45006108 107.34560287 C27.55321445 121.41132176 27.64252848 135.47710118 27.72265625 149.54296875 C25.66199521 149.67873705 23.59872868 149.77530778 21.53515625 149.85546875 C19.81232422 149.94248047 19.81232422 149.94248047 18.0546875 150.03125 C14.72265625 149.54296875 14.72265625 149.54296875 11.8341217 147.66288757 C8.81840839 143.20684463 9.04545455 139.58079244 9.12670898 134.31176758 C9.12265045 133.28346832 9.11859192 132.25516907 9.1144104 131.19570923 C9.10889457 128.96514184 9.11489765 126.73452291 9.13107109 124.50400734 C9.15648159 120.96777079 9.15169417 117.43270066 9.13917542 113.89640808 C9.1184136 106.38263384 9.1381007 98.86921927 9.16015625 91.35546875 C9.18128654 82.66369227 9.18574956 73.97229206 9.15965462 65.2805233 C9.15630521 61.80725402 9.17748263 58.33471011 9.20005798 54.86152649 C9.19754488 52.71473028 9.19398302 50.56793495 9.18920898 48.42114258 C9.20209457 47.46442154 9.21498016 46.5077005 9.22825623 45.52198792 C9.15888976 36.11510127 6.27247966 28.20754367 -0.21484375 21.30078125 C-7.53132326 15.0651453 -15.25387198 13.55568956 -24.58984375 13.29296875 C-33.33909451 12.91680017 -41.08655495 10.49470248 -49.27734375 7.54296875 C-48.27734375 4.54296875 -48.27734375 4.54296875 -45.22265625 2.75390625 C-43.95420926 2.13164923 -42.68049076 1.52004997 -41.40234375 0.91796875 C-40.76425781 0.60601562 -40.12617188 0.2940625 -39.46875 -0.02734375 C-27.57702683 -5.78700925 -12.02101656 -5.53742311 0 0 Z " fill="#AA1355" transform="translate(289.27734375,251.45703125)"/>
<path d="M0 0 C11.99708614 6.67110699 18.5468266 15.88790836 23.14453125 28.66796875 C23.63820625 31.99246368 23.453125 35.38514425 23.453125 38.74609375 C-4.596875 38.74609375 -32.646875 38.74609375 -61.546875 38.74609375 C-61.546875 25.40745595 -57.8722379 16.45870051 -48.7734375 6.87890625 C-35.56183044 -5.68560169 -16.14272679 -7.94756948 0 0 Z " fill="#9D9D9D" transform="translate(232.546875,64.25390625)"/>
<path d="M0 0 C8.3857978 1.64257895 14.97140079 4.12805046 22 9 C22.9075 9.61875 23.815 10.2375 24.75 10.875 C32.63859208 18.32533696 39.32206097 29.37719092 40.18598175 40.36553001 C40.25935098 43.15781944 40.2702373 45.94381965 40.25878906 48.73706055 C40.2622937 49.79479675 40.26579834 50.85253296 40.26940918 51.94232178 C40.27818185 55.423855 40.2723943 58.90518361 40.265625 62.38671875 C40.26697263 64.81093891 40.26891398 67.23515881 40.27142334 69.65937805 C40.2743683 74.73233623 40.27009597 79.80522386 40.26074219 84.87817383 C40.24932982 91.38505743 40.25592248 97.89177637 40.26788712 104.39865398 C40.27510705 109.40085598 40.27281747 114.40301878 40.26763153 119.40522194 C40.26629635 121.80504183 40.26793814 124.20486526 40.27259064 126.60468102 C40.27765996 129.95359129 40.26994049 133.30223283 40.25878906 136.65112305 C40.26283752 137.64497513 40.26688599 138.63882721 40.27105713 139.66279602 C40.26259766 141.03158401 40.26259766 141.03158401 40.25396729 142.42802429 C40.25321323 143.21904887 40.25245918 144.01007345 40.25168228 144.82506847 C39.96645373 147.28989266 39.28711855 148.88895305 38 151 C34.71310555 153.3541271 31.70115776 153.21089473 27.75 153.125 C26.67234375 153.10695313 25.5946875 153.08890625 24.484375 153.0703125 C23.66453125 153.04710937 22.8446875 153.02390625 22 153 C22.1619646 152.43503028 22.3239292 151.87006056 22.49080181 151.28797054 C23.01912551 148.91406369 23.13415843 146.82229071 23.14717102 144.39247131 C23.15432632 143.47178864 23.16148163 142.55110596 23.16885376 141.6025238 C23.17154266 140.59939651 23.17423157 139.59626923 23.17700195 138.56274414 C23.18357315 137.50039551 23.19014435 136.43804687 23.19691467 135.34350586 C23.21663921 131.82405524 23.2283113 128.30464738 23.23828125 124.78515625 C23.24235678 123.58043608 23.2464323 122.3757159 23.25063133 121.13448906 C23.27149304 114.75234016 23.28579177 108.37021273 23.29516602 101.98803711 C23.30620289 95.41796021 23.34057148 88.84822455 23.38033772 82.27826786 C23.40657895 77.2087901 23.41486476 72.13939252 23.41844749 67.06985283 C23.42329762 64.64953761 23.43486627 62.22922559 23.45348549 59.80897713 C23.61135566 37.91928222 20.88965416 21.28118568 5 5 C4.46503906 4.44957031 3.93007813 3.89914063 3.37890625 3.33203125 C2.26670854 2.20723073 1.13612799 1.10062399 0 0 Z " fill="#AC1356" transform="translate(373,248)"/>
<path d="M0 0 C3.26580458 0.75364721 5.0227608 2.28191298 7.4375 4.5625 C8.6363141 6.9601282 8.76553535 9.17698666 9.03198242 11.81738281 C10.78992233 28.91251176 16.77548043 44.42971622 30.4375 55.5625 C41.95405802 63.85619583 52.25756557 67.58432065 66.34765625 68.22265625 C70.51588244 68.68110843 72.41974863 69.71719157 75.4375 72.5625 C76.86412219 75.41574437 76.74783868 77.39704549 76.4375 80.5625 C74.63756226 83.26240662 73.353727 85.1043865 70.4375 86.5625 C53.32483927 88.5973388 35.11476018 81.24470361 21.5625 71.1875 C20.16330742 70.00726504 18.78896044 68.79710484 17.4375 67.5625 C16.60734375 66.81226563 15.7771875 66.06203125 14.921875 65.2890625 C0.72831841 51.81793244 -8.61424181 32.7105653 -9.1875 13 C-9.35456017 6.51678033 -9.35456017 6.51678033 -7.27270508 4.00854492 C-4.94718083 1.99528188 -3.0219544 0.66335584 0 0 Z " fill="#EFF3F4" transform="translate(68.5625,340.4375)"/>
<path d="M0 0 C12.87 0 25.74 0 39 0 C39.061875 5.795625 39.12375 11.59125 39.1875 17.5625 C39.22846802 20.25515015 39.22846802 20.25515015 39.27026367 23.00219727 C39.50972622 49.98822052 30.83860777 72.58331221 12 92 C11.08347656 93.02673828 11.08347656 93.02673828 10.1484375 94.07421875 C-0.0355004 105.10320682 -16.95551588 115.14265628 -32 117 C-29.62893778 114.38794457 -27.09509067 112.78125737 -24.0625 111 C-1.99798747 97.17680208 12.05134003 74.72313077 19 50 C19.18546387 49.34692871 19.37092773 48.69385742 19.56201172 48.02099609 C21.7897877 38.83772042 21.462406 29.26819084 21.625 19.875 C21.66324883 18.04164951 21.70230438 16.20831566 21.7421875 14.375 C21.83893048 9.91676088 21.9190882 5.45866591 22 1 C14.74 1 7.48 1 0 1 C0 0.67 0 0.34 0 0 Z " fill="#00828E" transform="translate(430,324)"/>
<path d="M0 0 C0.01417969 1.31355469 0.02835937 2.62710937 0.04296875 3.98046875 C0.08987988 5.71618051 0.13812721 7.45185652 0.1875 9.1875 C0.19330078 10.05181641 0.19910156 10.91613281 0.20507812 11.80664062 C0.34795401 15.95004125 0.68440854 18.46907962 2.83203125 22.08203125 C7.59662448 24.96663702 12.03590826 24.58868064 17.5 24.5 C27.79457826 24.33292195 27.79457826 24.33292195 32.21875 26.78125 C34 30 34 30 34 42 C14.2 42 -5.6 42 -26 42 C-27.485 34.575 -27.485 34.575 -29 27 C-31.46376503 20.36678647 -33.92998797 14.72816508 -38 9 C-38 8.34 -38 7.68 -38 7 C-36.94941406 6.87882812 -35.89882813 6.75765625 -34.81640625 6.6328125 C-24.59246563 5.42519329 -14.99011661 3.73651358 -5.1640625 0.5859375 C-3 0 -3 0 0 0 Z " fill="#FCD900" transform="translate(418,453)"/>
<path d="M0 0 C3.88207455 0.69862937 7.54860603 1.76542961 11.3125 2.9375 C18.10838411 4.92232965 24.76818057 5.88018133 31.796875 6.60546875 C35 7 35 7 37 8 C35.657339 11.45255686 34.16264917 14.78512479 32.5625 18.125 C28.99067059 25.94298649 27.21403368 33.50176422 26 42 C6.2 42 -13.6 42 -34 42 C-34 30 -34 30 -32.21875 26.78125 C-26.60620491 23.67527844 -20.64353112 24.44898139 -14.37109375 24.55078125 C-8.29701699 24.51573445 -8.29701699 24.51573445 -2.83203125 22.08203125 C-0.2729528 17.77688648 -0.22057712 14.11599073 -0.1875 9.1875 C-0.16236328 8.30384766 -0.13722656 7.42019531 -0.11132812 6.50976562 C-0.05269442 4.34031866 -0.02342614 2.17011273 0 0 Z " fill="#FDDA00" transform="translate(94,453)"/>
<path d="M0 0 C7.56286723 -0.09194975 15.12378625 -0.17155778 22.68676758 -0.21972656 C25.25812359 -0.23981149 27.82943409 -0.26708479 30.40063477 -0.30175781 C34.10183966 -0.35041081 37.80243933 -0.37300083 41.50390625 -0.390625 C42.64896133 -0.41127014 43.79401642 -0.43191528 44.97377014 -0.45318604 C52.49995346 -0.45529029 57.16957014 0.3716148 62.77734375 5.68359375 C67.38078267 12.6430014 66 15.34211616 66 25 C44.55 25 23.1 25 1 25 C0.67 16.75 0.34 8.5 0 0 Z " fill="#F4F4F4" transform="translate(429,282)"/>
<path d="M0 0 C5.61 0 11.22 0 17 0 C17.00410889 2.24989746 17.00821777 4.49979492 17.01245117 6.81787109 C17.02970908 14.28189262 17.07431112 21.7455746 17.13209057 29.20938683 C17.16626717 33.73129176 17.19145595 38.25286219 17.19555664 42.77490234 C17.19985973 47.14539628 17.22848748 51.51513683 17.27343178 55.88539505 C17.28634291 57.54615503 17.29073727 59.20700546 17.28615379 60.8678093 C17.26642285 70.19475366 17.55119931 78.00340604 23 86 C16.40540057 86.50503791 11.85541179 85.98165554 6.0078125 82.77734375 C2.07282763 79.29404002 0.1920543 75.45776429 -0.48101807 70.34889221 C-0.47213562 69.04983444 -0.46325317 67.75077667 -0.45410156 66.41235352 C-0.45468567 65.68956711 -0.45526978 64.9667807 -0.45587158 64.22209167 C-0.45310742 61.85719043 -0.42209761 59.49358447 -0.390625 57.12890625 C-0.3831566 55.47981962 -0.3774665 53.83072407 -0.37347412 52.18162537 C-0.35826475 47.85941696 -0.31902427 43.53775361 -0.2746582 39.21575928 C-0.23360349 34.79821138 -0.21544141 30.38057467 -0.1953125 25.96289062 C-0.15252459 17.3083168 -0.08221401 8.65428918 0 0 Z " fill="#00808B" transform="translate(265,324)"/>
<path d="M0 0 C3.97191333 3.3325972 5.97712174 6.49592895 7.90234375 11.26953125 C8.39782715 12.4810083 8.89331055 13.69248535 9.40380859 14.94067383 C9.91592189 16.2309325 10.4271372 17.52154792 10.9375 18.8125 C11.46633142 20.13005375 11.99579345 21.44735457 12.52587891 22.7644043 C13.56140171 25.34391847 14.58845807 27.92658502 15.60986328 30.51171875 C16.76856893 33.41926816 17.96103652 36.30647133 19.18359375 39.1875 C19.74846315 40.56206188 20.31238682 41.93701311 20.875 43.3125 C21.34679687 44.44300781 21.81859375 45.57351562 22.3046875 46.73828125 C23.25368419 51.19003536 22.47042991 53.70182027 21 58 C18.02051889 60.80922504 16.53382163 61.00936529 12.4375 60.9375 C8.46518922 59.85414251 7.55755298 59.16824337 5 56 C3.43861062 52.95750079 2.18384909 49.81069641 0.92578125 46.6328125 C0.55647995 45.72046844 0.18717865 44.80812439 -0.1933136 43.86813354 C-0.9704368 41.94188713 -1.74256331 40.01361829 -2.51000977 38.08349609 C-3.68242478 35.13775171 -4.87209575 32.19943936 -6.06445312 29.26171875 C-6.81874309 27.38583241 -7.57203187 25.50954312 -8.32421875 23.6328125 C-8.67836349 22.7576297 -9.03250824 21.8824469 -9.39738464 20.98074341 C-13.75552422 9.96436297 -13.75552422 9.96436297 -11.75 4.75 C-8.59600918 -0.20627129 -5.61703512 -0.67791803 0 0 Z " fill="#000000" transform="translate(251,136)"/>
<path d="M0 0 C3.34265205 1.20706879 3.94704566 1.92056849 6 5 C6.65700742 11.73800676 4.99594298 16.61958494 2.421875 22.79296875 C2.05402893 23.70202469 1.68618286 24.61108063 1.30718994 25.54768372 C0.53028969 27.4589031 -0.25338741 29.36738027 -1.04345703 31.27319336 C-2.2479677 34.18259115 -3.42822334 37.10096295 -4.60546875 40.02148438 C-5.36577225 41.88339104 -6.127445 43.74473929 -6.890625 45.60546875 C-7.24183411 46.47326462 -7.59304321 47.34106049 -7.95489502 48.2351532 C-9.8052358 52.66808551 -11.56480611 56.5343948 -15 60 C-18.94929279 61.14888518 -21.02958859 61.43129396 -24.8125 59.75 C-27 58 -27 58 -29 55 C-29.36471481 48.32766701 -26.83382136 42.13470967 -24.359375 36.07421875 C-23.99531555 35.16420609 -23.6312561 34.25419342 -23.25616455 33.31660461 C-22.48846991 31.40758686 -21.71500188 29.50088158 -20.93603516 27.59643555 C-19.74922573 24.68560099 -18.59055349 21.76460382 -17.43359375 18.84179688 C-16.68135848 16.98109443 -15.92750747 15.12104419 -15.171875 13.26171875 C-14.82896423 12.39189865 -14.48605347 11.52207855 -14.13275146 10.62590027 C-11.2744393 3.73771671 -8.21318888 -1.0484922 0 0 Z " fill="#000000" transform="translate(182,136)"/>
<path d="M0 0 C0.7734375 0.06445312 1.546875 0.12890625 2.34375 0.1953125 C5.2377795 1.10756093 5.93082659 2.30817277 7.5 4.875 C7.88768005 7.26525879 7.88768005 7.26525879 7.90405273 9.94726562 C7.91673691 10.95511108 7.92942108 11.96295654 7.94248962 13.00134277 C7.93955399 14.08371216 7.93661835 15.16608154 7.93359375 16.28125 C7.9388356 17.39810181 7.94407745 18.51495361 7.94947815 19.66564941 C7.95589896 22.02595183 7.95456062 24.38628624 7.94604492 26.74658203 C7.9375316 30.36158058 7.96630319 33.97500119 7.99804688 37.58984375 C7.99965885 39.88281203 7.99908143 42.1757831 7.99609375 44.46875 C8.01294472 46.09230408 8.01294472 46.09230408 8.03013611 47.74865723 C8.01606468 49.26042542 8.01606468 49.26042542 8.00170898 50.80273438 C8.00154282 51.68779663 8.00137665 52.57285889 8.00120544 53.48474121 C7.33129104 56.67957641 6.02218756 57.86327089 3.5 59.875 C-0.40262049 60.93935104 -2.55879929 61.27239585 -6.3125 59.6875 C-9.15649464 57.3310473 -10.32976066 55.33232249 -10.76069641 51.64332581 C-10.7653038 50.83233932 -10.76991119 50.02135284 -10.7746582 49.18579102 C-10.78419022 48.26125626 -10.79372223 47.3367215 -10.80354309 46.38417053 C-10.80263168 45.39243332 -10.80172028 44.40069611 -10.80078125 43.37890625 C-10.80506638 42.3532103 -10.8093515 41.32751434 -10.81376648 40.27073669 C-10.81950583 38.1029433 -10.82001296 35.93513064 -10.81567383 33.76733398 C-10.81251504 30.45327856 -10.83597446 27.14011688 -10.86132812 23.82617188 C-10.86360129 21.71875113 -10.86430454 19.61132798 -10.86328125 17.50390625 C-10.872491 16.51419327 -10.88170074 15.52448029 -10.89118958 14.504776 C-10.83274357 5.80010098 -10.83274357 5.80010098 -7.5 1.875 C-4.26372698 -0.28251534 -3.66421162 -0.3786352 0 0 Z " fill="#000000" transform="translate(214.5,136.125)"/>
<path d="M0 0 C12.45538764 0.92262131 21.66136813 6.26295075 30.1875 15.1875 C37.42580501 23.59419283 40 32.11592497 40 43 C11.95 43 -16.1 43 -45 43 C-45 42.67 -45 42.34 -45 42 C-22.56 42 -0.12 42 23 42 C20.7229305 30.32849567 20.7229305 30.32849567 16.4375 19.75 C16.09960449 19.08597168 15.76170898 18.42194336 15.41357422 17.73779297 C11.98450798 11.36112307 7.47007092 6.73801682 2 2 C1.34 1.34 0.68 0.68 0 0 Z " fill="#686868" transform="translate(216,60)"/>
<path d="M0 0 C1.9587043 0.14076315 3.91696093 0.2877676 5.875 0.4375 C7.51082031 0.55931641 7.51082031 0.55931641 9.1796875 0.68359375 C12 1 12 1 14 2 C12.657339 5.45255686 11.16264917 8.78512479 9.5625 12.125 C5.99067059 19.94298649 4.21403368 27.50176422 3 36 C-2.61 36 -8.22 36 -14 36 C-13.30651191 24.03733039 -9.40840415 15.01419955 -3 5 C-1.99554818 3.33601253 -0.99435341 1.67004164 0 0 Z " fill="#FBBF07" transform="translate(117,459)"/>
<path d="M0 0 C14.01127345 0.41576479 14.01127345 0.41576479 19 5 C21.06723714 8.10085571 21.24497423 8.72931681 21.1953125 12.23046875 C21.19031738 12.95387451 21.18532227 13.67728027 21.18017578 14.42260742 C21.15286377 15.79122925 21.15286377 15.79122925 21.125 17.1875 C21.08375 20.095625 21.0425 23.00375 21 26 C13.74 26 6.48 26 -1 26 C-1 25.67 -1 25.34 -1 25 C0.65 25 2.3 25 4 25 C3.91262714 21.9570141 3.80569374 18.91681634 3.6875 15.875 C3.66494141 15.0190625 3.64238281 14.163125 3.61914062 13.28125 C3.40152861 8.13769325 2.75300848 4.50223908 0 0 Z " fill="#CED7DB" transform="translate(260,281)"/>
<path d="M0 0 C11.63349894 -0.75733447 11.63349894 -0.75733447 16.49609375 2.62890625 C20.62562773 6.39375411 22.79917928 9.7523527 23.3046875 15.41015625 C23.31164772 18.60837627 23.16634888 21.80610148 23 25 C17.39 25 11.78 25 6 25 C5.938125 22.916875 5.87625 20.83375 5.8125 18.6875 C5.33501365 11.57584718 3.4268812 6.19620585 0 0 Z " fill="#CCD5D9" transform="translate(472,282)"/>
<path d="M0 0 C14.02789009 2.85313019 25.67992523 9.44747677 36.54345703 18.55615234 C42.33923076 23.39906941 48.46577901 27.22325667 55 31 C56.66806867 31.9976596 58.33521952 32.99686305 60 34 C53.57062282 36.14312573 45.67549134 30.85376982 39.78515625 27.9765625 C30.77817797 23.43193401 22.90306952 18.28358806 15 12 C12.8227362 10.36115703 10.62961031 8.74391184 8.4375 7.125 C5.42691769 4.89405056 2.56092227 2.74199758 0 0 Z " fill="#00808C" transform="translate(148,275)"/>
<path d="M0 0 C12.52867399 -0.76290978 12.52867399 -0.76290978 17.375 1.75 C19.92874956 6.85749913 19.31119742 11.33620696 19 17 C13.39 17 7.78 17 2 17 C1.77213542 13.74479167 1.54427083 10.48958333 1.31640625 7.234375 C1.06752213 4.69022624 0.71885058 2.44046752 0 0 Z " fill="#FBBF07" transform="translate(433,478)"/>
<path d="M0 0 C0 5.28 0 10.56 0 16 C-5.61 16 -11.22 16 -17 16 C-17 12.37 -17 8.74 -17 5 C-15.22934889 4.35366725 -13.45847247 3.7079517 -11.6875 3.0625 C-10.70136719 2.70285156 -9.71523438 2.34320313 -8.69921875 1.97265625 C-3.2248996 0 -3.2248996 0 0 0 Z " fill="#FBBF07" transform="translate(418,453)"/>
</svg>
