<?xml version="1.0" encoding="UTF-8"?>
<svg version="1.1" xmlns="http://www.w3.org/2000/svg" width="512" height="512">
<path d="M0 0 C2.97378356 2.41192424 2.97378356 2.41192424 6.41796875 3.8828125 C8.07954546 3.43154573 9.73954182 2.96896981 11.37451172 2.42919922 C23.20326387 -0.73361408 37.76314276 1.18617286 48.41796875 6.8828125 C54.90251185 11.00383055 61.04921964 15.48571558 65.41796875 21.8828125 C65.41796875 22.5428125 65.41796875 23.2028125 65.41796875 23.8828125 C67.08085938 23.39941406 67.08085938 23.39941406 68.77734375 22.90625 C81.8923757 19.64767786 97.09389477 20.63894151 108.890625 27.2734375 C111.15990356 28.7130466 113.28721894 30.24662744 115.41796875 31.8828125 C116.34029297 32.54216797 116.34029297 32.54216797 117.28125 33.21484375 C126.84337991 40.57195923 132.85404408 53.07960743 134.41796875 64.8828125 C135.27618438 78.66377498 133.05959536 91.69876308 124.1640625 102.66015625 C121.33425827 105.8260849 118.42002174 108.88075951 115.41796875 111.8828125 C115.04474448 114.99037265 115.04474448 114.99037265 115.00390625 118.640625 C114.9845401 119.30367645 114.96517395 119.96672791 114.94522095 120.64987183 C114.88540921 122.76905427 114.83903487 124.888291 114.79296875 127.0078125 C114.7547903 128.44403419 114.71573864 129.88023295 114.67578125 131.31640625 C114.5797075 134.83833186 114.49568233 138.36042858 114.41796875 141.8828125 C115.13856476 141.87170944 115.85916077 141.86060638 116.60159302 141.84916687 C123.45480902 141.74820284 130.30791125 141.67246576 137.16168404 141.62375164 C140.68380058 141.59786311 144.2052932 141.56285695 147.72705078 141.50561523 C151.79334857 141.43995045 155.85901047 141.4164614 159.92578125 141.39453125 C161.16595001 141.36872482 162.40611877 141.3429184 163.68386841 141.31632996 C178.01324356 141.31182103 189.93076078 146.06435402 200.41796875 155.8828125 C212.91413728 170.09976489 214.72167402 184.48419597 214.69262695 202.6965332 C214.69697919 204.50102956 214.70216404 206.30552407 214.70811462 208.11001587 C214.72146185 212.99238531 214.72208799 217.87467713 214.71955132 222.75706124 C214.71847856 226.84226765 214.72337286 230.92745856 214.72815675 235.01266164 C214.73923747 244.65615806 214.73969763 254.29961553 214.73364258 263.94311523 C214.72760538 273.86957023 214.73991069 283.79588338 214.76121265 293.72231418 C214.77886541 302.26444756 214.78482416 310.80653594 214.7815749 319.34868687 C214.77976753 324.44179499 214.78234343 329.53480195 214.79628944 334.62789345 C214.80892283 339.42063458 214.80687184 344.21315571 214.79387856 349.00589371 C214.79152507 350.75693653 214.79420303 352.50799511 214.80250168 354.25901985 C214.87362848 370.44388801 212.85135774 385.67675785 201.359375 398.12890625 C189.00163369 409.29314337 176.76574606 413.54823445 160.12109375 413.2734375 C158.80631042 413.26777771 157.4915271 413.26211792 156.13690186 413.25628662 C152.68436817 413.24119923 149.23253511 413.20207045 145.78027344 413.1574707 C142.24033072 413.11614682 138.70027195 413.09819741 135.16015625 413.078125 C128.24581056 413.03555397 121.33192352 412.9675155 114.41796875 412.8828125 C114.4336792 413.94081055 114.44938965 414.99880859 114.46557617 416.08886719 C114.52048384 420.06974466 114.55453658 424.05058973 114.58276367 428.03173828 C114.59771335 429.74436092 114.61808061 431.45694621 114.64428711 433.16943359 C114.89218626 449.8029803 113.20941072 465.28878921 101.359375 478.12890625 C86.55046948 491.50757543 72.28926216 493.4829764 52.99072266 493.41625977 C50.83434969 493.42332697 48.67798169 493.43207533 46.5216217 493.44236755 C40.6929838 493.46478214 34.86461847 493.46194017 29.035954 493.45304608 C24.15795359 493.44791904 19.28000362 493.45524274 14.40200841 493.46251816 C2.88807753 493.47949228 -8.62572074 493.47597666 -20.13964844 493.45922852 C-31.99128529 493.44231131 -43.84255371 493.45814218 -55.69415033 493.4904514 C-65.8949789 493.51719991 -76.09569315 493.52440902 -86.29655325 493.51593632 C-92.37788359 493.5110223 -98.45899238 493.51314005 -104.54029465 493.53372383 C-110.2614899 493.55216343 -115.98215785 493.54602103 -121.70332527 493.52152443 C-123.79377674 493.5165427 -125.88426897 493.51993705 -127.97468758 493.53267288 C-145.53431669 493.63112893 -159.30075884 491.31716319 -172.58203125 478.8828125 C-185.22768731 464.49578741 -186.87980291 449.92476906 -186.90087891 431.51147461 C-186.91018675 429.64809743 -186.92035669 427.78472438 -186.93132019 425.9213562 C-186.95853766 420.8828024 -186.97374508 415.84427643 -186.98674822 410.80566859 C-187.00241496 405.53256854 -187.02919385 400.25952502 -187.05477905 394.98646545 C-187.10150419 385.01010852 -187.1382786 375.03374087 -187.17145193 365.05733067 C-187.20971763 353.69575534 -187.25911612 342.33423688 -187.30943608 330.97270954 C-187.41266274 307.60945271 -187.50195322 284.24615933 -187.58203125 260.8828125 C-188.70544922 261.12257813 -188.70544922 261.12257813 -189.8515625 261.3671875 C-198.44840504 262.99062558 -206.01541678 261.25745202 -213.70703125 257.2578125 C-221.56851681 250.76354182 -226.86938686 244.3416116 -227.86301994 233.94188118 C-227.97796892 230.51218 -227.99883966 227.09397396 -227.98608398 223.66235352 C-227.99294724 222.36346695 -227.99981049 221.06458038 -228.00688171 219.72633362 C-228.02472884 216.18437611 -228.02365912 212.64266754 -228.01793933 209.10067868 C-228.01483081 206.12696806 -228.02095929 203.15330412 -228.02697808 200.17960018 C-228.04099816 193.14874613 -228.03948707 186.11801361 -228.02807617 179.0871582 C-228.01663689 171.8804991 -228.03060533 164.67421398 -228.05747265 157.46760422 C-228.07978764 151.24466128 -228.08623069 145.02183432 -228.08039623 138.79885429 C-228.07705807 135.09831575 -228.07922658 131.39801586 -228.09664726 127.69751167 C-228.23096074 96.15721251 -223.32270139 69.37865039 -200.58203125 45.8828125 C-185.29845766 31.29496693 -163.86396286 20.92962086 -142.4765625 20.796875 C-135.53062036 21.00302935 -135.53062036 21.00302935 -129.4765625 18.2109375 C-127.78584933 16.00807699 -127.78584933 16.00807699 -126.2890625 13.546875 C-115.83281722 -2.77156729 -95.44788845 -13.21297849 -77.20703125 -18.0546875 C-49.50919012 -23.13103868 -21.96425264 -17.78206067 0 0 Z M114.41796875 201.8828125 C114.41796875 251.7128125 114.41796875 301.5428125 114.41796875 352.8828125 C127.28796875 352.8828125 140.15796875 352.8828125 153.41796875 352.8828125 C153.41796875 303.0528125 153.41796875 253.2228125 153.41796875 201.8828125 C140.54796875 201.8828125 127.67796875 201.8828125 114.41796875 201.8828125 Z " fill="#030201" transform="translate(262.58203125,19.1171875)"/>
<path d="M0 0 C6.93 0 13.86 0 21 0 C21 102.96 21 205.92 21 312 C9.78 312.33 -1.44 312.66 -13 313 C-17.97791744 317.11426708 -17.97791744 317.11426708 -18.5234375 320.1328125 C-18.28970582 323.26973767 -17.99854283 326.00437152 -17 329 C-12.99625304 331.20611789 -9.23870253 331.30274809 -4.73046875 331.4140625 C-4.04946609 331.43342865 -3.36846344 331.4527948 -2.66682434 331.4727478 C-0.50717407 331.53218132 1.65253057 331.578782 3.8125 331.625 C5.28322544 331.66321328 6.75392929 331.70226694 8.22460938 331.7421875 C11.81620789 331.83785183 15.40796913 331.92201575 19 332 C18.25938543 336.36994459 17.11871002 338.61986592 14.1875 342 C13.15689453 343.2375 13.15689453 343.2375 12.10546875 344.5 C1.3085528 353.19185686 -10.5436986 352.71413788 -23.68041992 352.63110352 C-25.75623688 352.63624914 -27.83204945 352.64353526 -29.90785217 352.65278625 C-35.51517127 352.67122279 -41.12201187 352.65841192 -46.72931075 352.63869596 C-52.6107495 352.62225067 -58.49215935 352.63113021 -64.37361145 352.63621521 C-74.24483848 352.64072852 -84.11587554 352.62491087 -93.98706055 352.59692383 C-105.38774499 352.56484889 -116.78808742 352.56490058 -128.18879622 352.5821386 C-139.17616817 352.59801721 -150.16341513 352.5912632 -161.15078163 352.57420158 C-165.81844741 352.56734213 -170.48601266 352.56835213 -175.15367699 352.57574654 C-180.6507512 352.58342349 -186.14743732 352.57123688 -191.64444542 352.54389763 C-193.6579727 352.53702858 -195.67153633 352.53689989 -197.68506241 352.54411316 C-200.44051016 352.55284488 -203.1947702 352.53678944 -205.95011902 352.5146637 C-206.74059905 352.52290446 -207.53107908 352.53114523 -208.34551305 352.53963572 C-217.1448795 352.4098456 -223.9208663 348.70983294 -230.26953125 342.8046875 C-233.41367435 339.52569402 -236 336.72397145 -236 332 C-234.85505428 331.99503478 -234.85505428 331.99503478 -233.68697834 331.98996925 C-215.11708574 331.90876052 -196.54727626 331.81667502 -177.97749805 331.71247292 C-168.99730445 331.66234412 -160.01711999 331.61590121 -151.03686523 331.578125 C-143.20997805 331.54519119 -135.38316175 331.50535226 -127.55635279 331.45720994 C-123.41185257 331.43195878 -119.26739928 331.4101734 -115.12284279 331.39665604 C-111.22159641 331.38382315 -107.3205111 331.3617555 -103.41935349 331.33261681 C-101.98790796 331.32355063 -100.5564365 331.31785303 -99.12496376 331.31578636 C-97.16923539 331.31245722 -95.21354332 331.29579181 -93.25788879 331.2784729 C-92.16372052 331.27294214 -91.06955225 331.26741138 -89.94222736 331.26171303 C-86.89104292 330.9903082 -84.72003809 330.3944881 -82 329 C-79.89946796 325.39908794 -79.47455407 322.11599315 -80 318 C-82.23206431 315.15219381 -83.54992999 314.15002334 -87 313 C-89.02916617 312.89683281 -91.06155468 312.85358433 -93.0933075 312.84178162 C-94.36531604 312.83200759 -95.63732458 312.82223356 -96.94787884 312.81216335 C-98.36588697 312.80624894 -99.78389547 312.80042377 -101.2019043 312.79467773 C-102.71413093 312.78496318 -104.22635485 312.77481776 -105.73857594 312.76427555 C-109.79302858 312.73720334 -113.84749207 312.71603871 -117.90198517 312.69608307 C-121.70474041 312.67647562 -125.50745357 312.65156008 -129.31018066 312.6270752 C-140.43592215 312.55854055 -151.56171489 312.49854355 -162.6875 312.4375 C-187.540625 312.293125 -212.39375 312.14875 -238 312 C-238 221.91 -238 131.82 -238 39 C-229.585 36.525 -229.585 36.525 -221 34 C-205.8328843 26.90049904 -194.23219408 16.25540938 -187 1 C-182.71976977 1.52087458 -180.63413904 2.84784603 -177.4375 5.6875 C-163.29684446 17.39445221 -147.84822496 20.32912314 -130 19 C-118.73514698 17.47772256 -108.89184428 12.80248256 -100.5625 5.125 C-95.48000283 0.79465399 -91.89161941 -0.06218396 -85.28125 0.43359375 C-76.79012498 1.89932366 -67.46842965 4.21595911 -62.1875 11.5 C-60.26537674 15.54657529 -59.87446366 18.95420892 -59.8581543 23.42016602 C-59.84760262 25.04819908 -59.84760262 25.04819908 -59.83683777 26.7091217 C-59.83267349 27.8789006 -59.82850922 29.0486795 -59.82421875 30.25390625 C-59.80101004 32.7428469 -59.77689228 35.23177921 -59.75195312 37.72070312 C-59.71693422 41.63522848 -59.68754492 45.54944885 -59.67407227 49.46411133 C-59.65850619 53.24858456 -59.61822968 57.03217033 -59.57421875 60.81640625 C-59.57708138 62.54982018 -59.57708138 62.54982018 -59.58000183 64.31825256 C-59.44013723 73.71061936 -57.47076179 82.7469248 -51.68717766 90.38021088 C-49.61332194 92.37123353 -47.53068996 93.08829446 -44.89402771 94.21495056 C-41.43126548 96.27013609 -40.21776198 97.25023641 -39.08140755 101.16275215 C-38.74492876 105.3883109 -38.7305462 109.51482411 -38.82055664 113.74829102 C-38.81842498 115.36667002 -38.8118512 116.98504835 -38.80117798 118.60339355 C-38.78440421 122.99054606 -38.82859445 127.37523823 -38.88292623 131.76200604 C-38.92853733 136.35477122 -38.91517268 140.94733813 -38.90733337 145.54026794 C-38.90089005 154.23976323 -38.94271566 162.93827725 -39.00405258 171.63753313 C-39.11212986 187.2191949 -39.1339182 202.80114864 -39.14459509 218.38314193 C-39.15019641 223.85131697 -39.17545801 229.31895589 -39.21732819 234.78697026 C-39.2411585 238.1872934 -39.25323899 241.58759361 -39.26279068 244.9879837 C-39.26996585 246.56461573 -39.28237627 248.14123394 -39.30040932 249.71777916 C-39.32448541 251.87039888 -39.33013002 254.02232779 -39.33143616 256.17506409 C-39.33981538 257.37942895 -39.3481946 258.58379381 -39.35682774 259.82465458 C-38.8535539 264.30319732 -37.14101569 266.85898431 -34 270 C-29.32398837 270.45993557 -27.08681063 270.67058528 -23.0625 268.1875 C-19.58798155 264.50240467 -19.88273675 261.27613547 -19.90907288 256.41557312 C-19.9122494 255.40739909 -19.9122494 255.40739909 -19.91549009 254.37885791 C-19.92356143 252.12191292 -19.93859803 249.8650646 -19.95336914 247.6081543 C-19.96015823 245.99185408 -19.96636982 244.37555134 -19.9720459 242.75924683 C-19.98450702 239.27577924 -19.99910048 235.79232885 -20.01472664 232.30887413 C-20.03742913 226.7999676 -20.04312337 221.29112947 -20.04405212 215.78218079 C-20.04423389 214.8526944 -20.04441566 213.92320801 -20.04460293 212.96555537 C-20.04505282 209.13079377 -20.04497054 205.2960323 -20.0447675 201.46127069 C-20.04503235 190.56841246 -20.06181242 179.67612884 -20.12670898 168.78344727 C-20.17813112 160.1330788 -20.19436049 151.48345396 -20.16924757 142.83295757 C-20.15729718 138.25470997 -20.16327139 133.67804951 -20.21193123 129.10001183 C-20.25732958 124.79251894 -20.25607727 120.48755409 -20.21918488 116.18000412 C-20.21391789 114.60056428 -20.2257221 113.02095999 -20.25597191 111.44180107 C-20.33905087 106.82037041 -20.30474454 102.47718496 -19 98 C-16.61958988 95.66290669 -14.55928784 94.46702072 -11.48671627 93.19718647 C-6.40769268 90.75197855 -3.94791044 85.39796627 -1.94766235 80.33786011 C-0.88243017 76.58589509 -0.69310667 73.11558242 -0.68115234 69.25048828 C-0.67110672 68.49858719 -0.6610611 67.7466861 -0.65071106 66.97200012 C-0.62000045 64.50477817 -0.60287798 62.03766413 -0.5859375 59.5703125 C-0.56721607 57.85251953 -0.54764193 56.13473565 -0.5272522 54.41696167 C-0.47602793 49.90927508 -0.4363504 45.4015587 -0.39910889 40.89373779 C-0.35900825 36.28845918 -0.3079436 31.68330342 -0.2578125 27.078125 C-0.16116811 18.05216126 -0.07774077 9.02614638 0 0 Z " fill="#FBC451" transform="translate(335,140)"/>
<path d="M0 0 C0.97324219 0.35191406 1.94648438 0.70382813 2.94921875 1.06640625 C14.13167728 5.40479925 22.77193889 11.24163767 31.00390625 19.9609375 C32.83533528 22.05363073 32.83533528 22.05363073 35 23 C39.88187034 23.05160539 43.98103512 22.1664655 48.3125 19.9375 C54.84612679 16.85217624 61.24268789 16.98966948 68.15234375 18.84765625 C79.02871253 22.8937203 84.68326324 29.40854729 89.67578125 39.6796875 C90.92737529 42.27492253 90.92737529 42.27492253 94 44 C99.40804353 44.92332451 103.10352181 42.68611958 107.73046875 40.19140625 C114.00478795 36.89765865 121.77706547 36.93625625 128.57421875 38.6484375 C138.26534753 42.60607124 144.41549099 49.83098198 149 59 C149.81233257 70.51914218 149.19160831 78.90964897 141.875 88.25 C136.52884554 94.03493172 129.16478295 97.53804727 121.3359375 98.23828125 C114.80710528 98.40193272 110.18983615 97.57156109 104.25 94.90625 C100.97997026 93.58915469 98.46574058 93.45635442 95 94 C92.18466827 95.39362182 92.18466827 95.39362182 90 98 C89.51446964 101.08876633 89.34841672 103.62604069 89.40405273 106.71240234 C89.39796494 108.03018425 89.39796494 108.03018425 89.39175415 109.37458801 C89.38623714 111.28051133 89.39224484 113.18649493 89.40841484 115.09235764 C89.4338029 118.11080355 89.42904707 121.12788163 89.41651917 124.14639282 C89.39575347 130.55607834 89.41545928 136.96534225 89.4375 143.375 C89.45860602 150.79612569 89.4631561 158.21681161 89.43699837 165.63792801 C89.43363902 168.60840916 89.45485721 171.57804982 89.47740173 174.5484314 C89.47488985 176.37522565 89.4713292 178.20201886 89.46655273 180.02880859 C89.47943832 180.85186996 89.49232391 181.67493134 89.50559998 182.52293396 C89.45960343 187.80668374 88.51919558 190.81888247 85 195 C81.32705125 197.4486325 78.26731035 197.83183438 74 197 C70.78045355 194.46546343 69.29567565 192.88702695 68 189 C67.90354639 187.17185388 67.86458501 185.34044314 67.8581543 183.50976562 C67.84760262 181.82155701 67.84760262 181.82155701 67.83683777 180.09924316 C67.83267349 178.88055542 67.82850922 177.66186768 67.82421875 176.40625 C67.80100759 173.82290863 67.77688974 171.23957529 67.75195312 168.65625 C67.71569961 164.58593827 67.68586928 160.51577389 67.67407227 156.4453125 C67.66193853 152.51534753 67.61823196 148.58599011 67.57421875 144.65625 C67.57708138 142.85250916 67.57708138 142.85250916 67.58000183 141.0123291 C67.41134229 129.2437554 64.40057633 119.5001879 56 111 C43.25754554 100.3891829 27.15063328 97.78172229 11.03955078 98.76611328 C4.13178651 99.55826533 -0.44091594 103.37374751 -5.3125 108 C-13.4277158 115.47789519 -22.97800632 117.77931513 -33.76269531 117.58544922 C-44.63958159 116.99863752 -52.16351634 112.14803305 -60.42236328 105.53613281 C-67.04757008 100.26558171 -72.78985387 98.30255373 -81.32421875 98.59765625 C-86.69251005 99.40485918 -90.28265909 101.81278131 -93.61328125 106.0546875 C-95.1397721 108.33456272 -96.56894487 110.6593427 -98 113 C-99.89874328 115.75394133 -101.90344664 118.39405387 -104 121 C-104.45246094 121.58523437 -104.90492187 122.17046875 -105.37109375 122.7734375 C-112.85942901 131.37043538 -124.52694913 136.26769904 -135.6875 137.3125 C-136.97011719 137.39113281 -138.25273437 137.46976563 -139.57421875 137.55078125 C-143.17410244 138.02282985 -145.11858692 138.8349308 -148 141 C-149.56850572 144.13701144 -149.15310113 147.48999484 -149.15771484 150.93457031 C-149.16279556 151.75427811 -149.16787628 152.5739859 -149.17311096 153.41853333 C-149.18382608 155.20225194 -149.19244177 156.9859841 -149.19923019 158.76972198 C-149.21100542 161.59441683 -149.23045578 164.41895783 -149.25234985 167.24359131 C-149.31400453 175.27611152 -149.36797762 183.3086173 -149.40136719 191.34130859 C-149.42233113 196.25206585 -149.45765164 201.16254488 -149.50212479 206.07314301 C-149.51627499 207.94376089 -149.52500501 209.81442803 -149.52817917 211.68509674 C-149.53309654 214.30631023 -149.55627666 216.92678797 -149.58349609 219.54785156 C-149.58048996 220.31795059 -149.57748383 221.08804962 -149.5743866 221.88148499 C-149.66136055 227.53100177 -150.88169335 231.64632595 -154.6875 235.875 C-158.09776895 237.53404976 -161.32879019 237.67742562 -165 237 C-167.8100346 235.20636089 -169.50940468 233.98119065 -171 231 C-171.1039346 229.22208904 -171.14386555 227.4402961 -171.15390015 225.65937805 C-171.16250061 224.52556702 -171.17110107 223.39175598 -171.17996216 222.22358704 C-171.18422211 220.97329208 -171.18848206 219.72299713 -171.19287109 218.43481445 C-171.20104858 217.12237762 -171.20922607 215.8099408 -171.21765137 214.45773315 C-171.24389903 210.0929368 -171.25919588 205.72813082 -171.2734375 201.36328125 C-171.27879874 199.85731691 -171.28417625 198.35135263 -171.28956985 196.84538841 C-171.31121522 190.57199211 -171.32994406 184.29859837 -171.34119225 178.02517414 C-171.35737424 169.0601968 -171.39039158 160.09565689 -171.44759309 151.13084441 C-171.48649305 144.81639703 -171.50584928 138.50206555 -171.51111281 132.18750161 C-171.5147431 128.4236893 -171.52651036 124.66034318 -171.55921555 120.89666176 C-171.8073984 90.8674042 -171.8073984 90.8674042 -166 79 C-165.52339935 77.97356888 -165.04679871 76.94713776 -164.55575562 75.88960266 C-161.17995492 68.90379312 -156.44012551 63.46674929 -151 58 C-150.26136719 57.2265625 -149.52273437 56.453125 -148.76171875 55.65625 C-134.44251613 41.60177213 -116.98080539 37.61868292 -97.54882812 37.47265625 C-96.39189453 37.45074219 -95.23496094 37.42882813 -94.04296875 37.40625 C-93.00164795 37.39916016 -91.96032715 37.39207031 -90.88745117 37.38476562 C-87.56540084 36.94208774 -85.69461469 35.96144052 -83 34 C-81.3007099 31.68147545 -81.3007099 31.68147545 -79.875 29 C-70.57146197 13.77602867 -55.94839457 4.38928629 -39.3125 -1.25 C-26.54630268 -4.14045977 -12.35522273 -4.6123695 0 0 Z " fill="#FDE3C9" transform="translate(227,23)"/>
<path d="M0 0 C7.22452836 -0.13643066 14.44833402 -0.2461275 21.67388535 -0.31087303 C25.03049967 -0.34197516 28.38547368 -0.38735967 31.74169922 -0.45263672 C35.61450243 -0.52603433 39.48599925 -0.55959247 43.359375 -0.5859375 C45.13667999 -0.63238907 45.13667999 -0.63238907 46.94989014 -0.67977905 C57.07697224 -0.68380391 65.45537173 2.42681025 73 9.3125 C80.92958719 18.54193355 80.57566387 28.35650299 80.51757812 39.93725586 C80.5230044 41.7548529 80.53012989 43.57244553 80.53881836 45.39002991 C80.55699581 50.30747742 80.55000691 55.22458784 80.53730202 60.14204097 C80.52714386 65.29966406 80.53657565 70.45725914 80.54284668 75.61488342 C80.55011554 84.27577878 80.54055603 92.93653752 80.52148438 101.59741211 C80.49972402 111.59439963 80.50676405 121.5910607 80.52879 131.58804029 C80.54697389 140.18706131 80.5494875 148.78598436 80.53903532 157.38501841 C80.53281594 162.51384837 80.53192172 167.64252517 80.54518127 172.77134514 C80.55678245 177.59534963 80.54863635 182.41893559 80.52560425 187.24289513 C80.5203396 189.00767066 80.52179226 190.77248175 80.53065491 192.53724289 C80.57766509 202.8535207 80.28824137 211.76342625 74.24609375 220.55078125 C66.2970674 228.29378532 58.14858825 231.57015374 47.06318665 231.56648254 C45.87315536 231.54067612 44.68312408 231.51486969 43.45703125 231.48828125 C42.20742111 231.48120651 40.95781097 231.47413177 39.67033386 231.46684265 C36.38687109 231.44377623 33.10469403 231.39905428 29.82165527 231.34332275 C26.45613132 231.29169174 23.09041726 231.26923629 19.72460938 231.24414062 C13.14918264 231.18930002 6.57483923 231.10314344 0 231 C0 224.4 0 217.8 0 211 C2.36901489 210.97812622 2.36901489 210.97812622 4.78588867 210.95581055 C10.64728399 210.89782447 16.50829527 210.82059072 22.36938477 210.73754883 C24.90577968 210.70430112 27.44224856 210.67626875 29.97875977 210.65356445 C33.62548328 210.6200166 37.27152911 210.56769848 40.91796875 210.51171875 C42.05147263 210.50532883 43.1849765 210.4989389 44.35282898 210.49235535 C45.41355118 210.47256119 46.47427338 210.45276703 47.56713867 210.43237305 C48.49757492 210.42126999 49.42801117 210.41016693 50.38664246 210.39872742 C53.5248574 209.91992101 55.435623 208.84341606 58 207 C59.49089063 204.01821873 59.13290267 201.31856648 59.14044189 197.99087524 C59.14341302 197.26103279 59.14638414 196.53119033 59.1494453 195.77923143 C59.15815253 193.32107122 59.15964224 190.86295959 59.16113281 188.40478516 C59.16575953 186.64745479 59.17078399 184.89012542 59.17617798 183.13279724 C59.18931749 178.34974217 59.19574987 173.56670115 59.20018864 168.78363085 C59.20311667 165.79755876 59.20722094 162.81149053 59.21169281 159.82542038 C59.22537139 150.48901468 59.23503647 141.15261779 59.2388947 131.81620276 C59.24337747 121.0268109 59.26093401 110.2375456 59.2898953 99.44819224 C59.31148692 91.11609626 59.32159762 82.78403595 59.32293582 74.45191228 C59.3239856 69.47184539 59.32993002 64.49189741 59.34775543 59.51185989 C59.36419277 54.8284106 59.36641281 50.14517015 59.35761642 45.46170235 C59.35684373 43.74116394 59.36121917 42.0206145 59.37107468 40.30010414 C59.38372634 37.95418239 59.37795491 35.60900793 59.36749268 33.26309204 C59.36895924 31.9493693 59.3704258 30.63564655 59.3719368 29.28211403 C58.97788569 25.80485475 58.49220875 24.40840062 56 22 C53.00525286 21.00175095 50.92654666 20.84675968 47.79418945 20.79467773 C46.73331619 20.77473251 45.67244293 20.75478729 44.579422 20.73423767 C43.43559555 20.71752518 42.2917691 20.70081268 41.11328125 20.68359375 C39.94113571 20.66281265 38.76899017 20.64203156 37.56132507 20.62062073 C33.81177714 20.55516182 30.06215837 20.49625704 26.3125 20.4375 C23.77277909 20.39431132 21.23306538 20.35069692 18.69335938 20.30664062 C12.46231245 20.1994841 6.23119416 20.09820612 0 20 C0 13.4 0 6.8 0 0 Z " fill="#92E2E9" transform="translate(376,181)"/>
<path d="M0 0 C6.6 0 13.2 0 20 0 C21.98 3.465 21.98 3.465 24 7 C27.1969894 8.5984947 30.52997971 8.50260215 34 8 C37.2470617 5.60742822 38.15864267 3.68271467 40 0 C46.6 0 53.2 0 60 0 C60.99 3.465 60.99 3.465 62 7 C65.78876732 9.46391324 69.84015419 9.30469517 74.26953125 9.4140625 C74.95053391 9.43342865 75.63153656 9.4527948 76.33317566 9.4727478 C78.49282593 9.53218132 80.65253057 9.578782 82.8125 9.625 C84.28322544 9.66321328 85.75392929 9.70226694 87.22460938 9.7421875 C90.81620789 9.83785183 94.40796913 9.92201575 98 10 C97.25938543 14.36994459 96.11871002 16.61986592 93.1875 20 C92.50042969 20.825 91.81335938 21.65 91.10546875 22.5 C80.3085528 31.19185686 68.4563014 30.71413788 55.31958008 30.63110352 C53.24376312 30.63624914 51.16795055 30.64353526 49.09214783 30.65278625 C43.48482873 30.67122279 37.87798813 30.65841192 32.27068925 30.63869596 C26.3892505 30.62225067 20.50784065 30.63113021 14.62638855 30.63621521 C4.75516152 30.64072852 -5.11587554 30.62491087 -14.98706055 30.59692383 C-26.38774499 30.56484889 -37.78808742 30.56490058 -49.18879622 30.5821386 C-60.17616817 30.59801721 -71.16341513 30.5912632 -82.15078163 30.57420158 C-86.81844741 30.56734213 -91.48601266 30.56835213 -96.15367699 30.57574654 C-101.6507512 30.58342349 -107.14743732 30.57123688 -112.64444542 30.54389763 C-114.6579727 30.53702858 -116.67153633 30.53689989 -118.68506241 30.54411316 C-121.44051016 30.55284488 -124.1947702 30.53678944 -126.95011902 30.5146637 C-127.74059905 30.52290446 -128.53107908 30.53114523 -129.34551305 30.53963572 C-138.1448795 30.4098456 -144.9208663 26.70983294 -151.26953125 20.8046875 C-154.41367435 17.52569402 -157 14.72397145 -157 10 C-155.85505428 9.99503478 -155.85505428 9.99503478 -154.68697834 9.98996925 C-136.11708574 9.90876052 -117.54727626 9.81667502 -98.97749805 9.71247292 C-89.99730445 9.66234412 -81.01711999 9.61590121 -72.03686523 9.578125 C-64.20997805 9.54519119 -56.38316175 9.50535226 -48.55635279 9.45720994 C-44.41185257 9.43195878 -40.26739928 9.4101734 -36.12284279 9.39665604 C-32.22159641 9.38382315 -28.3205111 9.3617555 -24.41935349 9.33261681 C-22.98790796 9.32355063 -21.5564365 9.31785303 -20.12496376 9.31578636 C-18.16923539 9.31245722 -16.21354332 9.29579181 -14.25788879 9.2784729 C-13.16372052 9.27294214 -12.06955225 9.26741138 -10.94222736 9.26171303 C-7.73508572 8.9764357 -5.74892016 8.6999476 -3 7 C-2.01 4.69 -1.02 2.38 0 0 Z " fill="#94E6ED" transform="translate(256,462)"/>
<path d="M0 0 C3.60833192 2.74231144 4.86542162 4.20684946 5.63199902 8.7247467 C5.66069134 10.20302301 5.66201158 11.68198591 5.64164734 13.16040039 C5.65015286 13.97785516 5.65865838 14.79530993 5.66742164 15.63753605 C5.689694 18.37468234 5.67625429 21.11046943 5.6628418 23.84765625 C5.67125461 25.81070937 5.68177955 27.77375441 5.69425964 29.73678589 C5.72134058 35.06737701 5.71659845 40.39750074 5.70455909 45.72813034 C5.69743428 50.17667871 5.70592253 54.62514027 5.71446449 59.07368183 C5.73442611 69.56645313 5.72883624 80.05899663 5.70678711 90.55175781 C5.68441651 101.38160986 5.70202856 112.21086605 5.73983639 123.04066181 C5.77104907 132.33592686 5.77899285 141.63100724 5.76788265 150.92631817 C5.76138859 156.47933716 5.76343147 162.03201214 5.78720665 167.58499146 C5.8084199 172.80550623 5.80053132 178.02517842 5.77011299 183.2456398 C5.76377237 185.16248101 5.76767817 187.07938729 5.78252411 188.99618149 C5.80114082 191.61162585 5.78286091 194.22429489 5.75517273 196.83959961 C5.76923918 197.59981446 5.78330563 198.36002932 5.79779834 199.14328098 C5.73619538 202.02694261 5.56429608 204.31511606 3.68987811 206.5900898 C0.9486303 208.94868197 -1.37964318 210.70062334 -5.0625 210.625 C-9.88099167 209.86016005 -11.04927718 208.82217053 -14 205 C-14.49273685 202.08311617 -14.67763556 199.75115646 -14.63491821 196.83959961 C-14.64271817 196.02214484 -14.65051812 195.20469007 -14.65855443 194.36246395 C-14.67848669 191.62529777 -14.66270556 188.88952006 -14.64697266 186.15234375 C-14.65374824 184.18929228 -14.66265104 182.22624717 -14.67352295 180.26321411 C-14.69632978 174.93260764 -14.68747409 169.60248466 -14.67162752 164.27186966 C-14.65897579 158.69547464 -14.67070662 153.11912124 -14.67855835 147.54272461 C-14.68765701 138.17782146 -14.67566123 128.81311542 -14.65185547 119.44824219 C-14.62464389 108.61844684 -14.63345789 97.78912213 -14.6609875 86.95933819 C-14.6836713 77.6640784 -14.68688218 68.36896036 -14.67379415 59.07368183 C-14.66599568 53.52071225 -14.66496906 47.96796394 -14.68147659 42.41500854 C-14.69591138 37.19456813 -14.68591744 31.97473496 -14.65700531 26.7543602 C-14.65038924 24.83752323 -14.65230104 22.92063523 -14.66331863 21.00381851 C-14.67696531 18.38865403 -14.65987028 15.77544024 -14.63491821 13.16040039 C-14.64607182 12.40018554 -14.65722543 11.63997068 -14.66871703 10.85671902 C-14.59486534 6.8717914 -14.14548723 5.17759158 -11.58531761 2.05247498 C-7.31539643 -1.33740112 -5.35140783 -1.26982559 0 0 Z " fill="#000000" transform="translate(230,201)"/>
<path d="M0 0 C3.60833192 2.74231144 4.86542162 4.20684946 5.63199902 8.7247467 C5.66069134 10.20302301 5.66201158 11.68198591 5.64164734 13.16040039 C5.65015286 13.97785516 5.65865838 14.79530993 5.66742164 15.63753605 C5.689694 18.37468234 5.67625429 21.11046943 5.6628418 23.84765625 C5.67125461 25.81070937 5.68177955 27.77375441 5.69425964 29.73678589 C5.72134058 35.06737701 5.71659845 40.39750074 5.70455909 45.72813034 C5.69743428 50.17667871 5.70592253 54.62514027 5.71446449 59.07368183 C5.73442611 69.56645313 5.72883624 80.05899663 5.70678711 90.55175781 C5.68441651 101.38160986 5.70202856 112.21086605 5.73983639 123.04066181 C5.77104907 132.33592686 5.77899285 141.63100724 5.76788265 150.92631817 C5.76138859 156.47933716 5.76343147 162.03201214 5.78720665 167.58499146 C5.8084199 172.80550623 5.80053132 178.02517842 5.77011299 183.2456398 C5.76377237 185.16248101 5.76767817 187.07938729 5.78252411 188.99618149 C5.80114082 191.61162585 5.78286091 194.22429489 5.75517273 196.83959961 C5.76923918 197.59981446 5.78330563 198.36002932 5.79779834 199.14328098 C5.73619538 202.02694261 5.56429608 204.31511606 3.68987811 206.5900898 C0.9486303 208.94868197 -1.37964318 210.70062334 -5.0625 210.625 C-9.88099167 209.86016005 -11.04927718 208.82217053 -14 205 C-14.49273685 202.08311617 -14.67763556 199.75115646 -14.63491821 196.83959961 C-14.64271817 196.02214484 -14.65051812 195.20469007 -14.65855443 194.36246395 C-14.67848669 191.62529777 -14.66270556 188.88952006 -14.64697266 186.15234375 C-14.65374824 184.18929228 -14.66265104 182.22624717 -14.67352295 180.26321411 C-14.69632978 174.93260764 -14.68747409 169.60248466 -14.67162752 164.27186966 C-14.65897579 158.69547464 -14.67070662 153.11912124 -14.67855835 147.54272461 C-14.68765701 138.17782146 -14.67566123 128.81311542 -14.65185547 119.44824219 C-14.62464389 108.61844684 -14.63345789 97.78912213 -14.6609875 86.95933819 C-14.6836713 77.6640784 -14.68688218 68.36896036 -14.67379415 59.07368183 C-14.66599568 53.52071225 -14.66496906 47.96796394 -14.68147659 42.41500854 C-14.69591138 37.19456813 -14.68591744 31.97473496 -14.65700531 26.7543602 C-14.65038924 24.83752323 -14.65230104 22.92063523 -14.66331863 21.00381851 C-14.67696531 18.38865403 -14.65987028 15.77544024 -14.63491821 13.16040039 C-14.64607182 12.40018554 -14.65722543 11.63997068 -14.66871703 10.85671902 C-14.59486534 6.8717914 -14.14548723 5.17759158 -11.58531761 2.05247498 C-7.31539643 -1.33740112 -5.35140783 -1.26982559 0 0 Z " fill="#000000" transform="translate(150,201)"/>
<path d="M0 0 C2.92937654 1.81310142 5.43647949 3.87295899 7 7 C7.59873168 12.26883876 6.25400021 14.8846468 3 19 C-0.21694364 20.60847182 -3.52137222 20.61309149 -7 20 C-10.61391202 17.07811368 -12.74312565 14.88374526 -13.375 10.25 C-12.8528401 5.7246142 -11.15770622 4.2328897 -8 1 C-5.09704195 -0.45147903 -3.22738221 -0.37239025 0 0 Z " fill="#060604" transform="translate(289,451)"/>
</svg>
