<?xml version="1.0" encoding="UTF-8"?>
<svg version="1.1" xmlns="http://www.w3.org/2000/svg" width="512" height="512">
<path d="M0 0 C1.90701439 -0.01407143 1.90701439 -0.01407143 3.85255432 -0.02842712 C5.23626378 -0.01794991 6.61996673 -0.00658104 8.00366211 0.00561523 C9.42565484 0.00546023 10.84764801 0.00397095 12.26963806 0.00120544 C15.24635549 -0.00017777 18.22259062 0.01236706 21.19921875 0.03515625 C25.01494889 0.06356725 28.82987942 0.06079589 32.64566898 0.04806614 C35.58050877 0.04111263 38.51516361 0.0488939 41.44997978 0.06132317 C42.85699187 0.06583909 44.26402379 0.06617322 45.67103767 0.06225777 C47.6361938 0.05934847 49.60134625 0.07800214 51.56640625 0.09765625 C52.68463272 0.10305923 53.80285919 0.10846222 54.95497131 0.11402893 C57.71850586 0.50170898 57.71850586 0.50170898 59.54051208 1.83946228 C60.71850586 3.50170898 60.71850586 3.50170898 61.71850586 6.50170898 C64.82218083 6.64686575 67.92498613 6.73571751 71.03100586 6.81420898 C71.91208008 6.85610352 72.7931543 6.89799805 73.70092773 6.94116211 C76.13677985 6.98747108 78.32919314 6.9839503 80.71850586 6.50170898 C82.86341496 4.19491269 82.86341496 4.19491269 83.71850586 1.50170898 C85.59278278 -0.37256793 88.78766229 0.37276457 91.28314781 0.37028122 C91.9807012 0.36822859 92.67825459 0.36617595 93.39694595 0.36406112 C95.76386458 0.35834999 98.13072578 0.35985339 100.49765015 0.36126709 C102.19991836 0.35868581 103.90218597 0.35567332 105.60445273 0.35226369 C110.30525455 0.34416262 115.00604113 0.3424024 119.7068491 0.34166622 C124.7676084 0.33982105 129.82835968 0.33227648 134.88911438 0.32553101 C145.96534855 0.31192531 157.04157912 0.30591954 168.11782026 0.30152035 C175.02779308 0.2987618 181.93776449 0.29452518 188.84773636 0.29001617 C207.96207021 0.27782078 227.07640293 0.26752188 246.19074059 0.26414108 C247.41507423 0.26392152 248.63940787 0.26370195 249.90084253 0.26347573 C251.12818157 0.26325745 252.35552061 0.26303918 253.62005174 0.26281428 C256.10729686 0.26237081 258.59454199 0.26192425 261.08178711 0.26147461 C262.93244431 0.26114246 262.93244431 0.26114246 264.82048853 0.26080361 C284.82261466 0.25685361 304.82470441 0.23939465 324.82681648 0.21611509 C345.33997919 0.19243252 365.85312362 0.17994065 386.36630023 0.17877316 C397.89287523 0.17785468 409.41940283 0.17205885 420.94596481 0.15395355 C430.75920688 0.13859428 440.5723869 0.13340732 450.3856387 0.14169165 C455.39657341 0.14561298 460.40738302 0.14459678 465.41830254 0.13063431 C470.00014035 0.11798366 474.58175791 0.11901432 479.16359504 0.13122502 C480.82646289 0.13319747 482.48934588 0.13003305 484.1521924 0.12138066 C486.40246125 0.11040747 488.65193623 0.11768947 490.90218163 0.12977219 C492.15509636 0.1291751 493.4080111 0.12857801 494.69889295 0.12796283 C497.71850586 0.50170898 497.71850586 0.50170898 499.58202612 1.83745503 C502.44213507 6.02578102 501.87346827 10.72333685 501.87963867 15.57543945 C501.88460358 16.50418884 501.88956848 17.43293823 501.89468384 18.38983154 C501.90930434 21.46619402 501.91610699 24.54250495 501.92163086 27.61889648 C501.92738203 29.75497438 501.93313977 31.89105226 501.93890381 34.02713013 C501.94941322 38.50775391 501.95525641 42.98835976 501.95874023 47.46899414 C501.9642274 53.21141696 501.98826056 58.95360296 502.01671219 64.69595146 C502.03533103 69.10886327 502.04054375 73.52171791 502.04207611 77.93466568 C502.04510444 80.05177227 502.053139 82.16887781 502.06626129 84.28594589 C502.08330718 87.24721077 502.0814451 90.20789548 502.07495117 93.16918945 C502.08877335 94.48166153 502.08877335 94.48166153 502.10287476 95.82064819 C502.06732145 100.99355717 501.56099214 104.65922271 497.71850586 108.50170898 C496.15891647 108.60629144 494.59461373 108.64134228 493.03153992 108.64888 C491.51097992 108.65961296 491.51097992 108.65961296 489.95970154 108.67056274 C488.83814163 108.67325165 487.71658173 108.67594055 486.56103516 108.67871094 C485.38713226 108.68528214 484.21322937 108.69185333 483.00375366 108.69862366 C479.77430712 108.71499548 476.54489454 108.72659198 473.315418 108.73482919 C471.29872933 108.73997491 469.28204529 108.74605087 467.26535988 108.75234032 C460.95850715 108.77139984 454.65166617 108.78562874 448.34479016 108.79395229 C441.05932785 108.80372536 433.77416931 108.83004308 426.48881406 108.87045318 C420.86159908 108.90059691 415.23447124 108.91541952 409.60717708 108.9187333 C406.24450365 108.92108606 402.88215446 108.93007461 399.51956749 108.95519447 C395.76751634 108.97942702 392.01626487 108.97864957 388.26416016 108.97167969 C387.14867294 108.98448975 386.03318573 108.9972998 384.88389587 109.01049805 C383.86172974 109.00355423 382.8395636 108.99661041 381.78642273 108.98945618 C380.4554583 108.99303871 380.4554583 108.99303871 379.09760571 108.99669361 C375.91490813 108.33451612 374.69417604 107.03344143 372.71850586 104.50170898 C372.71850586 103.51170898 372.71850586 102.52170898 372.71850586 101.50170898 C366.11850586 101.50170898 359.51850586 101.50170898 352.71850586 101.50170898 C352.38850586 103.15170898 352.05850586 104.80170898 351.71850586 106.50170898 C348.24286457 108.81880318 346.91797951 108.75360298 342.81636906 108.75897789 C340.95620139 108.76865123 340.95620139 108.76865123 339.05845457 108.77851999 C337.67479796 108.77557744 336.29114175 108.77244199 334.90748596 108.76913452 C333.44344105 108.77286895 331.97939812 108.77746964 330.51535839 108.78286517 C326.48227745 108.79513611 322.4492792 108.79482991 318.41618383 108.79247642 C314.07050308 108.79206928 309.72484922 108.8030974 305.37918091 108.81259155 C296.86178319 108.82922453 288.34441316 108.83470212 279.82700057 108.83581631 C272.90633496 108.83676562 265.98567851 108.84087003 259.06501579 108.84721756 C239.45817566 108.8648356 219.85135745 108.87405546 200.24450935 108.87255661 C199.18687302 108.8724767 198.12923669 108.87239679 197.03955078 108.87231445 C195.98062828 108.87223269 194.92170579 108.87215093 193.83069473 108.87206669 C176.66168904 108.87125345 159.492771 108.89039933 142.32379068 108.91859119 C124.70903682 108.9472876 107.09432576 108.9611333 89.47954792 108.95940363 C79.58442195 108.95873865 69.68938788 108.96427841 59.79428291 108.98575974 C51.37071307 109.00392886 42.9472768 109.0083541 34.52369589 108.99474089 C30.22344513 108.98818978 25.92345095 108.98817078 21.62322426 109.00544739 C17.68959445 109.02108907 13.75642654 109.0184067 9.82280862 109.00087912 C8.39685877 108.99778945 6.97087521 109.00151504 5.5449651 109.01259927 C3.61218401 109.02663316 1.67926291 109.01379177 -0.2535162 108.99948692 C-1.86640716 109.00013903 -1.86640716 109.00013903 -3.51188177 109.00080431 C-6.95930587 108.37956458 -8.13895451 107.2163603 -10.28149414 104.50170898 C-10.7848587 102.45895386 -10.7848587 102.45895386 -10.78942871 100.2512207 C-10.80070801 99.41008728 -10.8119873 98.56895386 -10.8236084 97.70233154 C-10.81551147 96.78792297 -10.80741455 95.8735144 -10.79907227 94.93139648 C-10.80608154 93.96188049 -10.81309082 92.9923645 -10.8203125 91.99346924 C-10.83792269 88.78759144 -10.82625866 85.58259582 -10.81274414 82.37670898 C-10.81543818 80.149982 -10.81931985 77.92325616 -10.82434082 75.6965332 C-10.83023998 71.02926434 -10.82165918 66.36230164 -10.80297852 61.69506836 C-10.78018906 55.7091739 -10.79330986 49.72399679 -10.81726837 43.73812866 C-10.83171485 39.13991886 -10.82712557 34.54187945 -10.8167572 29.94366455 C-10.81408675 27.73642899 -10.81737082 25.52917801 -10.82667542 23.32196045 C-10.83682176 20.23822997 -10.82136598 17.15566503 -10.79907227 14.07202148 C-10.80716919 13.15761292 -10.81526611 12.24320435 -10.8236084 11.30108643 C-10.77248135 7.48837784 -10.72379418 5.19406249 -8.64173889 1.93492126 C-5.58365091 0.07795739 -3.57331564 0.00053062 0 0 Z " fill="#000000" transform="translate(10.281494140625,335.498291015625)"/>
<path d="M0 0 C83.82 0 167.64 0 254 0 C254 25.74 254 51.48 254 78 C222.6875 78.375 222.6875 78.375 212.8034668 78.47802734 C210.22704008 78.51322249 207.65062312 78.54914252 205.07421875 78.5859375 C204.40445511 78.59146637 203.73469147 78.59699524 203.04463196 78.60269165 C201.07091473 78.61973729 199.09732727 78.65019034 197.1237793 78.68115234 C195.4549897 78.70113785 195.4549897 78.70113785 193.75248718 78.7215271 C190.78577661 78.80472112 190.78577661 78.80472112 188 81 C187.34 82.65 186.68 84.3 186 86 C179.4 86 172.8 86 166 86 C165.34 84.35 164.68 82.7 164 81 C160.40732218 78.60488145 158.79878916 78.74147295 154.52705383 78.7215271 C153.53703103 78.7128385 153.53703103 78.7128385 152.52700776 78.70397437 C150.31133159 78.68694405 148.09586333 78.68409532 145.88012695 78.68115234 C144.29349251 78.67185624 142.70686297 78.66168805 141.12023926 78.65071106 C136.80858137 78.62336107 132.49695623 78.60824688 128.18523431 78.59528303 C123.68083952 78.57967432 119.17651186 78.55287693 114.67216492 78.5272522 C106.1405835 78.48042432 97.60898951 78.44369964 89.07734507 78.41057932 C77.5499179 78.36524759 66.02257367 78.30436064 54.49521542 78.24433136 C36.33018514 78.15014733 18.1651314 78.07679108 0 78 C0 52.26 0 26.52 0 0 Z " fill="#E3E8EC" transform="translate(197,351)"/>
<path d="M0 0 C2.19921875 1.63671875 2.19921875 1.63671875 4 4 C4.42578125 7.06640625 4.42578125 7.06640625 4.3125 10.5625 C4.27769531 11.82191406 4.24289062 13.08132812 4.20703125 14.37890625 C4.0417289 17.2701379 3.81246661 20.12250898 3.5 23 C1.15530708 45.93721332 2.08277724 71.81691337 17.0703125 90.59375 C19.31813754 93.13136434 21.62852987 95.57774056 24 98 C24.79277344 98.81984375 25.58554687 99.6396875 26.40234375 100.484375 C29.33872344 103.47449874 32.19380254 106.37782587 35.515625 108.94140625 C46.5696678 118.10096687 51.58393292 132.31179901 54 146 C54.4061464 150.42742049 54.47806485 154.80589586 54.4375 159.25 C54.42992676 160.4265918 54.42235352 161.60318359 54.41455078 162.81542969 C54.23453453 172.39439659 53.00081702 180.9220567 50 190 C49.61070312 191.21945312 49.22140625 192.43890625 48.8203125 193.6953125 C41.82455351 213.19236862 25.95498351 237.99836855 7.90625 249.3125 C4.74833256 250.45142104 2.20010161 249.75638765 -1 249 C-3.36613855 247.4225743 -3.86975084 246.41937365 -4.7109375 243.7109375 C-5.06983346 240.34507542 -4.29944416 238.85812524 -2.75 235.875 C4.12453176 221.68673029 7.60163489 201.20790816 2.375 185.875 C1.47135002 183.50862115 1.47135002 183.50862115 0 181 C-0.33056396 180.40002197 -0.66112793 179.80004395 -1.00170898 179.18188477 C-6.35956891 170.31802558 -14.30276183 163.51647343 -21.68774414 156.3737793 C-39.61168514 138.98593414 -52.68416797 120.80273197 -54 95 C-54.39398532 64.54190437 -46.61586713 35.30468281 -25.25 12.8125 C-9.75175234 -2.08966121 -9.75175234 -2.08966121 0 0 Z " fill="#010101" transform="translate(458,68)"/>
<path d="M0 0 C6.93 0 13.86 0 21 0 C21.99 2.97 21.99 2.97 23 6 C25.50934299 7.2546715 27.28377355 7.15873558 30.09228516 7.20532227 C31.16808838 7.22550415 32.2438916 7.24568604 33.35229492 7.26647949 C34.48642822 7.28295532 35.62056152 7.29943115 36.7890625 7.31640625 C37.82893311 7.33505737 38.86880371 7.3537085 39.94018555 7.3729248 C43.83503497 7.44136737 47.73002811 7.50142344 51.625 7.5625 C64.680625 7.7790625 64.680625 7.7790625 78 8 C78 33.74 78 59.48 78 86 C33.78 86 -10.44 86 -56 86 C-56 60.26 -56 34.52 -56 8 C-30.1875 7.6875 -30.1875 7.6875 -22.04370117 7.61206055 C-19.91843896 7.57978188 -17.79319295 7.54640977 -15.66796875 7.51171875 C-14.56054321 7.50547485 -13.45311768 7.49923096 -12.31213379 7.49279785 C-11.25675415 7.47285767 -10.20137451 7.45291748 -9.11401367 7.43237305 C-7.7383448 7.41571846 -7.7383448 7.41571846 -6.33488464 7.39872742 C-3.52063294 6.91813866 -2.65779111 6.29816948 -1 4 C-0.67 2.68 -0.34 1.36 0 0 Z " fill="#F39F00" transform="translate(71,343)"/>
<path d="M0 0 C83.82 0 167.64 0 254 0 C254 0.33 254 0.66 254 1 C170.51 1 87.02 1 1 1 C1 17.83 1 34.66 1 52 C84.49 52 167.98 52 254 52 C254 60.58 254 69.16 254 78 C252.10725342 78.01981934 250.21450684 78.03963867 248.2644043 78.06005859 C242.01378638 78.12780411 235.76333049 78.2045774 229.51289654 78.28752708 C225.72290908 78.33749289 221.93294954 78.38382274 218.14282227 78.421875 C214.48577 78.45872447 210.82895107 78.50508318 207.17209816 78.55806351 C205.77628481 78.57660933 204.38042144 78.59171663 202.98453331 78.60334396 C201.03084922 78.6202024 199.07729366 78.65037261 197.1237793 78.68115234 C195.4549897 78.70113785 195.4549897 78.70113785 193.75248718 78.7215271 C190.78577661 78.80472112 190.78577661 78.80472112 188 81 C187.34 82.65 186.68 84.3 186 86 C179.4 86 172.8 86 166 86 C165.34 84.35 164.68 82.7 164 81 C160.40732218 78.60488145 158.79878916 78.74147295 154.52705383 78.7215271 C153.53703103 78.7128385 153.53703103 78.7128385 152.52700776 78.70397437 C150.31133159 78.68694405 148.09586333 78.68409532 145.88012695 78.68115234 C144.29349251 78.67185624 142.70686297 78.66168805 141.12023926 78.65071106 C136.80858137 78.62336107 132.49695623 78.60824688 128.18523431 78.59528303 C123.68083952 78.57967432 119.17651186 78.55287693 114.67216492 78.5272522 C106.1405835 78.48042432 97.60898951 78.44369964 89.07734507 78.41057932 C77.5499179 78.36524759 66.02257367 78.30436064 54.49521542 78.24433136 C36.33018514 78.15014733 18.1651314 78.07679108 0 78 C0 52.26 0 26.52 0 0 Z " fill="#D2D4D6" transform="translate(197,351)"/>
<path d="M0 0 C0.33 0 0.66 0 1 0 C1.01458252 0.91064209 1.02916504 1.82128418 1.04418945 2.75952148 C1.58649224 33.06907321 2.42353566 61.22868449 25.51885986 83.68939209 C27.72582609 85.8114971 29.94814333 87.91692754 32.17529297 90.01782227 C44.83227521 102.01578006 52.81777242 114.0164103 53.34936523 131.95361328 C53.54197633 150.61671109 47.78162236 169.63340937 37 185 C36.34 185.33 35.68 185.66 35 186 C34.97421875 184.70707031 34.9484375 183.41414062 34.921875 182.08203125 C34.14111796 154.98271148 22.53360765 138.77781559 3.47460938 120.38623047 C1.60177563 118.62564272 -0.34127179 116.96165746 -2.3125 115.3125 C-12.79582416 106.282746 -21.89345464 91.89546894 -24 78 C-24.26468637 73.0109117 -24.25190893 68.0781244 -24.07373047 63.08691406 C-24.0074984 61.21223952 -23.97245902 59.33652462 -23.94140625 57.4609375 C-23.11957376 36.1929088 -15.14829966 15.14829966 0 0 Z " fill="#C4D6E2" transform="translate(444,92)"/>
<path d="M0 0 C16.5 0 33 0 50 0 C50 0.33 50 0.66 50 1 C33.83 1 17.66 1 1 1 C1 17.83 1 34.66 1 52 C44.56 52 88.12 52 133 52 C133 35.17 133 18.34 133 1 C116.5 1 100 1 83 1 C83 0.67 83 0.34 83 0 C99.83 0 116.66 0 134 0 C134 25.74 134 51.48 134 78 C89.78 78 45.56 78 0 78 C0 52.26 0 26.52 0 0 Z " fill="#C37901" transform="translate(15,351)"/>
<path d="M0 0 C9.9 0 19.8 0 30 0 C30 25.74 30 51.48 30 78 C20.1 78 10.2 78 0 78 C0 52.26 0 26.52 0 0 Z " fill="#A4A6B6" transform="translate(466,351)"/>
<path d="M0 0 C5.94 0 11.88 0 18 0 C18 25.74 18 51.48 18 78 C12.06 78 6.12 78 0 78 C0 52.26 0 26.52 0 0 Z " fill="#BABDCA" transform="translate(164,351)"/>
<path d="M0 0 C9.9 0 19.8 0 30 0 C30 0.33 30 0.66 30 1 C20.43 1 10.86 1 1 1 C1 17.83 1 34.66 1 52 C10.57 52 20.14 52 30 52 C30 60.58 30 69.16 30 78 C20.1 78 10.2 78 0 78 C0 52.26 0 26.52 0 0 Z " fill="#8C8F9C" transform="translate(466,351)"/>
<path d="M0 0 C5.94 0 11.88 0 18 0 C18 0.33 18 0.66 18 1 C12.39 1 6.78 1 1 1 C1 17.83 1 34.66 1 52 C6.61 52 12.22 52 18 52 C18 60.58 18 69.16 18 78 C12.06 78 6.12 78 0 78 C0 52.26 0 26.52 0 0 Z " fill="#9CA0AF" transform="translate(164,351)"/>
</svg>
