<?xml version="1.0" encoding="UTF-8"?>
<svg version="1.1" xmlns="http://www.w3.org/2000/svg" width="512" height="512">
<path d="M0 0 C1.10988281 0.59941406 1.10988281 0.59941406 2.2421875 1.2109375 C4.30233058 2.37707943 4.30233058 2.37707943 6.3671875 2.9609375 C8.46875145 2.24398605 10.11680636 1.1725956 12.00390625 0.0078125 C17.10666959 -2.25258514 22.93344215 -1.71114769 28.3671875 -1.0390625 C30.87109375 -0.0625 30.87109375 -0.0625 32.9296875 1.0859375 C36.14344329 3.3306387 36.14344329 3.3306387 39.1171875 2.3359375 C40.4337597 1.5313656 41.74762915 0.72228081 43.0546875 -0.09765625 C48.74698574 -2.41496009 57.11627032 -2.15423164 62.91796875 -0.1640625 C69.16450066 3.5232107 74.06297607 9.08334366 76.3671875 15.9609375 C76.5625 19.07421875 76.5625 19.07421875 76.4921875 22.2734375 C76.47414063 23.34207031 76.45609375 24.41070313 76.4375 25.51171875 C76.40269531 26.72408203 76.40269531 26.72408203 76.3671875 27.9609375 C77.14731201 27.93999023 77.92743652 27.91904297 78.73120117 27.89746094 C82.33889355 27.81322013 85.94637797 27.76193834 89.5546875 27.7109375 C91.39450195 27.66066406 91.39450195 27.66066406 93.27148438 27.609375 C111.20371069 27.42011667 123.42999659 34.40203716 136.80078125 45.59375 C144.52044373 51.22330701 153.25504013 52.55233416 162.57080078 52.45922852 C163.6308432 52.46474731 164.69088562 52.47026611 165.78305054 52.47595215 C168.06424236 52.48521496 170.34548592 52.48542512 172.62668228 52.47735786 C176.2428268 52.46464931 179.85821686 52.47608952 183.47433472 52.49339294 C189.84617624 52.52000944 196.21783058 52.52569166 202.58972168 52.52429199 C212.79378666 52.52205769 222.99762059 52.53627167 233.20159531 52.57987785 C236.7539982 52.58968229 240.30603387 52.58101803 243.85842896 52.57118225 C246.04640948 52.5773286 248.23438803 52.58424104 250.42236328 52.59204102 C251.40130554 52.58432175 252.3802478 52.57660248 253.38885498 52.56864929 C260.19448048 52.61852723 267.07452811 53.28266927 272.5234375 57.71484375 C272.966875 58.31167969 273.4103125 58.90851562 273.8671875 59.5234375 C274.56328125 60.42255859 274.56328125 60.42255859 275.2734375 61.33984375 C278.49040015 66.10784197 277.62929186 71.58966594 277.66235352 77.17236328 C277.67950801 79.18982834 277.72338621 81.20562843 277.76757812 83.22265625 C277.77595703 84.50269531 277.78433594 85.78273438 277.79296875 87.1015625 C277.81484253 88.85774902 277.81484253 88.85774902 277.8371582 90.64941406 C277.10737759 95.79161884 274.59176315 98.85583265 270.8046875 102.2734375 C267.45338824 104.59356776 264.92420064 105.08603239 260.94911194 105.09896851 C260.04518707 105.10442184 259.14126221 105.10987518 258.20994568 105.11549377 C257.22035355 105.1165361 256.23076141 105.11757843 255.21118164 105.11865234 C254.16687988 105.12373306 253.12257813 105.12881378 252.04663086 105.13404846 C249.77457077 105.14476047 247.50250007 105.15337738 245.23042488 105.16016769 C241.6269036 105.17195824 238.02350207 105.19141473 234.42002869 105.21328735 C224.17255685 105.27487628 213.92509543 105.32882424 203.67749023 105.36230469 C197.41045967 105.38333151 191.14364452 105.41870601 184.87673759 105.46306229 C182.49472032 105.47716668 180.11266489 105.48593207 177.73060799 105.48911667 C174.38276012 105.49406345 171.03547608 105.51732085 167.68774414 105.54443359 C166.71637009 105.54142746 165.74499603 105.53842133 164.7441864 105.5353241 C150.62507804 105.70386228 140.14852672 110.12295496 129.3671875 119.0234375 C117.21656901 128.94076474 104.03084914 131.48844474 88.6171875 131.1484375 C87.43125 131.13490234 86.2453125 131.12136719 85.0234375 131.10742188 C82.13752057 131.07251159 79.25261486 131.02348289 76.3671875 130.9609375 C76.4290625 132.78238281 76.4290625 132.78238281 76.4921875 134.640625 C76.48091526 141.04044044 73.98108763 146.25229045 69.53515625 150.859375 C63.52971505 155.71584619 57.88779336 157.29993132 50.2421875 156.7734375 C46.10043745 156.25254256 43.0414408 154.97302859 39.3671875 152.9609375 C35.45311335 152.64072775 35.45311335 152.64072775 32.7421875 154.3984375 C26.61200839 157.23648339 20.92176967 157.27185393 14.3671875 155.9609375 C14.3671875 171.4709375 14.3671875 186.9809375 14.3671875 202.9609375 C17.6671875 202.9609375 20.9671875 202.9609375 24.3671875 202.9609375 C24.6971875 201.6409375 25.0271875 200.3209375 25.3671875 198.9609375 C27.37741438 197.01255953 28.71520807 196.07271828 31.48608398 195.59765625 C36.30958872 195.70347726 40.94697334 196.14097231 45.71484375 196.8984375 C46.81505859 197.06988281 47.91527344 197.24132812 49.04882812 197.41796875 C51.31163192 197.78137687 53.56979275 198.17491235 55.82226562 198.59765625 C62.19657393 199.58900771 62.19657393 199.58900771 68.02758789 197.32397461 C70.41281136 195.23465839 70.41281136 195.23465839 72.43212891 192.98413086 C77.67677472 187.50061081 84.92882472 186.24004197 92.24609375 185.8671875 C101.37024346 186.14125458 108.74288661 188.66570556 115.3671875 194.9609375 C115.99496094 195.54875 116.62273437 196.1365625 117.26953125 196.7421875 C122.80500218 202.4532019 126.11844169 209.40059766 126.5546875 217.3984375 C127.10514458 220.11037733 127.10514458 220.11037733 129.421875 221.20703125 C131.71086261 222.23743221 133.99384666 223.14585075 136.3671875 223.9609375 C136.44195312 223.23390625 136.51671875 222.506875 136.59375 221.7578125 C138.17945022 209.63186964 143.79366958 200.5955345 150.3671875 190.5234375 C150.86524902 189.75370605 151.36331055 188.98397461 151.87646484 188.19091797 C155.63894076 182.57246802 159.24392249 178.28231885 165.6171875 175.5859375 C173.74035706 174.23207591 179.40266619 175.38641087 186.15087891 180.08398438 C189.87310046 183.23626894 192.17380481 187.03461219 194.6171875 191.2109375 C195.10703125 192.00628906 195.596875 192.80164063 196.1015625 193.62109375 C200.87546921 201.48026464 205.43131115 209.23620096 207.1796875 218.3359375 C207.41300781 219.49867188 207.64632813 220.66140625 207.88671875 221.859375 C208.3671875 224.9609375 208.3671875 224.9609375 208.3671875 228.9609375 C209.2746875 228.8990625 210.1821875 228.8371875 211.1171875 228.7734375 C221.20856631 228.83447407 229.96620862 232.71160478 238.3671875 237.9609375 C239.08342285 238.40711426 239.7996582 238.85329102 240.53759766 239.31298828 C242.9728486 240.84307518 245.39089299 242.39724357 247.8046875 243.9609375 C248.97765381 244.70815063 248.97765381 244.70815063 250.17431641 245.47045898 C255.78299424 249.18342561 259.19081632 252.43182397 261.3671875 258.9609375 C262.31934218 271.65022965 262.31934218 271.65022965 258.3671875 276.9609375 C245.56206302 289.483596 228.27494932 300.63943072 209.92578125 301.03515625 C209.08144531 301.01066406 208.23710937 300.98617188 207.3671875 300.9609375 C208.43284501 305.54326479 209.82576776 307.5474059 213.53125 310.3671875 C217.71890961 314.00243244 220.98340551 318.59342905 224.3671875 322.9609375 C225.30111328 324.15396484 225.30111328 324.15396484 226.25390625 325.37109375 C237.35423685 340.31288708 242.44516686 357.67645171 244.3671875 375.9609375 C245.5015625 375.91453125 246.6359375 375.868125 247.8046875 375.8203125 C263.94912001 375.34953018 263.94912001 375.34953018 269.3671875 379.9609375 C274.41546105 384.87246323 277.55328132 389.08331096 277.69638062 396.31581116 C277.69860626 397.00436691 277.70083191 397.69292267 277.703125 398.40234375 C277.7097818 399.12526108 277.7164386 399.84817841 277.72329712 400.59300232 C277.73340783 402.1235806 277.73811463 403.65420282 277.73779297 405.18481445 C277.74212809 407.49182099 277.7783531 409.79685221 277.81640625 412.10351562 C277.91866742 425.33627184 275.20912257 435.69797715 266.3671875 445.9609375 C260.38906257 451.85858767 251.84420304 457.72169639 243.19921875 458.04101562 C242.42964844 458.03005859 241.66007812 458.01910156 240.8671875 458.0078125 C231.98749525 457.79772614 231.98749525 457.79772614 224.33935547 461.72265625 C220.26691804 466.49760234 217.10381249 471.85071707 213.95947266 477.26464844 C211.53917728 481.36304497 208.85886892 485.26013883 206.1171875 489.1484375 C205.62637695 489.84807617 205.13556641 490.54771484 204.62988281 491.26855469 C197.6062543 501.06578533 189.39203382 508.41548201 177.3671875 510.9609375 C175.5909814 511.05301234 173.81169075 511.09177548 172.03310299 511.09515858 C170.94510306 511.09961642 169.85710314 511.10407426 168.73613352 511.10866719 C167.54131233 511.10848283 166.34649114 511.10829847 165.11546326 511.10810852 C163.84573844 511.11178521 162.57601363 511.1154619 161.26781231 511.11925 C157.74079384 511.12926106 154.2137924 511.13298536 150.68676174 511.13563931 C146.88357946 511.13954506 143.08041063 511.14912326 139.27723694 511.15785217 C130.09078763 511.17760972 120.90433723 511.18768224 111.71787199 511.19657996 C107.39031931 511.20096433 103.06276786 511.20633079 98.73521614 511.21156883 C84.34659676 511.22858098 69.95797814 511.24307448 55.56935024 511.25031757 C51.83586565 511.25222743 48.10238106 511.25414776 44.36889648 511.25610352 C43.4409721 511.25658726 42.51304771 511.257071 41.5570044 511.2575694 C26.52997776 511.26586719 11.50303079 511.29119994 -3.52396107 511.32368419 C-18.95672178 511.35677321 -34.38944202 511.37476803 -49.82223839 511.37796181 C-58.48518084 511.38012529 -67.14800714 511.38885 -75.81091499 511.41442299 C-83.18975699 511.43615523 -90.56845462 511.44416805 -97.947325 511.43445621 C-101.7097485 511.42991868 -105.47187429 511.43176541 -109.23425674 511.45121765 C-113.32044696 511.47216082 -117.40598013 511.46184102 -121.49220276 511.44868469 C-123.26101196 511.46513856 -123.26101196 511.46513856 -125.06555468 511.48192483 C-136.75863685 511.39122498 -146.11692593 508.10856951 -154.6328125 499.9609375 C-159.93691935 494.34789177 -164.21228455 488.00200521 -168.5703125 481.6484375 C-170.60320571 478.70257988 -172.63597761 475.75721671 -174.68774414 472.82446289 C-175.97097012 470.93530041 -177.20148869 469.00910106 -178.37280273 467.04858398 C-181.23388878 462.16129757 -181.23388878 462.16129757 -185.7668457 459.07446289 C-188.15865151 458.70604042 -190.40135646 458.62627875 -192.8203125 458.6484375 C-194.50983178 458.56560516 -196.1987423 458.46924811 -197.88671875 458.359375 C-199.10705811 458.28154785 -199.10705811 458.28154785 -200.35205078 458.20214844 C-210.19500353 457.16116821 -219.26955176 451.02543658 -225.6015625 443.67578125 C-233.44703132 433.18745323 -235.31895083 422.87058969 -235.20922852 410.04418945 C-235.19526465 407.76562894 -235.22966076 405.49111264 -235.26757812 403.21289062 C-235.31457283 394.3227552 -234.6010981 388.00307045 -228.15454102 381.46069336 C-222.35566675 376.22189005 -217.27162278 375.67354516 -209.8203125 375.8359375 C-209.03205078 375.84496094 -208.24378906 375.85398437 -207.43164062 375.86328125 C-205.49856584 375.88671246 -203.5656487 375.92257912 -201.6328125 375.9609375 C-201.55804688 375.08695312 -201.48328125 374.21296875 -201.40625 373.3125 C-198.48265136 345.96825389 -185.07407797 323.1380578 -164.6328125 304.9609375 C-158.4054104 299.97541616 -151.52023714 295.96150543 -144.6328125 291.9609375 C-144.97054687 291.4040625 -145.30828125 290.8471875 -145.65625 290.2734375 C-150.99748318 281.13468016 -153.23839251 272.47719648 -150.5078125 262.0234375 C-148.1531108 254.89361979 -144.90847487 249.13770861 -138.3203125 245.3359375 C-136.16477494 244.02025359 -136.16477494 244.02025359 -134.6328125 241.9609375 C-133.9673411 238.1796497 -133.88013821 234.55924582 -133.8125 230.72265625 C-133.38300337 221.73123767 -129.16276383 214.95101096 -122.6328125 208.9609375 C-114.76748838 202.59511762 -107.55858359 200.4255326 -97.5 200.6484375 C-88.26922643 201.65451636 -80.20004923 206.06453056 -73.8984375 212.8203125 C-71.47656752 214.35845786 -71.47656752 214.35845786 -67.98828125 212.94140625 C-66.59082926 212.3630127 -65.20158837 211.76446358 -63.8203125 211.1484375 C-58.58709653 208.86351222 -54.48989681 207.3401742 -48.6328125 207.9609375 C-47.8696875 208.6621875 -47.1065625 209.3634375 -46.3203125 210.0859375 C-43.83936805 212.25223743 -43.83936805 212.25223743 -41.18286133 211.70654297 C-40.28591553 211.49916504 -39.38896973 211.29178711 -38.46484375 211.078125 C-37.10903198 210.77430908 -37.10903198 210.77430908 -35.72583008 210.46435547 C-35.03513428 210.29822754 -34.34443848 210.13209961 -33.6328125 209.9609375 C-33.63557788 209.30586873 -33.63834326 208.65079996 -33.64119244 207.97588062 C-33.70745254 192.03481081 -33.75709317 176.09378892 -33.78824902 160.15261555 C-33.80371632 152.44357164 -33.82480316 144.73461967 -33.85913086 137.02563477 C-33.88903748 130.30628863 -33.9083885 123.58700908 -33.91507798 116.86759824 C-33.91898813 113.30987028 -33.92817447 109.7523328 -33.95000267 106.19466591 C-33.97417567 102.22259584 -33.97478167 98.25071193 -33.97338867 94.27856445 C-33.9841745 93.0996463 -33.99496033 91.92072815 -34.006073 90.70608521 C-34.00194901 89.62220016 -33.99782501 88.53831512 -33.99357605 87.42158508 C-33.99634143 86.48227803 -33.99910681 85.54297098 -34.00195599 84.57520008 C-33.54423767 81.3336533 -32.68683681 79.50984254 -30.6328125 76.9609375 C-28.1578125 76.4659375 -28.1578125 76.4659375 -25.6328125 75.9609375 C-25.6328125 70.3509375 -25.6328125 64.7409375 -25.6328125 58.9609375 C-27.2828125 58.6309375 -28.9328125 58.3009375 -30.6328125 57.9609375 C-33.38537054 55.54374514 -33.62510887 54.02957662 -34.03686523 50.36083984 C-34.06336606 48.92306206 -34.07214632 47.48488554 -34.06640625 46.046875 C-34.0716481 45.27719391 -34.07688995 44.50751282 -34.08229065 43.71450806 C-34.08870609 42.08556318 -34.08737999 40.45657194 -34.07885742 38.82763672 C-34.07041111 36.36469174 -34.09900757 33.90411841 -34.13085938 31.44140625 C-34.17530287 21.83746591 -33.96254949 13.33222156 -27.66796875 5.5234375 C-26.69150391 4.75 -26.69150391 4.75 -25.6953125 3.9609375 C-25.04691406 3.4246875 -24.39851562 2.8884375 -23.73046875 2.3359375 C-16.98563752 -2.08525541 -7.538472 -2.97512397 0 0 Z " fill="#020201" transform="translate(234.6328125,1.0390625)"/>
<path d="M0 0 C1.10988281 0.59941406 1.10988281 0.59941406 2.2421875 1.2109375 C4.30233058 2.37707943 4.30233058 2.37707943 6.3671875 2.9609375 C8.46875145 2.24398605 10.11680636 1.1725956 12.00390625 0.0078125 C17.10666959 -2.25258514 22.93344215 -1.71114769 28.3671875 -1.0390625 C30.87109375 -0.0625 30.87109375 -0.0625 32.9296875 1.0859375 C36.14344329 3.3306387 36.14344329 3.3306387 39.1171875 2.3359375 C40.4337597 1.5313656 41.74762915 0.72228081 43.0546875 -0.09765625 C48.74698574 -2.41496009 57.11627032 -2.15423164 62.91796875 -0.1640625 C69.16450066 3.5232107 74.06297607 9.08334366 76.3671875 15.9609375 C76.5625 19.07421875 76.5625 19.07421875 76.4921875 22.2734375 C76.47414063 23.34207031 76.45609375 24.41070313 76.4375 25.51171875 C76.41429687 26.31996094 76.39109375 27.12820312 76.3671875 27.9609375 C77.14731201 27.93999023 77.92743652 27.91904297 78.73120117 27.89746094 C82.33889355 27.81322013 85.94637797 27.76193834 89.5546875 27.7109375 C91.39450195 27.66066406 91.39450195 27.66066406 93.27148438 27.609375 C111.20371069 27.42011667 123.42999659 34.40203716 136.80078125 45.59375 C144.52044373 51.22330701 153.25504013 52.55233416 162.57080078 52.45922852 C163.6308432 52.46474731 164.69088562 52.47026611 165.78305054 52.47595215 C168.06424236 52.48521496 170.34548592 52.48542512 172.62668228 52.47735786 C176.2428268 52.46464931 179.85821686 52.47608952 183.47433472 52.49339294 C189.84617624 52.52000944 196.21783058 52.52569166 202.58972168 52.52429199 C212.79378666 52.52205769 222.99762059 52.53627167 233.20159531 52.57987785 C236.7539982 52.58968229 240.30603387 52.58101803 243.85842896 52.57118225 C246.04640948 52.5773286 248.23438803 52.58424104 250.42236328 52.59204102 C251.40130554 52.58432175 252.3802478 52.57660248 253.38885498 52.56864929 C260.19448048 52.61852723 267.07452811 53.28266927 272.5234375 57.71484375 C272.966875 58.31167969 273.4103125 58.90851562 273.8671875 59.5234375 C274.56328125 60.42255859 274.56328125 60.42255859 275.2734375 61.33984375 C278.49040015 66.10784197 277.62929186 71.58966594 277.66235352 77.17236328 C277.67950801 79.18982834 277.72338621 81.20562843 277.76757812 83.22265625 C277.77595703 84.50269531 277.78433594 85.78273438 277.79296875 87.1015625 C277.81484253 88.85774902 277.81484253 88.85774902 277.8371582 90.64941406 C277.10737759 95.79161884 274.59176315 98.85583265 270.8046875 102.2734375 C267.45338824 104.59356776 264.92420064 105.08603239 260.94911194 105.09896851 C260.04518707 105.10442184 259.14126221 105.10987518 258.20994568 105.11549377 C257.22035355 105.1165361 256.23076141 105.11757843 255.21118164 105.11865234 C254.16687988 105.12373306 253.12257813 105.12881378 252.04663086 105.13404846 C249.77457077 105.14476047 247.50250007 105.15337738 245.23042488 105.16016769 C241.6269036 105.17195824 238.02350207 105.19141473 234.42002869 105.21328735 C224.17255685 105.27487628 213.92509543 105.32882424 203.67749023 105.36230469 C197.41045967 105.38333151 191.14364452 105.41870601 184.87673759 105.46306229 C182.49472032 105.47716668 180.11266489 105.48593207 177.73060799 105.48911667 C174.38276012 105.49406345 171.03547608 105.51732085 167.68774414 105.54443359 C166.71637009 105.54142746 165.74499603 105.53842133 164.7441864 105.5353241 C150.62507804 105.70386228 140.14852672 110.12295496 129.3671875 119.0234375 C117.21656901 128.94076474 104.03084914 131.48844474 88.6171875 131.1484375 C87.43125 131.13490234 86.2453125 131.12136719 85.0234375 131.10742188 C82.13752057 131.07251159 79.25261486 131.02348289 76.3671875 130.9609375 C76.4084375 132.17523438 76.4496875 133.38953125 76.4921875 134.640625 C76.48091526 141.04044044 73.98108763 146.25229045 69.53515625 150.859375 C63.52971505 155.71584619 57.88779336 157.29993132 50.2421875 156.7734375 C46.10043745 156.25254256 43.0414408 154.97302859 39.3671875 152.9609375 C35.45311335 152.64072775 35.45311335 152.64072775 32.7421875 154.3984375 C26.61200839 157.23648339 20.92176967 157.27185393 14.3671875 155.9609375 C14.3671875 171.4709375 14.3671875 186.9809375 14.3671875 202.9609375 C17.6671875 202.9609375 20.9671875 202.9609375 24.3671875 202.9609375 C24.769375 204.6625 24.769375 204.6625 25.1796875 206.3984375 C25.5715625 207.5740625 25.9634375 208.7496875 26.3671875 209.9609375 C29.1373092 210.8843114 31.30501474 211.21725458 34.19140625 211.4609375 C35.13822266 211.5434375 36.08503906 211.6259375 37.06054688 211.7109375 C38.04861328 211.7934375 39.03667969 211.8759375 40.0546875 211.9609375 C46.5122868 212.51088608 52.94198828 213.107293 59.3671875 213.9609375 C59.38136719 214.76015625 59.39554688 215.559375 59.41015625 216.3828125 C59.86514488 226.85984802 62.26060226 235.99574996 69.3671875 243.9609375 C71.44115141 245.71853895 71.44115141 245.71853895 73.6796875 247.1484375 C74.39769531 247.63699219 75.11570312 248.12554687 75.85546875 248.62890625 C83.64161653 252.75810749 92.75527907 253.17495102 101.3671875 251.9609375 C109.7885259 249.37560562 115.10840573 244.83104516 120.3671875 237.9609375 C121.35876593 236.95258626 122.3576354 235.95129327 123.3671875 234.9609375 C128.56081675 237.26861908 133.752791 239.57997317 138.94335938 241.89453125 C140.70399269 242.6790355 142.46505001 243.462589 144.2265625 244.24511719 C160.51849596 251.48391944 160.51849596 251.48391944 168.3984375 255.265625 C169.29626953 255.69601074 170.19410156 256.12639648 171.11914062 256.56982422 C174.76519335 258.82603712 177.07738239 261.8815539 178.3671875 265.9609375 C178.4765625 269.2109375 178.4765625 269.2109375 178.3671875 271.9609375 C177.06007813 271.96480469 177.06007813 271.96480469 175.7265625 271.96875 C166.8232069 272.25781999 159.69294019 273.68160607 152.3671875 278.9609375 C151.17896664 280.53396512 150.03221046 282.13920134 148.9296875 283.7734375 C146.87896418 286.3858239 145.41298132 287.76014509 142.10888672 288.39453125 C138.43832725 288.70639544 134.81364456 288.79463503 131.13110352 288.7121582 C124.33293618 288.5996531 118.96744736 289.62467364 113.84228516 294.37402344 C109.12588219 299.6993797 108.1263354 304.26280294 108.09375 311.23828125 C108.07346362 312.65300274 108.05261289 314.06771623 108.03125 315.48242188 C108.00867027 317.69204506 107.99217979 319.90135074 107.98632812 322.11108398 C107.97676085 324.25821964 107.94294564 326.40396105 107.90625 328.55078125 C107.89803223 329.82816162 107.88981445 331.10554199 107.88134766 332.42163086 C107.11231113 337.71542125 104.66091169 340.76187606 100.8046875 344.3359375 C95.92649781 346.64199081 91.66570332 346.98992463 86.3671875 345.9609375 C82.07162274 343.59149786 79.21906787 340.4974132 77.3671875 335.9609375 C77.12768555 333.0793457 77.12768555 333.0793457 77.12890625 329.76171875 C77.11279297 328.55193359 77.09667969 327.34214844 77.08007812 326.09570312 C77.06328112 323.56710772 77.05789204 321.03840831 77.06445312 318.50976562 C76.93916175 310.8831586 76.23917359 305.04700932 71.3671875 298.9609375 C65.87557803 294.477991 61.72688478 293.84390486 54.79785156 293.76806641 C54.146875 293.75988892 53.49589844 293.75171143 52.82519531 293.74328613 C50.67774348 293.71854066 48.53035731 293.70194324 46.3828125 293.6875 C45.64625175 293.68217632 44.90969101 293.67685265 44.15081024 293.67136765 C40.25126692 293.64468181 36.35175508 293.62529333 32.45214844 293.61083984 C29.23571264 293.59751117 26.01991285 293.56967312 22.80371094 293.52880859 C18.90865823 293.47932966 15.01418133 293.45470069 11.11882782 293.44761276 C9.64051774 293.44092685 8.16221918 293.42577437 6.68408966 293.40172195 C-1.44976752 293.27692678 -8.33615602 293.17702978 -14.6328125 298.9609375 C-20.65399639 305.29902581 -20.95923941 311.34230925 -21.11132812 319.63476562 C-21.31199591 325.14089386 -22.26414165 329.42350639 -26.16796875 333.60546875 C-32.38084657 338.35649296 -36.84720489 338.80828276 -44.6328125 337.9609375 C-49.27539155 336.27646192 -51.7261578 333.30418507 -53.78515625 328.90234375 C-55.93642915 323.85048392 -56.19117654 319.27058938 -56.1953125 313.8359375 C-56.23650262 306.0333521 -56.7318727 300.41070375 -61.9453125 294.2109375 C-68.59754308 288.64162818 -74.17766899 288.55461729 -82.53125 288.625 C-84.89062775 288.61248807 -87.25000277 288.59945097 -89.609375 288.5859375 C-93.31129664 288.58200869 -97.01294786 288.58595779 -100.71484375 288.60058594 C-104.29988571 288.60917629 -107.88380665 288.5874401 -111.46875 288.5625 C-112.56794769 288.57584381 -113.66714539 288.58918762 -114.7996521 288.60293579 C-121.56406722 288.53822364 -126.5316486 287.64630452 -131.6328125 282.9609375 C-134.98452779 278.40486867 -136.36074347 273.8699971 -136.0859375 268.20703125 C-135.27139889 264.16944761 -133.38112257 260.99893431 -130.6328125 257.9609375 C-127.8203125 256.4609375 -127.8203125 256.4609375 -125.6328125 255.9609375 C-124.96185547 256.55841797 -124.96185547 256.55841797 -124.27734375 257.16796875 C-115.80301861 264.59429633 -108.71603816 267.51251272 -97.3125 267.34375 C-89.0617033 266.48538686 -81.36290083 262.97054233 -75.6328125 256.9609375 C-69.16483737 248.6715211 -67.26833491 239.2607834 -66.6328125 228.9609375 C-65.60800781 228.56261719 -64.58320313 228.16429687 -63.52734375 227.75390625 C-62.16657492 227.21898333 -60.80590293 226.68381401 -59.4453125 226.1484375 C-58.77177734 225.88740234 -58.09824219 225.62636719 -57.40429688 225.35742188 C-51.76739537 223.13594523 -51.76739537 223.13594523 -46.6328125 219.9609375 C-45.77337338 218.00759315 -45.77337338 218.00759315 -45.4453125 215.8984375 C-44.83398438 213.87695312 -44.83398438 213.87695312 -43.6328125 211.9609375 C-41.26831055 211.13891602 -41.26831055 211.13891602 -38.51953125 210.71484375 C-37.60776123 210.56474854 -36.69599121 210.41465332 -35.7565918 210.26000977 C-35.05574463 210.16131592 -34.35489746 210.06262207 -33.6328125 209.9609375 C-33.63557788 209.30586873 -33.63834326 208.65079996 -33.64119244 207.97588062 C-33.70745254 192.03481081 -33.75709317 176.09378892 -33.78824902 160.15261555 C-33.80371632 152.44357164 -33.82480316 144.73461967 -33.85913086 137.02563477 C-33.88903748 130.30628863 -33.9083885 123.58700908 -33.91507798 116.86759824 C-33.91898813 113.30987028 -33.92817447 109.7523328 -33.95000267 106.19466591 C-33.97417567 102.22259584 -33.97478167 98.25071193 -33.97338867 94.27856445 C-33.9841745 93.0996463 -33.99496033 91.92072815 -34.006073 90.70608521 C-34.00194901 89.62220016 -33.99782501 88.53831512 -33.99357605 87.42158508 C-33.99634143 86.48227803 -33.99910681 85.54297098 -34.00195599 84.57520008 C-33.54423767 81.3336533 -32.68683681 79.50984254 -30.6328125 76.9609375 C-28.9828125 76.6309375 -27.3328125 76.3009375 -25.6328125 75.9609375 C-25.6328125 70.3509375 -25.6328125 64.7409375 -25.6328125 58.9609375 C-27.2828125 58.6309375 -28.9328125 58.3009375 -30.6328125 57.9609375 C-33.38537054 55.54374514 -33.62510887 54.02957662 -34.03686523 50.36083984 C-34.06336606 48.92306206 -34.07214632 47.48488554 -34.06640625 46.046875 C-34.0716481 45.27719391 -34.07688995 44.50751282 -34.08229065 43.71450806 C-34.08870609 42.08556318 -34.08737999 40.45657194 -34.07885742 38.82763672 C-34.07041111 36.36469174 -34.09900757 33.90411841 -34.13085938 31.44140625 C-34.17530287 21.83746591 -33.96254949 13.33222156 -27.66796875 5.5234375 C-27.01699219 5.0078125 -26.36601562 4.4921875 -25.6953125 3.9609375 C-25.04691406 3.4246875 -24.39851563 2.8884375 -23.73046875 2.3359375 C-16.98563752 -2.08525541 -7.538472 -2.97512397 0 0 Z " fill="#020201" transform="translate(234.6328125,1.0390625)"/>
<path d="M0 0 C1.20177543 -0.01090081 1.20177543 -0.01090081 2.42782915 -0.02202183 C5.12366028 -0.04032984 7.81807903 -0.02289013 10.51390076 -0.00571251 C12.46156576 -0.01147141 14.40922534 -0.01941097 16.35687351 -0.02934873 C21.71761369 -0.05027693 27.07791046 -0.03987967 32.43865252 -0.02441764 C38.21652303 -0.01313251 43.99431581 -0.03055273 49.77217102 -0.04431725 C61.09440974 -0.06658451 72.41648301 -0.06173289 83.73872828 -0.04725404 C92.93814248 -0.03597553 102.1375102 -0.03442489 111.33692932 -0.03987312 C112.64477876 -0.04063929 113.9526282 -0.04140545 115.30010945 -0.04219484 C117.95673713 -0.04379342 120.61336481 -0.04541448 123.26999247 -0.04705779 C147.48730582 -0.06142114 171.70453543 -0.04652906 195.92183448 -0.02034481 C218.03614912 0.00338381 240.1503198 0.00126069 262.26463318 -0.02264977 C287.10200585 -0.04941459 311.93929776 -0.05995213 336.77668285 -0.04458845 C339.42369778 -0.04299565 342.07071271 -0.0414238 344.71772766 -0.03987312 C346.67144998 -0.03871606 346.67144998 -0.03871606 348.66464144 -0.03753562 C357.85612356 -0.03321319 367.04755471 -0.04051686 376.23902893 -0.05227089 C387.43592746 -0.0662743 398.63265068 -0.06254135 409.82952905 -0.03586717 C415.54558353 -0.02270001 421.2613454 -0.01762608 426.97739792 -0.03411293 C432.20572708 -0.04896529 437.43349121 -0.04090215 442.66176879 -0.01422517 C444.55738319 -0.00862017 446.45304491 -0.01152556 448.34862912 -0.02360411 C450.91799169 -0.03872546 453.485398 -0.02330468 456.05465698 0 C456.79734372 -0.01170583 457.54003047 -0.02341166 458.30522287 -0.03547221 C462.21557957 0.03582602 463.89102406 0.52023994 466.98518467 2.99380267 C469.38172741 6.08656037 469.66954569 7.58212426 469.69139099 11.45342445 C469.6978363 12.56524086 469.70428162 13.67705727 469.71092224 14.82256508 C469.6915863 15.97563148 469.67225037 17.12869789 469.65232849 18.3167057 C469.6813324 20.01730141 469.6813324 20.01730141 469.71092224 21.75225258 C469.66599785 29.54663489 468.14471014 35.02198109 464.02732849 41.6292057 C463.44982849 42.5573307 462.87232849 43.4854557 462.27732849 44.4417057 C456.83619969 49.73169204 450.2005506 52.74169237 442.62498474 52.76723671 C441.31279968 52.77541672 441.31279968 52.77541672 439.97410583 52.78376198 C438.54638855 52.78532547 438.54638855 52.78532547 437.08982849 52.78692055 C436.08129822 52.79200127 435.07276794 52.79708199 434.03367615 52.80231667 C431.84455736 52.81301319 429.65542769 52.82163618 427.46629333 52.8284359 C424.00350725 52.8402243 420.54084592 52.85967559 417.07810974 52.88155556 C407.23309966 52.94318497 397.38810344 52.99728182 387.54295349 53.03057289 C381.52118639 53.05148421 375.49964848 53.0867552 369.47801208 53.13133049 C367.18148999 53.14551467 364.88492737 53.15421835 362.58836365 53.15738487 C359.38027338 53.16227783 356.17279501 53.18539321 352.96482849 53.2127018 C352.01301697 53.20969566 351.06120544 53.20668953 350.08055115 53.2035923 C345.07516008 53.2561125 345.07516008 53.2561125 340.43357849 54.9364872 C338.69716015 56.71745127 338.69716015 56.71745127 338.58982849 60.1292057 C338.74994644 63.46851044 338.74994644 63.46851044 340.12030029 65.32093239 C343.01979445 67.3100644 345.48958482 67.03114511 348.97727966 67.06157875 C349.67997482 67.0717704 350.38266998 67.08196205 351.10665894 67.09246254 C353.42795227 67.12264271 355.74883332 67.13186576 358.07029724 67.14092445 C359.68028134 67.15776749 361.29025226 67.17591722 362.90020752 67.19532204 C367.13669211 67.24286925 371.37312328 67.27264788 375.60978699 67.29876137 C379.93331964 67.32854321 384.2566681 67.37508164 388.58006287 67.42022133 C397.06239435 67.5063081 405.54474251 67.57362927 414.02732849 67.6292057 C412.71146354 71.0282608 411.3561168 73.82952927 409.19920349 76.77373695 C408.64619568 77.5336393 408.09318787 78.29354164 407.52342224 79.07647133 C406.9472113 79.85699867 406.37100037 80.63752602 405.77732849 81.4417057 C404.93621521 82.59509438 404.93621521 82.59509438 404.07810974 83.77178383 C402.95481466 85.3088562 401.82715357 86.84274781 400.6950531 88.37334633 C399.58713535 89.87197903 398.48631082 91.37588281 397.39280701 92.88506508 C396.87645691 93.5908268 396.36010681 94.29658852 395.82810974 95.02373695 C395.37347351 95.64997963 394.91883728 96.27622231 394.45042419 96.92144203 C390.46867906 101.69967282 384.68973371 105.26724679 378.45576173 105.88335603 C377.07240767 105.88628242 377.07240767 105.88628242 375.66110706 105.88926792 C374.59139976 105.89633351 373.52169246 105.9033991 372.41956979 105.9106788 C370.66570263 105.90705618 370.66570263 105.90705618 368.87640381 105.90336037 C367.62962032 105.90859705 366.38283683 105.91383372 365.09827203 105.91922909 C361.63997168 105.93340228 358.18176123 105.93507251 354.723436 105.93463218 C350.99253586 105.93628101 347.26167269 105.94934883 343.53079224 105.96082497 C335.37365276 105.98366974 327.21653931 105.99159512 319.05937219 105.99665141 C313.96445532 105.99990926 308.869546 106.0064323 303.77463341 106.0136528 C289.66391016 106.03321861 275.55319393 106.04962274 261.44245625 106.05252934 C260.08810952 106.05281069 260.08810952 106.05281069 258.70640225 106.05309773 C256.87605965 106.05346398 255.04571705 106.05382767 253.21537445 106.05418884 C252.30680805 106.05437165 251.39824166 106.05455446 250.46214294 106.05474281 C249.09762668 106.05501364 249.09762668 106.05501364 247.70554443 106.05528993 C232.96887201 106.0588308 218.23234579 106.08584779 203.49572406 106.1232407 C188.36012355 106.16133811 173.22459556 106.18068692 158.08894604 106.18098885 C149.59314264 106.18157312 141.09751361 106.19004557 132.60175514 106.21898651 C125.36670762 106.24351968 118.13189806 106.25077035 110.89682017 106.23573899 C107.20736193 106.22857771 103.5183734 106.22939293 99.82896805 106.25214958 C95.82335863 106.27661917 91.8188143 106.26208208 87.81317139 106.24393654 C86.07603464 106.26373649 86.07603464 106.26373649 84.30380422 106.28393644 C76.11981164 106.19936652 69.35797906 104.50928875 63.13537866 98.93409723 C57.39322903 92.92503693 52.98102417 85.45268441 48.35838318 78.57012367 C47.00854791 76.60182023 45.60518671 74.68081444 44.19139099 72.75811195 C42.02732849 69.6292057 42.02732849 69.6292057 42.02732849 67.6292057 C42.60173308 67.62860862 43.17613766 67.62801153 43.76794845 67.62739635 C77.7879313 67.59152707 111.8078114 67.53492623 145.82771002 67.45128475 C149.90963001 67.44126691 153.9915504 67.43142285 158.07347107 67.42168617 C159.2924615 67.41877411 159.2924615 67.41877411 160.536078 67.41580322 C173.7063616 67.3847553 186.87662776 67.3677948 200.04694108 67.35601148 C213.55404367 67.34361436 227.06105451 67.31614562 240.5680992 67.27459264 C248.90728365 67.24941587 257.24631601 67.23609146 265.58553901 67.23777613 C271.29876711 67.23780581 277.01183994 67.22323793 282.72500757 67.19704142 C286.02465472 67.18234736 289.32391754 67.17639163 292.62360001 67.18340302 C296.19620949 67.18998582 299.7678784 67.17225894 303.34039307 67.14818764 C304.38999248 67.15594805 305.43959189 67.16370847 306.52099735 67.17170405 C307.47445409 67.16025646 308.42791083 67.14880888 309.4102602 67.13701439 C310.64795862 67.13473607 310.64795862 67.13473607 311.91066104 67.13241172 C314.18432454 66.78844935 314.18432454 66.78844935 315.81980151 64.82403016 C317.66064725 61.47807325 317.0245296 59.21912968 316.02732849 55.6292057 C312.99805202 53.537986 310.41493842 53.37976043 306.79697895 53.38145924 C305.19970462 53.37488624 305.19970462 53.37488624 303.57016212 53.36818045 C301.81673894 53.37619845 301.81673894 53.37619845 300.02789307 53.38437843 C298.78534199 53.38211386 297.54279091 53.37984929 296.26258677 53.37751609 C292.81144093 53.3731293 289.36051101 53.37766286 285.90938556 53.38582671 C282.18804476 53.39241059 278.4667187 53.38740811 274.74537659 53.38360023 C268.29515385 53.37837487 261.84496115 53.37987408 255.39473915 53.38537598 C245.19702319 53.39358703 234.99937206 53.38236288 224.80166626 53.3681736 C221.31248585 53.36357236 217.82330525 53.35912202 214.33412457 53.35473537 C213.46211369 53.35363723 212.59010282 53.35253909 211.69166738 53.35140767 C201.76441307 53.33923222 191.83715668 53.33168132 181.90989685 53.32573891 C181.00238215 53.32519085 180.09486744 53.32464279 179.15985229 53.32407812 C164.45806618 53.3156215 149.75629839 53.31895552 135.05451218 53.32489326 C119.95846631 53.33051236 104.86251263 53.3169678 89.76649493 53.28734046 C80.45659176 53.26980515 71.14695518 53.26815932 61.83705326 53.28698561 C55.45430174 53.29859893 49.07172995 53.29213139 42.68900178 53.27151641 C39.00778863 53.26020567 35.32703877 53.25699872 31.64584541 53.27569199 C27.65075513 53.29579111 23.65676108 53.27717287 19.66168213 53.2549839 C18.50388695 53.2670214 17.34609177 53.2790589 16.15321189 53.29146117 C7.39491534 53.19228845 1.80720136 50.90509553 -4.78517151 45.1917057 C-12.23815046 36.46107322 -13.3523019 29.23554085 -13.41017151 18.0667057 C-13.4430426 16.94328773 -13.4759137 15.81986977 -13.50978088 14.66240883 C-13.51687073 13.57766273 -13.52396057 12.49291664 -13.53126526 11.37529945 C-13.54471985 10.39230873 -13.55817444 9.40931801 -13.57203674 8.39653969 C-12.00302518 1.15224393 -6.57228591 -0.10358885 0 0 Z " fill="#E8E8FE" transform="translate(27.972671508789063,391.37079429626465)"/>
<path d="M0 0 C3.63 0 7.26 0 11 0 C11.4021875 1.7015625 11.4021875 1.7015625 11.8125 3.4375 C12.4003125 5.2009375 12.4003125 5.2009375 13 7 C15.7701217 7.9233739 17.93782724 8.25631708 20.82421875 8.5 C21.77103516 8.5825 22.71785156 8.665 23.69335938 8.75 C24.68142578 8.8325 25.66949219 8.915 26.6875 9 C33.1450993 9.54994858 39.57480078 10.1463555 46 11 C46.01417969 11.79921875 46.02835938 12.5984375 46.04296875 13.421875 C46.49795738 23.89891052 48.89341476 33.03481246 56 41 C58.07396391 42.75760145 58.07396391 42.75760145 60.3125 44.1875 C61.03050781 44.67605469 61.74851562 45.16460937 62.48828125 45.66796875 C70.27442903 49.79716999 79.38809157 50.21401352 88 49 C96.4213384 46.41466812 101.74121823 41.87010766 107 35 C107.99157843 33.99164876 108.9904479 32.99035577 110 32 C115.19362925 34.30768158 120.3856035 36.61903567 125.57617188 38.93359375 C127.33680519 39.718098 129.09786251 40.5016515 130.859375 41.28417969 C147.15130846 48.52298194 147.15130846 48.52298194 155.03125 52.3046875 C155.92908203 52.73507324 156.82691406 53.16545898 157.75195312 53.60888672 C161.39800585 55.86509962 163.71019489 58.9206164 165 63 C165.109375 66.25 165.109375 66.25 165 69 C163.69289063 69.00386719 163.69289063 69.00386719 162.359375 69.0078125 C153.4560194 69.29688249 146.32575269 70.72066857 139 76 C137.81177914 77.57302762 136.66502296 79.17826384 135.5625 80.8125 C133.51177668 83.4248864 132.04579382 84.79920759 128.74169922 85.43359375 C125.07113975 85.74545794 121.44645706 85.83369753 117.76391602 85.7512207 C110.96574868 85.6387156 105.60025986 86.66373614 100.47509766 91.41308594 C95.75869469 96.7384422 94.7591479 101.30186544 94.7265625 108.27734375 C94.70627612 109.69206524 94.68542539 111.10677873 94.6640625 112.52148438 C94.64148277 114.73110756 94.62499229 116.94041324 94.61914062 119.15014648 C94.60957335 121.29728214 94.57575814 123.44302355 94.5390625 125.58984375 C94.53084473 126.86722412 94.52262695 128.14460449 94.51416016 129.46069336 C93.74512363 134.75448375 91.29372419 137.80093856 87.4375 141.375 C82.55931031 143.68105331 78.29851582 144.02898713 73 143 C68.70443524 140.63056036 65.85188037 137.5364757 64 133 C63.76049805 130.1184082 63.76049805 130.1184082 63.76171875 126.80078125 C63.74560547 125.59099609 63.72949219 124.38121094 63.71289062 123.13476562 C63.69609362 120.60617022 63.69070454 118.07747081 63.69726562 115.54882812 C63.57197425 107.9222211 62.87198609 102.08607182 58 96 C52.50839053 91.5170535 48.35969728 90.88296736 41.43066406 90.80712891 C40.7796875 90.79895142 40.12871094 90.79077393 39.45800781 90.78234863 C37.31055598 90.75760316 35.16316981 90.74100574 33.015625 90.7265625 C31.91078388 90.71857698 31.91078388 90.71857698 30.78362274 90.71043015 C26.88407942 90.68374431 22.98456758 90.66435583 19.08496094 90.64990234 C15.86852514 90.63657367 12.65272535 90.60873562 9.43652344 90.56787109 C5.54147073 90.51839216 1.64699383 90.49376319 -2.24835968 90.48667526 C-3.72666976 90.47998935 -5.20496832 90.46483687 -6.68309784 90.44078445 C-14.81695502 90.31598928 -21.70334352 90.21609228 -28 96 C-34.02118389 102.33808831 -34.32642691 108.38137175 -34.47851562 116.67382812 C-34.67918341 122.17995636 -35.63132915 126.46256889 -39.53515625 130.64453125 C-45.74803407 135.39555546 -50.21439239 135.84734526 -58 135 C-62.64257905 133.31552442 -65.0933453 130.34324757 -67.15234375 125.94140625 C-69.30361665 120.88954642 -69.55836404 116.30965188 -69.5625 110.875 C-69.60369012 103.0724146 -70.0990602 97.44976625 -75.3125 91.25 C-81.96473058 85.68069068 -87.54485649 85.59367979 -95.8984375 85.6640625 C-98.25781525 85.65155057 -100.61719027 85.63851347 -102.9765625 85.625 C-106.67848414 85.62107119 -110.38013536 85.62502029 -114.08203125 85.63964844 C-117.66707321 85.64823879 -121.25099415 85.6265026 -124.8359375 85.6015625 C-125.93513519 85.61490631 -127.03433289 85.62825012 -128.1668396 85.64199829 C-134.93125472 85.57728614 -139.8988361 84.68536702 -145 80 C-148.35171529 75.44393117 -149.72793097 70.9090596 -149.453125 65.24609375 C-148.63858639 61.20851011 -146.74831007 58.03799681 -144 55 C-141.1875 53.5 -141.1875 53.5 -139 53 C-138.55269531 53.39832031 -138.10539062 53.79664063 -137.64453125 54.20703125 C-129.17020611 61.63335883 -122.08322566 64.55157522 -110.6796875 64.3828125 C-102.4288908 63.52444936 -94.73008833 60.00960483 -89 54 C-82.53202487 45.7105836 -80.63552241 36.2998459 -80 26 C-78.97519531 25.60167969 -77.95039063 25.20335937 -76.89453125 24.79296875 C-75.53376242 24.25804583 -74.17309043 23.72287651 -72.8125 23.1875 C-72.13896484 22.92646484 -71.46542969 22.66542969 -70.77148438 22.39648438 C-65.13353726 20.17641964 -65.13353726 20.17641964 -60 17 C-59.17631712 15.04411023 -59.17631712 15.04411023 -58.875 12.9375 C-58.265625 10.91601562 -58.265625 10.91601562 -57 9 C-54.41064453 8.17797852 -54.41064453 8.17797852 -51.3828125 7.75390625 C-50.37879395 7.60381104 -49.37477539 7.45371582 -48.34033203 7.29907227 C-47.56802246 7.20037842 -46.79571289 7.10168457 -46 7 C-46.00112793 7.67466309 -46.00225586 8.34932617 -46.00341797 9.04443359 C-45.99117561 12.15559009 -45.93334692 15.26437976 -45.875 18.375 C-45.87757813 19.43589844 -45.88015625 20.49679688 -45.8828125 21.58984375 C-45.69094506 29.40844213 -43.91478598 34.84842037 -39 41 C-33.4049009 46.07560857 -27.54954128 46.35402268 -20.296875 46.2734375 C-13.07777685 45.67469713 -8.80832003 42.37740517 -4.2265625 36.9765625 C-1.30206892 32.26384355 -0.7307212 27.52383175 -0.5859375 22.0703125 C-0.52792969 20.13671875 -0.52792969 20.13671875 -0.46875 18.1640625 C-0.43730242 16.81771293 -0.40605489 15.47135868 -0.375 14.125 C-0.33676959 12.75518486 -0.29771499 11.38539245 -0.2578125 10.015625 C-0.16377285 6.67721737 -0.07811943 3.33881186 0 0 Z " fill="#FD405A" transform="translate(248,204)"/>
<path d="M0 0 C0.33 0 0.66 0 1 0 C1.433125 1.7015625 1.433125 1.7015625 1.875 3.4375 C2.24625 4.613125 2.6175 5.78875 3 7 C5.93301912 8.46650956 8.56154861 8.16538474 11.83642578 8.20532227 C12.53897491 8.21522186 13.24152405 8.22512146 13.96536255 8.23532104 C16.29197803 8.2669568 18.61861394 8.29170159 20.9453125 8.31640625 C22.55671729 8.33697399 24.16811666 8.35797042 25.7795105 8.37937927 C30.02422706 8.43461854 34.26899247 8.48401961 38.51379395 8.53222656 C42.84387568 8.58242806 47.17388635 8.63812117 51.50390625 8.69335938 C60.00254411 8.80096363 68.50124135 8.90240354 77 9 C75.68413505 12.39905509 74.32878831 15.20032356 72.171875 18.14453125 C71.61886719 18.90443359 71.06585938 19.66433594 70.49609375 20.44726562 C69.91988281 21.22779297 69.34367187 22.00832031 68.75 22.8125 C67.90888672 23.96588867 67.90888672 23.96588867 67.05078125 25.14257812 C65.92748617 26.67965049 64.79982507 28.2135421 63.66772461 29.74414062 C62.55980686 31.24277333 61.45898233 32.74667711 60.36547852 34.25585938 C59.59095337 35.31450195 59.59095337 35.31450195 58.80078125 36.39453125 C58.34614502 37.02077393 57.89150879 37.6470166 57.4230957 38.29223633 C53.44135057 43.07046711 47.66240522 46.63804109 41.42843324 47.25415033 C40.04507918 47.25707671 40.04507918 47.25707671 38.63377857 47.26006222 C37.56407127 47.26712781 36.49436397 47.2741934 35.3922413 47.2814731 C33.63837414 47.27785047 33.63837414 47.27785047 31.84907532 47.27415466 C30.60229183 47.27939134 29.35550834 47.28462802 28.07094353 47.29002339 C24.61264319 47.30419658 21.15443274 47.30586681 17.69610751 47.30542648 C13.96520737 47.30707531 10.2343442 47.32014313 6.50346375 47.33161926 C-1.65367573 47.35446404 -9.81078918 47.36238942 -17.9679563 47.36744571 C-23.06287317 47.37070355 -28.15778249 47.37722659 -33.25269508 47.3844471 C-47.36341833 47.40401291 -61.47413456 47.42041704 -75.58487225 47.42332363 C-76.93921897 47.42360499 -76.93921897 47.42360499 -78.32092624 47.42389202 C-80.15126884 47.42425827 -81.98161144 47.42462197 -83.81195404 47.42498314 C-84.72052044 47.42516595 -85.62908684 47.42534876 -86.56518555 47.42553711 C-87.92970181 47.42580793 -87.92970181 47.42580793 -89.32178406 47.42608423 C-104.05845648 47.4296251 -118.7949827 47.45664209 -133.53160443 47.494035 C-148.66720494 47.53213241 -163.80273293 47.55148122 -178.93838245 47.55178314 C-187.43418585 47.55236742 -195.92981488 47.56083987 -204.42557335 47.58978081 C-211.66062087 47.61431398 -218.89543044 47.62156465 -226.13050833 47.60653328 C-229.81996656 47.599372 -233.5089551 47.60018723 -237.19836044 47.62294388 C-241.20396986 47.64741347 -245.20851419 47.63287637 -249.2141571 47.61473083 C-250.37224827 47.6279308 -251.53033944 47.64113077 -252.72352427 47.65473074 C-260.90751685 47.57016082 -267.66934944 45.88008304 -273.89194983 40.30489153 C-279.63409946 34.29583122 -284.04630432 26.8234787 -288.66894531 19.94091797 C-290.01878058 17.97261453 -291.42214178 16.05160874 -292.8359375 14.12890625 C-295 11 -295 11 -295 9 C-294.42597513 9.00016235 -293.85195027 9.0003247 -293.26053071 9.00049198 C-259.25717108 9.00934962 -225.25398575 8.98706658 -191.2506838 8.92420971 C-187.17005261 8.91669345 -183.089421 8.909438 -179.00878906 8.90234375 C-178.19639109 8.900927 -177.38399311 8.89951025 -176.54697701 8.89805056 C-163.38380985 8.87571746 -150.22072103 8.87452453 -137.05754021 8.88111137 C-123.55606109 8.88739816 -110.05474708 8.87104311 -96.55331779 8.83356392 C-88.21865943 8.81114421 -79.88437683 8.80649454 -71.54970595 8.82440336 C-65.838287 8.83498564 -60.12717754 8.82362258 -54.4158223 8.79483847 C-51.11790283 8.77887084 -47.82087272 8.77598373 -44.52293396 8.79260826 C-40.95029431 8.80909998 -37.37970139 8.78902323 -33.80718994 8.75949097 C-32.76050337 8.77307707 -31.7138168 8.78666317 -30.63541245 8.80066097 C-27.95197062 8.75732562 -25.5958525 8.68161257 -23 8 C-20.3910664 5.15986735 -20.3910664 5.15986735 -19 2 C-16.80175781 1.31884766 -16.80175781 1.31884766 -14.453125 1.4140625 C-13.60878906 1.43339844 -12.76445312 1.45273437 -11.89453125 1.47265625 C-11.02183594 1.52292969 -10.14914062 1.57320313 -9.25 1.625 C-7.91775391 1.66560547 -7.91775391 1.66560547 -6.55859375 1.70703125 C-4.36991605 1.77763376 -2.18620432 1.87614473 0 2 C0 1.34 0 0.68 0 0 Z " fill="#D3D3E7" transform="translate(365,450)"/>
<path d="M0 0 C19.99961907 -0.70146754 32.11487902 0.02976642 48.11352539 12.54150391 C59.6367748 21.52838213 70.59588004 25.29450862 85.08178711 25.30297852 C86.70509949 25.31563751 86.70509949 25.31563751 88.36120605 25.32855225 C91.91659002 25.35421851 95.47189123 25.36644091 99.02734375 25.37890625 C101.5021683 25.39508638 103.9769865 25.41226692 106.45179749 25.43040466 C112.94997226 25.47599771 119.44815552 25.51086088 125.94641113 25.54260254 C136.37248503 25.59458144 146.79847004 25.65943911 157.22442818 25.73081779 C160.87234279 25.75371792 164.5202454 25.76994031 168.16819763 25.78553772 C170.38679135 25.79893602 172.60538377 25.81255008 174.82397461 25.82641602 C176.35662712 25.83033607 176.35662712 25.83033607 177.92024231 25.83433533 C178.84402679 25.84123383 179.76781128 25.84813232 180.71958923 25.85523987 C181.52682906 25.85909478 182.33406889 25.8629497 183.16577053 25.86692142 C185 26 185 26 186 27 C186.09860131 28.40348735 186.13078937 29.81180477 186.1328125 31.21875 C186.13410156 32.06824219 186.13539063 32.91773438 186.13671875 33.79296875 C186.13285156 34.68628906 186.12898437 35.57960937 186.125 36.5 C186.12886719 37.39332031 186.13273438 38.28664062 186.13671875 39.20703125 C186.13478516 40.48126953 186.13478516 40.48126953 186.1328125 41.78125 C186.13168457 42.56564453 186.13055664 43.35003906 186.12939453 44.15820312 C186 46 186 46 185 47 C183.57227264 47.09899731 182.13969558 47.12907886 180.70854187 47.13130188 C179.78212387 47.13531006 178.85570587 47.13931824 177.9012146 47.14344788 C176.8763797 47.14291916 175.8515448 47.14239044 174.7956543 47.1418457 C173.72238388 47.14532013 172.64911346 47.14879456 171.5433197 47.15237427 C169.20192169 47.15974916 166.86051661 47.16508525 164.51910973 47.16866493 C160.80653059 47.17581532 157.0940848 47.19147446 153.38154602 47.21000671 C142.82167043 47.26252041 132.2618984 47.31039191 121.7019043 47.32592773 C115.24910718 47.33604486 108.7966397 47.36547348 102.34397316 47.40724754 C99.88938714 47.41951877 97.43475445 47.42468593 94.98013878 47.42244911 C91.52896775 47.42007979 88.07872988 47.44239072 84.62768555 47.4699707 C83.62511719 47.46336929 82.62254883 47.45676788 81.58959961 47.44996643 C68.75118689 47.61714715 57.80114947 52.58833021 47.83984375 60.46875 C47.00924438 61.12496338 47.00924438 61.12496338 46.16186523 61.79443359 C44.58425883 63.05753847 43.02588936 64.34456061 41.46875 65.6328125 C32.62587323 72.07641839 24.06048166 72.53612 13.375 72.25 C11.43947266 72.22292969 11.43947266 72.22292969 9.46484375 72.1953125 C6.30957041 72.14856771 3.15468392 72.07683939 0 72 C0 67.71 0 63.42 0 59 C1.09699219 58.98582031 2.19398438 58.97164062 3.32421875 58.95703125 C4.77868698 58.91011292 6.23311277 58.86186562 7.6875 58.8125 C8.40873047 58.80669922 9.12996094 58.80089844 9.87304688 58.79492188 C14.00815227 58.62498604 15.63682982 58.2836679 19.015625 55.64453125 C21.30164233 53.13425538 21.30164233 53.13425538 21.0625 49.875 C19.7986428 46.4551511 19.16990647 45.74220057 16 44 C13.09007742 43.49965467 10.19784322 43.39805101 7.25 43.3125 C6.45722656 43.27833984 5.66445313 43.24417969 4.84765625 43.20898438 C2.89892496 43.12680896 0.94948638 43.06171955 -1 43 C-1 38.38 -1 33.76 -1 29 C0.33675781 28.97421875 1.67351562 28.9484375 3.05078125 28.921875 C4.80472038 28.86559888 6.55862536 28.80825143 8.3125 28.75 C9.19357422 28.73582031 10.07464844 28.72164062 10.98242188 28.70703125 C15.99230514 28.65560513 15.99230514 28.65560513 20.07421875 26.109375 C21.26048937 23.40647993 21.5832818 21.91640898 21 19 C17.48246897 15.31171504 14.75574267 14.5159229 9.87304688 14.29296875 C9.15181641 14.27878906 8.43058594 14.26460937 7.6875 14.25 C6.57665039 14.20552734 6.57665039 14.20552734 5.44335938 14.16015625 C3.62947954 14.08994155 1.81473722 14.04264952 0 14 C0 9.38 0 4.76 0 0 Z " fill="#E6E6FC" transform="translate(311,44)"/>
<path d="M0 0 C0.33 0 0.66 0 1 0 C1.433125 1.7015625 1.433125 1.7015625 1.875 3.4375 C2.24625 4.613125 2.6175 5.78875 3 7 C5.93301912 8.46650956 8.56154861 8.16538474 11.83642578 8.20532227 C12.53897491 8.21522186 13.24152405 8.22512146 13.96536255 8.23532104 C16.29197803 8.2669568 18.61861394 8.29170159 20.9453125 8.31640625 C22.55671729 8.33697399 24.16811666 8.35797042 25.7795105 8.37937927 C30.02422706 8.43461854 34.26899247 8.48401961 38.51379395 8.53222656 C42.84387568 8.58242806 47.17388635 8.63812117 51.50390625 8.69335938 C60.00254411 8.80096363 68.50124135 8.90240354 77 9 C75.43202631 14.0175158 73.07803863 18.62585495 69 22 C64.57069078 23.19214116 60.23812461 23.04548913 55.67446899 22.96203613 C54.29984403 22.96552625 52.92522427 22.97253371 51.55063283 22.98274946 C47.77818274 23.00062611 44.00755194 22.9686613 40.23533368 22.92852497 C36.1658726 22.89396697 32.09651356 22.90566889 28.02694702 22.91174316 C20.97790858 22.91593744 13.92946267 22.89084464 6.88057327 22.84584045 C-3.31082239 22.78081506 -13.50193164 22.75998809 -23.69351228 22.74993652 C-40.22861721 22.73242877 -56.76340636 22.67919303 -73.29833984 22.60351562 C-89.36017273 22.53007997 -105.42191984 22.47345436 -121.48388672 22.43945312 C-122.47399291 22.43735134 -123.4640991 22.43524955 -124.48420851 22.43308407 C-129.45129582 22.42264375 -134.41838374 22.41253409 -139.38547206 22.40258884 C-180.59053438 22.31965909 -221.79524912 22.17875755 -263 22 C-262.37175827 23.10897141 -261.74351654 24.21794281 -261.09623718 25.36051941 C-260.74285121 25.98431582 -260.38946524 26.60811224 -260.0253706 27.25081158 C-258.8159337 29.31400026 -257.47304056 31.21492567 -256.01953125 33.11328125 C-255.49552734 33.80357422 -254.97152344 34.49386719 -254.43164062 35.20507812 C-253.63016602 36.24825195 -253.63016602 36.24825195 -252.8125 37.3125 C-251.73430322 38.72421219 -250.65741488 40.13692495 -249.58203125 41.55078125 C-249.10999268 42.16606689 -248.6379541 42.78135254 -248.15161133 43.4152832 C-247 45 -247 45 -246 47 C-256.6488673 47.59453974 -265.29407048 47.86399564 -273.7734375 40.44921875 C-279.53546932 34.34903952 -284.00132882 26.89044186 -288.66894531 19.94091797 C-290.01878058 17.97261453 -291.42214178 16.05160874 -292.8359375 14.12890625 C-295 11 -295 11 -295 9 C-294.42597513 9.00016235 -293.85195027 9.0003247 -293.26053071 9.00049198 C-259.25717108 9.00934962 -225.25398575 8.98706658 -191.2506838 8.92420971 C-187.17005261 8.91669345 -183.089421 8.909438 -179.00878906 8.90234375 C-178.19639109 8.900927 -177.38399311 8.89951025 -176.54697701 8.89805056 C-163.38380985 8.87571746 -150.22072103 8.87452453 -137.05754021 8.88111137 C-123.55606109 8.88739816 -110.05474708 8.87104311 -96.55331779 8.83356392 C-88.21865943 8.81114421 -79.88437683 8.80649454 -71.54970595 8.82440336 C-65.838287 8.83498564 -60.12717754 8.82362258 -54.4158223 8.79483847 C-51.11790283 8.77887084 -47.82087272 8.77598373 -44.52293396 8.79260826 C-40.95029431 8.80909998 -37.37970139 8.78902323 -33.80718994 8.75949097 C-32.76050337 8.77307707 -31.7138168 8.78666317 -30.63541245 8.80066097 C-27.95197062 8.75732562 -25.5958525 8.68161257 -23 8 C-20.3910664 5.15986735 -20.3910664 5.15986735 -19 2 C-16.80175781 1.31884766 -16.80175781 1.31884766 -14.453125 1.4140625 C-13.60878906 1.43339844 -12.76445312 1.45273437 -11.89453125 1.47265625 C-11.02183594 1.52292969 -10.14914062 1.57320313 -9.25 1.625 C-7.91775391 1.66560547 -7.91775391 1.66560547 -6.55859375 1.70703125 C-4.36991605 1.77763376 -2.18620432 1.87614473 0 2 C0 1.34 0 0.68 0 0 Z " fill="#C2C2DB" transform="translate(365,450)"/>
<path d="M0 0 C4.11428037 0.85714174 5.41556345 2.33141887 8 5.625 C8.490051 8.67331489 8.67304962 11.15936341 8.62818909 14.20300293 C8.63883067 15.49656369 8.63883067 15.49656369 8.64968723 16.816257 C8.66728697 19.70543223 8.64915247 22.59326569 8.63110352 25.48242188 C8.63624157 27.55384433 8.64352199 29.62526242 8.65278625 31.69667053 C8.67132277 37.32272803 8.65834723 42.94831247 8.63869596 48.57435036 C8.62232687 54.45903716 8.63111993 60.34369359 8.63621521 66.22839355 C8.6407381 76.11116097 8.62485408 85.99373924 8.59692383 95.87646484 C8.56487117 107.30605248 8.5648871 118.73529893 8.5821386 130.16491079 C8.59799635 141.15495175 8.59127492 152.14486749 8.57420158 163.13490295 C8.56732478 167.81424793 8.56837004 172.49349272 8.57574654 177.1728363 C8.58340147 182.68211721 8.57130882 188.19100934 8.54389763 193.70022392 C8.53700444 195.72348819 8.53692578 197.74678871 8.54411316 199.77005196 C8.55278688 202.52946916 8.53688713 205.28768079 8.5146637 208.04699707 C8.52702485 209.25152 8.52702485 209.25152 8.53963572 210.48037672 C8.48358603 214.24419421 8.13372756 216.41486773 6.09283352 219.62181854 C4 221.625 4 221.625 2 222.25390625 C1.34 222.23199219 0.68 222.21007812 0 222.1875 C-0.66 222.18878906 -1.32 222.19007813 -2 222.19140625 C-4.91970113 221.36453776 -6.09723809 219.96731834 -8 217.625 C-8.49942875 214.81699371 -8.49942875 214.81699371 -8.49879456 211.51428223 C-8.51316055 209.63414177 -8.51316055 209.63414177 -8.52781677 207.71601868 C-8.51831947 206.32955692 -8.50846559 204.94309757 -8.49829102 203.55664062 C-8.50211451 202.09457343 -8.50773382 200.63251 -8.51501465 199.17045593 C-8.52696656 196.02357749 -8.52647517 192.87703268 -8.51642036 189.73014832 C-8.50086798 184.75507585 -8.51453128 179.78034657 -8.53245544 174.80529785 C-8.56328236 165.14349501 -8.56477614 155.48179685 -8.56280518 145.81995392 C-8.5614125 133.52145028 -8.57172388 121.22302704 -8.6113829 108.92458296 C-8.62633176 103.97810808 -8.62603536 99.03193644 -8.61390507 94.08545685 C-8.60919923 91.00961687 -8.61670589 87.93389334 -8.62744904 84.85807228 C-8.62985819 83.43102243 -8.62710919 82.00395321 -8.61884117 80.57692528 C-8.60823423 78.62988251 -8.61769214 76.68276114 -8.62818909 74.73571777 C-8.62760278 73.64582298 -8.62701647 72.55592819 -8.62641239 71.43300629 C-9.05297227 68.22684314 -9.69239338 66.87089044 -12 64.625 C-13.32 64.295 -14.64 63.965 -16 63.625 C-16 57.685 -16 51.745 -16 45.625 C-14.35 44.965 -12.7 44.305 -11 43.625 C-8.30435175 40.20408797 -8.73739889 36.13401896 -8.76171875 31.97265625 C-8.74630204 30.45897538 -8.72999863 28.94530333 -8.71289062 27.43164062 C-8.69643369 25.05717442 -8.68751233 22.6833565 -8.69458008 20.30883789 C-8.69720463 18.00853913 -8.66905795 15.71019356 -8.63671875 13.41015625 C-8.64692551 12.7048024 -8.65713226 11.99944855 -8.66764832 11.27272034 C-8.59110252 7.3988134 -8.0939754 5.74275454 -5.64770508 2.67749023 C-3 0.625 -3 0.625 0 0 Z " fill="#FEDE73" transform="translate(225,14.375)"/>
<path d="M0 0 C3.7628133 0.12854026 7.52427916 0.20693642 11.28857422 0.27807617 C13.68057617 0.33832471 16.0725096 0.4013738 18.46435547 0.4675293 C19.58927399 0.49274155 20.7141925 0.5179538 21.87319946 0.54393005 C22.91213348 0.58309036 23.9510675 0.62225067 25.02148438 0.66259766 C25.93491608 0.69179794 26.84834778 0.72099823 27.78945923 0.75108337 C30.55716568 1.27417048 31.49177774 1.90689336 33.11279297 4.19018555 C33.33000307 6.84014881 33.39630851 9.24095113 33.30029297 11.87768555 C33.27999023 12.93052734 33.27999023 12.93052734 33.25927734 14.00463867 C33.22399479 15.73348383 33.1701888 17.4619332 33.11279297 19.19018555 C32.53013672 18.99682617 31.94748047 18.8034668 31.34716797 18.60424805 C11.60749058 12.33472787 -9.08750044 11.77784905 -27.88720703 21.19018555 C-45.02167232 30.61531666 -56.91903613 44.50830604 -62.88720703 63.19018555 C-63.74071303 66.86026134 -64.34662652 70.45526562 -64.88720703 74.19018555 C-70.49720703 74.19018555 -76.10720703 74.19018555 -81.88720703 74.19018555 C-81.88720703 68.58331612 -81.45287672 64.41657186 -79.88720703 59.19018555 C-79.66718018 58.45469482 -79.44715332 57.7192041 -79.22045898 56.96142578 C-75.44554733 45.03250014 -69.29605534 34.47106257 -60.88720703 25.19018555 C-60.14986328 24.3600293 -59.41251953 23.52987305 -58.65283203 22.67456055 C-52.84573668 16.48791648 -46.44095221 11.45948843 -39.00341797 7.36767578 C-36.80534393 6.183634 -36.80534393 6.183634 -34.51318359 4.59277344 C-23.75595311 -1.69211173 -12.06572783 -0.41845073 0 0 Z " fill="#FBDB72" transform="translate(130.88720703125,302.809814453125)"/>
<path d="M0 0 C3.62532374 0.75527578 5.36306228 2.06340335 8 4.625 C9.19873867 7.02247733 9.13354438 8.52015978 9.14717102 11.19770813 C9.15432632 12.16085938 9.16148163 13.12401062 9.16885376 14.11634827 C9.17288712 15.706782 9.17288712 15.706782 9.17700195 17.3293457 C9.18357315 18.44326691 9.19014435 19.55718811 9.19691467 20.7048645 C9.21667998 24.40350404 9.22831691 28.10210293 9.23828125 31.80078125 C9.24235678 33.06145102 9.2464323 34.32212078 9.25063133 35.62099266 C9.26935092 41.60374983 9.28391417 47.58648225 9.2922433 53.5692609 C9.30201526 60.47436732 9.32833315 67.37915315 9.36874419 74.28414661 C9.40254668 80.26530205 9.41438859 86.24630189 9.41844749 92.22756004 C9.42332772 94.77171186 9.43498222 97.3158599 9.45348549 99.85994911 C9.47775465 103.41771791 9.4769339 106.97464499 9.4699707 110.5324707 C9.48278076 111.58668716 9.49559082 112.64090363 9.50878906 113.72706604 C9.4577227 120.87250542 9.4577227 120.87250542 7.09562683 124.75578308 C4.61535799 126.96808558 3.4779031 127.55065952 0.1875 128.0625 C-3.46698438 127.56090411 -4.71532971 126.50495451 -6.95588303 123.62928772 C-9.09514229 119.52276404 -8.69086977 115.01188352 -8.64697266 110.48242188 C-8.66011505 108.81307335 -8.66011505 108.81307335 -8.67352295 107.11000061 C-8.69549881 103.43751849 -8.68096911 99.766244 -8.6640625 96.09375 C-8.66743111 93.53836842 -8.67228411 90.9829884 -8.67855835 88.4276123 C-8.68592731 83.07445529 -8.67570108 77.7217296 -8.65185547 72.36865234 C-8.62464597 66.18925588 -8.63346109 60.01068437 -8.6609875 53.83130789 C-8.68645462 47.87465677 -8.68370437 41.91826086 -8.66907883 35.96156311 C-8.66574453 33.43221419 -8.66983265 30.90284421 -8.68147659 28.3735199 C-8.6941822 24.83763953 -8.6748089 21.30334076 -8.64697266 17.76757812 C-8.65709381 16.72324112 -8.66721497 15.67890411 -8.67764282 14.60292053 C-8.61099588 10.03091663 -8.53875201 6.65302835 -5.64706421 2.96765137 C-3 0.625 -3 0.625 0 0 Z " fill="#F6D770" transform="translate(287,14.375)"/>
<path d="M0 0 C4.21098737 0.87728904 5.425629 2.16463615 8 5.625 C8.74931122 9.36324156 8.68299817 13.05131857 8.64697266 16.85351562 C8.66011505 18.55431526 8.66011505 18.55431526 8.67352295 20.28947449 C8.69552762 24.03712236 8.68095882 27.78359015 8.6640625 31.53125 C8.66743028 34.1352969 8.67228258 36.73934227 8.67855835 39.34338379 C8.68764734 44.8008299 8.67568721 50.25793737 8.65185547 55.71533203 C8.624645 62.0191221 8.63345974 68.32210356 8.6609875 74.62587404 C8.68643667 80.69736206 8.68371125 86.76849241 8.66907883 92.8400116 C8.66574161 95.42042657 8.6698429 98.00086215 8.68147659 100.58125305 C8.69416478 104.18688751 8.67483317 107.79096592 8.64697266 111.39648438 C8.65709381 112.46468918 8.66721497 113.53289398 8.67764282 114.63346863 C8.5742537 121.84991827 8.5742537 121.84991827 5.65097046 125.79553223 C2.41322409 128.02994137 0.85753888 128.28160236 -3 127.625 C-6.1359157 125.84515595 -6.84102736 125.10191793 -8 121.625 C-8.09957196 120.05033532 -8.14350992 118.47184897 -8.15390015 116.89407349 C-8.16250061 115.92113342 -8.17110107 114.94819336 -8.17996216 113.94577026 C-8.18422211 112.87972565 -8.18848206 111.81368103 -8.19287109 110.71533203 C-8.20104858 109.59151123 -8.20922607 108.46769043 -8.21765137 107.30981445 C-8.2425016 103.58415259 -8.25901839 99.85852874 -8.2734375 96.1328125 C-8.27876118 94.86202724 -8.28408485 93.59124199 -8.28956985 92.28194809 C-8.31079567 86.94267122 -8.32992653 81.60340768 -8.34119225 76.26410103 C-8.35743623 68.61638902 -8.39063431 60.96918463 -8.44759309 53.32166398 C-8.49096254 47.29298192 -8.50693696 41.26453104 -8.51332474 35.23568344 C-8.52005378 32.67197934 -8.53531833 30.1082831 -8.55921555 27.54468155 C-8.59072611 23.96054427 -8.59092457 20.37769564 -8.58349609 16.79345703 C-8.59990143 15.73146088 -8.61630676 14.66946472 -8.63320923 13.57528687 C-8.57216822 6.39446965 -8.57216822 6.39446965 -5.65103149 2.46603394 C-3 0.625 -3 0.625 0 0 Z " fill="#FEDE73" transform="translate(256,14.375)"/>
<path d="M0 0 C0.7528125 0.556875 1.505625 1.11375 2.28125 1.6875 C4.78834854 3.31181736 6.55700566 3.63666737 9.5 4 C18.28185328 5.42928442 23.97804729 12.14443411 29.3125 18.8125 C34.58545971 26.17968484 38.5 33.96744336 38.5 43.125 C32.89 43.125 27.28 43.125 21.5 43.125 C20.96375 41.64 20.4275 40.155 19.875 38.625 C15.66859489 28.21194121 8.88788313 21.22433269 -1.4375 16.75 C-11.50033611 13.47470016 -22.48019829 13.32891622 -32.0625 18.0625 C-42.84687386 24.24620061 -47.27717886 31.64420502 -51.5 43.125 C-57.11 43.125 -62.72 43.125 -68.5 43.125 C-67.09825328 31.9110262 -67.09825328 31.9110262 -64.5 28.125 C-61.50795382 27.0425833 -58.55498138 26.41074143 -55.4375 25.78125 C-48.48525636 24.22808919 -43.31152747 18.95494719 -39.5 13.125 C-38.76648633 11.04319321 -38.10094974 8.9363694 -37.5 6.8125 C-35.9431896 1.50731777 -35.9431896 1.50731777 -33.87890625 -0.2734375 C-32.0625 -1.0625 -32.0625 -1.0625 -28.5 -1.875 C-27.78070313 -2.04773438 -27.06140625 -2.22046875 -26.3203125 -2.3984375 C-17.78796171 -3.84019207 -7.47565322 -4.90030857 0 0 Z " fill="#F9DA71" transform="translate(392.5,333.875)"/>
<path d="M0 0 C0.8026816 -0.00576922 1.6053632 -0.01153844 2.43236849 -0.01748249 C5.13329013 -0.03076136 7.83273379 -0.00825306 10.53357983 0.01396656 C12.48480443 0.01178694 14.43602761 0.00741044 16.38724297 0.00102073 C21.75767567 -0.01018364 27.12761179 0.00987364 32.49798119 0.03491104 C38.28595016 0.0564622 44.07389014 0.04919939 49.86188793 0.04539967 C59.89282229 0.0427753 69.92359429 0.05849004 79.9544878 0.08658886 C94.45752756 0.12718879 108.96048865 0.1402425 123.46357908 0.14652882 C146.99266862 0.15703267 170.52167356 0.19072441 194.05071545 0.23804188 C216.90976035 0.28395893 239.76878211 0.31937948 262.62786388 0.34058094 C263.33240064 0.34123857 264.0369374 0.3418962 264.76282376 0.34257376 C271.83803026 0.34916632 278.91323693 0.3555454 285.98844376 0.36176806 C300.40163285 0.37444934 314.81482043 0.3885556 329.22800732 0.40352345 C329.89071164 0.40420989 330.55341596 0.40489634 331.23620223 0.4056036 C375.4952908 0.45161189 419.75433184 0.53094242 464.01336193 0.61523914 C464.01336193 0.94523914 464.01336193 1.27523914 464.01336193 1.61523914 C314.52336193 1.61523914 165.03336193 1.61523914 11.01336193 1.61523914 C10.69757245 30.17569502 10.69757245 30.17569502 24.01336193 52.61523914 C12.20036853 53.22555453 4.47184361 53.21258993 -4.79913807 45.17773914 C-12.25211702 36.44710666 -13.36626846 29.22157429 -13.42413807 18.05273914 C-13.45700916 16.92932117 -13.48988026 15.80590321 -13.52374744 14.64844227 C-13.53083729 13.56369617 -13.53792713 12.47895008 -13.54523182 11.36133289 C-13.55868641 10.37834217 -13.572141 9.39535145 -13.5860033 8.38257313 C-12.01462476 1.12734878 -6.57890662 -0.11613027 0 0 Z " fill="#C7C7DA" transform="translate(27.986638069152832,391.3847608566284)"/>
<path d="M0 0 C-0.62816498 3.94949704 -1.8645529 7.19892028 -3.5625 10.8125 C-4.01753906 11.78832031 -4.47257812 12.76414062 -4.94140625 13.76953125 C-5.46541016 14.87361328 -5.46541016 14.87361328 -6 16 C-8.1456701 14.93215488 -10.27448381 13.85150876 -12.3828125 12.7109375 C-21.62106073 8.21025247 -32.02292312 6.8000182 -42.04492188 9.56396484 C-52.14706598 13.19839685 -59.46924176 19.86754264 -64.4375 29.3125 C-65.66053113 31.92858004 -66.28251596 34.13006384 -67 37 C-72.61 37 -78.22 37 -84 37 C-83.59649194 24.8947583 -77.34996323 14.54577476 -69 6 C-48.80277793 -11.49691134 -23.07325955 -14.2878501 0 0 Z " fill="#FADB72" transform="translate(165,340)"/>
<path d="M0 0 C12.26997412 -0.25562446 23.55861604 2.19793152 33.9375 9.1171875 C32.21683894 14.56594753 30.09044651 19.82888201 27.9375 25.1171875 C24.67564732 23.829766 21.45195691 22.48442378 18.25 21.0546875 C17.48300781 20.71308594 16.71601563 20.37148438 15.92578125 20.01953125 C14.58452836 19.41082905 13.25491495 18.77589497 11.9375 18.1171875 C-0.66316056 17.26598009 -11.9840869 17.94171058 -22.21484375 26.21875 C-27.76575112 31.9222193 -30.96194981 38.88257038 -34.0625 46.1171875 C-39.3425 46.1171875 -44.6225 46.1171875 -50.0625 46.1171875 C-49.87795161 33.75244564 -43.86623493 24.11670938 -35.4375 15.33203125 C-25.32001092 5.89680706 -13.77245651 0.52700726 0 0 Z " fill="#FADB72" transform="translate(253.0625,330.8828125)"/>
<path d="M0 0 C-1.32 0.33 -2.64 0.66 -4 1 C-4.02333535 29.24147239 -4.04098232 57.48294333 -4.05181217 85.72442341 C-4.05697377 98.83671198 -4.0640139 111.94899457 -4.07543945 125.0612793 C-4.08539043 136.48671399 -4.09185442 147.91214434 -4.09408849 159.33758324 C-4.09539489 165.39015914 -4.09847632 171.44272264 -4.10573006 177.49529457 C-4.11249677 183.18738892 -4.11461562 188.87946573 -4.11310768 194.57156372 C-4.11338371 196.66501651 -4.11538498 198.75846986 -4.11920547 200.85191917 C-4.12415285 203.70166039 -4.12299437 206.55133463 -4.12025452 209.40107727 C-4.12462378 210.65447315 -4.12462378 210.65447315 -4.12908131 211.93319017 C-4.120504 215.21527892 -4.04539592 217.86381224 -3 221 C-5.5728348 220.65231962 -7.50681997 220.35048915 -9.64431 218.8314352 C-11.590166 216.20273013 -11.37641645 214.26065123 -11.37854004 211.00953674 C-11.38674271 209.75748444 -11.39494537 208.50543213 -11.40339661 207.21543884 C-11.39743791 205.8253468 -11.39121882 204.43525585 -11.38476562 203.04516602 C-11.38887004 201.58324764 -11.39433014 200.12133253 -11.40104675 198.65942383 C-11.4127819 195.50985629 -11.41525253 192.36046404 -11.41069031 189.21087837 C-11.40389073 184.23171644 -11.41973114 179.25278588 -11.43908691 174.27366638 C-11.47697507 163.70329009 -11.4897469 153.13293379 -11.5 142.5625 C-11.51106764 131.15502469 -11.52638432 119.74765551 -11.57071257 108.34025329 C-11.58908973 103.38961789 -11.59295372 98.43924605 -11.58577728 93.48858464 C-11.58425689 90.40945564 -11.59503004 87.33045883 -11.60915565 84.25136566 C-11.61316297 82.82271002 -11.61202533 81.39402935 -11.60538292 79.96538353 C-11.59701544 78.01608191 -11.6087182 76.06672483 -11.62145996 74.1174469 C-11.62217247 73.02625329 -11.62288498 71.93505968 -11.62361908 70.8107996 C-12.05297363 67.6043948 -12.6919385 66.24631811 -15 64 C-16.32 63.67 -17.64 63.34 -19 63 C-19 57.06 -19 51.12 -19 45 C-17.35 44.34 -15.7 43.68 -14 43 C-11.30435175 39.57908797 -11.73739889 35.50901896 -11.76171875 31.34765625 C-11.74630204 29.83397538 -11.72999863 28.32030333 -11.71289062 26.80664062 C-11.69643369 24.43217442 -11.68751233 22.0583565 -11.69458008 19.68383789 C-11.69720463 17.38353913 -11.66905795 15.08519356 -11.63671875 12.78515625 C-11.64692551 12.0798024 -11.65713226 11.37444855 -11.66764832 10.64772034 C-11.59129396 6.78350215 -11.08415381 5.10703519 -8.66723633 2.03295898 C-5.49810744 -0.3825409 -3.89162602 -0.45251465 0 0 Z " fill="#F6CD5B" transform="translate(228,15)"/>
<path d="M0 0 C1.69610153 0.97201178 3.39236269 1.94529991 5.05371094 2.97558594 C6.93115462 4.13582737 8.8405578 5.22728063 10.7578125 6.3203125 C12.04912988 7.08474537 13.33825867 7.85288931 14.625 8.625 C15.23045654 8.97618896 15.83591309 9.32737793 16.4597168 9.68920898 C19.60544748 11.67711386 20.71123908 12.68823607 21.69921875 16.33984375 C21.75529297 17.68755859 21.75529297 17.68755859 21.8125 19.0625 C9.15477586 29.5288352 -3.01125419 37.94054974 -19.85546875 37.5390625 C-24.06739006 36.93665406 -26.60146382 35.62787103 -29.9296875 33.05859375 C-31.77761124 30.12601913 -31.26657899 27.45773923 -31.1875 24.0625 C-29.84788208 24.04062622 -29.84788208 24.04062622 -28.48120117 24.01831055 C-25.16532722 23.95722923 -21.85028101 23.88307522 -18.53491211 23.80004883 C-17.10045372 23.76680999 -15.66586487 23.73877465 -14.23120117 23.71606445 C-12.16789193 23.68249729 -10.10577697 23.63018587 -8.04296875 23.57421875 C-6.18128052 23.53494263 -6.18128052 23.53494263 -4.28198242 23.49487305 C-1.23457704 23.30518377 -1.23457704 23.30518377 0.71362305 21.74926758 C2.60032623 18.85319287 2.22882868 16.39312943 1.8125 13.0625 C-0.57347338 10.48569322 -2.0145674 10.08075659 -5.53149414 9.70947266 C-6.83207764 9.7151123 -8.13266113 9.72075195 -9.47265625 9.7265625 C-10.90430147 9.7140567 -12.33594213 9.70101989 -13.76757812 9.6875 C-16.01489232 9.68356123 -18.26176092 9.68757626 -20.5090332 9.70214844 C-22.68508452 9.71070528 -24.85926944 9.68907287 -27.03515625 9.6640625 C-28.9843396 9.66913818 -28.9843396 9.66913818 -30.97290039 9.67431641 C-34.1875 9.0625 -34.1875 9.0625 -36.13452148 6.52490234 C-36.48200439 5.71230957 -36.8294873 4.8997168 -37.1875 4.0625 C-35.58555929 3.07969585 -33.98086258 2.10138283 -32.375 1.125 C-31.48167969 0.57972656 -30.58835937 0.03445312 -29.66796875 -0.52734375 C-20.99045802 -5.46054276 -8.66599257 -4.25439318 0 0 Z " fill="#3FBF7A" transform="translate(459.1875,248.9375)"/>
<path d="M0 0 C5.44392011 2.81831262 8.9281456 7.6516243 10.828125 13.3515625 C11.62745473 19.86039027 10.19801711 23.68050466 6.5859375 29.140625 C3.28723719 33.28965695 0.45009446 34.94727679 -4.78125 35.75390625 C-10.6131124 36.08416365 -14.75388804 35.28625802 -19.515625 31.8515625 C-23.28915408 28.43402673 -25.74539987 24.44046094 -26.4453125 19.37109375 C-26.73454255 13.08590223 -25.1896643 9.17727682 -21.171875 4.3515625 C-15.01418235 -1.23332153 -8.11511295 -2.42285746 0 0 Z " fill="#FBEFD3" transform="translate(142.171875,218.6484375)"/>
<path d="M0 0 C4.83423591 2.36411098 7.87629815 6.46542129 9.78125 11.37109375 C10.86684443 17.37043141 10.00139306 22.4026628 6.98828125 27.68359375 C4.35446867 31.36581716 0.88176409 33.60839552 -3.21875 35.37109375 C-10.01548348 36.35018769 -14.73568808 35.45651243 -20.21875 31.37109375 C-24.61139199 27.00127068 -26.36696552 23.31202461 -26.53125 17.12109375 C-26.44760673 10.78093411 -25.1063627 7.6134703 -20.8515625 2.8359375 C-15.16411999 -2.24314673 -7.04295517 -1.9963306 0 0 Z " fill="#FCF0D4" transform="translate(416.21875,288.62890625)"/>
<path d="M0 0 C4.54197646 2.65662774 7.94617534 6.20485068 10.3125 10.9375 C11.05058652 17.79116051 11.08955426 23.65142766 6.84375 29.3125 C2.3346117 34.09770799 -1.33895458 35.18359721 -7.75 35.4375 C-13.71650347 35.21431408 -16.99635846 33.81981553 -21.1171875 29.40625 C-25.50504232 24.34906139 -26.0419067 21.31206982 -25.96484375 14.76171875 C-25.42089701 9.22265545 -22.76683664 5.69822693 -18.625 2.0625 C-12.8096449 -2.14435263 -6.70960636 -1.93327641 0 0 Z " fill="#FDF0D4" transform="translate(334.6875,204.0625)"/>
<path d="M0 0 C4.01018517 0.637984 5.47319451 3.31609923 7.75 6.4375 C9.73238355 9.38689149 11.59497893 12.39922035 13.4375 15.4375 C13.92283203 16.21867188 14.40816406 16.99984375 14.90820312 17.8046875 C18.77622312 24.14290509 21.04317985 29.24440672 20.875 36.8125 C20.85695313 37.87210938 20.83890625 38.93171875 20.8203125 40.0234375 C20.79710937 40.82007813 20.77390625 41.61671875 20.75 42.4375 C19.1470947 43.25248562 17.54262722 44.06439927 15.9375 44.875 C15.04417969 45.32746094 14.15085937 45.77992188 13.23046875 46.24609375 C10.75 47.4375 10.75 47.4375 7.75 48.4375 C7.73018066 47.66035645 7.71036133 46.88321289 7.68994141 46.08251953 C7.59492991 42.57549309 7.48515441 39.06908206 7.375 35.5625 C7.3440625 34.33917969 7.313125 33.11585938 7.28125 31.85546875 C7.24257813 30.68886719 7.20390625 29.52226562 7.1640625 28.3203125 C7.1326416 27.24152832 7.1012207 26.16274414 7.06884766 25.05126953 C7.00323678 22.27988346 7.00323678 22.27988346 4.75 20.4375 C0.68904042 19.96536327 0.68904042 19.96536327 -3.25 20.4375 C-6.05638355 23.44194069 -6.64366722 25.57965252 -6.76171875 29.640625 C-6.79716797 30.6203125 -6.83261719 31.6 -6.86914062 32.609375 C-6.90297852 34.13304687 -6.90297852 34.13304687 -6.9375 35.6875 C-6.97166016 36.71875 -7.00582031 37.75 -7.04101562 38.8125 C-7.12338093 41.35405812 -7.19256834 43.89527626 -7.25 46.4375 C-8.68931117 45.98488642 -10.12638999 45.52517021 -11.5625 45.0625 C-12.36300781 44.80726563 -13.16351563 44.55203125 -13.98828125 44.2890625 C-16.25 43.4375 -16.25 43.4375 -19.25 41.4375 C-21.92932637 27.52161886 -13.9392604 17.16671471 -6.59033203 6.24853516 C-2.67888246 0.52089381 -2.67888246 0.52089381 0 0 Z " fill="#3FBF7A" transform="translate(406.25,191.5625)"/>
<path d="M0 0 C14.22843131 10.89837292 22.98978718 27.83254761 26.625 45.16796875 C27 48 27 48 27 54 C21.39 54 15.78 54 10 54 C9.67 52.02 9.34 50.04 9 48 C6.17087255 34.87709896 -0.25134666 24.08354176 -9 14 C-9.66 13.01 -10.32 12.02 -11 11 C-10.37351562 10.45730469 -9.74703125 9.91460937 -9.1015625 9.35546875 C-8.28429687 8.64003906 -7.46703125 7.92460937 -6.625 7.1875 C-5.40683594 6.12595703 -5.40683594 6.12595703 -4.1640625 5.04296875 C-1.83816812 3.00018747 -1.83816812 3.00018747 0 0 Z " fill="#FBDB72" transform="translate(436,323)"/>
<path d="M0 0 C0.886875 0.12375 1.77375 0.2475 2.6875 0.375 C1.6975 0.705 0.7075 1.035 -0.3125 1.375 C-0.33584686 17.36039392 -0.35348798 33.34578232 -0.36431217 49.33118916 C-0.36947132 56.75326927 -0.37650679 64.17533879 -0.38793945 71.59741211 C-0.3978979 78.06550182 -0.4043562 84.53358387 -0.40658849 91.00168103 C-0.40789362 94.42736744 -0.41096702 97.85303193 -0.41823006 101.27871132 C-0.42626694 105.10028117 -0.42649038 108.92182945 -0.42602539 112.7434082 C-0.42962067 113.88276321 -0.43321594 115.02211823 -0.43692017 116.19599915 C-0.4355455 117.23506409 -0.43417084 118.27412903 -0.43275452 119.34468079 C-0.43367631 120.2489597 -0.4345981 121.15323862 -0.43554783 122.08491993 C-0.40509409 124.53867137 -0.40509409 124.53867137 0.6875 127.375 C-2.47423589 127.11152201 -4.03555271 126.61606592 -6.45103455 124.51353455 C-9.20876616 119.86384528 -8.87904244 115.66040359 -8.84594727 110.34594727 C-8.85456284 109.23319427 -8.86317841 108.12044128 -8.87205505 106.97396851 C-8.89475482 103.29621103 -8.88796812 99.61921307 -8.87890625 95.94140625 C-8.88414016 93.38459547 -8.89041577 90.82778663 -8.89768982 88.27098083 C-8.90810162 82.9119152 -8.90385065 77.55312518 -8.88891602 72.1940918 C-8.87199718 66.00735243 -8.88782764 59.82131877 -8.9201389 53.63465649 C-8.95008943 47.6732242 -8.95201232 41.7120108 -8.9426403 35.75050163 C-8.94181995 33.21835348 -8.9486993 30.68619071 -8.96341133 28.15408516 C-8.98082878 24.61334928 -8.96633522 21.0741224 -8.94360352 17.53344727 C-8.95529572 16.48753922 -8.96698792 15.44163116 -8.97903442 14.36402893 C-8.91936158 9.79612413 -8.8497262 6.39769879 -5.98008728 2.70103455 C-3.3125 0.375 -3.3125 0.375 0 0 Z " fill="#EBC558" transform="translate(287.3125,14.625)"/>
<path d="M0 0 C-0.99 0.66 -1.98 1.32 -3 2 C-3.96911814 4.90735441 -4.12564812 6.74544465 -4.12698364 9.76889038 C-4.12980347 10.7502446 -4.13262329 11.73159882 -4.13552856 12.74269104 C-4.13249222 14.35578407 -4.13249222 14.35578407 -4.12939453 16.00146484 C-4.13114685 17.13503922 -4.13289917 18.26861359 -4.13470459 19.4365387 C-4.13911621 23.19468707 -4.13618711 26.95278862 -4.1328125 30.7109375 C-4.13348583 33.31784067 -4.1344561 35.92474378 -4.13571167 38.53164673 C-4.13753157 44.00092071 -4.13513229 49.47018119 -4.13037109 54.93945312 C-4.12493425 61.25770539 -4.12668764 67.57592536 -4.1321975 73.89417684 C-4.13728779 79.97516709 -4.13674175 86.05614306 -4.13381577 92.13713455 C-4.13314818 94.72313059 -4.13396906 97.30912745 -4.13629532 99.89512253 C-4.13883285 103.51001928 -4.13496534 107.12485396 -4.12939453 110.73974609 C-4.13141876 111.81109299 -4.13344299 112.88243988 -4.13552856 113.98625183 C-4.13129883 115.46674263 -4.13129883 115.46674263 -4.12698364 116.97714233 C-4.12660662 117.83143515 -4.12622959 118.68572796 -4.12584114 119.56590843 C-3.99348422 122.12603192 -3.56229898 124.50189628 -3 127 C-6.0733468 126.75080972 -7.56374307 126.49286101 -9.64172363 124.14526367 C-11.67951187 119.42650285 -11.43400645 114.95216737 -11.41992188 109.86328125 C-11.43262619 108.17711197 -11.43262619 108.17711197 -11.44558716 106.45687866 C-11.46898202 102.74197064 -11.46997878 99.02747611 -11.46875 95.3125 C-11.4758493 92.73087396 -11.48354796 90.1492495 -11.49182129 87.56762695 C-11.50527133 82.1573382 -11.50701324 76.74721121 -11.50097656 71.33691406 C-11.49433213 65.0876952 -11.51721954 58.83906603 -11.55429029 52.58996677 C-11.5886977 46.57084653 -11.59532354 40.55203943 -11.59120178 34.5328064 C-11.59289699 31.97470339 -11.60257778 29.41659289 -11.62034607 26.85855103 C-11.6424443 23.28412865 -11.63287894 19.71113562 -11.61523438 16.13671875 C-11.62849762 15.07786469 -11.64176086 14.01901062 -11.65542603 12.92807007 C-11.60042435 8.14035486 -11.56459336 5.769247 -8.6685791 1.82348633 C-5.50517827 -0.33812026 -3.75564599 -0.43670302 0 0 Z " fill="#F5CC5B" transform="translate(259,15)"/>
<path d="M0 0 C1.25139771 -0.00945648 2.50279541 -0.01891296 3.79211426 -0.02865601 C5.15893876 -0.02328631 6.52576038 -0.01713336 7.89257812 -0.01025391 C9.29358064 -0.01227483 10.69458214 -0.01518643 12.09558105 -0.01895142 C15.03110779 -0.02337394 17.96636058 -0.01694637 20.90185547 -0.00292969 C24.66490229 0.01416258 28.42730724 0.00432096 32.19033051 -0.01364708 C35.08311806 -0.0244871 37.9757534 -0.02103767 40.86854553 -0.0132637 C42.25602799 -0.01126228 43.64352427 -0.01371898 45.0309906 -0.02070236 C46.96987647 -0.02831946 48.90881078 -0.01465134 50.84765625 0 C51.95113403 0.00238678 53.05461182 0.00477356 54.19152832 0.00723267 C56.92382812 0.38818359 56.92382812 0.38818359 58.78308105 1.72079468 C60.59723184 4.37247355 60.24431677 6.79631691 60.17382812 9.95068359 C60.15835938 11.10697266 60.14289063 12.26326172 60.12695312 13.45458984 C59.92382812 16.38818359 59.92382812 16.38818359 58.92382812 18.38818359 C54.8017102 17.76569065 51.5821722 16.36668956 47.86132812 14.51318359 C31.56546918 6.95568379 13.63612821 5.60983536 -3.45898438 11.51318359 C-6.07617188 12.38818359 -6.07617188 12.38818359 -9.07617188 12.38818359 C-9.15748651 10.95162506 -9.21550746 9.51373529 -9.26367188 8.07568359 C-9.29847656 7.27517578 -9.33328125 6.47466797 -9.36914062 5.64990234 C-9.07617188 3.38818359 -9.07617188 3.38818359 -7.93762207 1.77108765 C-5.27231009 -0.20901945 -3.29947166 0.00713663 0 0 Z " fill="#F9DA71" transform="translate(237.076171875,308.61181640625)"/>
<path d="M0 0 C6.93089984 -0.50203701 11.36762431 -0.25301838 17 4 C19.69305446 7.68506647 20.36778456 10.25694569 20.37109375 14.7890625 C20.39719727 16.45001953 20.39719727 16.45001953 20.42382812 18.14453125 C20.4328506 20.44139443 20.43813761 22.73827572 20.43945312 25.03515625 C20.56892222 32.75865765 21.87532787 38.92644876 25 46 C14.21976216 46.86089055 14.21976216 46.86089055 9.9375 43.25 C6.8015064 40.21368346 5.13271725 37.50582053 4.74462891 33.10253906 C4.73866699 32.00135742 4.73270508 30.90017578 4.7265625 29.765625 C4.7059375 28.55132812 4.6853125 27.33703125 4.6640625 26.0859375 C4.63818062 23.54433724 4.61985628 21.00264793 4.609375 18.4609375 C4.4709152 11.18410582 3.91015414 6.20016474 0 0 Z " fill="#ED2A54" transform="translate(307,301)"/>
<path d="M0 0 C13.1792991 0.42651453 13.1792991 0.42651453 18 5 C21.47762338 10.35470202 21.43913435 15.2014837 21.5 21.375 C21.49076123 32.3341599 21.49076123 32.3341599 26.60351562 41.72021484 C27.06435547 42.14254395 27.52519531 42.56487305 28 43 C16.37652255 43.85887764 16.37652255 43.85887764 12 41.0625 C7.08666775 36.57553129 4.86177845 30.55476267 4.49609375 23.9921875 C4.45822453 22.28676691 4.4387982 20.58084049 4.4375 18.875 C4.40352146 12.43849415 3.94941459 7.77875124 1 2 C0.67 1.34 0.34 0.68 0 0 Z " fill="#EA2A53" transform="translate(174,296)"/>
<path d="M0 0 C4.62672122 2.72582025 8.54268567 6.65432987 11.515625 11.125 C11.515625 11.785 11.515625 12.445 11.515625 13.125 C-2.344375 13.125 -16.204375 13.125 -30.484375 13.125 C-28.6563614 8.55496601 -28.09802463 7.36664922 -24.609375 4.4375 C-23.93132812 3.85613281 -23.25328125 3.27476562 -22.5546875 2.67578125 C-16.14206108 -2.12763892 -7.56521239 -2.66447732 0 0 Z " fill="#FBDC72" transform="translate(265.484375,363.875)"/>
<path d="M0 0 C2.33384171 2.12167428 4.38953545 4.27799913 6 7 C6 7.99 6 8.98 6 10 C-7.53 10 -21.06 10 -35 10 C-32.73807777 3.21423331 -32.73807777 3.21423331 -28.625 0.1875 C-27.85414063 -0.39644531 -27.08328125 -0.98039062 -26.2890625 -1.58203125 C-18.44098602 -6.44355303 -7.43379555 -4.9558637 0 0 Z " fill="#FBDB72" transform="translate(392,367)"/>
<path d="M0 0 C3.37324783 2.43893098 5.12476717 4.95375533 7.171875 8.5703125 C7.171875 9.2303125 7.171875 9.8903125 7.171875 10.5703125 C-6.358125 10.5703125 -19.888125 10.5703125 -33.828125 10.5703125 C-32.46864295 5.13238429 -29.74561071 1.92658288 -25.265625 -1.2421875 C-16.97178219 -5.28277759 -7.91935946 -4.41365575 0 0 Z " fill="#FCDC72" transform="translate(147.828125,366.4296875)"/>
<path d="M0 0 C0.66386719 0.27714844 1.32773438 0.55429687 2.01171875 0.83984375 C2.89472656 1.20207031 3.77773437 1.56429688 4.6875 1.9375 C5.55761719 2.29714844 6.42773438 2.65679687 7.32421875 3.02734375 C9.88179265 3.9570312 12.3221323 4.54162625 15 5 C14.13873348 9.86071106 12.77471846 14.56668547 11.4375 19.3125 C11.20353516 20.14845703 10.96957031 20.98441406 10.72851562 21.84570312 C10.15398566 23.89759586 9.57721561 25.94886114 9 28 C3.72 28 -1.56 28 -7 28 C-7.32240996 21.14021365 -6.38860904 15.930068 -4.0625 9.5 C-3.64581055 8.28570312 -3.64581055 8.28570312 -3.22070312 7.046875 C-1.17712355 1.17712355 -1.17712355 1.17712355 0 0 Z " fill="#FADA71" transform="translate(178,349)"/>
<path d="M0 0 C4.04420651 1.77945087 7.46078487 4.39529673 11 7 C10.01 7.33 9.02 7.66 8 8 C7.50420143 16.13935984 8.19425962 21.80118989 12 29 C12.33 29.99 12.66 30.98 13 32 C7.0057886 32.62439702 2.71506718 32.15132518 -2.26953125 28.609375 C-6.45175267 24.71981467 -8.18317542 20.14123728 -8.5625 14.5 C-8.33720606 9.50020766 -6.20545452 5.76528038 -3 2 C-2.01 1.34 -1.02 0.68 0 0 Z " fill="#EB2A53" transform="translate(107,257)"/>
<path d="M0 0 C0.99 1.0209375 0.99 1.0209375 2 2.0625 C5.49643664 5.56901282 9.25516768 8.76294155 13 12 C11.68 17.94 10.36 23.88 9 30 C3.72 30 -1.56 30 -7 30 C-7.7372797 19.23571635 -5.10249122 9.51352334 0 0 Z " fill="#F9DA71" transform="translate(300,347)"/>
<path d="M0 0 C0.70189453 0.01353516 1.40378906 0.02707031 2.12695312 0.04101562 C3.85579829 0.07629818 5.58424765 0.13010417 7.3125 0.1875 C7.6425 4.1475 7.9725 8.1075 8.3125 12.1875 C7.35988281 12.32027344 6.40726562 12.45304687 5.42578125 12.58984375 C4.17152344 12.76644531 2.91726563 12.94304687 1.625 13.125 C0.38363281 13.29902344 -0.85773438 13.47304688 -2.13671875 13.65234375 C-5.01224548 14.08572897 -7.84394813 14.58399282 -10.6875 15.1875 C-10.76857583 13.25068839 -10.82672475 11.3129066 -10.875 9.375 C-10.90980469 8.29605469 -10.94460938 7.21710938 -10.98046875 6.10546875 C-10.6875 3.1875 -10.6875 3.1875 -9.65625 1.3125 C-6.5757416 -0.44779051 -3.44014156 -0.12527126 0 0 Z " fill="#F5D66F" transform="translate(367.6875,303.8125)"/>
<path d="M0 0 C3.8425303 0.72047443 5.45767292 1.57152696 8 4.5625 C8.7975483 9.58705429 8.82360163 11.39976829 5.875 15.5625 C3 17.5625 3 17.5625 0 18.1875 C-4.10703441 17.33186783 -5.55401113 15.94371991 -8 12.5625 C-8.625 9.0625 -8.625 9.0625 -8 5.5625 C-5.54999553 2.17572911 -4.13607554 0.77551416 0 0 Z " fill="#090203" transform="translate(303,265.4375)"/>
<path d="M0 0 C2.4375 1.6875 2.4375 1.6875 4 4 C4.63924557 7.7555677 4.29008409 9.47784863 2.4375 12.8125 C-0.76996843 15.69099731 -2.7149334 16.07517661 -7 16 C-9.875 14.5 -9.875 14.5 -12 12 C-13.0625 8.5625 -13.0625 8.5625 -13 5 C-9.25333712 -0.9429825 -6.7508412 -1.51311958 0 0 Z " fill="#080202" transform="translate(196,267)"/>
<path d="M0 0 C3.74225404 1.1566967 5.28964665 1.79776291 7.4375 5.0625 C8.15875695 9.47018137 7.95751338 11.32187488 5.375 15 C1.69687488 17.58251338 -0.15481863 17.78375695 -4.5625 17.0625 C-7 15.5625 -7 15.5625 -8.5625 13.0625 C-9.27623503 8.06635481 -9.32870649 6.20020054 -6.5 2 C-3.5625 0.0625 -3.5625 0.0625 0 0 Z " fill="#080202" transform="translate(271.5625,223.9375)"/>
<path d="M0 0 C4.08724692 0.72986552 5.81444012 1.4511565 8.5 4.625 C9.1694949 8.71635771 8.88501272 10.87101675 7 14.5625 C3.95603117 17.07377428 2.25714768 17.30856977 -1.59765625 17.04296875 C-4.63144984 16.3764063 -5.81243044 15.19010573 -7.5 12.625 C-8.5625 9.75 -8.5625 9.75 -8.5 6.625 C-6.06181017 2.51055465 -4.77254397 0.85223999 0 0 Z " fill="#060102" transform="translate(364.5,257.375)"/>
<path d="M0 0 C-0.268125 0.515625 -0.53625 1.03125 -0.8125 1.5625 C-1.204375 2.366875 -1.59625 3.17125 -2 4 C-2.53625 4.99 -3.0725 5.98 -3.625 7 C-6.1277412 13.02463989 -6.17673305 19.84095678 -3.91015625 25.92578125 C-2.69766145 28.35428532 -1.40883517 30.68119588 0 33 C0.33 33.66 0.66 34.32 1 35 C-5.31380335 33.76803837 -8.28718988 29.90950098 -12 25 C-14.17467322 20.65065355 -13.79524861 14.44936571 -12.31640625 9.89453125 C-9.78214249 5.13095662 -5.66973083 0 0 0 Z " fill="#F1D4A5" transform="translate(322,204)"/>
<path d="M0 0 C0.66 0.33 1.32 0.66 2 1 C1.65066406 1.53109375 1.30132812 2.0621875 0.94140625 2.609375 C0.48636719 3.31578125 0.03132812 4.0221875 -0.4375 4.75 C-0.88996094 5.44609375 -1.34242187 6.1421875 -1.80859375 6.859375 C-4.57677839 11.83303134 -4.74432044 17.44135162 -4 23 C-2.88368193 25.80250481 -1.58589398 28.34920834 -0.09375 30.96875 C1 33 1 33 1 35 C-4.5863683 33.93592985 -6.65792827 31.38584875 -9.80078125 26.97265625 C-12.4881139 22.55212534 -12.72313668 18.02133113 -12 13 C-9.54920839 7.20352193 -5.66873475 2.83436738 0 0 Z " fill="#F0D3A4" transform="translate(128,218)"/>
<path d="M0 0 C-0.268125 0.515625 -0.53625 1.03125 -0.8125 1.5625 C-1.204375 2.366875 -1.59625 3.17125 -2 4 C-2.53625 4.94875 -3.0725 5.8975 -3.625 6.875 C-6.24337192 13.09195486 -6.28282745 21.28479842 -4.09765625 27.61328125 C-3.15119274 29.45568531 -2.08555822 31.2359679 -1 33 C-1 33.66 -1 34.32 -1 35 C-6.19355461 33.62523555 -9.00427491 30.25658407 -12 26 C-13.70100413 20.8969876 -13.95041517 15.0802612 -12.3515625 9.8984375 C-10.12534566 5.57919628 -5.22459994 0 0 0 Z " fill="#F1D4A5" transform="translate(403,288)"/>
<path d="M0 0 C0.33 0 0.66 0 1 0 C1 4.62 1 9.24 1 14 C2.258125 13.505 3.51625 13.01 4.8125 12.5 C7.50941597 11.43891831 9.04725901 11 12 11 C12 9.35 12 7.7 12 6 C12.33 6 12.66 6 13 6 C13 9.96 13 13.92 13 18 C3.375 22.875 3.375 22.875 0 24 C0 16.08 0 8.16 0 0 Z " fill="#37A569" transform="translate(414,216)"/>
<path d="M0 0 C0 6.6 0 13.2 0 20 C-0.33 20 -0.66 20 -1 20 C-1 16.04 -1 12.08 -1 8 C-1.91523438 8.37253906 -2.83046875 8.74507812 -3.7734375 9.12890625 C-4.96195313 9.60199219 -6.15046875 10.07507813 -7.375 10.5625 C-9.15003906 11.27599609 -9.15003906 11.27599609 -10.9609375 12.00390625 C-14 13 -14 13 -16 12 C-15.54625 11.46375 -15.0925 10.9275 -14.625 10.375 C-12.80191239 8.02829065 -12.80191239 8.02829065 -12.3125 4.875 C-11 2 -11 2 -9.203125 1.171875 C-6.05614798 0.36790277 -3.25481079 0 0 0 Z " fill="#E22B50" transform="translate(202,211)"/>
<path d="M0 0 C3.63 0 7.26 0 11 0 C11 0.66 11 1.32 11 2 C7.37 2.33 3.74 2.66 0 3 C0 2.01 0 1.02 0 0 Z " fill="#F23155" transform="translate(248,204)"/>
</svg>
