<?xml version="1.0" encoding="UTF-8"?>
<svg version="1.1" xmlns="http://www.w3.org/2000/svg" width="512" height="512">
<path d="M0 0 C8.98688608 6.43525235 14.97781798 15.34441848 17.25 26.25 C17.34767678 27.95879292 17.39531783 29.67078681 17.40771484 31.38232422 C17.42310806 32.91444046 17.42310806 32.91444046 17.43881226 34.47750854 C17.44611359 35.5754776 17.45341492 36.67344666 17.4609375 37.8046875 C17.48900247 40.13412165 17.51766691 42.46354865 17.546875 44.79296875 C17.5881506 48.46207506 17.62504338 52.13104716 17.65136719 55.80029297 C17.67898684 59.34370431 17.72485436 62.88650985 17.7734375 66.4296875 C17.7783168 68.07056839 17.7783168 68.07056839 17.78329468 69.74459839 C17.87428778 75.38943433 18.21043677 79.31664049 21.25 84.25 C21.25 84.91 21.25 85.57 21.25 86.25 C26.25087218 89.16717544 31.21156135 90.56094827 36.9375 89.6875 C41.40242149 87.74989256 44.19114496 85.39371705 46.36328125 80.99609375 C47.40046304 77.78402857 47.52607195 74.99616339 47.625 71.625 C48.31378439 60.46435803 51.78507517 51.25513492 60.0625 43.56640625 C69.79370002 35.69904494 79.61833018 34.65866743 91.7421875 34.7890625 C93.22046752 34.79145213 94.69875061 34.79235115 96.17703247 34.7918396 C99.25493747 34.79494749 102.33237 34.81136535 105.41015625 34.83837891 C109.35104827 34.87253637 113.2914277 34.88000123 117.23245049 34.87848854 C120.27624381 34.87903238 123.31992559 34.88999881 126.36368179 34.90449142 C127.81731449 34.9108414 129.27095975 34.9147941 130.72460556 34.91627884 C132.75118327 34.92062066 134.77771315 34.93971628 136.80419922 34.95947266 C137.95540253 34.96709625 139.10660583 34.97471985 140.29269409 34.98257446 C143.20427716 35.24586534 144.84283497 35.6318089 147.25 37.25 C149.54147823 40.64770909 150.25 42.69666853 150.25 46.8125 C149.06383817 50.88993129 147.48715865 52.56552698 144.25 55.25 C141.55619121 56.59690439 139.45883017 56.38209101 136.44262695 56.3918457 C135.22408524 56.39888016 134.00554352 56.40591461 132.75007629 56.41316223 C131.77011153 56.41588607 131.77011153 56.41588607 130.7703495 56.41866493 C128.72246216 56.42583665 126.67481357 56.44151035 124.6269989 56.46000671 C118.80385717 56.51242758 112.98084305 56.56040004 107.1574707 56.57592773 C103.59521884 56.58604889 100.03356352 56.61548097 96.47154808 56.65724754 C94.46266212 56.67544713 92.45362265 56.67291644 90.44465637 56.66999817 C83.55238361 56.76208259 78.77133032 56.93874314 73.25 61.25 C69.98548243 65.93977473 69.70659449 70.53711094 69.3125 76.0625 C68.68973027 82.76334052 67.90315269 88.4507708 64.25 94.25 C63.61771484 95.28833984 63.61771484 95.28833984 62.97265625 96.34765625 C58.43256765 103.07604241 51.5377323 108.18413395 43.8046875 110.77734375 C32.37140517 112.8926758 21.7422757 111.97552029 11.859375 105.7421875 C2.65773999 99.19135463 -1.57980283 91.17956902 -3.75 80.25 C-4.12185096 76.25952462 -4.1449576 72.30641574 -4.12109375 68.30078125 C-4.13846266 66.0488265 -4.15604716 63.79687341 -4.17382812 61.54492188 C-4.18391627 58.0428576 -4.18748952 54.54089661 -4.18579102 51.03881836 C-4.18936832 47.62583398 -4.21671909 44.21362668 -4.24609375 40.80078125 C-4.23791122 39.76101639 -4.2297287 38.72125153 -4.22129822 37.64997864 C-4.29439054 30.47625833 -5.31003125 24.73435545 -10.56640625 19.41015625 C-11.14261719 19.04792969 -11.71882813 18.68570313 -12.3125 18.3125 C-12.89128906 17.93222656 -13.47007812 17.55195312 -14.06640625 17.16015625 C-19.45628559 14.24636997 -26.25695449 14.27546966 -32.07421875 15.8984375 C-37.07032614 18.12527394 -40.26406984 21.38483196 -42.75 26.25 C-43.55098847 28.9745509 -43.88140389 31.42698252 -43.90821838 34.26165771 C-43.9180072 35.0496727 -43.92779602 35.83768768 -43.93788147 36.64958191 C-43.94363693 37.50481949 -43.9493924 38.36005707 -43.95532227 39.24121094 C-43.96522186 40.14887711 -43.97512146 41.05654327 -43.98532104 41.99171448 C-44.01688629 44.98924153 -44.04167386 47.98678443 -44.06640625 50.984375 C-44.08698007 53.06374522 -44.10797666 55.14311129 -44.12937927 57.22247314 C-44.18455572 62.69358972 -44.23398456 68.16474376 -44.28222656 73.63592529 C-44.33247388 79.21955701 -44.38814309 84.80313435 -44.44335938 90.38671875 C-44.55088682 101.34109938 -44.65234385 112.29552723 -44.75 123.25 C-44.12958832 123.37719925 -43.50917664 123.5043985 -42.8699646 123.63545227 C-42.05742218 123.80771835 -41.24487976 123.97998444 -40.40771484 124.1574707 C-39.60167816 124.32591995 -38.79564148 124.4943692 -37.96517944 124.66792297 C-35.18846251 125.39755377 -33.4797513 126.49704363 -31.375 128.4375 C-30.74851562 128.98792969 -30.12203125 129.53835937 -29.4765625 130.10546875 C-23.94850623 136.97176489 -24.37459317 143.71242015 -24.5625 152.1875 C-24.57603516 153.34830078 -24.58957031 154.50910156 -24.60351562 155.70507812 C-24.6386859 158.55387052 -24.68790713 161.40168844 -24.75 164.25 C-23.7084375 163.693125 -22.666875 163.13625 -21.59375 162.5625 C-17.77301823 160.52489629 -13.9440092 158.50340562 -10.11035156 156.49023438 C-8.61097517 155.7023949 -7.11278494 154.9122906 -5.61621094 154.11914062 C13.49266161 144.0270088 32.46373404 138.61335772 54.1875 138.875 C54.88854858 138.87998505 55.58959717 138.88497009 56.31188965 138.8901062 C66.55619233 138.97540249 76.34719825 139.31467585 86.25 142.25 C87.01634766 142.47574707 87.78269531 142.70149414 88.57226562 142.93408203 C105.71304496 148.11439161 120.3560905 155.97288063 134.25 167.25 C134.99894531 167.85714844 135.74789063 168.46429688 136.51953125 169.08984375 C147.8744322 178.66443519 156.91993612 191.07565839 163.5625 204.3125 C163.86341553 204.91191406 164.16433105 205.51132812 164.47436523 206.12890625 C170.00984548 217.61035278 173.7484682 229.71142944 177.375 241.890625 C177.84869778 243.46812441 178.32282816 245.04549397 178.79736328 246.6227417 C180.03611388 250.74442221 181.26881734 254.86788667 182.50024414 258.99176025 C183.74106413 263.14281019 184.98810169 267.29199106 186.234375 271.44140625 C188.70035605 279.65762599 191.1640865 287.87449706 193.60925293 296.09693909 C194.05256768 297.58658096 194.49671421 299.07597545 194.94152832 300.56517029 C195.63251723 302.87970456 196.32048788 305.19511747 197.0078125 307.51074219 C197.21816132 308.21346882 197.42851013 308.91619545 197.64523315 309.64021683 C204.12084349 331.53102772 201.08421293 354.77388083 190.33984375 374.671875 C187.75022772 379.23995289 184.68257279 383.28619571 181.25 387.25 C180.651875 388.0440625 180.05375 388.838125 179.4375 389.65625 C167.91843053 403.31457523 148.88010057 413.16179561 131.25 415.25 C127.26902576 415.56449065 123.30505366 415.69706842 119.3125 415.75 C118.37277344 415.76869141 117.43304688 415.78738281 116.46484375 415.80664062 C110.61829589 415.75486602 105.12480612 414.91746758 99.44995117 413.55615234 C98.34105215 413.29191373 98.34105215 413.29191373 97.20975113 413.02233696 C88.92177446 410.99646173 80.82113106 408.43277407 72.703125 405.8203125 C71.0739966 405.30167264 69.44465796 404.78369275 67.81512451 404.2663269 C63.56703554 402.91612689 59.32121451 401.55894753 55.0760498 400.19958496 C18.72726711 387.74211429 18.72726711 387.74211429 -18.5625 378.9375 C-19.45001953 378.78216797 -20.33753906 378.62683594 -21.25195312 378.46679688 C-29.16599024 377.1039213 -36.93408105 376.0973098 -44.96484375 376.01171875 C-45.72947937 376.00197021 -46.49411499 375.99222168 -47.28192139 375.98217773 C-84.10674469 375.60976782 -116.29333868 384.3174419 -151.1050415 395.38366699 C-187.76084385 407.03410204 -187.76084385 407.03410204 -202.58203125 411.3828125 C-203.54074631 411.66559052 -204.49946136 411.94836853 -205.48722839 412.23971558 C-228.17665516 418.80848946 -251.9835121 416.03823931 -272.6640625 404.64453125 C-289.88803741 393.98748081 -302.12794086 378.3636707 -308.75 359.25 C-309.0696875 358.35023438 -309.389375 357.45046875 -309.71875 356.5234375 C-311.91338705 348.98445282 -312.12026237 341.4353187 -312.25 333.625 C-312.2806958 332.59552246 -312.3113916 331.56604492 -312.34301758 330.50537109 C-312.34538531 320.2594194 -309.64498448 310.97461022 -306.75 301.25 C-306.37480225 299.98847107 -305.99960449 298.72694214 -305.61303711 297.42718506 C-302.62560263 287.417113 -299.56757311 277.42890739 -296.49975586 267.4432373 C-295.49933721 264.18316253 -294.50309112 260.92181936 -293.50692749 257.66044235 C-292.53205465 254.46996722 -291.55519141 251.28010426 -290.57769775 248.09043121 C-290.11805773 246.59019839 -289.65885215 245.08983237 -289.20013428 243.58931732 C-280.23198413 214.27501466 -280.23198413 214.27501466 -275.9375 206.0625 C-275.598396 205.40233887 -275.25929199 204.74217773 -274.90991211 204.06201172 C-269.464367 193.67339394 -262.86477709 184.71075596 -254.75 176.25 C-253.945625 175.404375 -253.14125 174.55875 -252.3125 173.6875 C-251.0440625 172.4809375 -251.0440625 172.4809375 -249.75 171.25 C-248.72712891 170.25226563 -248.72712891 170.25226563 -247.68359375 169.234375 C-233.78485883 156.11646788 -216.04707798 147.40490432 -197.75 142.25 C-196.07744141 141.76853516 -196.07744141 141.76853516 -194.37109375 141.27734375 C-174.55861066 136.60151075 -150.16109524 137.14804327 -130.75 143.25 C-130.06099609 143.46430664 -129.37199219 143.67861328 -128.66210938 143.89941406 C-119.09118308 146.98058855 -110.33105548 151.32348589 -101.58007812 156.22998047 C-98.51097954 157.94058531 -95.40981453 159.59122835 -92.3125 161.25 C-90.45816576 162.24968922 -88.60393179 163.24956463 -86.75 164.25 C-86.73598145 163.13141602 -86.73598145 163.13141602 -86.72167969 161.99023438 C-86.6676397 158.5761785 -86.58405696 155.16344345 -86.5 151.75 C-86.48582031 150.57695312 -86.47164062 149.40390625 -86.45703125 148.1953125 C-86.23255955 140.20411982 -85.53666919 133.93867775 -79.63671875 128.19140625 C-78.91097656 127.73636719 -78.18523437 127.28132812 -77.4375 126.8125 C-76.71949219 126.33941406 -76.00148437 125.86632812 -75.26171875 125.37890625 C-72.12855109 123.97068626 -69.14258597 123.68581091 -65.75 123.25 C-65.75999275 121.4792662 -65.75999275 121.4792662 -65.77018738 119.67276001 C-65.83113217 108.52106656 -65.87603675 97.36940712 -65.90543652 86.21758461 C-65.92105958 80.48499203 -65.94223645 74.75253444 -65.97631836 69.02001953 C-66.00903161 63.48274797 -66.02687826 57.94560586 -66.03463173 52.40824509 C-66.04015379 50.30084573 -66.05093683 48.19345307 -66.06719017 46.08610916 C-66.08912346 43.12317108 -66.09196029 40.16076074 -66.09057617 37.19775391 C-66.101362 36.33603577 -66.11214783 35.47431763 -66.1232605 34.58648682 C-66.06720654 23.42045597 -62.22826778 13.34764308 -54.74609375 5.01953125 C-39.49203959 -9.52503202 -17.62499309 -10.8234018 0 0 Z " fill="#CDCCF3" transform="translate(311.75,51.75)"/>
<path d="M0 0 C8.98688608 6.43525235 14.97781798 15.34441848 17.25 26.25 C17.34767678 27.95879292 17.39531783 29.67078681 17.40771484 31.38232422 C17.42310806 32.91444046 17.42310806 32.91444046 17.43881226 34.47750854 C17.44611359 35.5754776 17.45341492 36.67344666 17.4609375 37.8046875 C17.48900247 40.13412165 17.51766691 42.46354865 17.546875 44.79296875 C17.5881506 48.46207506 17.62504338 52.13104716 17.65136719 55.80029297 C17.67898684 59.34370431 17.72485436 62.88650985 17.7734375 66.4296875 C17.7783168 68.07056839 17.7783168 68.07056839 17.78329468 69.74459839 C17.87428778 75.38943433 18.21043677 79.31664049 21.25 84.25 C21.25 84.91 21.25 85.57 21.25 86.25 C26.25087218 89.16717544 31.21156135 90.56094827 36.9375 89.6875 C41.40242149 87.74989256 44.19114496 85.39371705 46.36328125 80.99609375 C47.40046304 77.78402857 47.52607195 74.99616339 47.625 71.625 C48.31378439 60.46435803 51.78507517 51.25513492 60.0625 43.56640625 C69.79370002 35.69904494 79.61833018 34.65866743 91.7421875 34.7890625 C93.22046752 34.79145213 94.69875061 34.79235115 96.17703247 34.7918396 C99.25493747 34.79494749 102.33237 34.81136535 105.41015625 34.83837891 C109.35104827 34.87253637 113.2914277 34.88000123 117.23245049 34.87848854 C120.27624381 34.87903238 123.31992559 34.88999881 126.36368179 34.90449142 C127.81731449 34.9108414 129.27095975 34.9147941 130.72460556 34.91627884 C132.75118327 34.92062066 134.77771315 34.93971628 136.80419922 34.95947266 C137.95540253 34.96709625 139.10660583 34.97471985 140.29269409 34.98257446 C143.20427716 35.24586534 144.84283497 35.6318089 147.25 37.25 C149.54147823 40.64770909 150.25 42.69666853 150.25 46.8125 C149.06383817 50.88993129 147.48715865 52.56552698 144.25 55.25 C141.55619121 56.59690439 139.45883017 56.38209101 136.44262695 56.3918457 C135.22408524 56.39888016 134.00554352 56.40591461 132.75007629 56.41316223 C131.77011153 56.41588607 131.77011153 56.41588607 130.7703495 56.41866493 C128.72246216 56.42583665 126.67481357 56.44151035 124.6269989 56.46000671 C118.80385717 56.51242758 112.98084305 56.56040004 107.1574707 56.57592773 C103.59521884 56.58604889 100.03356352 56.61548097 96.47154808 56.65724754 C94.46266212 56.67544713 92.45362265 56.67291644 90.44465637 56.66999817 C83.55238361 56.76208259 78.77133032 56.93874314 73.25 61.25 C69.98548243 65.93977473 69.70659449 70.53711094 69.3125 76.0625 C68.68973027 82.76334052 67.90315269 88.4507708 64.25 94.25 C63.61771484 95.28833984 63.61771484 95.28833984 62.97265625 96.34765625 C58.43256765 103.07604241 51.5377323 108.18413395 43.8046875 110.77734375 C32.37140517 112.8926758 21.7422757 111.97552029 11.859375 105.7421875 C2.65773999 99.19135463 -1.57980283 91.17956902 -3.75 80.25 C-4.12185096 76.25952462 -4.1449576 72.30641574 -4.12109375 68.30078125 C-4.13846266 66.0488265 -4.15604716 63.79687341 -4.17382812 61.54492188 C-4.18391627 58.0428576 -4.18748952 54.54089661 -4.18579102 51.03881836 C-4.18936832 47.62583398 -4.21671909 44.21362668 -4.24609375 40.80078125 C-4.23791122 39.76101639 -4.2297287 38.72125153 -4.22129822 37.64997864 C-4.29439054 30.47625833 -5.31003125 24.73435545 -10.56640625 19.41015625 C-11.14261719 19.04792969 -11.71882813 18.68570313 -12.3125 18.3125 C-12.89128906 17.93222656 -13.47007812 17.55195312 -14.06640625 17.16015625 C-19.45628559 14.24636997 -26.25695449 14.27546966 -32.07421875 15.8984375 C-37.07032614 18.12527394 -40.26406984 21.38483196 -42.75 26.25 C-43.55098847 28.9745509 -43.88140389 31.42698252 -43.90821838 34.26165771 C-43.9180072 35.0496727 -43.92779602 35.83768768 -43.93788147 36.64958191 C-43.94363693 37.50481949 -43.9493924 38.36005707 -43.95532227 39.24121094 C-43.96522186 40.14887711 -43.97512146 41.05654327 -43.98532104 41.99171448 C-44.01688629 44.98924153 -44.04167386 47.98678443 -44.06640625 50.984375 C-44.08698007 53.06374522 -44.10797666 55.14311129 -44.12937927 57.22247314 C-44.18455572 62.69358972 -44.23398456 68.16474376 -44.28222656 73.63592529 C-44.33247388 79.21955701 -44.38814309 84.80313435 -44.44335938 90.38671875 C-44.55088682 101.34109938 -44.65234385 112.29552723 -44.75 123.25 C-44.12958832 123.37719925 -43.50917664 123.5043985 -42.8699646 123.63545227 C-42.05742218 123.80771835 -41.24487976 123.97998444 -40.40771484 124.1574707 C-39.60167816 124.32591995 -38.79564148 124.4943692 -37.96517944 124.66792297 C-35.18846251 125.39755377 -33.4797513 126.49704363 -31.375 128.4375 C-30.74851562 128.98792969 -30.12203125 129.53835937 -29.4765625 130.10546875 C-23.94850623 136.97176489 -24.37459317 143.71242015 -24.5625 152.1875 C-24.57603516 153.34830078 -24.58957031 154.50910156 -24.60351562 155.70507812 C-24.6386859 158.55387052 -24.68790713 161.40168844 -24.75 164.25 C-23.7084375 163.693125 -22.666875 163.13625 -21.59375 162.5625 C-17.77301823 160.52489629 -13.9440092 158.50340562 -10.11035156 156.49023438 C-8.61097517 155.7023949 -7.11278494 154.9122906 -5.61621094 154.11914062 C13.49266161 144.0270088 32.46373404 138.61335772 54.1875 138.875 C54.88854858 138.87998505 55.58959717 138.88497009 56.31188965 138.8901062 C66.55619233 138.97540249 76.34719825 139.31467585 86.25 142.25 C87.01634766 142.47574707 87.78269531 142.70149414 88.57226562 142.93408203 C105.71304496 148.11439161 120.3560905 155.97288063 134.25 167.25 C134.99894531 167.85714844 135.74789063 168.46429688 136.51953125 169.08984375 C147.8744322 178.66443519 156.91993612 191.07565839 163.5625 204.3125 C163.86341553 204.91191406 164.16433105 205.51132812 164.47436523 206.12890625 C170.00984548 217.61035278 173.7484682 229.71142944 177.375 241.890625 C177.84869778 243.46812441 178.32282816 245.04549397 178.79736328 246.6227417 C180.03611388 250.74442221 181.26881734 254.86788667 182.50024414 258.99176025 C183.74106413 263.14281019 184.98810169 267.29199106 186.234375 271.44140625 C188.70035605 279.65762599 191.1640865 287.87449706 193.60925293 296.09693909 C194.05256768 297.58658096 194.49671421 299.07597545 194.94152832 300.56517029 C195.63251723 302.87970456 196.32048788 305.19511747 197.0078125 307.51074219 C197.21816132 308.21346882 197.42851013 308.91619545 197.64523315 309.64021683 C204.12084349 331.53102772 201.08421293 354.77388083 190.33984375 374.671875 C187.75022772 379.23995289 184.68257279 383.28619571 181.25 387.25 C180.651875 388.0440625 180.05375 388.838125 179.4375 389.65625 C167.91843053 403.31457523 148.88010057 413.16179561 131.25 415.25 C127.26902576 415.56449065 123.30505366 415.69706842 119.3125 415.75 C118.37277344 415.76869141 117.43304688 415.78738281 116.46484375 415.80664062 C110.61829589 415.75486602 105.12480612 414.91746758 99.44995117 413.55615234 C98.34105215 413.29191373 98.34105215 413.29191373 97.20975113 413.02233696 C88.92177446 410.99646173 80.82113106 408.43277407 72.703125 405.8203125 C71.0739966 405.30167264 69.44465796 404.78369275 67.81512451 404.2663269 C63.56703554 402.91612689 59.32121451 401.55894753 55.0760498 400.19958496 C18.72726711 387.74211429 18.72726711 387.74211429 -18.5625 378.9375 C-19.45001953 378.78216797 -20.33753906 378.62683594 -21.25195312 378.46679688 C-29.16599024 377.1039213 -36.93408105 376.0973098 -44.96484375 376.01171875 C-45.72947937 376.00197021 -46.49411499 375.99222168 -47.28192139 375.98217773 C-84.10674469 375.60976782 -116.29333868 384.3174419 -151.1050415 395.38366699 C-187.76084385 407.03410204 -187.76084385 407.03410204 -202.58203125 411.3828125 C-203.54074631 411.66559052 -204.49946136 411.94836853 -205.48722839 412.23971558 C-228.17665516 418.80848946 -251.9835121 416.03823931 -272.6640625 404.64453125 C-289.88803741 393.98748081 -302.12794086 378.3636707 -308.75 359.25 C-309.0696875 358.35023438 -309.389375 357.45046875 -309.71875 356.5234375 C-311.91338705 348.98445282 -312.12026237 341.4353187 -312.25 333.625 C-312.2806958 332.59552246 -312.3113916 331.56604492 -312.34301758 330.50537109 C-312.34538531 320.2594194 -309.64498448 310.97461022 -306.75 301.25 C-306.37480225 299.98847107 -305.99960449 298.72694214 -305.61303711 297.42718506 C-302.62560263 287.417113 -299.56757311 277.42890739 -296.49975586 267.4432373 C-295.49933721 264.18316253 -294.50309112 260.92181936 -293.50692749 257.66044235 C-292.53205465 254.46996722 -291.55519141 251.28010426 -290.57769775 248.09043121 C-290.11805773 246.59019839 -289.65885215 245.08983237 -289.20013428 243.58931732 C-280.23198413 214.27501466 -280.23198413 214.27501466 -275.9375 206.0625 C-275.598396 205.40233887 -275.25929199 204.74217773 -274.90991211 204.06201172 C-269.464367 193.67339394 -262.86477709 184.71075596 -254.75 176.25 C-253.945625 175.404375 -253.14125 174.55875 -252.3125 173.6875 C-251.0440625 172.4809375 -251.0440625 172.4809375 -249.75 171.25 C-248.72712891 170.25226563 -248.72712891 170.25226563 -247.68359375 169.234375 C-233.78485883 156.11646788 -216.04707798 147.40490432 -197.75 142.25 C-196.07744141 141.76853516 -196.07744141 141.76853516 -194.37109375 141.27734375 C-174.55861066 136.60151075 -150.16109524 137.14804327 -130.75 143.25 C-130.06099609 143.46430664 -129.37199219 143.67861328 -128.66210938 143.89941406 C-119.09118308 146.98058855 -110.33105548 151.32348589 -101.58007812 156.22998047 C-98.51097954 157.94058531 -95.40981453 159.59122835 -92.3125 161.25 C-90.45816576 162.24968922 -88.60393179 163.24956463 -86.75 164.25 C-86.73598145 163.13141602 -86.73598145 163.13141602 -86.72167969 161.99023438 C-86.6676397 158.5761785 -86.58405696 155.16344345 -86.5 151.75 C-86.48582031 150.57695312 -86.47164062 149.40390625 -86.45703125 148.1953125 C-86.23255955 140.20411982 -85.53666919 133.93867775 -79.63671875 128.19140625 C-78.91097656 127.73636719 -78.18523437 127.28132812 -77.4375 126.8125 C-76.71949219 126.33941406 -76.00148437 125.86632812 -75.26171875 125.37890625 C-72.12855109 123.97068626 -69.14258597 123.68581091 -65.75 123.25 C-65.75999275 121.4792662 -65.75999275 121.4792662 -65.77018738 119.67276001 C-65.83113217 108.52106656 -65.87603675 97.36940712 -65.90543652 86.21758461 C-65.92105958 80.48499203 -65.94223645 74.75253444 -65.97631836 69.02001953 C-66.00903161 63.48274797 -66.02687826 57.94560586 -66.03463173 52.40824509 C-66.04015379 50.30084573 -66.05093683 48.19345307 -66.06719017 46.08610916 C-66.08912346 43.12317108 -66.09196029 40.16076074 -66.09057617 37.19775391 C-66.101362 36.33603577 -66.11214783 35.47431763 -66.1232605 34.58648682 C-66.06720654 23.42045597 -62.22826778 13.34764308 -54.74609375 5.01953125 C-39.49203959 -9.52503202 -17.62499309 -10.8234018 0 0 Z M-245.75 196.25 C-257.53841717 211.14378396 -263.43691326 228.24939904 -268.75 246.25 C-268.95834473 246.95205566 -269.16668945 247.65411133 -269.38134766 248.37744141 C-270.18980257 251.10589545 -270.99387191 253.83556065 -271.79003906 256.56762695 C-274.38663481 265.47681276 -277.11433904 274.34626056 -279.82519531 283.22119141 C-281.38634594 288.33408334 -282.94314172 293.44829977 -284.5 298.5625 C-284.78149902 299.48627441 -285.06299805 300.41004883 -285.35302734 301.36181641 C-285.89007566 303.12539725 -286.42631793 304.88922379 -286.96166992 306.65332031 C-287.50401854 308.43976191 -288.04857807 310.22553332 -288.5949707 312.01074219 C-288.86398193 312.89536133 -289.13299316 313.77998047 -289.41015625 314.69140625 C-289.6512915 315.4810376 -289.89242676 316.27066895 -290.14086914 317.08422852 C-291.09391341 320.4727879 -291.54693218 323.75272092 -291.75 327.25 C-291.83765625 328.37921875 -291.9253125 329.5084375 -292.015625 330.671875 C-292.73472221 347.21111084 -287.26472986 362.21585722 -276.5390625 374.85546875 C-265.55415503 386.60469826 -250.80692898 394.56447137 -234.55078125 395.41796875 C-233.39964844 395.42441406 -232.24851563 395.43085938 -231.0625 395.4375 C-229.92425781 395.45167969 -228.78601563 395.46585938 -227.61328125 395.48046875 C-218.3027535 394.92503787 -209.59435723 392.09531866 -200.76171875 389.2578125 C-198.89648673 388.66590578 -197.03125466 388.07399918 -195.16602039 387.48209953 C-192.57565713 386.65856886 -189.98689387 385.83006767 -187.39807129 385.00170898 C-183.51494201 383.76044221 -179.62948329 382.52649168 -175.74435902 381.29148674 C-172.71461927 380.32824556 -169.68533438 379.36362871 -166.65690613 378.39627075 C-159.03629971 375.96400241 -151.39845748 373.59306965 -143.75 371.25 C-142.44037656 370.84509866 -141.13092513 370.43963976 -139.82177734 370.03320312 C-109.47711975 360.63721137 -109.47711975 360.63721137 -94.75 358.25 C-93.41122803 358.03005371 -93.41122803 358.03005371 -92.04541016 357.80566406 C-42.6928542 349.9959181 2.80803242 361.10093693 49.296875 376.91796875 C55.90976601 379.15978308 62.56986414 381.21937107 69.25 383.25 C70.59461343 383.6717361 71.93852118 384.09573909 73.28125 384.5234375 C80.96790082 386.9644685 88.68503211 389.27639277 96.4375 391.5 C97.3346875 391.7582959 98.231875 392.0165918 99.15625 392.28271484 C114.94624858 396.77831194 128.05251737 396.14189661 143.25 390.25 C144.63832031 389.72599609 144.63832031 389.72599609 146.0546875 389.19140625 C161.27077846 382.55563495 171.30512009 368.18536161 177.44921875 353.35546875 C182.76896954 338.51616392 180.76177163 324.01175422 176.25 309.25 C175.72366329 307.48185864 175.1976403 305.71362386 174.671875 303.9453125 C173.19930269 299.03434509 171.69076894 294.13505891 170.17333984 289.23779297 C168.68245993 284.41352318 167.21745879 279.58143378 165.75 274.75 C165.16670499 272.83592582 164.5833716 270.92186334 164 269.0078125 C162.8256977 265.15070126 161.65986662 261.29116309 160.5 257.4296875 C159.05783895 252.63415978 157.5952712 247.84530868 156.11621094 243.06103516 C155.54124434 241.19514864 154.9715318 239.32763458 154.40722656 237.45849609 C149.1937439 220.26982019 142.49158302 205.634685 130.25 192.25 C129.48042969 191.39921875 128.71085937 190.5484375 127.91796875 189.671875 C108.94413288 169.68650992 82.50610639 159.68012732 55.28662109 158.91381836 C44.37738828 158.76518357 34.65698996 160.02061446 24.25 163.25 C22.68378906 163.72373047 22.68378906 163.72373047 21.0859375 164.20703125 C12.64864186 167.11757122 5.05179937 171.55525056 -2.73168945 175.8671875 C-27.27323595 189.42479525 -55.25443269 194.85758184 -82.75 187.25 C-94.22617297 183.67075662 -105.24622002 178.80663274 -115.375 172.3125 C-158.06673398 146.35592574 -214.03897459 159.19314175 -245.75 196.25 Z " fill="#000000" transform="translate(311.75,51.75)"/>
<path d="M0 0 C2.25428641 0.05498856 4.50487614 0.06152663 6.75976562 0.06079102 C14.95467651 0.14423452 20.91373721 0.33598502 27.31445312 5.99243164 C32.73356667 12.14385783 33.78215769 16.54679428 33.62695312 24.61743164 C34.59632813 24.53493164 35.56570312 24.45243164 36.56445312 24.36743164 C42.70520119 24.37988752 47.80897153 27.1551421 52.50195312 30.92993164 C58.48910493 38.50191775 58.08590277 45.76170997 58.00195312 55.11743164 C58.01355469 56.41036133 58.02515625 57.70329102 58.03710938 59.03540039 C58.01169512 67.27808991 57.78054133 72.96590845 52.25195312 79.36743164 C46.03990479 84.6920445 41.70162536 85.7727138 33.62695312 85.61743164 C33.68882812 86.60743164 33.75070313 87.59743164 33.81445312 88.61743164 C33.80320189 94.17554374 31.81124636 98.6874723 28.93945312 103.36743164 C21.38410408 110.71858206 12.42153104 110.85125 2.43945312 110.92993164 C0.62864258 110.9734375 0.62864258 110.9734375 -1.21875 111.01782227 C-9.40895319 111.07603585 -15.12009829 110.28744712 -21.39648438 104.87133789 C-26.56547388 98.40263137 -27.69601069 93.85300887 -27.37304688 85.61743164 C-27.92992188 85.66383789 -28.48679687 85.71024414 -29.06054688 85.75805664 C-35.09109493 86.04328526 -39.42892137 85.17720201 -44.37304688 81.61743164 C-49.00059693 77.28744024 -52.05919648 72.96930115 -52.66357422 66.51464844 C-52.71278972 62.77771045 -52.74435573 59.04221812 -52.74804688 55.30493164 C-52.78478516 53.36457031 -52.78478516 53.36457031 -52.82226562 51.38500977 C-52.84823942 42.92188014 -52.30572343 37.17476151 -46.62695312 30.59399414 C-40.15824661 25.42500464 -35.6086241 24.29446783 -27.37304688 24.61743164 C-27.43105469 23.98836914 -27.4890625 23.35930664 -27.54882812 22.71118164 C-27.96413997 14.8321226 -26.03166394 10.77884827 -20.91455078 4.95849609 C-14.77621686 -0.6362379 -7.82553238 -0.19769225 0 0 Z " fill="#040303" transform="translate(122.373046875,265.382568359375)"/>
<path d="M0 0 C7.68267107 4.48155813 12.77922056 11.03667195 15.34375 19.52734375 C17.00532771 27.74292244 15.93161734 35.35790134 11.765625 42.61328125 C6.56409242 49.93225187 1.26760733 53.77928714 -7.234375 56.61328125 C-16.72531745 57.36738564 -25.34238658 57.68404157 -33.234375 51.61328125 C-40.31273141 45.22697684 -44.34019383 38.14785702 -45.47265625 28.60546875 C-45.76091924 20.38238763 -43.20036304 13.65067973 -37.984375 7.30078125 C-27.39972762 -3.94256737 -14.05410504 -6.53037603 0 0 Z " fill="#030303" transform="translate(430.234375,270.38671875)"/>
<path d="M0 0 C8.16085142 4.66334367 14.01692697 11.09520436 16.7265625 20.12109375 C18.64891861 29.49041495 17.09031341 38.07888138 12.16015625 46.234375 C6.29863822 53.29588885 -0.88697029 57.37968032 -9.94140625 58.6796875 C-19.34591848 59.19592564 -26.80546125 56.48724686 -34.00390625 50.40625 C-40.03999254 44.08762351 -43.01173218 36.88172097 -43.27734375 28.171875 C-42.8552085 18.45034851 -40.16816123 12.51637633 -33.34765625 5.4765625 C-24.12643077 -2.76795997 -11.6237792 -4.6060583 0 0 Z " fill="#020102" transform="translate(371.83984375,325.765625)"/>
<path d="M0 0 C6.6 0 13.2 0 20 0 C20.375 8.1875 20.375 8.1875 20.47802734 10.73901367 C20.6920258 14.81224671 20.93269114 18.37869366 23 22 C25.72501908 22.90833969 27.62233971 23.18359985 30.44921875 23.31640625 C31.21322998 23.35451416 31.97724121 23.39262207 32.7644043 23.43188477 C33.72902588 23.47498779 34.69364746 23.51809082 35.6875 23.5625 C38.760625 23.706875 41.83375 23.85125 45 24 C45 30.93 45 37.86 45 45 C35.8125 45.125 35.8125 45.125 32.94458008 45.11767578 C28.46746048 45.26879817 26.5049463 45.58779894 22.9375 48.5 C20.30421229 52.36323066 20.22403117 56.3248891 20.1875 60.875 C20.0946875 64.896875 20.0946875 64.896875 20 69 C13.4 69 6.8 69 0 69 C-0.1875 60.3125 -0.1875 60.3125 -0.20776367 57.6027832 C-0.36402775 53.6102136 -0.74534189 51.39841672 -2.9375 47.96875 C-7.2207895 45.21520675 -10.82150475 45.22276454 -15.8125 45.1875 C-18.844375 45.125625 -21.87625 45.06375 -25 45 C-25 38.07 -25 31.14 -25 24 C-15.75 23.75 -15.75 23.75 -12.85449219 23.70214844 C-7.79067604 23.52431421 -7.79067604 23.52431421 -3.453125 21.078125 C-0.59979784 16.99756035 -0.67738838 13.21312265 -0.4375 8.375 C-0.2209375 4.229375 -0.2209375 4.229375 0 0 Z " fill="#FCF09E" transform="translate(115,286)"/>
<path d="M0 0 C3.71311585 3.03111498 3.71311585 3.03111498 5 6 C5.44325321 11.23657287 5.02495446 13.67181996 1.78588867 17.86914062 C-1.14133093 21.06554976 -4.28373739 24.03015618 -7.4375 27 C-8.52586419 28.05676808 -9.61247188 29.11534836 -10.69726562 30.17578125 C-20.20929831 39.40847783 -20.20929831 39.40847783 -26.9609375 39.359375 C-30.38006698 38.7567698 -31.93189052 36.63213933 -34 34 C-35.50889469 30.98221063 -35.50026276 29.37677363 -35 26 C-30.40674954 19.59129213 -24.25974973 14.10750157 -18.6875 8.5625 C-17.87732422 7.74845703 -17.06714844 6.93441406 -16.23242188 6.09570312 C-15.45833984 5.32291016 -14.68425781 4.55011719 -13.88671875 3.75390625 C-13.18764404 3.05595947 -12.48856934 2.3580127 -11.76831055 1.63891602 C-8.14388517 -1.7202953 -4.54603657 -1.37942713 0 0 Z " fill="#030303" transform="translate(257,284)"/>
<path d="M0 0 C2.5625 1.5 2.5625 1.5 4 4 C4.77057736 7.20863362 4.71180525 9.78174854 4 13 C2.69604492 14.8996582 2.69604492 14.8996582 0.98046875 16.73828125 C0.02829468 17.77057861 0.02829468 17.77057861 -0.94311523 18.82373047 C-1.62188721 19.54189941 -2.30065918 20.26006836 -3 21 C-3.66781494 21.73234863 -4.33562988 22.46469727 -5.02368164 23.21923828 C-7.10947735 25.49047647 -9.23660052 27.71581141 -11.375 29.9375 C-12.43074219 31.08702148 -12.43074219 31.08702148 -13.5078125 32.25976562 C-17.79671316 36.6778029 -20.80849805 38.88731427 -27.04150391 39.24169922 C-30.23164806 38.84800155 -31.88667051 37.31145413 -34 35 C-35.65276575 31.69446851 -35.75604898 28.54652115 -35 25 C-33.72973633 23.13696289 -33.72973633 23.13696289 -32.01953125 21.28515625 C-31.38418457 20.59357422 -30.74883789 19.90199219 -30.09423828 19.18945312 C-26.50273516 15.4346618 -22.87114421 11.72697521 -19.1875 8.0625 C-18.42501953 7.29615234 -17.66253906 6.52980469 -16.87695312 5.74023438 C-16.14798828 5.01255859 -15.41902344 4.28488281 -14.66796875 3.53515625 C-14.01078857 2.879104 -13.3536084 2.22305176 -12.67651367 1.54711914 C-8.8171327 -2.01439203 -4.83926063 -1.0744362 0 0 Z " fill="#020202" transform="translate(286,313)"/>
<path d="M0 0 C6.93 0 13.86 0 21 0 C21.02682299 4.31254083 21.04675244 8.62491707 21.0625 12.9375 C21.07087891 14.16919922 21.07925781 15.40089844 21.08789062 16.66992188 C21.09272461 18.4246582 21.09272461 18.4246582 21.09765625 20.21484375 C21.10551147 21.84087524 21.10551147 21.84087524 21.11352539 23.49975586 C21 26 21 26 20 27 C18.5112814 27.08669432 17.018555 27.10703494 15.52734375 27.09765625 C14.71773193 27.09515869 13.90812012 27.09266113 13.07397461 27.09008789 C12.03893799 27.08098389 11.00390137 27.07187988 9.9375 27.0625 C6.658125 27.041875 3.37875 27.02125 0 27 C0 18.09 0 9.18 0 0 Z " fill="#C6C5EB" transform="translate(246,196)"/>
<path d="M0 0 C3.60185638 1.78935906 5.65271868 4.06029761 7.0625 7.875 C6.98115298 11.94235089 6.00049282 14.46579601 4 18 C0.85618742 20.87434293 -0.70241439 21 -5 21 C-8.03785804 20.44766217 -9.32217206 19.78521863 -12 18 C-14.36659113 14.4501133 -14.66380999 12.34199986 -14.43359375 8.15625 C-13.79285558 4.96987639 -12.33398654 3.19669322 -10 1 C-6.76247585 -0.61876208 -3.49936966 -0.57132566 0 0 Z " fill="#000000" transform="translate(500,87)"/>
<path d="M0 0 C3.0413374 1.63764322 5.28615407 3.09993339 7.4375 5.8125 C8.31325348 9.218208 7.89136765 11.61280292 7 15 C4.94028944 18.02519989 3.48426176 19.66926776 -0.15625 20.48046875 C-4.37485661 20.74061616 -6.46049451 20.37091002 -10 17.9375 C-12.42072913 14.38205409 -13.0755042 12.30373949 -13 8 C-9.84488891 2.02782544 -6.91186054 -0.81316006 0 0 Z " fill="#B7E4D9" transform="translate(418,287)"/>
<path d="M0 0 C2.8100346 1.79363911 4.50940468 3.01880935 6 6 C6.3751455 10.97067782 6.15878799 14.05151502 3 18 C-0.42094119 20.56570589 -3.84773484 20.43708054 -8 20 C-11.38939556 17.86320715 -12.72582557 16.8225233 -14 13 C-14.38887761 8.80012182 -14.45908323 6.70392762 -12.125 3.125 C-8.51880254 -0.48119746 -4.93573703 -0.70915762 0 0 Z " fill="#EBC1D7" transform="translate(363,344)"/>
</svg>
