<?xml version="1.0" encoding="UTF-8"?>
<svg version="1.1" xmlns="http://www.w3.org/2000/svg" width="512" height="512">
<path d="M0 0 C1.24491714 -0.0146228 1.24491714 -0.0146228 2.51498413 -0.02954102 C21.06821898 -0.20260215 38.85786199 0.06901222 57.03125 4.23828125 C57.876875 4.42551758 58.7225 4.61275391 59.59375 4.80566406 C95.32807705 12.88776381 126.64397321 30.21843941 154.03125 54.23828125 C154.95164062 55.03492188 155.87203125 55.8315625 156.8203125 56.65234375 C162.00478831 61.2102968 166.60505881 65.95245788 171.03125 71.23828125 C171.84078125 72.14835937 172.6503125 73.0584375 173.484375 73.99609375 C196.7563143 100.33681369 212.5155759 132.99558574 220.03125 167.23828125 C220.24007813 168.17526855 220.44890625 169.11225586 220.6640625 170.07763672 C225.09855556 190.96255537 224.44468462 212.01000368 224.03125 233.23828125 C224.62220459 233.35727783 225.21315918 233.47627441 225.82202148 233.59887695 C238.22635659 236.20478716 247.65040223 241.86013871 254.78125 252.48828125 C261.75163706 263.38374063 262.63518595 273.96132575 262.5625 286.515625 C262.56520178 288.17509691 262.56908988 289.83456726 262.57409668 291.49403381 C262.57996118 294.95605685 262.57152932 298.41766434 262.55273438 301.87963867 C262.5299643 306.28513975 262.5430746 310.68966471 262.56702423 315.09512997 C262.58158075 318.51757463 262.57683121 321.93979354 262.56651306 325.36224556 C262.56387195 326.98511436 262.56702183 328.60800464 262.57643127 330.23084831 C262.64641902 345.6912033 259.8315165 357.93093619 248.9296875 369.4609375 C238.67458859 379.15436138 227.48027335 382.5888574 213.625 382.43359375 C212.17704041 382.42934891 212.17704041 382.42934891 210.6998291 382.42501831 C207.64350522 382.41390249 204.58748399 382.3888141 201.53125 382.36328125 C199.44792093 382.35324033 197.36458722 382.34411643 195.28125 382.3359375 C190.19780163 382.31399136 185.11457697 382.27952142 180.03125 382.23828125 C179.91297852 383.028396 179.79470703 383.81851074 179.67285156 384.63256836 C176.30520867 406.11360044 165.4213174 424.96435025 148.03125 438.23828125 C129.09812961 450.67297909 110.37085764 454.33242475 88.0234375 454.4140625 C85.54816841 454.43724251 83.07290794 454.46135907 80.59765625 454.48632812 C76.74228949 454.52149316 72.8872464 454.55084711 69.03173828 454.56420898 C65.27858803 454.57971787 61.52634613 454.61991673 57.7734375 454.6640625 C56.62946503 454.66215408 55.48549255 454.66024567 54.30685425 454.65827942 C44.24138789 454.81126778 37.1035968 457.48709827 29.75390625 464.3984375 C20.97101811 473.77880102 21.68968423 487.04476004 21.72851562 499.16015625 C21.57836876 506.46407467 21.57836876 506.46407467 18.80078125 510.39453125 C15.88703012 512.33429223 14.48957635 512.9173176 11.03125 512.86328125 C10.20625 512.87617187 9.38125 512.8890625 8.53125 512.90234375 C4.67384954 511.87772175 3.34027591 510.50569445 1.03125 507.23828125 C0.32596112 503.53153742 0.33168288 499.87822309 0.34375 496.11328125 C0.23187742 482.9983721 -0.33845689 472.40466053 -9.63671875 462.453125 C-17.28313996 455.33162973 -25.41325517 454.79789926 -35.4375 454.796875 C-36.63121216 454.78366714 -37.82492432 454.77045929 -39.05480957 454.7568512 C-42.85947973 454.71612677 -46.66391214 454.69436145 -50.46875 454.67578125 C-83.38749942 454.46676661 -111.24739603 453.03600295 -136.37109375 428.93359375 C-148.81417322 415.95875875 -155.31566389 399.79578378 -157.96875 382.23828125 C-159.23356201 382.25922852 -160.49837402 382.28017578 -161.80151367 382.30175781 C-166.55204681 382.37486443 -171.30253159 382.42033487 -176.0534668 382.45800781 C-178.09879962 382.47796385 -180.14407658 382.50513863 -182.18920898 382.54003906 C-199.79113173 382.83261563 -213.77624542 381.83963242 -227.1875 369.13671875 C-235.60100722 360.25230628 -240.1872069 349.94460772 -240.25927734 337.64160156 C-240.26599457 336.91697723 -240.27271179 336.19235291 -240.27963257 335.44577026 C-240.29850462 333.06924425 -240.30253149 330.69300237 -240.3046875 328.31640625 C-240.3111238 326.64882292 -240.31785276 324.9812407 -240.32485962 323.31365967 C-240.33680606 319.82366318 -240.34054325 316.33376547 -240.33935547 312.84375 C-240.33915263 308.39775213 -240.36642988 303.95239598 -240.40089989 299.50654984 C-240.4232705 296.0627356 -240.42718989 292.6190732 -240.42613602 289.17519379 C-240.42847767 287.5375218 -240.43721914 285.89984471 -240.45280075 284.26224518 C-240.58458951 268.97893079 -237.51766533 256.04708361 -226.52734375 244.72265625 C-219.84418568 238.84692484 -211.16919579 233.23828125 -201.96875 233.23828125 C-201.98969727 232.19824951 -202.01064453 231.15821777 -202.03222656 230.08666992 C-202.95127168 179.8725926 -194.35099326 131.690024 -163.96875 90.23828125 C-163.20046875 89.18640625 -162.4321875 88.13453125 -161.640625 87.05078125 C-155.90128578 79.33401304 -149.62790152 72.17338219 -142.96875 65.23828125 C-142.1641333 64.39281738 -142.1641333 64.39281738 -141.34326172 63.53027344 C-105.22572894 25.75444215 -52.72843448 0.51789745 0 0 Z M-15.46875 52.73828125 C-16.19578125 52.88136719 -16.9228125 53.02445313 -17.671875 53.171875 C-19.43884071 53.52061823 -21.20400309 53.87847848 -22.96875 54.23828125 C-23.154375 55.14320312 -23.154375 55.14320312 -23.34375 56.06640625 C-24.50760865 60.57635853 -25.21514248 62.72109962 -29.15625 65.42578125 C-30.74357658 66.07289977 -32.35174147 66.66937752 -33.96875 67.23828125 C-36.47003115 68.15162364 -38.97023738 69.06742917 -41.46875 69.98828125 C-42.15573975 70.24005127 -42.84272949 70.49182129 -43.55053711 70.7512207 C-80.0504541 84.37410375 -110.50817862 112.82747162 -127.08984375 148.01171875 C-135.37025215 166.29135411 -141.20613626 185.69379761 -141.06640625 205.89453125 C-141.0649913 206.68226929 -141.06357635 207.47000732 -141.06211853 208.28161621 C-141.05657612 210.76721189 -141.04403485 213.25271336 -141.03125 215.73828125 C-141.02622754 217.4361966 -141.02166595 219.13411339 -141.01757812 220.83203125 C-141.00662564 224.96748354 -140.98940166 229.10286649 -140.96875 233.23828125 C-140.04425049 233.52288208 -140.04425049 233.52288208 -139.10107422 233.81323242 C-137.88701904 234.19958862 -137.88701904 234.19958862 -136.6484375 234.59375 C-135.84647949 234.84535889 -135.04452148 235.09696777 -134.21826172 235.35620117 C-129.97780534 237.01897184 -127.79674655 239.97902356 -125.3611908 243.68313599 C-123.37717992 248.74866329 -123.54237516 253.41334686 -123.56469727 258.80810547 C-123.55783401 259.96655975 -123.55097076 261.12501404 -123.54389954 262.318573 C-123.52561632 266.14349669 -123.52947171 269.96801078 -123.53515625 273.79296875 C-123.53174818 275.7824479 -123.5283322 277.77192724 -123.52380317 279.76140416 C-123.50977316 286.0146465 -123.51130581 292.2677522 -123.52270508 298.52099609 C-123.53417874 304.95698129 -123.52012025 311.39254941 -123.4933086 317.82847965 C-123.47110313 323.36756304 -123.46452526 328.90651597 -123.47038502 334.44564068 C-123.47374505 337.74798479 -123.46968074 341.05000378 -123.45413399 344.35232162 C-123.43922657 348.03841748 -123.4499012 351.72360032 -123.46704102 355.40966797 C-123.45737305 356.49356812 -123.44770508 357.57746826 -123.43774414 358.69421387 C-123.49939684 365.03885386 -124.24982551 369.9714301 -127.96875 375.23828125 C-130.46875 377.55078125 -130.46875 377.55078125 -132.96875 379.23828125 C-134.30556256 380.23362539 -135.63948302 381.23288229 -136.96875 382.23828125 C-132.69170671 400.19654996 -124.13803431 414.10532018 -108.390625 424.2265625 C-94.62496346 432.31938863 -79.93469132 433.51809298 -64.265625 433.546875 C-61.71353915 433.57201153 -59.16145587 433.59740985 -56.609375 433.62304688 C-52.65104722 433.65183382 -48.6927636 433.67590386 -44.734375 433.69458008 C-40.8695791 433.71630046 -37.00525572 433.75571149 -33.140625 433.796875 C-31.96747742 433.79699081 -30.79432983 433.79710663 -29.58563232 433.79722595 C-15.68190298 433.96351778 -3.16194653 438.55474454 7.03125 448.23828125 C8.90625 450.55078125 8.90625 450.55078125 10.03125 452.23828125 C12.68414449 451.15747238 14.19941454 450.06531201 16.21875 447.98828125 C24.6191033 439.77460247 35.73895695 434.17978573 47.58740234 434.06469727 C48.70311615 434.05120743 49.81882996 434.03771759 50.96835327 434.02381897 C52.17246857 434.01338058 53.37658386 434.0029422 54.6171875 433.9921875 C57.1835968 433.95922059 59.75000296 433.92600947 62.31640625 433.89257812 C66.34907935 433.8443913 70.38178039 433.80064925 74.41455078 433.76147461 C78.3155698 433.72135451 82.21632074 433.66988166 86.1171875 433.6171875 C87.30106049 433.60877335 88.48493347 433.60035919 89.7046814 433.59169006 C107.54136196 433.33294804 122.79085023 430.44342707 137.03125 419.23828125 C137.64355469 418.80128906 138.25585938 418.36429687 138.88671875 417.9140625 C150.04151822 409.41395215 157.08613527 394.83382274 159.03125 381.23828125 C158.50015625 380.94695312 157.9690625 380.655625 157.421875 380.35546875 C151.66289401 377.01357832 148.19805454 373.73869487 146.03125 367.23828125 C145.93543301 365.61508183 145.89633996 363.98824397 145.89080811 362.36222839 C145.88509796 361.35707687 145.87938782 360.35192535 145.87350464 359.3163147 C145.87238678 358.21443817 145.87126892 357.11256165 145.87011719 355.97729492 C145.86515228 354.81606613 145.86018738 353.65483734 145.85507202 352.4584198 C145.84043831 348.60769056 145.8336464 344.75700251 145.828125 340.90625 C145.8238275 338.90952766 145.81952948 336.91280532 145.8151505 334.91608316 C145.80333969 329.35163058 145.79580226 323.78718798 145.7923553 318.22272414 C145.78787612 311.03187702 145.77033374 303.84122014 145.7413547 296.65043086 C145.71972008 291.08853524 145.70965006 285.52669307 145.70831418 279.96475583 C145.70726735 276.64457789 145.69993537 273.32461935 145.68349457 270.00447655 C145.66645376 266.29865456 145.66830986 262.59329637 145.67480469 258.88745117 C145.6655899 257.79164734 145.65637512 256.69584351 145.6468811 255.5668335 C145.68567638 248.50591749 146.69337852 244.19500106 151.15625 238.55078125 C153.87218194 236.3662273 155.47298868 235.60963448 158.7109375 234.59375 C159.52030762 234.3361792 160.32967773 234.0786084 161.16357422 233.81323242 C161.77990723 233.62349854 162.39624023 233.43376465 163.03125 233.23828125 C163.99819659 206.01430028 163.99819659 206.01430028 160.03125 179.23828125 C159.82725586 178.44647461 159.62326172 177.65466797 159.41308594 176.83886719 C153.2821529 153.5734488 143.16803432 132.29611132 127.03125 114.23828125 C126.19078125 113.26632813 125.3503125 112.294375 124.484375 111.29296875 C106.4083983 90.67815699 83.75719857 77.03660766 58.03662109 68.02685547 C49.61850264 64.99913303 49.61850264 64.99913303 47.03125 61.23828125 C45.78125 57.48828125 45.78125 57.48828125 45.03125 54.23828125 C42.53284546 53.7288978 40.03301612 53.23065011 37.53125 52.73828125 C36.83515625 52.59519531 36.1390625 52.45210937 35.421875 52.3046875 C30.54037797 51.35550752 26.00406701 51.10388079 21.03125 51.23828125 C20.763125 52.37265625 20.495 53.50703125 20.21875 54.67578125 C19.826875 55.85140625 19.435 57.02703125 19.03125 58.23828125 C16.08298237 59.22103713 14.10472496 59.3724285 11.03125 59.36328125 C9.731875 59.36714844 9.731875 59.36714844 8.40625 59.37109375 C6.03125 59.23828125 6.03125 59.23828125 3.03125 58.23828125 C1.84375 54.67578125 1.84375 54.67578125 1.03125 51.23828125 C-4.70013244 51.08337902 -9.86224206 51.5858324 -15.46875 52.73828125 Z " fill="#010100" transform="translate(244.96875,-0.23828125)"/>
<path d="M0 0 C0.84046875 0.63679688 1.6809375 1.27359375 2.546875 1.9296875 C16.36789096 12.6933272 28.99267826 25.62105876 39 40 C39.4115332 40.58313965 39.82306641 41.1662793 40.24707031 41.76708984 C55.21261378 63.06159897 65.26078363 86.44244747 71.125 111.8125 C71.28387695 112.48684082 71.44275391 113.16118164 71.60644531 113.85595703 C74.70544416 127.89279074 75.27845792 141.69656358 75.125 156 C75.11493256 157.66145283 75.10581347 159.32291169 75.09765625 160.984375 C75.07770861 164.98986177 75.03851461 168.99448049 75 173 C68.4 173 61.8 173 55 173 C54.96261719 170.61007813 54.92523438 168.22015625 54.88671875 165.7578125 C54.57331027 142.21284523 54.57331027 142.21284523 51 119 C50.70639294 117.57461707 50.41478491 116.14882115 50.125 114.72265625 C46.76410672 98.77138095 40.65950547 84.33692392 33 70 C32.45730469 68.97390625 31.91460937 67.9478125 31.35546875 66.890625 C10.33047795 29.03541043 -24.66446342 3.08962334 -65 -11 C-66.67449219 -11.60714844 -66.67449219 -11.60714844 -68.3828125 -12.2265625 C-71.95513644 -13.2822642 -74.41417555 -12.92965819 -78 -12 C-80.3181362 -10.10888889 -81.66914015 -8.66171969 -83 -6 C-85.66671086 -6.31212639 -88.33336905 -6.62469221 -91 -6.9375 C-91.74378906 -7.02451172 -92.48757813 -7.11152344 -93.25390625 -7.20117188 C-98.17221292 -7.77853831 -103.08684772 -8.38027284 -108 -9 C-108.0825 -8.2575 -108.165 -7.515 -108.25 -6.75 C-109.21487941 -3.21210883 -109.91471082 -2.0317758 -113 0 C-116.44908158 0.62922434 -119.55323692 0.65148834 -123 0 C-126.125 -2.25 -126.125 -2.25 -128 -5 C-128 -6.32 -128 -7.64 -128 -9 C-128.61520508 -8.90912109 -129.23041016 -8.81824219 -129.86425781 -8.72460938 C-132.65907971 -8.31345112 -135.45452331 -7.90668141 -138.25 -7.5 C-139.21808594 -7.35691406 -140.18617188 -7.21382812 -141.18359375 -7.06640625 C-142.58544922 -6.86337891 -142.58544922 -6.86337891 -144.015625 -6.65625 C-144.87446289 -6.53056641 -145.73330078 -6.40488281 -146.61816406 -6.27539062 C-149 -6 -149 -6 -153 -6 C-153.226875 -6.78375 -153.45375 -7.5675 -153.6875 -8.375 C-154.7777711 -11.09819416 -154.7777711 -11.09819416 -157.0625 -12.375 C-171.47549736 -15.44159518 -188.66723544 -4.58878279 -201 2 C-202.02609375 2.54269531 -203.0521875 3.08539063 -204.109375 3.64453125 C-243.94811911 25.77118508 -272.29783301 64.51386694 -284.8125 107.9375 C-290.51988662 129.32446899 -290.64006407 151.01908523 -291 173 C-297.6 173 -304.2 173 -311 173 C-311.57238135 119.67313802 -302.09799667 70.78213929 -266 29 C-265.31808594 28.20851563 -264.63617188 27.41703125 -263.93359375 26.6015625 C-204.14754921 -41.20586548 -107.02596959 -59.59333605 0 0 Z " fill="#CBCAF1" transform="translate(374,60)"/>
<path d="M0 0 C0 35.97 0 71.94 0 109 C-20.84514024 109 -20.84514024 109 -29.32290649 100.86584473 C-36.58882813 92.7821681 -36.74613248 83.59571162 -36.6640625 73.28125 C-36.66743945 71.77249767 -36.67229933 70.26374801 -36.67855835 68.75500488 C-36.68588857 65.60805102 -36.6753507 62.46181154 -36.65185547 59.31494141 C-36.62336852 55.30692922 -36.63979354 51.30059162 -36.66971779 47.29264069 C-36.68789649 44.18161696 -36.68198495 41.07098194 -36.66907883 37.95994568 C-36.66577386 36.48335058 -36.66972798 35.00671869 -36.68147659 33.53016663 C-36.74522457 23.2699526 -35.58079986 15.33380806 -28.71875 7.34375 C-27.9865625 6.7353125 -27.254375 6.126875 -26.5 5.5 C-25.7678125 4.8709375 -25.035625 4.241875 -24.28125 3.59375 C-16.19898224 -2.05276583 -11.09297388 0 0 0 Z " fill="#FDF19E" transform="translate(61,253)"/>
<path d="M0 0 C20.49790795 0 20.49790795 0 28.0546875 6.8671875 C33.65822785 12.84274713 36.36596864 18.68001681 36.40405273 26.89404297 C36.41091599 27.54385132 36.41777924 28.19365967 36.42485046 28.86315918 C36.44300026 30.9897307 36.43929777 33.11555591 36.43359375 35.2421875 C36.43816185 36.73520137 36.44346929 38.22821315 36.44947815 39.72122192 C36.45838649 42.84304369 36.45601304 45.96460934 36.44604492 49.08642578 C36.43456866 53.06635432 36.45475678 57.04539378 36.48396206 61.02520561 C36.50240363 64.10695923 36.50201572 67.188503 36.49632454 70.270298 C36.49617224 71.73656586 36.50214051 73.20284878 36.51461601 74.66906357 C36.59445626 85.59117474 35.3412932 94.18390339 27.78125 102.49609375 C19.60050579 109.40308173 10.35936046 109 0 109 C0 73.03 0 37.06 0 0 Z " fill="#FDF19F" transform="translate(451,253)"/>
<path d="M0 0 C6.93 0 13.86 0 21 0 C21 35.97 21 71.94 21 109 C14.07 109 7.14 109 0 109 C0 73.03 0 37.06 0 0 Z " fill="#ECBFA9" transform="translate(410,253)"/>
<path d="M0 0 C6.93 0 13.86 0 21 0 C21 35.97 21 71.94 21 109 C14.07 109 7.14 109 0 109 C0 73.03 0 37.06 0 0 Z " fill="#ECBFA9" transform="translate(81,253)"/>
<path d="M0 0 C3.95403662 0.26360244 5.65370756 0.86143155 8.75 3.25 C11.44292224 7.28938336 11.52233523 10.50802776 10.75 15.25 C8.875 18.3125 8.875 18.3125 5.75 20.25 C0.69922834 21.25187438 -2.96974058 21.04376084 -7.375 18.3125 C-9.87999852 14.22100242 -10.34435557 10.93282383 -9.25 6.25 C-6.8125 3.25 -6.8125 3.25 -4.25 1.25 C-3.25 0.25 -3.25 0.25 0 0 Z " fill="#030304" transform="translate(255.25,39.75)"/>
</svg>
