<?xml version="1.0" encoding="UTF-8"?>
<svg version="1.1" xmlns="http://www.w3.org/2000/svg" width="512" height="512">
<path d="M0 0 C168.96 0 337.92 0 512 0 C512 168.96 512 337.92 512 512 C343.04 512 174.08 512 0 512 C0 343.04 0 174.08 0 0 Z " fill="#E5E7ED" transform="translate(0,0)"/>
<path d="M0 0 C168.96 0 337.92 0 512 0 C512 168.96 512 337.92 512 512 C343.04 512 174.08 512 0 512 C0 343.04 0 174.08 0 0 Z M73 74 C73 194.45 73 314.9 73 439 C193.78 439 314.56 439 439 439 C439 318.55 439 198.1 439 74 C318.22 74 197.44 74 73 74 Z " fill="#020202" transform="translate(0,0)"/>
<path d="M0 0 C2.51254665 1.93836038 4.88160892 3.96115063 7.234375 6.08984375 C7.99234375 6.755 8.7503125 7.42015625 9.53125 8.10546875 C20.88264631 18.67401015 31.51719608 35.84794859 32.37963867 51.77197266 C32.40435709 55.08636673 32.42003566 58.40035044 32.421875 61.71484375 C32.43412109 62.85308594 32.44636719 63.99132812 32.45898438 65.1640625 C32.49809928 87.87678677 22.95769549 106.21150461 7.234375 122.08984375 C5.65123978 123.59005284 4.06792135 125.09006863 2.484375 126.58984375 C-7.27861942 136.28297775 -12.63086809 149.01886917 -13.265625 162.65234375 C-13.7938914 173.43778276 -16.54578057 181.08214703 -24.14453125 188.91796875 C-30.53689232 194.21476868 -38.07609841 196.92944721 -46.38671875 196.44921875 C-56.07413277 194.98576704 -62.68019942 190.59888146 -69.15234375 183.3828125 C-73.45966409 177.26078577 -74.26545958 172.08694333 -74.140625 164.77734375 C-74.12974854 163.90215088 -74.11887207 163.02695801 -74.10766602 162.12524414 C-73.35355099 130.5690875 -59.70902944 102.45571339 -37.265625 80.58984375 C-36.65372314 80.01411621 -36.04182129 79.43838867 -35.41137695 78.84521484 C-31.25649904 74.87635883 -29.06051453 72.0042714 -28.46484375 66.1171875 C-28.46097656 65.09753906 -28.45710938 64.07789063 -28.453125 63.02734375 C-28.42798828 61.49400391 -28.42798828 61.49400391 -28.40234375 59.9296875 C-28.81054198 56.73871856 -29.72762891 55.50425073 -31.765625 53.08984375 C-31.765625 52.42984375 -31.765625 51.76984375 -31.765625 51.08984375 C-38.62018917 47.39892458 -44.14484977 46.41426613 -51.765625 48.08984375 C-56.58284869 50.3200399 -58.89150039 53.05329956 -61.04296875 57.765625 C-61.84845384 60.3562392 -62.01952528 62.63267913 -62.140625 65.33984375 C-62.63209801 73.37095945 -66.1274322 81.08302547 -72.078125 86.58984375 C-79.35354899 92.08286988 -87.71087193 94.89089615 -96.765625 94.08984375 C-106.09902354 92.005538 -113.40222742 87.03754185 -118.765625 79.08984375 C-121.67472592 72.82408792 -122.3125604 67.4574553 -122.265625 60.58984375 C-122.25813232 59.14387817 -122.25813232 59.14387817 -122.25048828 57.66870117 C-121.73822647 36.38157337 -110.66414072 19.28769087 -95.78515625 4.734375 C-69.251142 -19.36452814 -28.84236433 -19.92078553 0 0 Z " fill="#030303" transform="translate(300.765625,124.91015625)"/>
<path d="M0 0 C6.6 0 13.2 0 20 0 C20.99 2.31 21.98 4.62 23 7 C26.25860909 9.17240606 26.82050803 9.23564158 30.5 8.8125 C31.2734375 8.73644531 32.046875 8.66039062 32.84375 8.58203125 C35.4631306 7.8749883 36.36064711 7.14926789 38 5 C38.66 3.35 39.32 1.7 40 0 C46.6 0 53.2 0 60 0 C60.99 2.31 61.98 4.62 63 7 C66.60691881 9.40461254 69.21752752 9.28980931 73.38407898 9.2784729 C74.52110967 9.2871615 74.52110967 9.2871615 75.68111068 9.29602563 C78.22844921 9.31307009 80.77560705 9.31590593 83.32299805 9.31884766 C85.14608202 9.32814277 86.96916172 9.33831082 88.79223633 9.34928894 C93.7485031 9.37665 98.70474136 9.39175641 103.66106391 9.40471697 C108.83810695 9.42032084 114.01509152 9.44711976 119.1920929 9.4727478 C128.99865239 9.51958427 138.80522283 9.5563048 148.61183721 9.58942068 C159.7749711 9.62760771 170.93804634 9.67702679 182.10113084 9.72740483 C205.06737712 9.83079708 228.03366106 9.92003373 251 10 C250.06293246 11.1040332 249.1242922 12.20673163 248.18501282 13.30888367 C247.66248082 13.9230952 247.13994883 14.53730673 246.60158253 15.17013073 C244.18315684 17.93327454 241.59691334 20.50793202 238.98046875 23.08203125 C238.43642899 23.62228439 237.89238922 24.16253754 237.3318634 24.71916199 C235.61952293 26.41943213 233.90393759 28.11636669 232.1875 29.8125 C229.90729329 32.06614488 227.63040587 34.32306859 225.35546875 36.58203125 C224.57117744 37.35387505 224.57117744 37.35387505 223.77104187 38.14131165 C221.04129357 40.80906769 221.04129357 40.80906769 219 44 C170.96426739 44.18304703 122.92857165 44.32404477 74.89255914 44.40852264 C69.2235382 44.41852848 63.55451796 44.42888304 57.88549805 44.43945312 C56.75688184 44.44155161 55.62826563 44.44365009 54.46544892 44.44581217 C36.18273434 44.4806379 17.90022068 44.54372281 -0.38237465 44.61722237 C-19.13721173 44.69199249 -37.89194347 44.73646133 -56.64692348 44.75270796 C-68.22308365 44.76369376 -79.79867598 44.79841035 -91.37466138 44.86333174 C-99.30906138 44.90556766 -107.24316714 44.91841263 -115.17767144 44.90801102 C-119.75805601 44.90287864 -124.3374473 44.91083255 -128.91765594 44.9536438 C-133.11099224 44.99255317 -137.3026668 44.99455965 -141.49607932 44.96719116 C-143.01305095 44.9638085 -144.53012591 44.97398084 -146.0468939 44.99906546 C-157.38597168 45.17569138 -157.38597168 45.17569138 -161.37952316 42.26670647 C-163.14745482 40.2625849 -164.56110993 38.24599311 -166 36 C-167.00314097 34.91231135 -168.02933611 33.84482927 -169.08959961 32.81274414 C-169.58958969 32.31605728 -170.08957977 31.81937042 -170.60472107 31.30763245 C-171.11543655 30.8052153 -171.62615204 30.30279816 -172.15234375 29.78515625 C-172.69734024 29.24394638 -173.24233673 28.70273651 -173.80384827 28.14512634 C-175.51260231 26.44841021 -177.22462237 24.75505248 -178.9375 23.0625 C-181.22028535 20.80622564 -183.4997794 18.54669926 -185.77734375 16.28515625 C-186.30222885 15.76856949 -186.82711395 15.25198273 -187.36790466 14.71974182 C-188.59753993 13.49860529 -189.80169247 12.25189311 -191 11 C-191 10.67 -191 10.34 -191 10 C-190.06147595 9.99668985 -189.12295191 9.99337971 -188.15598774 9.98996925 C-165.33005448 9.90901073 -142.50418866 9.81670612 -119.67834949 9.71247292 C-108.63999126 9.66232999 -97.60164052 9.61588724 -86.56323242 9.578125 C-76.94327216 9.5452059 -67.32336973 9.50537509 -57.70347327 9.45720994 C-52.6088194 9.43194419 -47.51420391 9.41016308 -42.41950417 9.39665604 C-37.62526896 9.38383645 -32.83116534 9.36178302 -28.03700256 9.33261681 C-26.27659209 9.32354026 -24.51616043 9.31785062 -22.75572777 9.31578636 C-20.3532222 9.31246438 -17.95108984 9.29698878 -15.54866028 9.2784729 C-14.85118095 9.28040763 -14.15370162 9.28234237 -13.43508655 9.28433573 C-9.53464073 9.2393589 -6.32177725 9.12899858 -3 7 C-2.01 4.69 -1.02 2.38 0 0 Z " fill="#B3B9CC" transform="translate(226,10)"/>
<path d="M0 0 C4.55628269 0.04720589 9.10978392 -0.0570053 13.66521478 -0.13994384 C22.55473656 -0.27761051 31.43879407 -0.27630269 40.3290077 -0.22136529 C47.56643133 -0.17876895 54.80228439 -0.18549216 62.03970742 -0.22604537 C63.0760321 -0.23176177 64.11235678 -0.23747816 65.18008523 -0.24336778 C67.28648837 -0.25511645 69.39289108 -0.26694026 71.49929337 -0.27883832 C91.18474694 -0.38364741 110.86714957 -0.32547987 130.55239241 -0.21332411 C148.48926013 -0.11569723 166.41919314 -0.2066753 184.35521121 -0.38961704 C202.85299161 -0.5768605 221.34759461 -0.64429061 239.84627306 -0.58146489 C241.94606964 -0.57469377 244.04586678 -0.56809731 246.14566445 -0.56167769 C247.17832567 -0.5585108 248.21098688 -0.55534391 249.27494086 -0.55208106 C256.48500029 -0.53748387 263.69200472 -0.59909292 270.90140939 -0.69126296 C342.96885526 -1.5531824 342.96885526 -1.5531824 360.67930436 15.16818643 C375.49413323 30.71840802 375.49413323 30.71840802 375.49413323 36.48679566 C229.63413323 36.48679566 83.77413323 36.48679566 -66.50586677 36.48679566 C-64.52586677 34.17679566 -62.54586677 31.86679566 -60.50586677 29.48679566 C-59.68798072 28.45505145 -58.87009468 27.42330723 -58.02742422 26.36029804 C-40.84729241 4.80580261 -27.13692587 -0.45286934 0 0 Z " fill="#B5BBCE" transform="translate(101.50586676597595,455.5132043361664)"/>
<path d="M0 0 C0 145.86 0 291.72 0 442 C-2.31 440.02 -4.62 438.04 -7 436 C-8.03174422 435.18211396 -9.06348843 434.36422792 -10.12649763 433.52155745 C-21.61421938 424.36520421 -33.49213054 414.73605834 -35.79039018 399.50301178 C-36.69106876 391.52700926 -36.62052135 383.50726995 -36.48679566 375.49413323 C-36.43958978 370.93785054 -36.54380096 366.38434931 -36.6267395 361.82891846 C-36.76440618 352.93939667 -36.76309835 344.05533917 -36.70816095 335.16512553 C-36.66556462 327.92770191 -36.67228782 320.69184884 -36.71284103 313.45442581 C-36.71855743 312.41810113 -36.72427383 311.38177646 -36.73016345 310.314048 C-36.74191212 308.20764487 -36.75373592 306.10124215 -36.76563399 303.99483986 C-36.87044308 284.30938629 -36.81227553 264.62698367 -36.70011978 244.94174083 C-36.60249289 227.0048731 -36.69347096 209.07494009 -36.8764127 191.13892202 C-37.06365617 172.64114162 -37.13108627 154.14653863 -37.06826055 135.64786017 C-37.06148943 133.5480636 -37.05489298 131.44826646 -37.04847336 129.34846878 C-37.04530647 128.31580757 -37.04213958 127.28314636 -37.03887672 126.21919238 C-37.02427954 119.00913295 -37.08588858 111.80212852 -37.17805862 104.59272385 C-38.03997807 32.52527797 -38.03997807 32.52527797 -21.31860924 14.81482887 C-5.76838765 0 -5.76838765 0 0 0 Z " fill="#B5BBCE" transform="translate(492,35)"/>
<path d="M0 0 C2.31 1.98 4.62 3.96 7 6 C8.03174422 6.81788604 9.06348843 7.63577208 10.12649763 8.47844255 C21.61421938 17.63479579 33.49213054 27.26394166 35.79039018 42.49698822 C36.69106876 50.47299074 36.62052135 58.49273005 36.48679566 66.50586677 C36.43958978 71.06214946 36.54380096 75.61565069 36.6267395 80.17108154 C36.76440618 89.06060333 36.76309835 97.94466083 36.70816095 106.83487447 C36.66556462 114.07229809 36.67228782 121.30815116 36.71284103 128.54557419 C36.71855743 129.58189887 36.72427383 130.61822354 36.73016345 131.685952 C36.74191212 133.79235513 36.75373592 135.89875785 36.76563399 138.00516014 C36.87044308 157.69061371 36.81227553 177.37301633 36.70011978 197.05825917 C36.60249289 214.9951269 36.69347096 232.92505991 36.8764127 250.86107798 C37.06365617 269.35885838 37.13108627 287.85346137 37.06826055 306.35213983 C37.06148943 308.4519364 37.05489298 310.55173354 37.04847336 312.65153122 C37.04372302 314.20052304 37.04372302 314.20052304 37.03887672 315.78080762 C37.02427954 322.99086705 37.08588858 330.19787148 37.17805862 337.40727615 C38.03997807 409.47472203 38.03997807 409.47472203 21.31860924 427.18517113 C5.76838765 442 5.76838765 442 0 442 C0 296.14 0 150.28 0 0 Z " fill="#B5BBCE" transform="translate(20,35)"/>
<path d="M0 0 C15.71234482 -0.7159566 29.54527371 5.41988474 41.359375 15.48046875 C50.83435707 24.37625912 58.45240581 36.38719598 59.33300781 49.65893555 C59.37887113 52.41206801 59.40712091 55.16448686 59.421875 57.91796875 C59.4425 58.86091797 59.463125 59.80386719 59.484375 60.77539062 C59.56655777 75.72238273 53.16678458 88.35312571 43.171875 99.23046875 C41.71390197 100.54601102 40.23457108 101.83828742 38.734375 103.10546875 C24.38553684 115.50661239 15.68013143 134.06014492 14.296875 152.79296875 C14.24402344 153.61732422 14.19117188 154.44167969 14.13671875 155.29101562 C13.67284977 160.76554483 12.67622313 163.95703659 9.171875 168.23046875 C5.97308071 170.57625123 3.06534611 170.70722031 -0.828125 170.23046875 C-3.52803162 168.43053101 -5.3700115 167.14669575 -6.828125 164.23046875 C-7.99923164 147.93096812 -4.94948946 132.95352431 2.171875 118.23046875 C2.81576172 116.88275391 2.81576172 116.88275391 3.47265625 115.5078125 C9.09139028 104.50775574 16.6459892 95.54831058 25.484375 87.04296875 C34.47459801 78.37779435 38.37811167 70.27195721 38.609375 57.73046875 C38.67882032 49.30471881 36.98567069 43.28996127 32.171875 36.23046875 C31.72714844 35.54597656 31.28242188 34.86148438 30.82421875 34.15625 C25.9005339 27.53870272 17.35586746 23.05478156 9.3203125 21.48046875 C-1.97532204 20.16606764 -11.28511475 21.69076239 -20.640625 28.41796875 C-27.20714866 33.90377653 -33.16919182 42.22978393 -34.12109375 50.8984375 C-34.25799607 52.81248688 -34.39471784 54.72654918 -34.53125 56.640625 C-35.06419118 61.28983554 -36.52601649 64.17470509 -40.140625 67.10546875 C-43.37829978 68.46077447 -45.34902275 68.73783783 -48.828125 68.23046875 C-51.52803162 66.43053101 -53.3700115 65.14669575 -54.828125 62.23046875 C-56.17033721 45.26107156 -51.7162321 32.14101938 -40.87109375 18.828125 C-30.04206261 7.07490938 -15.66950406 1.27693472 0 0 Z " fill="#FBFBFB" transform="translate(253.828125,130.76953125)"/>
<path d="M0 0 C1.3738144 0.73524511 2.72990478 1.5049473 4.0625 2.3125 C4.68640625 2.65152344 5.3103125 2.99054688 5.953125 3.33984375 C11.75044225 6.88124842 15.53178599 12.82240558 17.70703125 19.203125 C19.42486608 29.39687016 18.47938972 38.01900429 12.5546875 46.4609375 C7.79777675 52.41260723 1.65451343 56.86151674 -5.9375 58.3125 C-15.62283204 59.18233984 -23.46567839 57.16601255 -31.08203125 51.0546875 C-36.46193235 46.00324352 -40.53914235 40.36555752 -41.2734375 32.89453125 C-41.37014229 23.56251888 -40.18516198 16.60498619 -35.25 8.5625 C-25.7269291 -0.7031906 -12.89706596 -5.48291789 0 0 Z " fill="#020303" transform="translate(267.9375,342.6875)"/>
<path d="M0 0 C3.4375 1.9375 3.4375 1.9375 6 5 C6.8022085 8.16872357 6.78700567 10.82899905 6 14 C3.81840855 16.75569447 2.12822506 18.43588747 -1 20 C-4.87214182 20.43023798 -6.52496371 20.31669086 -9.8125 18.125 C-12.70901877 15.31123891 -13.21915969 13.62424188 -13.4375 9.6875 C-13.38665152 5.7467431 -13.127243 5.1520709 -10.4375 1.9375 C-6.41915413 -0.32738586 -4.53425456 -0.80968831 0 0 Z " fill="#F9F9F9" transform="translate(260,361)"/>
</svg>
