<?xml version="1.0" encoding="UTF-8"?>
<svg version="1.1" xmlns="http://www.w3.org/2000/svg" width="512" height="512">
<path d="M0 0 C5.27992721 3.09252879 8.16335377 7.37179269 10.078125 13.10546875 C11.77136718 20.82064481 8.81118706 27.58375266 6.00708008 34.65649414 C-8.8277274 72.97422295 -6.16038448 116.57196743 9.68798828 154.0715332 C16.57680944 169.64409819 25.43622939 185.18622939 37.5625 197.3125 C42.10584103 196.89904187 46.33049741 195.01423118 50.56640625 193.40625 C51.32670639 193.12148804 52.08700653 192.83672607 52.87034607 192.54333496 C55.28993095 191.63664861 57.7075866 190.7249586 60.125 189.8125 C62.54619031 188.90061376 64.96778732 187.98985777 67.3903656 187.08166504 C68.89485689 186.51746459 70.3985266 185.95106717 71.90126038 185.38220215 C82.32450683 181.46801021 94.57454471 180.36714717 105.26171875 184.2109375 C115.58290326 189.15248934 124.67439785 197.34397197 128.5625 208.3125 C128.81418077 209.88981886 129.01483603 211.47612028 129.1640625 213.06640625 C129.24221191 213.86506104 129.32036133 214.66371582 129.40087891 215.48657227 C129.45421387 216.08912842 129.50754883 216.69168457 129.5625 217.3125 C130.53372803 217.29155273 131.50495605 217.27060547 132.50561523 217.24902344 C136.19767807 217.17521845 139.88967998 217.13020471 143.58227539 217.09277344 C145.16376801 217.07297084 146.7451907 217.04592109 148.32641602 217.01074219 C162.65169455 216.70061199 177.04610196 217.99864918 189.875 225 C190.52106201 225.33668701 191.16712402 225.67337402 191.83276367 226.02026367 C199.41989325 230.10434563 206.51460931 235.15982723 212.5625 241.3125 C219.83663187 239.41490038 226.25697957 236.73187914 232.875 233.1875 C233.78854248 232.70539063 234.70208496 232.22328125 235.64331055 231.7265625 C240.95063362 228.8752305 245.98993416 225.83625097 250.875 222.3125 C257.86881382 217.29637132 263.28889117 214.41489135 272.1015625 215.67578125 C277.72516654 217.13077722 281.45856302 219.89719618 285 224.4375 C288.3620448 230.62366242 288.73222497 236.60882696 287.03222656 243.44482422 C277.7128054 274.95302505 259.74673978 304.12826022 236.5625 327.3125 C236.45164993 330.22112179 236.40085256 333.10999993 236.38671875 336.01953125 C236.36351736 337.82097519 236.33939989 339.62240751 236.31445312 341.42382812 C236.27933755 344.27457396 236.2500005 347.12489433 236.23657227 349.97583008 C236.22110291 352.72009337 236.18089491 355.46309962 236.13671875 358.20703125 C236.13862717 359.05820023 236.14053558 359.9093692 236.14250183 360.78633118 C236.06257003 364.65085671 236.01775521 366.67973675 233.71411133 369.8815918 C231.5625 371.3125 231.5625 371.3125 228.5625 371.3125 C228.57990234 372.22128906 228.57990234 372.22128906 228.59765625 373.1484375 C228.65610543 378.57586117 228.35288992 383.72361709 227.48828125 389.0859375 C227.58520945 391.99378353 228.7737906 393.08573932 230.5625 395.3125 C230.93890081 401.58584686 227.90242142 405.22775259 223.93359375 409.8828125 C216.67365065 417.32216112 206.12405075 423.85108124 195.45605469 424.42602539 C194.72290039 424.42078857 193.98974609 424.41555176 193.234375 424.41015625 C192.43515625 424.40693359 191.6359375 424.40371094 190.8125 424.40039062 C189.9875 424.39201172 189.1625 424.38363281 188.3125 424.375 C187.47203125 424.37048828 186.6315625 424.36597656 185.765625 424.36132812 C183.69788599 424.34957961 181.63018376 424.33164522 179.5625 424.3125 C179.60890625 425.30507813 179.6553125 426.29765625 179.703125 427.3203125 C180.24334067 443.8924038 175.88131244 459.11547397 164.40625 471.59765625 C150.62167418 484.41847995 136.85816092 489.61064856 118.3359375 489.6484375 C117.18888336 489.6550943 116.04182922 489.6617511 114.86001587 489.66860962 C112.4480346 489.67868648 110.03602573 489.68342819 107.62402344 489.68310547 C103.9415926 489.68749512 100.26034561 489.72391462 96.578125 489.76171875 C94.22656657 489.76758468 91.87500249 489.77155557 89.5234375 489.7734375 C88.42848969 489.78780853 87.33354187 489.80217957 86.20541382 489.81698608 C78.73830163 489.77244309 74.23824368 488.71237651 68.63671875 483.53125 C68.17910156 482.9640625 67.72148437 482.396875 67.25 481.8125 C66.77949219 481.2453125 66.30898437 480.678125 65.82421875 480.09375 C62.54904259 475.46997189 62.28389408 471.65123787 62.33544922 466.05566406 C62.33515717 465.22602646 62.33486511 464.39638885 62.33456421 463.54161072 C62.3359558 460.80367518 62.35150896 458.06601291 62.3671875 455.328125 C62.37091824 453.42812244 62.37376492 451.52811796 62.37576294 449.62811279 C62.38339461 444.63037798 62.40303915 439.63275964 62.4251709 434.6350708 C62.44563933 429.53407364 62.45476679 424.43305765 62.46484375 419.33203125 C62.48628543 409.32546969 62.52041581 399.31899454 62.5625 389.3125 C61.26267685 389.11130051 59.9628537 388.91010101 58.62364197 388.70280457 C56.89873859 388.43371568 55.17385026 388.16453028 53.44897461 387.89526367 C52.59457542 387.76327324 51.74017624 387.63128281 50.85988617 387.49529266 C44.52898363 386.50415276 38.31801268 385.28458823 32.125 383.625 C31.16529297 383.3686377 30.20558594 383.11227539 29.21679688 382.84814453 C-12.94805253 371.16734166 -51.73519059 344.97946377 -78.4375 310.3125 C-79.06108398 309.51948486 -79.06108398 309.51948486 -79.69726562 308.71044922 C-92.89184985 291.86536336 -102.72494324 273.22862741 -110.4375 253.3125 C-110.69611816 252.64589355 -110.95473633 251.97928711 -111.22119141 251.29248047 C-114.2196873 243.38168777 -116.26886865 235.28845936 -118.1875 227.0625 C-118.50412598 225.71393921 -118.50412598 225.71393921 -118.82714844 224.33813477 C-122.46676866 208.02110174 -122.46676866 208.02110174 -120.25 202.1875 C-118.29039903 200.16032659 -117.21347276 199.5996696 -114.4375 199.3125 C-114.60121094 198.63832031 -114.76492187 197.96414062 -114.93359375 197.26953125 C-115.5250358 193.79882094 -115.53289046 190.51927876 -115.5 187 C-115.49097656 185.74574219 -115.48195313 184.49148437 -115.47265625 183.19921875 C-115.46105469 182.24660156 -115.44945312 181.29398438 -115.4375 180.3125 C-116.3346875 180.1578125 -116.3346875 180.1578125 -117.25 180 C-119.88444118 179.17203277 -120.86520811 178.59160201 -122.4375 176.3125 C-128.37037249 136.43932093 -105.97541876 88.47486351 -83.1015625 57.109375 C-77.78023345 49.96474254 -72.05280635 43.27585664 -65.89697266 36.83935547 C-64.91241573 35.80934225 -63.9330186 34.77437541 -62.95849609 33.73486328 C-49.67241613 19.5977177 -21.27717604 -9.91868357 0 0 Z " fill="#010101" transform="translate(173.4375,22.6875)"/>
<path d="M0 0 C1.66562234 5.83903563 0.00486475 9.59976572 -2.125 15 C-4.92768212 22.51155371 -7.13992564 29.9841828 -8.875 37.8125 C-9.07754395 38.72451172 -9.28008789 39.63652344 -9.48876953 40.57617188 C-11.08909538 48.015823 -12.15505173 55.27280952 -12.23828125 62.8984375 C-12.24802979 63.64238266 -12.25777832 64.38632782 -12.26782227 65.15281677 C-12.51020193 88.48685807 -11.2564526 110.92100649 -3 133 C-2.72172363 133.76586426 -2.44344727 134.53172852 -2.15673828 135.32080078 C5.79838047 157.03496212 16.81344991 176.67411528 32.71484375 193.55859375 C34.65306354 195.62934139 36.45397331 197.74535715 38.25 199.9375 C41.4810243 203.68272532 45.15939463 206.76763297 48.9375 209.9375 C57.71204414 217.33965096 64.42754514 223.81841811 68 235 C68.33 235.99 68.66 236.98 69 238 C69.08985474 239.64950468 69.12196638 241.30244214 69.12025452 242.95439148 C69.12231651 244.48774643 69.12231651 244.48774643 69.12442017 246.05207825 C69.12082489 247.17273178 69.11722961 248.29338531 69.11352539 249.44799805 C69.11367142 250.62861816 69.11381744 251.80923828 69.1139679 253.02563477 C69.11339024 256.26297442 69.10837183 259.50027095 69.10139394 262.737602 C69.09514648 266.12086789 69.0945555 269.50413462 69.09336853 272.8874054 C69.09025933 279.29406216 69.08205147 285.70070187 69.07201904 292.10735112 C69.06084516 299.40111269 69.05534423 306.69487506 69.05032361 313.98864305 C69.03986853 328.9924382 69.02227702 343.9962174 69 359 C67.39804758 358.8459317 65.79626224 358.69012552 64.19454956 358.53358459 C62.85653195 358.40371706 62.85653195 358.40371706 61.49148369 358.27122593 C16.88583096 353.4154006 -27.09564317 325.69667036 -55.5 291.75 C-77.6510931 263.9540765 -96.39175198 229.845153 -99.5 193.8125 C-100.01328519 189.89870039 -100.10985703 189.30383712 -103 187 C-105.60611077 186.27802838 -105.60611077 186.27802838 -108 186 C-108.88277755 181.48184719 -109.10589503 177.22487306 -109.0625 172.625 C-109.05347656 171.37976563 -109.04445312 170.13453125 -109.03515625 168.8515625 C-109.02355469 167.91054687 -109.01195312 166.96953125 -109 166 C-108.030625 165.54625 -107.06125 165.0925 -106.0625 164.625 C-102.92920418 163.34213779 -102.92920418 163.34213779 -102 161 C-101.75551214 159.18202275 -101.55913358 157.35747253 -101.38671875 155.53125 C-100.05537643 142.12714117 -98.65180168 128.99022556 -95 116 C-94.77892578 115.21061035 -94.55785156 114.4212207 -94.33007812 113.60791016 C-86.7460429 87.35666627 -73.89144637 62.70295937 -56 42 C-55.30648437 41.19691406 -54.61296875 40.39382812 -53.8984375 39.56640625 C-15.68191888 -3.71413868 -15.68191888 -3.71413868 0 0 Z " fill="#EDBF6A" transform="translate(167,37)"/>
<path d="M0 0 C5.35188202 3.78636551 9.24698914 8.37563909 11.296875 14.625 C11.49576433 17.18487509 11.59768661 19.63850773 11.59985352 22.19750977 C11.60829285 22.94283966 11.61673218 23.68816956 11.62542725 24.45608521 C11.6511301 26.90953235 11.66332809 29.36285929 11.67578125 31.81640625 C11.69196368 33.52604617 11.70914446 35.23567692 11.72727966 36.94529724 C11.77290864 41.43996939 11.80774257 45.93465397 11.83947754 50.42944336 C11.89140377 57.62711933 11.9565729 64.82465993 12.02769279 72.02216911 C12.05049472 74.53483256 12.06678511 77.04747892 12.08241272 79.56019592 C12.09582171 81.10076078 12.10943671 82.64132385 12.12329102 84.18188477 C12.12590439 84.8796553 12.12851776 85.57742584 12.13121033 86.29634094 C12.16592305 89.5477829 12.30532409 92.51381841 13.296875 95.625 C14.534375 95.851875 15.771875 96.07875 17.046875 96.3125 C17.74296875 96.44011719 18.4390625 96.56773437 19.15625 96.69921875 C22.13844744 96.59582139 23.18369925 95.70707368 25.296875 93.625 C25.91595191 90.82798497 25.91595191 90.82798497 25.84277344 87.59301758 C25.86249207 86.35195755 25.88221069 85.11089752 25.90252686 83.83222961 C25.90419001 82.47799728 25.90542088 81.12376435 25.90625 79.76953125 C25.92122989 78.38374393 25.93795665 76.99797448 25.95635986 75.61222839 C26.00006823 71.96753119 26.02003977 68.3230748 26.03509521 64.67816162 C26.05465408 60.95782205 26.0966253 57.23774304 26.13671875 53.51757812 C26.21205831 46.22012207 26.26232661 38.92277524 26.296875 31.625 C30.34957018 31.57482377 34.40214019 31.53892157 38.45507812 31.51513672 C39.82815712 31.50520081 41.20121567 31.49164739 42.57421875 31.47412109 C54.25661082 31.32894517 65.54201153 31.75208752 76.296875 36.6875 C76.96912109 36.99059082 77.64136719 37.29368164 78.33398438 37.60595703 C95.05433907 45.47786191 106.78101888 58.97047434 113.65234375 75.98046875 C116.21572746 83.43001348 117.44257952 90.34937142 117.45458984 98.23510742 C117.45967056 98.97243607 117.46475128 99.70976471 117.46998596 100.46943665 C117.48063536 102.06047084 117.48927653 103.65151951 117.49610519 105.24257469 C117.50795207 107.76012744 117.52741525 110.27751309 117.54922485 112.79499817 C117.61067706 119.94913209 117.66500509 127.10324299 117.69824219 134.25756836 C117.71915146 138.64126611 117.75441105 143.02464882 117.79899979 147.40816689 C117.81317551 149.07751075 117.82188577 150.74691022 117.82505417 152.41631126 C117.82994694 154.74557073 117.85305674 157.07398723 117.88037109 159.40307617 C117.87736496 160.0935202 117.87435883 160.78396423 117.8712616 161.49533081 C117.92100939 164.342743 117.98223489 166.19280095 119.68618774 168.53340149 C121.53163936 169.78410502 123.11027778 170.24800048 125.296875 170.625 C125.54678956 177.27550424 125.03642834 183.19486533 123.296875 189.625 C122.141875 189.58375 120.986875 189.5425 119.796875 189.5 C116.64914464 189.86999638 115.53969194 190.36718839 113.3359375 192.70703125 C112.0313407 194.48288036 110.73071731 196.26165369 109.43359375 198.04296875 C104.70841201 203.75292328 97.55805726 207.41480296 90.296875 208.625 C87.8857635 208.66792067 85.47395329 208.67798544 83.0625 208.6640625 C81.79696289 208.65842285 80.53142578 208.6527832 79.22753906 208.64697266 C78.26041992 208.63972168 77.29330078 208.6324707 76.296875 208.625 C76.2814138 207.39471321 76.2814138 207.39471321 76.26564026 206.13957214 C76.16771011 198.41445856 76.06520204 190.68942579 75.95753574 182.96444225 C75.90234385 178.99284315 75.84892982 175.02123663 75.79956055 171.04956055 C75.75186192 167.21752318 75.69951711 163.38557501 75.64393425 159.55364418 C75.62353562 158.09082571 75.60481842 156.6279828 75.58780098 155.16512108 C75.56370173 153.11804745 75.53365492 151.07114184 75.50219727 149.02416992 C75.48665298 147.85834885 75.4711087 146.69252777 75.45509338 145.49137878 C75.41912871 142.55265899 75.41912871 142.55265899 74.296875 139.625 C72.440625 139.25375 72.440625 139.25375 70.546875 138.875 C69.85078125 138.73578125 69.1546875 138.5965625 68.4375 138.453125 C66.16529584 138.45471703 66.16529584 138.45471703 64.19522095 140.08746338 C61.49682521 143.69443397 61.74025253 147.06771795 61.78271484 151.39746094 C61.77202721 152.72505432 61.77202721 152.72505432 61.76112366 154.07946777 C61.7418209 157.0063297 61.7501284 159.93247037 61.7578125 162.859375 C61.74790588 164.8971665 61.73596477 166.93494903 61.72207642 168.97271729 C61.68967248 174.34220167 61.67931973 179.71148215 61.67523193 185.08105469 C61.66648778 193.66113569 61.63084971 202.24104858 61.5830574 210.82099152 C61.57051045 213.81218273 61.57122758 216.80316046 61.57333374 219.79437256 C61.56674872 221.64123699 61.55974154 223.48809998 61.55224609 225.33496094 C61.55637009 226.1601825 61.56049408 226.98540405 61.56474304 227.83563232 C61.47567062 240.7313863 56.46833758 252.1473064 47.796875 261.625 C37.82261403 271.32065033 25.34910099 273.91646163 11.93359375 273.99609375 C10.979189 274.00512222 10.02478424 274.0141507 9.04145813 274.02345276 C7.04060973 274.03786327 5.0397152 274.04681887 3.03881836 274.05053711 C-0.02504068 274.06253688 -3.08694922 274.11189705 -6.15039062 274.16210938 C-8.10155274 274.1715637 -10.05272711 274.17880346 -12.00390625 274.18359375 C-12.91747391 274.20312607 -13.83104156 274.22265839 -14.77229309 274.24278259 C-15.62385483 274.23670486 -16.47541656 274.23062714 -17.3527832 274.22436523 C-18.09841019 274.22943588 -18.84403717 274.23450653 -19.61225891 274.23973083 C-22.92750055 273.2650241 -23.87980487 271.51927715 -25.703125 268.625 C-26.27733433 265.66478294 -26.23305214 262.76023619 -26.19519043 259.75242615 C-26.19986942 258.85823929 -26.20454841 257.96405244 -26.20936918 257.04276901 C-26.22030402 254.04571643 -26.20280753 251.04950315 -26.18554688 248.05249023 C-26.18773271 245.90376029 -26.1917294 243.75503154 -26.19740295 241.60630798 C-26.20597315 236.97746755 -26.20217622 232.34885888 -26.1889801 227.72002983 C-26.16865221 220.3945799 -26.17861831 213.06936381 -26.1932373 205.74391174 C-26.2222871 188.86229382 -26.21155499 171.98074423 -26.20053864 155.09911346 C-26.19085722 139.64534816 -26.18963456 124.19170493 -26.22041941 108.7379604 C-26.23376754 101.46294785 -26.22786761 94.18828613 -26.20705414 86.91329467 C-26.19804007 82.37519568 -26.20556813 77.83723055 -26.21746635 73.29914284 C-26.21958931 71.20301226 -26.21492205 69.10686145 -26.2027607 67.01076508 C-26.13030914 53.77068916 -26.49187863 42.06158839 -34.203125 30.6875 C-34.7703125 29.83285156 -35.3375 28.97820312 -35.921875 28.09765625 C-40.16702399 22.20471916 -44.71320606 18.07133739 -50.4375 13.61328125 C-51.18515625 12.95714844 -51.9328125 12.30101562 -52.703125 11.625 C-52.703125 10.965 -52.703125 10.305 -52.703125 9.625 C-46.90623934 7.27204323 -41.09933145 4.94580655 -35.28076172 2.64697266 C-33.70462385 2.02207086 -32.13025866 1.39264406 -30.55908203 0.75537109 C-19.70900687 -3.63612834 -10.66771444 -5.97935587 0 0 Z " fill="#DCEAFC" transform="translate(276.703125,223.375)"/>
<path d="M0 0 C2.58122165 1.29061083 2.64413772 2.20701608 3.62890625 4.875 C3.93683105 5.68686768 4.24475586 6.49873535 4.56201172 7.33520508 C4.89217285 8.2145874 5.22233398 9.09396973 5.5625 10 C17.8425976 41.57457341 38.89699876 71.42035722 66 92 C67.00289063 92.80695313 68.00578125 93.61390625 69.0390625 94.4453125 C98.06566816 117.69514633 132.07117409 128.57240618 168 136 C168 145.24 168 154.48 168 164 C120.00419219 159.20041922 74.3900614 133.66739046 43.5 96.75 C22.79943294 70.77424449 0 34.37576967 0 0 Z " fill="#E7A32C" transform="translate(68,232)"/>
<path d="M0 0 C17.18273087 3.15016733 32.54264184 11.83899416 43 26 C51.07095875 38.26497482 56.13510831 50.76711753 56.15771484 65.61010742 C56.16279556 66.34743607 56.16787628 67.08476471 56.17311096 67.84443665 C56.18376036 69.43547084 56.19240153 71.02651951 56.19923019 72.61757469 C56.21107707 75.13512744 56.23054025 77.65251309 56.25234985 80.16999817 C56.31380206 87.32413209 56.36813009 94.47824299 56.40136719 101.63256836 C56.42227646 106.01626611 56.45753605 110.39964882 56.50212479 114.78316689 C56.51630051 116.45251075 56.52501077 118.12191022 56.52817917 119.79131126 C56.53307194 122.12057073 56.55618174 124.44898723 56.58349609 126.77807617 C56.58048996 127.4685202 56.57748383 128.15896423 56.5743866 128.87033081 C56.62413439 131.717743 56.68535989 133.56780095 58.38931274 135.90840149 C60.23476436 137.15910502 61.81340278 137.62300048 64 138 C64.24991456 144.65050424 63.73955334 150.56986533 62 157 C60.845 156.95875 59.69 156.9175 58.5 156.875 C55.35226964 157.24499638 54.24281694 157.74218839 52.0390625 160.08203125 C50.7344657 161.85788036 49.43384231 163.63665369 48.13671875 165.41796875 C43.41153701 171.12792328 36.26118226 174.78980296 29 176 C24.32786607 176.14423346 19.67241563 176.11664838 15 176 C15 175.67 15 175.34 15 175 C15.6290625 174.98324219 16.258125 174.96648437 16.90625 174.94921875 C21.23414863 174.51251814 24.07417194 173.86776765 27.3046875 170.83984375 C37.15699517 157.92030822 37.60574628 144.87267539 37.53125 129.30078125 C37.5339515 127.29599317 37.53783936 125.29120638 37.54284668 123.28642273 C37.54871756 119.0981287 37.54026144 114.9101777 37.52148438 110.72192383 C37.49877069 105.40114191 37.51178544 100.08117071 37.53577423 94.76041889 C37.55036121 90.62235116 37.54556649 86.48446943 37.53526306 82.34639549 C37.53262736 80.38714689 37.5357519 78.42788041 37.54518127 76.46865273 C37.60172964 61.41257931 36.65483925 46.15801304 29.3125 32.625 C28.9714624 31.97273438 28.6304248 31.32046875 28.27905273 30.6484375 C21.78989083 18.68022602 12.18882408 8.22408038 0 2 C0 1.34 0 0.68 0 0 Z " fill="#BBD5F9" transform="translate(338,256)"/>
<path d="M0 0 C0.77916779 -0.00619858 1.55833557 -0.01239716 2.3611145 -0.01878357 C4.0068436 -0.02587554 5.65264453 -0.02271846 7.29833984 -0.01000977 C9.80571997 0.00382573 12.30934307 -0.0301795 14.81640625 -0.06835938 C16.41927174 -0.06931097 18.02214187 -0.06744958 19.625 -0.0625 C20.74091019 -0.08238731 20.74091019 -0.08238731 21.87936401 -0.10267639 C25.7614285 -0.03389563 28.36675406 0.50648478 31.38720703 2.87915039 C34.00640103 5.63057894 35.1011531 7.45551902 35.30908203 11.28881836 C33.92975141 19.92490919 26.4832729 28.64379672 21.8203125 35.87890625 C20.90958984 37.30299805 20.90958984 37.30299805 19.98046875 38.75585938 C17.01226449 43.38923269 14.01874345 48.00213193 10.9453125 52.56640625 C11.59081055 52.57051514 12.23630859 52.57462402 12.90136719 52.57885742 C15.83360578 52.61180688 18.76377007 52.6824499 21.6953125 52.75390625 C22.71109375 52.75970703 23.726875 52.76550781 24.7734375 52.77148438 C32.27823854 52.99366598 32.27823854 52.99366598 35.65234375 55.890625 C37.42188038 59.552657 37.02096803 61.69404634 35.9453125 65.56640625 C34.36645284 67.62578841 33.25388827 68.41211836 30.9453125 69.56640625 C28.52298957 69.68926287 26.13049194 69.75472956 23.70703125 69.76953125 C22.63035942 69.77808136 22.63035942 69.77808136 21.53193665 69.7868042 C20.01129633 69.79625577 18.49063551 69.80278881 16.9699707 69.80664062 C14.65213861 69.8163255 12.33520125 69.84733705 10.01757812 69.87890625 C8.53906776 69.88543862 7.06055105 69.89068817 5.58203125 69.89453125 C4.89227707 69.90687805 4.20252289 69.91922485 3.49186707 69.9319458 C-1.88231935 69.90727895 -4.98444003 68.49387803 -8.8671875 64.87890625 C-10.62942239 61.44718568 -10.65629247 58.29843017 -10.0546875 54.56640625 C-8.62880929 51.19452045 -6.72388302 48.19987011 -4.7421875 45.12890625 C-4.2069043 44.26942383 -3.67162109 43.40994141 -3.12011719 42.52441406 C-1.45158331 39.85848295 0.24311777 37.21094851 1.9453125 34.56640625 C2.48913574 33.71481934 3.03295898 32.86323242 3.59326172 31.98583984 C6.67796053 27.15757465 9.79582233 22.35263934 12.9453125 17.56640625 C12.07579956 17.5523877 12.07579956 17.5523877 11.1887207 17.53808594 C8.54424304 17.48416555 5.90149357 17.40056496 3.2578125 17.31640625 C2.34580078 17.30222656 1.43378906 17.28804687 0.49414062 17.2734375 C-3.75144909 17.11905242 -6.43239344 16.92602342 -10.1640625 14.76953125 C-12.16207611 12.44126746 -12.71728204 11.58101815 -12.6171875 8.56640625 C-12.61847656 7.90640625 -12.61976563 7.24640625 -12.62109375 6.56640625 C-10.81782816 0.19901326 -5.74341552 -0.03808426 0 0 Z " fill="#000000" transform="translate(310.0546875,113.43359375)"/>
<path d="M0 0 C1.14113754 -0.00642769 1.14113754 -0.00642769 2.30532837 -0.01298523 C3.91415411 -0.01872522 5.52300581 -0.01923121 7.13183594 -0.01489258 C9.58574083 -0.01173908 12.03843223 -0.03517169 14.4921875 -0.06054688 C16.05729015 -0.06282066 17.62239603 -0.063523 19.1875 -0.0625 C20.28304703 -0.07631462 20.28304703 -0.07631462 21.40072632 -0.09040833 C25.85682509 -0.05022085 28.69931574 0.5342416 32.2265625 3.30078125 C34.95629461 7.39537942 34.99385858 10.49125996 34.2265625 15.30078125 C32.82626003 18.71817756 30.92721309 21.71296893 28.9140625 24.80078125 C28.3787793 25.65575195 27.84349609 26.51072266 27.29199219 27.39160156 C25.62454786 30.04208413 23.92870034 32.67247298 22.2265625 35.30078125 C21.14398058 36.99313745 20.06193264 38.68583538 18.98046875 40.37890625 C16.420978 44.36967238 13.83267046 48.34031797 11.2265625 52.30078125 C12.14937012 52.3147998 12.14937012 52.3147998 13.09082031 52.32910156 C15.88687336 52.3828921 18.6812687 52.46651944 21.4765625 52.55078125 C22.44464844 52.56496094 23.41273438 52.57914063 24.41015625 52.59375 C31.59294519 52.84143238 31.59294519 52.84143238 34.83984375 55.1953125 C36.50160463 57.71838043 37.15256975 59.26707867 37.2265625 62.30078125 C35.60500621 65.78712726 34.46202958 67.14380319 31.2265625 69.30078125 C28.68320499 69.52027472 26.25188349 69.62873464 23.70703125 69.63671875 C22.60274529 69.64670395 22.60274529 69.64670395 21.47615051 69.65689087 C19.91861465 69.66701056 18.3610355 69.6717081 16.8034668 69.67138672 C14.43269327 69.67574698 12.06380192 69.71203347 9.69335938 69.75 C8.17708967 69.75587115 6.66081116 69.75983855 5.14453125 69.76171875 C4.44120163 69.77608978 3.73787201 69.79046082 3.01322937 69.80526733 C-2.03017634 69.75898818 -4.8919657 68.46958575 -8.7734375 65.30078125 C-10.54152759 61.76460107 -10.32667532 58.15926038 -9.7734375 54.30078125 C-8.38008949 50.88068023 -6.47391391 47.88832643 -4.4609375 44.80078125 C-3.9256543 43.94581055 -3.39037109 43.09083984 -2.83886719 42.20996094 C-1.17142286 39.55947837 0.52442466 36.92908952 2.2265625 34.30078125 C3.30914442 32.60842505 4.39119236 30.91572712 5.47265625 29.22265625 C8.032147 25.23189012 10.62045454 21.26124453 13.2265625 17.30078125 C12.30375488 17.2867627 12.30375488 17.2867627 11.36230469 17.27246094 C8.56625164 17.2186704 5.7718563 17.13504306 2.9765625 17.05078125 C2.00847656 17.03660156 1.04039062 17.02242187 0.04296875 17.0078125 C-7.1388257 16.76016442 -7.1388257 16.76016442 -10.390625 14.40625 C-12.03299313 11.90558215 -12.62736244 10.29531998 -12.7734375 7.30078125 C-10.79528438 0.21239924 -6.60950048 -0.0082024 0 0 Z " fill="#000000" transform="translate(398.7734375,49.69921875)"/>
<path d="M0 0 C0.80515045 -0.00524185 1.6103009 -0.0104837 2.43984985 -0.0158844 C4.14283089 -0.0223058 5.84585627 -0.02096603 7.54882812 -0.01245117 C10.14794521 -0.00395891 12.74485112 -0.03266909 15.34375 -0.06445312 C16.99999934 -0.06606576 18.65625256 -0.06548641 20.3125 -0.0625 C21.08661224 -0.07373398 21.86072449 -0.08496796 22.65829468 -0.09654236 C26.40969207 -0.04838123 28.56973185 0.29270891 31.75634766 2.33959961 C34.46157814 5.1263834 34.74416181 6.03126578 35.18359375 9.96875 C35.1001325 15.50086051 32.40283616 19.33635035 29.4765625 23.87109375 C28.9412793 24.73057617 28.40599609 25.59005859 27.85449219 26.47558594 C26.18595831 29.14151705 24.49125723 31.78905149 22.7890625 34.43359375 C22.24523926 35.28518066 21.70141602 36.13676758 21.14111328 37.01416016 C18.05641447 41.84242535 14.93855267 46.64736066 11.7890625 51.43359375 C13.75939453 51.48966797 13.75939453 51.48966797 15.76953125 51.546875 C17.50523614 51.61255032 19.24091197 51.67899712 20.9765625 51.74609375 C21.84087891 51.76865234 22.70519531 51.79121094 23.59570312 51.81445312 C28.41250353 52.01746004 31.89926957 52.27654738 35.7890625 55.43359375 C37.33493126 58.52533127 37.08265771 61.02788927 36.7890625 64.43359375 C35.28881836 66.62475586 35.28881836 66.62475586 32.7890625 68.43359375 C29.89041491 68.84361155 27.37835068 69.01859395 24.48046875 69 C23.67673325 69.00619858 22.87299774 69.01239716 22.04490662 69.01878357 C20.34790252 69.02587574 18.65082876 69.02271815 16.95385742 69.01000977 C14.36311132 68.99615551 11.77598726 69.03020312 9.18554688 69.06835938 C7.53385329 69.06931076 5.88215519 69.06745071 4.23046875 69.0625 C3.45949356 69.07575821 2.68851837 69.08901642 1.8941803 69.10267639 C-2.16951225 69.03266656 -3.98431594 68.61811912 -7.17602539 66.01928711 C-9.90820062 62.5476053 -10.2156485 62.03012468 -10.1796875 57.4765625 C-9.39749943 51.28217755 -6.15522668 46.81771831 -2.7109375 41.74609375 C-2.08106934 40.78944824 -1.45120117 39.83280273 -0.80224609 38.84716797 C0.46023144 36.9307174 1.72916451 35.01850206 3.00488281 33.11083984 C5.43969195 29.45729345 7.80334478 25.76022664 10.1640625 22.05859375 C11.37184411 20.18323831 12.57992568 18.3080757 13.7890625 16.43359375 C13.14356445 16.42948486 12.49806641 16.42537598 11.83300781 16.42114258 C8.90076922 16.38819312 5.97060493 16.3175501 3.0390625 16.24609375 C2.02328125 16.24029297 1.0075 16.23449219 -0.0390625 16.22851562 C-7.54386354 16.00633402 -7.54386354 16.00633402 -10.91796875 13.109375 C-12.68750538 9.447343 -12.28659303 7.30595366 -11.2109375 3.43359375 C-8.63908137 -0.70888447 -4.3727466 -0.01649634 0 0 Z " fill="#000000" transform="translate(267.2109375,-0.43359375)"/>
<path d="M0 0 C1.20849609 0.42539063 1.20849609 0.42539063 2.44140625 0.859375 C3.50321673 4.77775306 3.35777468 7.06623697 1.95703125 10.859375 C1.42855591 12.2978479 1.42855591 12.2978479 0.8894043 13.76538086 C0.49406494 14.78639893 0.09872559 15.80741699 -0.30859375 16.859375 C-0.7161792 17.9222876 -1.12376465 18.9852002 -1.54370117 20.08032227 C-8.95349135 38.9050811 -18.65802639 58.77156586 -33.55859375 72.859375 C-33.64496094 71.60125 -33.73132813 70.343125 -33.8203125 69.046875 C-35.11598613 52.47169341 -39.13370799 38.76017667 -46.55859375 23.859375 C-45.67059082 23.46165894 -45.67059082 23.46165894 -44.76464844 23.0559082 C-32.5200645 17.51989352 -20.96737433 11.70261972 -10.03222656 3.8371582 C-4.28566686 -0.16935676 -4.28566686 -0.16935676 0 0 Z " fill="#E6A22C" transform="translate(442.55859375,254.140625)"/>
<path d="M0 0 C0.33 0 0.66 0 1 0 C1.04640817 11.59635977 1.08191231 23.19269732 1.10362434 34.78913116 C1.11404676 40.17423287 1.12817782 45.55927088 1.15087891 50.94433594 C1.17266223 56.14443078 1.18458023 61.34446448 1.18975449 66.54460144 C1.19344039 68.52525291 1.20063799 70.50590116 1.21146011 72.48652649 C1.22604795 75.26778306 1.22797489 78.04878925 1.22705078 80.83007812 C1.23424133 81.64288239 1.24143188 82.45568665 1.24884033 83.29312134 C1.20284245 96.14674918 -3.86674104 107.564062 -12.5 117 C-19.13070621 123.44549095 -28.63616336 128.3770028 -38 129 C-40.25 128.53515625 -40.25 128.53515625 -42 128 C-36.38297872 124.17021277 -36.38297872 124.17021277 -33.75 123 C-31.46239532 121.69279732 -31.16516848 120.35099597 -30 118 C-28.89092732 116.46751287 -27.7643985 114.94757618 -26.625 113.4375 C-20.98964429 105.37694963 -18.97134378 97.90558833 -18.125 88.25 C-17.60712975 82.4798053 -16.93833027 78.26535919 -12.6328125 74.12890625 C-7.8984827 70.85564952 -6.47282683 71 0 71 C0 47.57 0 24.14 0 0 Z " fill="#BBD5F6" transform="translate(337,368)"/>
<path d="M0 0 C0.99 0.33 1.98 0.66 3 1 C-10.02552232 26.44801121 -10.02552232 26.44801121 -18 34 C-19.1257469 31.91706723 -20.25062083 29.83367092 -21.375 27.75 C-22.00148438 26.58984375 -22.62796875 25.4296875 -23.2734375 24.234375 C-24.55317005 21.83704795 -25.79250303 19.43349964 -27 17 C-26.50185791 16.69819824 -26.00371582 16.39639648 -25.49047852 16.08544922 C-23.1799164 14.68399138 -20.87107532 13.27972817 -18.5625 11.875 C-17.73806396 11.37452148 -16.91362793 10.87404297 -16.06420898 10.35839844 C-11.12611347 7.3464481 -6.29183161 4.25702365 -1.62890625 0.828125 C-1.09136719 0.55484375 -0.55382812 0.2815625 0 0 Z " fill="#EBBD68" transform="translate(439,254)"/>
<path d="M0 0 C0.64625456 3.06241127 1.29192853 6.12494467 1.9375 9.1875 C2.11990234 10.05181641 2.30230469 10.91613281 2.49023438 11.80664062 C3.34595855 15.86744081 4.19907784 19.92794314 5 24 C4.01 23.34 3.02 22.68 2 22 C0.34450469 21.61500109 -1.3222433 21.27206865 -3 21 C-3.88277755 16.48184719 -4.10589503 12.22487306 -4.0625 7.625 C-4.05347656 6.37976563 -4.04445312 5.13453125 -4.03515625 3.8515625 C-4.02355469 2.91054687 -4.01195312 1.96953125 -4 1 C-1 0 -1 0 0 0 Z " fill="#E5A430" transform="translate(62,202)"/>
</svg>
