<?xml version="1.0" encoding="UTF-8"?>
<svg version="1.1" xmlns="http://www.w3.org/2000/svg" width="512" height="512">
<path d="M0 0 C1.10965156 -0.00382555 2.21930312 -0.00765109 3.36258048 -0.01159257 C7.07646004 -0.02190156 10.79018439 -0.01793433 14.5040741 -0.01396179 C17.16865551 -0.01830945 19.83322559 -0.02342844 22.49780273 -0.02944946 C28.98197176 -0.04218597 35.46609936 -0.04399142 41.9502788 -0.0416492 C47.22272358 -0.03986451 52.49515582 -0.04161891 57.76759911 -0.04587364 C58.5186617 -0.04646883 59.2697243 -0.04706402 60.04354637 -0.04767724 C61.56946233 -0.04888903 63.09537828 -0.05010316 64.62129422 -0.05131962 C78.92556434 -0.06219137 93.22981087 -0.06003455 107.53408232 -0.05393478 C120.60869442 -0.04876736 133.68323198 -0.06001706 146.75782935 -0.07903299 C160.19395374 -0.09842437 173.63004289 -0.10666503 187.06618136 -0.10290974 C194.60504687 -0.10099949 202.14384895 -0.103468 209.68270302 -0.11762428 C216.10153554 -0.12955572 222.52026561 -0.13092336 228.93909959 -0.11883412 C232.21126961 -0.11295739 235.48321436 -0.11344907 238.75537872 -0.12383652 C242.30966673 -0.13430449 245.86345442 -0.12620215 249.41772461 -0.11352539 C250.44215929 -0.12089968 251.46659398 -0.12827396 252.52207214 -0.13587171 C263.86595143 -0.05098739 272.90729001 3.12465547 281.52433777 10.51069641 C285.91986701 15.60025659 289.89649907 20.47959661 290.89933777 27.26069641 C292.11556824 27.19108704 292.11556824 27.19108704 293.35636902 27.12007141 C305.01043529 26.74019498 314.22096778 29.28100875 322.89933777 37.26069641 C331.06690082 45.32783861 335.92965301 54.40570823 336.12638855 66.0124054 C336.12607427 68.26055852 336.11491635 70.50872836 336.09465027 72.75679016 C336.09040543 74.53981285 336.09040543 74.53981285 336.08607483 76.3588562 C336.07491982 80.13874059 336.04982343 83.91838417 336.02433777 87.69819641 C336.01430194 90.26785444 336.00517714 92.83751619 335.99699402 95.40718079 C335.97499578 101.69176754 335.94156466 107.97621476 335.89933777 114.26069641 C336.91723137 114.35313881 336.91723137 114.35313881 337.95568848 114.44744873 C338.85015182 114.53204849 339.74461517 114.61664825 340.66618347 114.70381165 C341.55102921 114.78606491 342.43587494 114.86831818 343.34753418 114.95306396 C365.81113582 117.66116139 387.26730864 134.00307284 400.89933777 151.26069641 C418.77462654 174.67087177 427.59514041 202.69251652 427.33683777 232.01069641 C427.3322757 233.11838882 427.3322757 233.11838882 427.32762146 234.24845886 C427.2546752 246.27405582 426.33614077 257.68880951 422.89933777 269.26069641 C422.69034851 269.98418274 422.48135925 270.70766907 422.26603699 271.45307922 C417.46948187 287.57094159 409.65257733 302.33490081 398.89933777 315.26069641 C398.12976746 316.19397766 397.36019714 317.12725891 396.56730652 318.08882141 C388.64206017 327.25598843 379.49916655 334.40745763 368.89933777 340.26069641 C369.97570496 340.9761261 371.05207214 341.69155579 372.16105652 342.42866516 C392.62035657 356.2783995 406.87774984 372.64069778 416.89933777 395.26069641 C417.18293152 395.89700989 417.46652527 396.53332336 417.75871277 397.18891907 C429.78305203 424.8321377 430.42320805 455.82560171 419.70793152 483.93257141 C415.78987468 493.63358269 411.09890241 503.57104795 403.89933777 511.26069641 C400.47679387 512.40154438 397.82252254 512.40165371 394.21232605 512.42182922 C393.53716949 512.42679413 392.86201294 512.43175903 392.16639709 512.43687439 C389.93413776 512.45147239 387.70194948 512.45829388 385.46965027 512.46382141 C383.9164988 512.46957461 382.36334736 512.47533232 380.81019592 512.48109436 C377.55361094 512.49159748 374.29705059 512.49744472 371.04045105 512.50093079 C366.87187706 512.50641548 362.70362971 512.53044564 358.53515816 512.55890274 C355.32664545 512.5775453 352.11821119 512.58273556 348.9096489 512.58426666 C347.37308338 512.58728985 345.83651913 512.59530714 344.30000687 512.60845184 C342.14813264 512.62554753 339.99705353 512.62362407 337.84513855 512.61714172 C336.62174774 512.62078735 335.39835693 512.62443298 334.13789368 512.62818909 C330.57522912 512.22391843 328.7362968 511.41697653 325.89933777 509.26069641 C323.89933777 506.26069641 323.89933777 506.26069641 323.89933777 502.26069641 C315.97933777 502.26069641 308.05933777 502.26069641 299.89933777 502.26069641 C299.56933777 503.91069641 299.23933777 505.56069641 298.89933777 507.26069641 C295.59742626 510.79845875 294.14780596 512.08547281 289.33683777 512.76069641 C285.69174406 512.23050096 283.76294242 511.55158013 280.89933777 509.26069641 C279.16409849 506.61652227 278.89933777 505.47603698 278.89933777 502.26069641 C270.97933777 502.26069641 263.05933777 502.26069641 254.89933777 502.26069641 C254.56933777 503.91069641 254.23933777 505.56069641 253.89933777 507.26069641 C251.28029969 510.27411431 249.58636401 511.92231209 245.65464592 512.7109375 C242.91564404 512.89812643 240.22046583 512.91342454 237.4752655 512.87593079 C236.43878876 512.8814798 235.40231201 512.88702881 234.33442688 512.89274597 C230.91678789 512.90453317 227.50047729 512.88027652 224.08293152 512.85444641 C221.70451925 512.85273514 219.3261051 512.85280116 216.94769287 512.85456848 C211.96695372 512.8529158 206.98666495 512.83422503 202.00602722 512.8026886 C195.62129656 512.76299016 189.23715516 512.7586463 182.85232449 512.76615143 C177.94268392 512.76922046 173.03317588 512.75710321 168.12356758 512.74002075 C165.76924025 512.7329894 163.4148979 512.72986638 161.06056023 512.73071289 C157.77143561 512.72891566 154.48301792 512.7075398 151.1940155 512.68061829 C150.22088913 512.68354889 149.24776276 512.68647949 148.24514771 512.6894989 C143.34530954 512.62760563 139.82402508 512.5406698 135.89933777 509.26069641 C133.77910523 506.0803476 132.82037746 504.24033952 133.12980652 500.40132141 C133.96452235 496.99466392 135.1959428 494.76597998 137.08683777 491.82319641 C150.40113793 469.78761955 154.23530619 444.77334845 148.16496277 419.81147766 C141.63925507 395.26756591 127.15618183 373.56597846 105.11808777 360.62788391 C93.45267155 354.38751341 81.98816405 352.17955748 68.96183777 351.26069641 C40.17537016 349.20196827 16.99041278 336.9569501 -2.10066223 315.26069641 C-18.47563114 295.7280502 -30.10066223 267.9341266 -30.10066223 242.26069641 C-30.73979553 242.28164368 -31.37892883 242.30259094 -32.03742981 242.32417297 C-60.29028558 243.12914118 -60.29028558 243.12914118 -72.10066223 232.26069641 C-79.15815631 225.39744528 -84.75277565 217.56902378 -85.23488331 207.44100857 C-85.23915679 206.34545682 -85.24343027 205.24990507 -85.24783325 204.12115479 C-85.25498856 202.86101562 -85.26214386 201.60087646 -85.26951599 200.30255127 C-85.27235611 198.90831018 -85.27506785 197.51406883 -85.27766418 196.11982727 C-85.2839318 194.64941753 -85.29057887 193.17900936 -85.2975769 191.70860291 C-85.31859048 186.88092648 -85.3289792 182.05324985 -85.33894348 177.22554016 C-85.34299254 175.56036933 -85.34710951 173.89519865 -85.35129356 172.23002815 C-85.3703421 164.40305478 -85.38457184 156.5760908 -85.39290553 148.74909872 C-85.40266633 139.73184703 -85.42895687 130.71484158 -85.46940643 121.6976766 C-85.49963729 114.71743727 -85.51438114 107.73726823 -85.51768655 100.75696474 C-85.52002977 96.59321537 -85.52889438 92.42972913 -85.55414772 88.26605034 C-85.57755485 84.34334798 -85.58161146 80.42107964 -85.57138634 76.49832535 C-85.57089386 75.06613909 -85.5771284 73.63393055 -85.59094238 72.20181084 C-85.71065598 59.04438059 -83.00073811 48.25196934 -74.10066223 38.26069641 C-63.96527719 29.23224762 -53.44219513 26.49711106 -40.10066223 27.26069641 C-39.98980286 26.53753235 -39.87894348 25.81436829 -39.76472473 25.06929016 C-37.92386206 17.28352393 -32.66756516 10.66634015 -26.10066223 6.26069641 C-17.54439847 1.15399353 -9.83203039 -0.03603672 0 0 Z M-62.10066223 57.26069641 C-64.9455081 62.3319434 -65.22440808 68.24013279 -65.234375 73.97085571 C-65.23863998 75.08517975 -65.24290497 76.19950378 -65.24729919 77.34759521 C-65.24684601 78.55553238 -65.24639282 79.76346954 -65.2459259 81.00801086 C-65.24928452 82.29165527 -65.25264313 83.57529968 -65.25610352 84.89784241 C-65.26491173 88.40831482 -65.2672803 91.91876284 -65.2679193 95.42924523 C-65.26863166 97.62607274 -65.27076951 99.8228941 -65.27341652 102.01972008 C-65.28265974 109.69404365 -65.28675273 117.36834988 -65.28596497 125.04267883 C-65.28536459 132.17947634 -65.29591109 139.31619816 -65.31170863 146.45297652 C-65.32481462 152.59416759 -65.33014757 158.735334 -65.32950956 164.87653893 C-65.32925545 168.5382063 -65.3320582 172.19980638 -65.34268761 175.86145973 C-65.35423126 179.94942464 -65.34960309 184.03722157 -65.34358215 188.12519836 C-65.34920166 189.32706284 -65.35482117 190.52892731 -65.36061096 191.76721191 C-65.32442768 201.45277663 -64.92071972 209.35569865 -57.96394348 216.60054016 C-51.73767165 222.148057 -44.72177715 222.39863146 -36.72566223 222.32319641 C-35.48042786 222.31417297 -34.23519348 222.30514954 -32.95222473 222.29585266 C-32.01120911 222.2842511 -31.07019348 222.27264954 -30.10066223 222.26069641 C-29.93050598 221.20753235 -29.76034973 220.15436829 -29.58503723 219.06929016 C-24.02535128 185.57423637 -11.6056287 153.55469886 16.43449402 132.53413391 C34.32949203 119.77777386 53.59664567 114.12508398 75.47259521 114.10247803 C76.50117313 114.09754005 77.52975104 114.09260207 78.58949798 114.08751446 C82.01642547 114.07222615 85.44333434 114.06380245 88.87028503 114.05537415 C91.33463706 114.0457888 93.79898747 114.03577834 96.26333618 114.02537537 C101.55884828 114.0039742 106.85435797 113.98551636 112.14988899 113.96977043 C119.80621414 113.94699968 127.46251231 113.91886711 135.11881446 113.88945115 C147.54246979 113.84186322 159.96613619 113.79857538 172.38981628 113.75801086 C184.45395265 113.71861104 196.51807919 113.67717416 208.5821991 113.63301086 C209.69877567 113.62892446 209.69877567 113.62892446 210.83790935 113.62475549 C214.57249157 113.61107528 218.30707365 113.59735515 222.04165566 113.58361518 C252.99419607 113.46978873 283.9467571 113.36302097 314.89933777 113.26069641 C315.00111826 106.28653997 315.07096273 99.31257652 315.11906433 92.33784485 C315.13912602 89.96732933 315.16638203 87.59686296 315.20109558 85.22651672 C315.24985195 81.8107029 315.27236176 78.39554586 315.28996277 74.97944641 C315.31060791 73.92704773 315.33125305 72.87464905 315.3525238 71.7903595 C315.35464352 64.77127264 314.4422272 58.98088715 309.4516449 53.74055481 C305.06704195 49.91365998 301.40972764 48.09046403 295.64933777 47.63569641 C294.75730652 47.56093079 293.86527527 47.48616516 292.94621277 47.40913391 C291.93300964 47.33565735 291.93300964 47.33565735 290.89933777 47.26069641 C290.55902527 48.03413391 290.21871277 48.80757141 289.86808777 49.60444641 C284.84466906 60.39945258 279.53991102 66.64279611 268.51261902 71.35054016 C264.35353659 72.79906962 260.46493945 73.38530566 256.06969357 73.39491749 C255.11965511 73.39937533 254.16961666 73.40383318 253.19078916 73.40842611 C252.15520087 73.40824174 251.11961258 73.40805738 250.05264282 73.40786743 C248.94611125 73.41154412 247.83957967 73.41522081 246.69951683 73.41900891 C242.98413671 73.43003984 239.26878455 73.43388861 235.5533905 73.43769836 C232.89235264 73.44396347 230.23131776 73.45059768 227.57028198 73.45761108 C219.5796586 73.47734956 211.589034 73.48743846 203.59839234 73.49633887 C199.83183005 73.50072613 196.06526915 73.50609181 192.29870796 73.51132774 C179.77155442 73.52833753 167.24440174 73.54283054 154.71723843 73.55007648 C151.4682865 73.55198626 148.21933459 73.55390661 144.97038269 73.55586243 C143.75917471 73.55658804 143.75917471 73.55658804 142.52349789 73.55732831 C129.45009566 73.56562432 116.37678505 73.59095509 103.3034228 73.6234431 C89.86961731 73.65655363 76.43585833 73.67452886 63.00201184 73.67772073 C55.46413778 73.67988215 47.92639734 73.68857671 40.38856316 73.7141819 C33.96753268 73.73594357 27.54666827 73.74391259 21.1256051 73.73421512 C17.85312992 73.72968608 14.5810667 73.73367979 11.30862427 73.75097656 C7.75043648 73.7687266 4.19310744 73.7615729 0.63491821 73.7484436 C-0.38505503 73.75941285 -1.40502827 73.7703821 -2.45590979 73.78168374 C-12.71277502 73.69078864 -22.19215167 71.00602109 -30.12800598 64.32319641 C-34.8128744 59.42495774 -37.69955923 53.53706799 -40.10066223 47.26069641 C-49.03174358 46.39639822 -56.29896593 50.84754683 -62.10066223 57.26069641 Z " fill="#020202" transform="translate(85.10066223144531,-0.2606964111328125)"/>
<path d="M0 0 C26.80887964 -0.14049239 53.61770366 -0.24612864 80.42687798 -0.31087303 C92.87634502 -0.34174114 105.32558262 -0.38378657 117.77490234 -0.45263672 C128.63245403 -0.5126548 139.48983944 -0.55120027 150.34755242 -0.56453097 C156.0906135 -0.57231686 161.83319913 -0.59046739 167.57610703 -0.63438034 C172.99510008 -0.67547599 178.41342739 -0.68759513 183.83256149 -0.67864609 C185.80848321 -0.68028034 187.78443004 -0.69199296 189.76021576 -0.71523285 C212.40436658 -0.96824184 231.73802269 5.70034991 248.41992188 21.42871094 C257.8784459 30.83462266 264.30394312 42.03124839 270 54 C270 54.33 270 54.66 270 55 C269.35973877 55.00410889 268.71947754 55.00821777 268.05981445 55.01245117 C265.14312095 55.04546038 262.22849616 55.11611026 259.3125 55.1875 C258.30509766 55.19330078 257.29769531 55.19910156 256.25976562 55.20507812 C251.47952149 55.34706557 248.79759247 55.42958861 244.83203125 58.265625 C242.98804589 61.01784195 242.3182412 62.29886893 242.375 65.5625 C242.36210937 66.30628906 242.34921875 67.05007812 242.3359375 67.81640625 C243.3363758 71.10608277 245.16991994 72.12603132 248 74 C251.17793092 74.63549565 251.17793092 74.63549565 254.61328125 74.609375 C255.86044922 74.64160156 257.10761719 74.67382812 258.39257812 74.70703125 C259.68615234 74.72121094 260.97972656 74.73539062 262.3125 74.75 C264.28186523 74.79447266 264.28186523 74.79447266 266.29101562 74.83984375 C269.52740535 74.91045589 272.76307811 74.96319877 276 75 C277.91340671 82.25722384 278.35096682 89.00941186 278.3125 96.5 C278.30686035 97.64911865 278.3012207 98.7982373 278.29541016 99.98217773 C277.88791885 128.75872963 267.25298401 154.61158687 247.56640625 175.59375 C233.56944367 189.01612463 215.5077155 196.19267607 196.25537109 196.12025452 C194.98942564 196.12153615 194.98942564 196.12153615 193.69790554 196.12284368 C190.88972745 196.12448161 188.08161002 196.11900491 185.2734375 196.11352539 C183.25257875 196.11324313 181.2317199 196.11340202 179.21086121 196.1139679 C173.73835995 196.11425435 168.2658807 196.10838219 162.79338455 196.10139394 C157.06920738 196.09513508 151.34502968 196.0945546 145.62084961 196.09336853 C134.78736678 196.09026268 123.95389407 196.08205935 113.12041569 196.07201904 C100.78431146 196.06083473 88.44820674 196.05534161 76.11209869 196.05032361 C50.74139353 196.03987612 25.37069733 196.02229113 0 196 C0.77037598 195.23196045 1.54075195 194.4639209 2.33447266 193.67260742 C10.01344927 185.97323419 17.1542224 178.19432982 23 169 C23.85851562 167.68515625 23.85851562 167.68515625 24.734375 166.34375 C30.09116992 157.71599181 33.59092283 148.5193745 37 139 C37.33 138.10667969 37.66 137.21335937 38 136.29296875 C44.48497404 117.00692615 44.59661655 94.97719507 42 75 C42.60996826 74.98541748 43.21993652 74.97083496 43.84838867 74.95581055 C46.62871064 74.88105225 49.40786824 74.78448518 52.1875 74.6875 C53.14720703 74.66494141 54.10691406 74.64238281 55.09570312 74.61914062 C62.05613714 74.40163313 62.05613714 74.40163313 68 71 C70.34168764 67.48746854 70.49623677 66.13530644 70 62 C67.84909549 58.66238955 66.79587201 57.26529067 63 56 C61.0093556 55.85013589 59.01464609 55.75171962 57.01953125 55.68359375 C55.85615234 55.64169922 54.69277344 55.59980469 53.49414062 55.55664062 C52.27919922 55.51732422 51.06425781 55.47800781 49.8125 55.4375 C48.58595703 55.39431641 47.35941406 55.35113281 46.09570312 55.30664062 C43.06391619 55.2004691 40.03204685 55.09842048 37 55 C36.764021 54.45174561 36.52804199 53.90349121 36.28491211 53.33862305 C27.30874564 32.60883322 16.04832118 15.98570323 0 0 Z " fill="#FEFEFE" transform="translate(214,134)"/>
<path d="M0 0 C26.54813582 -0.11708178 53.09623263 -0.20510961 79.64457512 -0.25906086 C91.97293634 -0.28478323 104.30113664 -0.31981921 116.62939453 -0.37719727 C127.3814703 -0.42721538 138.13342944 -0.45933432 148.88561833 -0.47044247 C154.57272548 -0.47693013 160.25949917 -0.49205243 165.94649887 -0.52865028 C171.31291003 -0.56290118 176.67885429 -0.57299487 182.04536438 -0.56553841 C184.00192437 -0.56690006 185.958502 -0.57665737 187.91496658 -0.59602737 C210.67918306 -0.81011366 229.68245363 4.5933553 247 20 C247.68578125 20.60328125 248.3715625 21.2065625 249.078125 21.828125 C266.50998236 38.1619126 277.80049661 64.23769003 279.23828125 87.92578125 C279.65648365 104.41840299 275.93019299 119.06543412 269 134 C268.58741943 135.2080127 268.17483887 136.41602539 267.74975586 137.66064453 C266.6701355 139.50668335 266.6701355 139.50668335 265 141 C260.50067482 142.05698319 256.04292458 141.88077623 251.44140625 141.796875 C250.0914573 141.79864338 248.74150879 141.80392502 247.3915863 141.81256104 C243.84035897 141.82781263 240.29055407 141.80398428 236.73950195 141.76934814 C231.06027495 141.71887391 225.38111296 141.72054445 219.70173454 141.73575592 C217.72252313 141.73439637 215.74336655 141.71097131 213.76429749 141.68719482 C211.95233131 141.6829953 211.95233131 141.6829953 210.10375977 141.67871094 C209.0432692 141.66870056 207.98277863 141.65869019 206.89015198 141.64837646 C203.40304022 142.07262771 201.70694473 142.74921308 199 145 C198.01 147.31 197.02 149.62 196 152 C188.08 152 180.16 152 172 152 C171.67 153.65 171.34 155.3 171 157 C167.69808849 160.53776233 166.24846819 161.82477639 161.4375 162.5 C157.79240629 161.96980455 155.86360465 161.29088372 153 159 C151.26476072 156.35582586 151 155.21534057 151 152 C142.75 152 134.5 152 126 152 C125.34 149.36 124.68 146.72 124 144 C120.08212597 141.24113088 115.27627134 141.69407346 110.62963867 141.68115234 C109.79985504 141.67110672 108.97007141 141.6610611 108.11514282 141.65071106 C105.38275826 141.61991362 102.65047154 141.60285351 99.91796875 141.5859375 C98.01938538 141.56722309 96.1208103 141.54764947 94.22224426 141.5272522 C89.23284802 141.47595392 84.24342482 141.43631581 79.25390625 141.39910889 C74.15943749 141.35905484 69.06508066 141.30796887 63.97070312 141.2578125 C53.9805474 141.16108047 43.99032845 141.07666691 34 141 C34.78103066 136.85171227 35.97139144 133.04789763 37.375 129.0625 C44.37256461 108.16604484 45.50596798 86.4732751 40 65 C39.74476563 63.87464844 39.48953125 62.74929688 39.2265625 61.58984375 C33.2228695 37.60261162 18.98509278 16.60996517 0 1 C0 0.67 0 0.34 0 0 Z " fill="#C4D2DD" transform="translate(213,350)"/>
<path d="M0 0 C16.94055171 13.18531785 28.02005733 31.97141435 33.4921875 52.52734375 C34.00072266 54.03941406 34.00072266 54.03941406 34.51953125 55.58203125 C42.82580893 80.73437411 37.14694843 111.51533544 25.6796875 134.83984375 C22.24963241 141.56116089 18.22784485 147.64159819 13.4921875 153.52734375 C12.96367187 154.21957031 12.43515625 154.91179687 11.890625 155.625 C0.22409363 170.07885537 -17.27615342 178.93759685 -35.5078125 181.52734375 C-54.97093 183.49854238 -71.97532831 178.79394397 -87.5703125 166.77734375 C-104.58484532 152.5088273 -115.6229956 135.21124265 -121.3828125 113.77734375 C-121.68783691 112.64389526 -121.68783691 112.64389526 -121.99902344 111.48754883 C-123.52226979 105.38598361 -123.92286457 99.96177094 -124.5078125 93.52734375 C-109.3278125 93.52734375 -94.1478125 93.52734375 -78.5078125 93.52734375 C-76.1978125 100.45734375 -73.8878125 107.38734375 -71.5078125 114.52734375 C-66.63804284 123.72579754 -60.73675654 131.20525468 -50.5078125 134.52734375 C-40.86331059 135.68576158 -33.48055651 133.78969286 -25.8203125 127.90234375 C-15.26171171 118.17474394 -10.09658411 101.41593169 -9.18359375 87.48046875 C-8.51407773 70.37917314 -12.94139314 52.84122672 -24.83203125 39.95703125 C-31.65473605 34.13626212 -38.62565209 32.16109552 -47.43359375 32.24609375 C-51.85227775 32.65034438 -54.87959244 34.05392962 -58.5078125 36.52734375 C-59.5184375 37.20796875 -60.5290625 37.88859375 -61.5703125 38.58984375 C-70.56737749 46.58178704 -75.18322303 59.0314386 -77.11328125 70.59375 C-77.5078125 72.52734375 -77.5078125 72.52734375 -78.5078125 73.52734375 C-79.95071037 73.6203019 -81.39811035 73.64480888 -82.84399414 73.64086914 C-84.22531273 73.64075584 -84.22531273 73.64075584 -85.63453674 73.64064026 C-86.63556931 73.63547897 -87.63660187 73.63031769 -88.66796875 73.625 C-90.19737343 73.62287758 -90.19737343 73.62287758 -91.75767517 73.62071228 C-95.02858357 73.61509472 -98.29942463 73.60253925 -101.5703125 73.58984375 C-103.78190006 73.58483101 -105.99348868 73.58026771 -108.20507812 73.57617188 C-113.63934607 73.56511959 -119.07357447 73.54836438 -124.5078125 73.52734375 C-124.8950321 50.0996659 -113.61682013 26.69675136 -97.83984375 9.8984375 C-97.07027344 9.11597656 -96.30070312 8.33351562 -95.5078125 7.52734375 C-94.74855469 6.75519531 -93.98929688 5.98304688 -93.20703125 5.1875 C-67.25985302 -19.65554299 -28.71962485 -20.97363414 0 0 Z " fill="#C3D1DC" transform="translate(200.5078125,148.47265625)"/>
<path d="M0 0 C1.66871073 -0.01064158 1.66871073 -0.01064158 3.37113279 -0.02149814 C7.09465252 -0.03908433 10.81712935 -0.02096868 14.54063416 -0.00291443 C17.21172988 -0.00805297 19.88275574 -0.01514506 22.55383301 -0.02459717 C29.0527952 -0.04295888 35.55145638 -0.03447173 42.05040915 -0.01650894 C47.33243992 -0.00247413 52.61438906 0.00140797 57.89643669 -0.00195122 C59.02476293 -0.00266738 59.02476293 -0.00266738 60.17588363 -0.00339801 C61.70406253 -0.00442436 63.2322414 -0.00547972 64.76042026 -0.00656378 C78.26762205 -0.01512771 91.77467864 0.00153478 105.28184509 0.03126526 C118.38574826 0.06010768 131.48944232 0.06718312 144.59336853 0.05177307 C158.86748419 0.03500985 173.14150059 0.03097747 187.41561884 0.04848343 C188.93781975 0.0503278 190.46002067 0.05216253 191.9822216 0.0539875 C192.73115041 0.05489959 193.48007922 0.05581168 194.25170283 0.05675141 C199.52738784 0.06235563 204.80302437 0.05905076 210.07870674 0.05244255 C216.50794978 0.04470901 222.93698702 0.05146271 229.36618859 0.07661759 C232.64600861 0.08911179 235.92544274 0.09311139 239.20528412 0.08407593 C242.7611366 0.07540777 246.31605215 0.09129439 249.87182617 0.11352539 C250.90791222 0.10528462 251.94399827 0.09704386 253.01148087 0.08855337 C258.96045243 0.15736448 262.33093026 0.68760707 266.87242126 4.62818909 C271.2713523 9.62157026 272.22918464 12.53834136 272.15367126 19.08912659 C271.60258441 24.06421622 268.86544426 26.75338312 265.24742126 29.94068909 C261.98329195 32.25993886 260.34177124 32.75382554 256.39516068 32.76241016 C255.44739517 32.76686801 254.49962967 32.77132585 253.52314401 32.77591878 C251.9505147 32.77564224 251.9505147 32.77564224 250.34611511 32.77536011 C248.68381257 32.78087514 248.68381257 32.78087514 246.98792815 32.78650159 C243.24922595 32.79757457 239.5105515 32.80138837 235.77183533 32.80519104 C233.10150485 32.81145293 230.43117738 32.81808636 227.760849 32.82510376 C219.72895976 32.84487904 211.69706923 32.85493587 203.66516173 32.86383155 C199.884371 32.86821284 196.10358167 32.87358007 192.32279205 32.87882042 C179.75714534 32.89583401 167.19149951 32.91032856 154.62584305 32.91756916 C151.36396025 32.91947911 148.10207747 32.92139943 144.8401947 32.9233551 C144.02945235 32.92383884 143.21871 32.92432258 142.3833997 32.92482098 C129.24755489 32.93312269 116.1118011 32.95846137 102.97599605 32.99093578 C89.49485398 33.02399265 76.01375819 33.04201669 62.53257537 33.0452134 C54.96131355 33.04737981 47.39018446 33.05614745 39.8189621 33.08167458 C33.37133717 33.10336292 26.92387719 33.11144129 20.47621992 33.10170779 C17.18628184 33.09715751 13.89675593 33.10126514 10.60684967 33.11846924 C7.03983082 33.13608135 3.47368043 33.12913371 -0.09333801 33.11593628 C-1.13283466 33.12690553 -2.17233131 33.13787477 -3.24332786 33.14917642 C-9.19101785 33.09591335 -12.58526906 32.57295355 -17.12757874 28.62818909 C-20.99767445 23.70261273 -21.80453852 18.72082719 -21.12757874 12.62818909 C-19.65618714 7.52159473 -17.71747833 4.67163878 -13.30019867 1.66671956 C-9.05509498 -0.36247545 -4.6216421 -0.05290924 0 0 Z " fill="#FEE5B3" transform="translate(85.12757873535156,20.371810913085938)"/>
<path d="M0 0 C0.8065654 -0.00570007 1.6131308 -0.01140015 2.44413757 -0.01727295 C4.15309333 -0.02672695 5.86206735 -0.03325852 7.57104492 -0.03710938 C10.17854916 -0.0467982 12.78525953 -0.07781 15.39257812 -0.109375 C17.05338074 -0.11590685 18.71418899 -0.12115661 20.375 -0.125 C21.1522493 -0.1373468 21.9294986 -0.1496936 22.7303009 -0.16241455 C27.30434689 -0.14371103 30.27591911 0.32728925 33.88671875 3.203125 C36.55761042 7.20946251 36.59365748 10.49303928 35.88671875 15.203125 C33.68840511 18.23528175 32.43708681 19.01966898 28.88671875 20.203125 C26.14143711 20.33597303 23.42233526 20.41533373 20.67578125 20.44140625 C19.8706308 20.449478 19.06548035 20.45754974 18.2359314 20.46586609 C16.53296043 20.479688 14.82996198 20.49041862 13.12695312 20.49829102 C10.52811081 20.51551635 7.93053705 20.55941887 5.33203125 20.60351562 C3.67579058 20.61364214 2.01953913 20.62215837 0.36328125 20.62890625 C-0.41083099 20.64641434 -1.18494324 20.66392242 -1.98251343 20.68196106 C-5.74253239 20.66690689 -7.88363523 20.35029572 -11.08056641 18.30151367 C-14.2184176 15.06228343 -14.44723468 12.75050207 -14.40625 8.2421875 C-13.95073158 5.07177933 -12.36012468 3.3838848 -10.11328125 1.203125 C-6.93315062 -0.38694031 -3.49357468 0.01895423 0 0 Z " fill="#020202" transform="translate(322.11328125,188.796875)"/>
<path d="M0 0 C0.8065654 -0.00570007 1.6131308 -0.01140015 2.44413757 -0.01727295 C4.15309333 -0.02672695 5.86206735 -0.03325852 7.57104492 -0.03710938 C10.17854916 -0.0467982 12.78525953 -0.07781 15.39257812 -0.109375 C17.05338074 -0.11590685 18.71418899 -0.12115661 20.375 -0.125 C21.1522493 -0.1373468 21.9294986 -0.1496936 22.7303009 -0.16241455 C27.30434689 -0.14371103 30.27591911 0.32728925 33.88671875 3.203125 C36.34600619 6.89205616 36.57977454 9.91953921 35.88671875 14.203125 C33.76223605 17.64625214 32.73819234 18.91930047 28.88671875 20.203125 C26.14143711 20.33597303 23.42233526 20.41533373 20.67578125 20.44140625 C19.8706308 20.449478 19.06548035 20.45754974 18.2359314 20.46586609 C16.53296043 20.479688 14.82996198 20.49041862 13.12695312 20.49829102 C10.52811081 20.51551635 7.93053705 20.55941887 5.33203125 20.60351562 C3.67579058 20.61364214 2.01953913 20.62215837 0.36328125 20.62890625 C-0.41083099 20.64641434 -1.18494324 20.66392242 -1.98251343 20.68196106 C-5.74253239 20.66690689 -7.88363523 20.35029572 -11.08056641 18.30151367 C-14.2184176 15.06228343 -14.44723468 12.75050207 -14.40625 8.2421875 C-13.95073158 5.07177933 -12.36012468 3.3838848 -10.11328125 1.203125 C-6.93315062 -0.38694031 -3.49357468 0.01895423 0 0 Z " fill="#020202" transform="translate(396.11328125,188.796875)"/>
<path d="M0 0 C4.57082979 1.14270745 6.76781458 4.72053566 9.625 8.25 C11.5 11.625 11.5 11.625 14.5 22.625 C5.26 22.625 -3.98 22.625 -13.5 22.625 C-12.39724072 13.80292574 -10.4864839 9.28344278 -5 2.5625 C-2.5 0.625 -2.5 0.625 0 0 Z " fill="#87A4B9" transform="translate(156.5,199.375)"/>
<path d="M0 0 C9.24 0 18.48 0 28 0 C24.60240964 11.3253012 24.60240964 11.3253012 22 15.5 C21.2575 16.72203125 21.2575 16.72203125 20.5 17.96875 C19 20 19 20 16 22 C12.98557794 22.41084041 11.59014339 22.43923354 9.12109375 20.6015625 C3.93149871 14.50890567 0 8.18692395 0 0 Z " fill="#88A5BA" transform="translate(143,242)"/>
<path d="M0 0 C3.6846021 0.81435046 5.09749615 2.38843173 7.15625 5.4765625 C8.16578471 8.2386041 8.56174896 10.55240096 8.15625 13.4765625 C6.4656172 16.55285119 4.33810378 18.88563561 1.15625 20.4765625 C-3.81442782 20.851708 -6.89526502 20.63535049 -10.84375 17.4765625 C-13.07796993 14.73456531 -12.83863929 13.15458769 -12.78125 9.5390625 C-12.26639994 6.44417733 -11.66048347 5.2016627 -9.84375 2.4765625 C-6.30879984 0.11992906 -4.17879307 -0.26465689 0 0 Z " fill="#010202" transform="translate(376.84375,491.5234375)"/>
</svg>
