<?xml version="1.0" encoding="UTF-8"?>
<svg version="1.1" xmlns="http://www.w3.org/2000/svg" width="512" height="512">
<path d="M0 0 C0.77459496 -0.00235223 1.54918993 -0.00470446 2.34725747 -0.00712797 C4.9582617 -0.01381641 7.56921615 -0.01335979 10.18022823 -0.01294994 C12.06500017 -0.01624867 13.94977141 -0.01997425 15.83454174 -0.02409142 C21.02618946 -0.03411862 26.21782561 -0.03782938 31.40948164 -0.04048073 C37.00408936 -0.04438166 42.59868789 -0.05396015 48.19328976 -0.0626936 C61.71051661 -0.08246412 75.22774422 -0.09252502 88.74498191 -0.10142139 C95.10876302 -0.10580337 101.47254329 -0.11117042 107.83632374 -0.11641026 C128.98812256 -0.13342321 150.13992073 -0.14794254 171.29172516 -0.155159 C172.65966282 -0.15563375 174.02760048 -0.15610964 175.39553815 -0.15658666 C176.07390888 -0.15682303 176.75227962 -0.15705941 177.45120705 -0.15730295 C180.88813806 -0.15850414 184.32506908 -0.15971959 187.76200008 -0.16094494 C188.78510217 -0.16130516 188.78510217 -0.16130516 189.82887299 -0.16167267 C211.93910764 -0.16956416 234.04928861 -0.19299271 256.15949983 -0.22550088 C279.53846819 -0.25981168 302.91739604 -0.27951018 326.29639381 -0.28280324 C339.03938903 -0.28496918 351.78230538 -0.2937302 364.52527714 -0.31926441 C375.37723816 -0.34095905 386.22910115 -0.34902788 397.0810814 -0.33929763 C402.61760209 -0.33474938 408.15392046 -0.33666993 413.69041348 -0.35605907 C418.76172063 -0.37366565 423.83267749 -0.37271316 428.90398823 -0.35716178 C430.73581964 -0.35478192 432.56767514 -0.35912883 434.39946968 -0.37099043 C446.74621074 -0.44596992 457.57657286 0.23429998 467.60062313 8.36468983 C475.15358381 15.85154144 477.60165179 23.68339559 477.66259038 34.10661912 C477.65949318 35.30796959 477.65639598 36.50932005 477.65320492 37.74707508 C477.65773603 39.03146497 477.66226714 40.31585485 477.66693556 41.63916564 C477.67915527 45.19782509 477.67890632 48.75639046 477.67654681 52.3150661 C477.67613838 56.15569329 477.68718034 59.99629042 477.69666195 63.83690357 C477.71326757 71.35927545 477.71877131 78.88161599 477.71988671 86.40400466 C477.72083744 92.51981813 477.72494903 98.63562127 477.73128796 104.75143147 C477.74889964 122.09665264 477.75812701 139.44184907 477.75662701 156.78707924 C477.75650714 158.18940517 477.75650714 158.18940517 477.75638485 159.62006092 C477.75630309 160.55608846 477.75622133 161.492116 477.75613709 162.45650801 C477.75532434 177.62311793 477.77445932 192.7896285 477.80266158 207.95620969 C477.83140103 223.53480596 477.84520127 239.11335381 477.84347403 254.69197726 C477.84281047 263.43589298 477.84828795 272.17970456 477.86983013 280.92359638 C477.88805595 288.36903405 477.89237784 295.81432038 477.87881128 303.25977072 C477.87228849 307.05650682 477.87213919 310.85295271 477.88951778 314.64966106 C477.90818839 318.771137 477.89567606 322.89194322 477.8802557 327.0134325 C477.89054283 328.20586008 477.90082995 329.39828766 477.91142881 330.62684941 C477.82301847 341.32999196 475.0622729 349.32693902 467.67874813 357.15375233 C461.42011864 362.55941698 454.23212325 365.23589061 446.05008602 365.32709217 C444.08773762 365.35118656 444.08773762 365.35118656 442.08574581 365.37576771 C440.65581569 365.38725247 439.22587831 365.39786146 437.79593563 365.40765858 C437.07553034 365.41298225 436.35512505 365.41830593 435.61288929 365.42379093 C431.80225216 365.45048692 427.99164744 365.46987606 424.1809454 365.48431873 C421.02733126 365.49767702 417.8743613 365.52556758 414.72098446 365.56634998 C410.91139114 365.61561588 407.10238353 365.64043129 403.29248524 365.64754581 C401.84156998 365.65426396 400.3906681 365.66950101 398.93993473 365.69343662 C396.91047518 365.72501971 394.88056777 365.72212833 392.85086727 365.71771717 C391.69631542 365.72580402 390.54176357 365.73389088 389.3522253 365.74222279 C386.38577938 365.13422108 386.38577938 365.13422108 383.98171139 362.72275257 C382.38577938 360.13422108 382.38577938 360.13422108 382.38577938 358.13422108 C376.11577938 358.13422108 369.84577938 358.13422108 363.38577938 358.13422108 C362.72577938 359.78422108 362.06577938 361.43422108 361.38577938 363.13422108 C358.59067588 365.92932457 356.83350532 365.40970751 352.9165411 365.45306873 C352.25300625 365.46311436 351.5894714 365.47315998 350.90582943 365.48351002 C348.70905086 365.51444096 346.51239469 365.53140419 344.31546688 365.54828358 C342.79373775 365.56698731 341.27201907 365.58656012 339.75031185 365.60696888 C335.74234833 365.65838032 331.73435115 365.69795756 327.72623348 365.73511219 C323.63740304 365.77509555 319.5487137 365.82621366 315.45999813 365.87640858 C307.43535479 365.97327447 299.41064185 366.05764487 291.38577938 366.13422108 C293.55347408 369.93707848 295.72231 373.73928217 297.89212704 377.54092884 C298.62745383 378.82961633 299.36248858 380.11847051 300.09720516 381.40750599 C304.85980922 389.7627736 309.65377779 398.0963161 314.63577938 406.32343006 C317.38577938 410.9216831 317.38577938 410.9216831 317.38577938 413.13422108 C318.6182037 413.12422832 318.6182037 413.12422832 319.87552547 413.1140337 C327.64313991 413.05376009 335.41063989 413.00816447 343.1784277 412.97878456 C347.17131232 412.96317194 351.16400264 412.94201497 355.15677547 412.90790272 C359.01472523 412.87515103 362.87248885 412.85733499 366.73056698 412.84958935 C368.19767846 412.84407405 369.6647805 412.83330435 371.1318121 412.81703091 C387.3933322 412.64392615 387.3933322 412.64392615 394.59281063 417.67718983 C401.77797456 425.03717527 402.88348602 431.80924621 402.80570126 441.8380785 C402.54111973 449.54231935 400.8430951 455.11535062 395.13577938 460.50922108 C387.81420842 466.70718461 379.27073443 466.56624835 370.19074154 466.52190113 C368.85452416 466.52607849 367.51831033 466.53155821 366.18210304 466.53822094 C362.52530282 466.5526418 358.86872863 466.54844143 355.21191621 466.54105413 C351.26225036 466.53631638 347.31263298 466.5488377 343.36298275 466.55907154 C335.63098056 466.57625323 327.89905966 466.57710083 320.16704334 466.57185864 C313.88107933 466.56781439 307.59513931 466.56926353 301.30917645 466.5746069 C300.41393055 466.57535532 299.51868466 466.57610374 298.5963101 466.57687484 C296.77751168 466.57840635 294.95871326 466.57994469 293.13991486 466.58148981 C276.08968217 466.59521267 259.03949539 466.58977875 241.98926376 466.5783046 C226.39922053 466.56837333 210.809296 466.58131143 195.21927108 466.60523879 C179.2021614 466.62963596 163.185107 466.63923608 147.16797912 466.63258606 C138.17929659 466.6290951 129.19070533 466.63131773 120.20203686 466.64883709 C112.54986346 466.66356682 104.8978456 466.66418449 97.24567522 466.64676618 C93.3436199 466.63825996 89.44184235 466.63609715 85.5398016 466.65141773 C81.96316524 466.66528649 78.38704403 466.66047422 74.81043731 466.6411785 C72.9134119 466.63565544 71.01636012 466.64967188 69.11938488 466.6645326 C60.85608368 466.59361738 53.57665936 465.45200106 46.94827938 460.20453358 C46.43265438 459.56258045 45.91702938 458.92062733 45.38577938 458.25922108 C44.84952938 457.6224242 44.31327938 456.98562733 43.76077938 456.32953358 C38.77504936 448.36936235 39.34856413 437.50838028 40.81546688 428.49359608 C42.44902359 423.3710849 46.03051626 419.17905105 50.38577938 416.13422108 C57.96835923 412.3630588 65.55307279 412.74951285 73.82327938 412.84125233 C75.31399767 412.84685637 76.80472153 412.85112264 78.29544735 412.85411549 C82.19504038 412.8655008 86.09429147 412.8949124 89.99375057 412.92822742 C93.98245272 412.95906554 97.97121081 412.97265001 101.95999813 412.9877367 C109.76874678 413.01978917 117.57721494 413.07090762 125.38577938 413.13422108 C125.69008373 412.35825581 125.99438808 411.58229053 126.30791378 410.78281116 C127.38208198 408.14330654 128.63049528 405.75877395 130.03812313 403.28265858 C130.56857235 402.3467992 131.09902157 401.41093983 131.64554501 400.44672108 C132.19919735 399.47734608 132.75284969 398.50797108 133.32327938 397.50922108 C133.84212704 396.5939867 134.36097469 395.67875233 134.89554501 394.73578358 C138.6045077 388.20871487 142.36306423 381.7106879 146.1262579 375.21478748 C146.63354679 374.33885441 147.14083569 373.46292133 147.66349697 372.56044483 C148.9041285 370.41829533 150.14489233 368.27622257 151.38577938 366.13422108 C150.15497993 366.13202124 150.15497993 366.13202124 148.89931583 366.12977695 C128.90894882 366.09268158 108.91875099 366.03363062 88.92852116 365.95031834 C79.26127638 365.91055487 69.59411268 365.8781487 59.92679501 365.86322498 C51.49809363 365.85019451 43.06957088 365.82319424 34.64097011 365.77960801 C30.18046865 365.75702456 25.72018723 365.74130852 21.25962353 365.74233723 C17.05537467 365.74308569 12.85161167 365.72506075 8.64748859 365.69305325 C7.11010678 365.68458169 5.57267029 365.68278557 4.03527546 365.68841839 C-8.30573259 365.727588 -17.46921391 364.03480265 -26.63375187 355.35687733 C-32.10233162 349.21955606 -34.73306534 342.91726903 -34.7484417 334.75049114 C-34.75289954 333.65142433 -34.75735738 332.55235752 -34.76195031 331.41998565 C-34.76176595 330.2128095 -34.76158159 329.00563335 -34.76139164 327.76187611 C-34.76506833 326.47919507 -34.76874502 325.19651404 -34.77253312 323.87496388 C-34.78254462 320.31181009 -34.78626854 316.74867315 -34.78892243 313.1855073 C-34.792828 309.34348905 -34.80240617 305.50148412 -34.81113529 301.65947437 C-34.83089256 292.37959237 -34.84096498 283.0997093 -34.84986308 273.81981152 C-34.8542472 269.44879535 -34.85961369 265.07778039 -34.86485195 260.70676517 C-34.88186351 246.17488513 -34.89635744 231.64300584 -34.90360069 217.11111736 C-34.90551056 213.34049828 -34.9074309 209.5698792 -34.90938663 205.79926014 C-34.90987038 204.8621016 -34.91035412 203.92494305 -34.91085251 202.95938577 C-34.91915194 187.77972059 -34.94448771 172.60013424 -34.97696731 157.42050348 C-35.01004763 141.83293592 -35.02805033 126.24540841 -35.03124493 110.65780556 C-35.03340913 101.90714608 -35.04214456 93.15660155 -35.06770611 84.4059763 C-35.08942639 76.95317854 -35.09745701 69.50052365 -35.08773933 62.04769783 C-35.08319845 58.24691934 -35.08506819 54.44643555 -35.10450077 50.64569759 C-35.12541339 46.5197477 -35.11513498 42.39444968 -35.10196781 38.2684679 C-35.11293706 37.07467608 -35.1239063 35.88088426 -35.13520795 34.65091693 C-35.05826574 24.65562695 -32.75709823 16.38408802 -25.81343937 8.95843983 C-18.11700285 2.57436194 -9.77857728 -0.02011783 0 0 Z " fill="#020202" transform="translate(34.61422061920166,22.865778923034668)"/>
<path d="M0 0 C0.77459496 -0.00235223 1.54918993 -0.00470446 2.34725747 -0.00712797 C4.9582617 -0.01381641 7.56921615 -0.01335979 10.18022823 -0.01294994 C12.06500017 -0.01624867 13.94977141 -0.01997425 15.83454174 -0.02409142 C21.02618946 -0.03411862 26.21782561 -0.03782938 31.40948164 -0.04048073 C37.00408936 -0.04438166 42.59868789 -0.05396015 48.19328976 -0.0626936 C61.71051661 -0.08246412 75.22774422 -0.09252502 88.74498191 -0.10142139 C95.10876302 -0.10580337 101.47254329 -0.11117042 107.83632374 -0.11641026 C128.98812256 -0.13342321 150.13992073 -0.14794254 171.29172516 -0.155159 C172.65966282 -0.15563375 174.02760048 -0.15610964 175.39553815 -0.15658666 C176.07390888 -0.15682303 176.75227962 -0.15705941 177.45120705 -0.15730295 C180.88813806 -0.15850414 184.32506908 -0.15971959 187.76200008 -0.16094494 C188.78510217 -0.16130516 188.78510217 -0.16130516 189.82887299 -0.16167267 C211.93910764 -0.16956416 234.04928861 -0.19299271 256.15949983 -0.22550088 C279.53846819 -0.25981168 302.91739604 -0.27951018 326.29639381 -0.28280324 C339.03938903 -0.28496918 351.78230538 -0.2937302 364.52527714 -0.31926441 C375.37723816 -0.34095905 386.22910115 -0.34902788 397.0810814 -0.33929763 C402.61760209 -0.33474938 408.15392046 -0.33666993 413.69041348 -0.35605907 C418.76172063 -0.37366565 423.83267749 -0.37271316 428.90398823 -0.35716178 C430.73581964 -0.35478192 432.56767514 -0.35912883 434.39946968 -0.37099043 C446.74621074 -0.44596992 457.57657286 0.23429998 467.60062313 8.36468983 C475.15358381 15.85154144 477.60165179 23.68339559 477.66259038 34.10661912 C477.65949318 35.30796959 477.65639598 36.50932005 477.65320492 37.74707508 C477.65773603 39.03146497 477.66226714 40.31585485 477.66693556 41.63916564 C477.67915527 45.19782509 477.67890632 48.75639046 477.67654681 52.3150661 C477.67613838 56.15569329 477.68718034 59.99629042 477.69666195 63.83690357 C477.71326757 71.35927545 477.71877131 78.88161599 477.71988671 86.40400466 C477.72083744 92.51981813 477.72494903 98.63562127 477.73128796 104.75143147 C477.74889964 122.09665264 477.75812701 139.44184907 477.75662701 156.78707924 C477.75650714 158.18940517 477.75650714 158.18940517 477.75638485 159.62006092 C477.75630309 160.55608846 477.75622133 161.492116 477.75613709 162.45650801 C477.75532434 177.62311793 477.77445932 192.7896285 477.80266158 207.95620969 C477.83140103 223.53480596 477.84520127 239.11335381 477.84347403 254.69197726 C477.84281047 263.43589298 477.84828795 272.17970456 477.86983013 280.92359638 C477.88805595 288.36903405 477.89237784 295.81432038 477.87881128 303.25977072 C477.87228849 307.05650682 477.87213919 310.85295271 477.88951778 314.64966106 C477.90818839 318.771137 477.89567606 322.89194322 477.8802557 327.0134325 C477.89054283 328.20586008 477.90082995 329.39828766 477.91142881 330.62684941 C477.82301847 341.32999196 475.0622729 349.32693902 467.67874813 357.15375233 C461.42011864 362.55941698 454.23212325 365.23589061 446.05008602 365.32709217 C444.08773762 365.35118656 444.08773762 365.35118656 442.08574581 365.37576771 C440.65581569 365.38725247 439.22587831 365.39786146 437.79593563 365.40765858 C437.07553034 365.41298225 436.35512505 365.41830593 435.61288929 365.42379093 C431.80225216 365.45048692 427.99164744 365.46987606 424.1809454 365.48431873 C421.02733126 365.49767702 417.8743613 365.52556758 414.72098446 365.56634998 C410.91139114 365.61561588 407.10238353 365.64043129 403.29248524 365.64754581 C401.84156998 365.65426396 400.3906681 365.66950101 398.93993473 365.69343662 C396.91047518 365.72501971 394.88056777 365.72212833 392.85086727 365.71771717 C391.69631542 365.72580402 390.54176357 365.73389088 389.3522253 365.74222279 C386.38577938 365.13422108 386.38577938 365.13422108 383.98171139 362.82431507 C382.38577938 360.13422108 382.38577938 360.13422108 382.38577938 356.50922108 C383.51068895 352.71265129 384.03792116 352.03757228 387.38577938 350.13422108 C390.12876034 349.76241016 390.12876034 349.76241016 393.31253719 349.76532459 C395.10525051 349.7549995 395.10525051 349.7549995 396.93418026 349.74446583 C398.8670187 349.75370327 398.8670187 349.75370327 400.83890438 349.76312733 C402.18166799 349.75642963 403.52442341 349.74785011 404.86716366 349.7374773 C410.55808767 349.69747908 416.24893735 349.69616574 421.9399786 349.69843006 C425.42666891 349.69848144 428.91285996 349.67917391 432.39941311 349.64909649 C434.36011551 349.63835355 436.32090057 349.65039347 438.28159237 349.66292286 C445.4459007 349.60339254 450.34624943 349.11334838 456.38577938 345.13422108 C460.10489279 340.46148884 461.50865664 336.87732801 461.52000046 330.97448063 C461.52668722 329.36266749 461.52668722 329.36266749 461.53350908 327.71829247 C461.53332471 326.53339376 461.53314035 325.34849505 461.5329504 324.12769032 C461.53846543 322.24465265 461.53846543 322.24465265 461.54409188 320.32357383 C461.55411505 316.83217984 461.55782918 313.34080304 461.56048119 309.84939671 C461.56438327 306.08649177 461.57396163 302.32360047 461.58269405 298.56070423 C461.60246052 289.47026291 461.61252461 280.37982047 461.62142184 271.28936303 C461.62580418 267.00960824 461.63117111 262.7298547 461.63641071 258.4501009 C461.65342268 244.22536062 461.66791742 230.00062112 461.67515945 215.77587223 C461.67706938 212.08412392 461.67898971 208.39237561 461.6809454 204.70062733 C461.68142914 203.78305065 461.68191288 202.86547398 461.68241128 201.92009196 C461.69071372 187.05196229 461.71605438 172.18391301 461.74852607 157.31581846 C461.78158436 142.05487059 461.79960707 126.7939636 461.8028037 111.53297973 C461.80496987 102.96292908 461.81373419 94.3929957 461.83926487 85.82297993 C461.86095502 78.52524604 461.86903061 71.2276579 461.85929809 63.92989543 C461.85474854 60.20645348 461.85667729 56.48331236 461.87605953 52.75991154 C461.89689424 48.72262408 461.88672169 44.68600586 461.87352657 40.64868641 C461.88449582 39.47271058 461.89546507 38.29673476 461.90676671 37.0851233 C461.8553924 30.58932537 461.61574601 26.21776385 457.38577938 21.13422108 C452.26546723 17.69193302 447.43037561 16.54980465 441.28381157 16.63085651 C440.50509122 16.62504275 439.72637086 16.61922899 438.92405292 16.61323905 C436.32283632 16.5986775 433.72256904 16.61250587 431.12135983 16.62628651 C429.23440557 16.62167608 427.34745491 16.6153222 425.46051174 16.60737753 C420.2814837 16.59068085 415.10275053 16.5989322 409.92372143 16.6113224 C404.3360619 16.62036906 398.74845324 16.6064051 393.16080379 16.59540272 C382.21732261 16.5776092 371.27395111 16.58146112 360.33046561 16.59305328 C351.4376859 16.60208357 342.54493695 16.60331335 333.65215397 16.59895802 C332.38691886 16.59834508 331.12168375 16.59773215 329.81810819 16.59710065 C327.24789157 16.59582176 324.67767496 16.5945249 322.10745836 16.59321028 C298.68988466 16.58212742 275.27238135 16.593624 251.85482128 16.61458067 C230.47847123 16.63356515 209.10221649 16.63186239 187.72586727 16.6127367 C163.70626159 16.59131787 139.68671546 16.58289853 115.66709667 16.59518576 C113.10659413 16.59645997 110.54609158 16.59771745 107.98558903 16.59895802 C106.72573552 16.59957512 105.46588202 16.60019222 104.16785113 16.60082802 C95.28385589 16.60428371 86.39989443 16.5984479 77.51590443 16.5890398 C66.69208944 16.5778295 55.86839052 16.58083963 45.04458886 16.60216278 C39.52069924 16.61268582 33.99700322 16.61677351 28.47311497 16.60356617 C23.41819353 16.59166274 18.3636455 16.59817115 13.30875803 16.61947638 C11.47847125 16.62395109 9.64815304 16.62165675 7.8178864 16.61197323 C5.3321096 16.59982858 2.8476157 16.61226402 0.36190605 16.63085651 C-0.70685894 16.61680952 -0.70685894 16.61680952 -1.79721513 16.60247874 C-7.22319568 16.68372874 -10.23953617 18.14448439 -14.61422062 21.13422108 C-19.51748258 27.18361196 -19.18181816 33.09614208 -19.12888432 40.65300465 C-19.13582984 41.91515877 -19.14277537 43.1773129 -19.14993137 44.47771412 C-19.16852992 47.96967586 -19.16226363 51.4612127 -19.15177834 54.95319188 C-19.14477831 58.72357396 -19.16079034 62.49386946 -19.17377567 66.26422596 C-19.1954076 73.64612729 -19.19529086 81.0278744 -19.18715013 88.40979701 C-19.18084787 94.41024438 -19.18198923 100.41064681 -19.1884222 106.41109371 C-19.18977469 107.69258633 -19.18977469 107.69258633 -19.19115449 108.99996768 C-19.19300571 110.73558411 -19.19486827 112.47120052 -19.19674205 114.20681692 C-19.21331775 130.47918709 -19.20460332 146.75147053 -19.18775647 163.02383549 C-19.17306017 177.90723907 -19.1876873 192.79044076 -19.21652663 207.67381834 C-19.24592736 222.96090838 -19.25689092 238.24790525 -19.24734443 253.53502232 C-19.2463219 255.26452575 -19.24532729 256.99402921 -19.24436092 258.72353268 C-19.24388453 259.57445214 -19.24340814 260.4253716 -19.24291732 261.3020765 C-19.24075405 267.29368605 -19.2505526 273.28520732 -19.26513195 279.27679729 C-19.28265763 286.58104333 -19.28253468 293.885032 -19.2597803 301.18926793 C-19.24864 304.91493053 -19.24547021 308.64013975 -19.264081 312.36578274 C-19.28400842 316.407046 -19.26509694 320.44720536 -19.24240971 324.48845387 C-19.2601633 326.24979205 -19.2601633 326.24979205 -19.27827555 328.04671282 C-19.19930454 334.96336638 -18.45378312 339.96651682 -13.61422062 345.13422108 C-7.25896959 350.55293815 0.06174949 349.69106086 8.05745602 349.63301563 C9.56620396 349.63674447 11.0749484 349.64223538 12.58368427 349.64933246 C16.72185099 349.66376699 20.85964057 349.65342328 24.99779379 349.63904941 C29.46338507 349.62792847 33.92892038 349.63993023 38.39450741 349.64923573 C46.12975371 349.66232336 53.86489192 349.66116436 61.60014057 349.65064144 C72.78833725 349.63570386 83.97640708 349.64561457 95.16459654 349.66216063 C113.32271884 349.68861817 131.48081268 349.69948061 149.63895321 349.69843006 C150.72551985 349.69837174 151.81208649 349.69831342 152.93157939 349.69825333 C157.3346008 349.69798746 161.7376222 349.69767017 166.14064361 349.69729007 C178.26833573 349.69632332 190.396027 349.69765238 202.52371883 349.70038319 C203.60987154 349.70062308 204.69602425 349.70086297 205.81509068 349.70111013 C223.90910418 349.70551282 242.00309121 349.72172937 260.09708911 349.74560398 C271.26123299 349.7596934 282.42527649 349.76253786 293.58942387 349.75098109 C301.23308112 349.74367237 308.87668769 349.746698 316.52034005 349.75793952 C320.9339902 349.76402763 325.34749875 349.76506092 329.76113987 349.75306225 C333.79816333 349.74215297 337.83493504 349.74487504 341.87194774 349.75860571 C343.33546129 349.76111026 344.79899405 349.75848735 346.26248702 349.75033183 C348.24590101 349.73998951 350.22938982 349.74976084 352.21280098 349.76063347 C353.31627095 349.76036378 354.41974093 349.76009409 355.55664939 349.75981623 C358.76174391 350.18397593 360.12060518 350.85432196 362.38577938 353.13422108 C363.38577938 356.50922108 363.38577938 356.50922108 363.38577938 360.13422108 C361.80429745 362.81956959 361.80429745 362.81956959 359.38577938 365.13422108 C356.32321835 365.77345753 356.32321835 365.77345753 352.68949032 365.79364491 C352.02566341 365.80412861 351.36183651 365.81461231 350.67789364 365.8254137 C348.49150329 365.8541338 346.30669932 365.84787691 344.12015438 365.84125233 C342.60127436 365.85436944 341.08241178 365.86967371 339.56357479 365.88707447 C335.57192446 365.92693694 331.58073029 365.93711561 327.58890438 365.94110584 C323.51324267 365.95043508 319.43784924 365.98784719 315.36234188 366.02289295 C307.37014947 366.0874813 299.37822057 366.12071098 291.38577938 366.13422108 C293.55347408 369.93707848 295.72231 373.73928217 297.89212704 377.54092884 C298.62745383 378.82961633 299.36248858 380.11847051 300.09720516 381.40750599 C304.85980922 389.7627736 309.65377779 398.0963161 314.63577938 406.32343006 C317.38577938 410.9216831 317.38577938 410.9216831 317.38577938 413.13422108 C318.6182037 413.12422832 318.6182037 413.12422832 319.87552547 413.1140337 C327.64313991 413.05376009 335.41063989 413.00816447 343.1784277 412.97878456 C347.17131232 412.96317194 351.16400264 412.94201497 355.15677547 412.90790272 C359.01472523 412.87515103 362.87248885 412.85733499 366.73056698 412.84958935 C368.19767846 412.84407405 369.6647805 412.83330435 371.1318121 412.81703091 C387.3933322 412.64392615 387.3933322 412.64392615 394.59281063 417.67718983 C401.77797456 425.03717527 402.88348602 431.80924621 402.80570126 441.8380785 C402.54111973 449.54231935 400.8430951 455.11535062 395.13577938 460.50922108 C387.81420842 466.70718461 379.27073443 466.56624835 370.19074154 466.52190113 C368.85452416 466.52607849 367.51831033 466.53155821 366.18210304 466.53822094 C362.52530282 466.5526418 358.86872863 466.54844143 355.21191621 466.54105413 C351.26225036 466.53631638 347.31263298 466.5488377 343.36298275 466.55907154 C335.63098056 466.57625323 327.89905966 466.57710083 320.16704334 466.57185864 C313.88107933 466.56781439 307.59513931 466.56926353 301.30917645 466.5746069 C300.41393055 466.57535532 299.51868466 466.57610374 298.5963101 466.57687484 C296.77751168 466.57840635 294.95871326 466.57994469 293.13991486 466.58148981 C276.08968217 466.59521267 259.03949539 466.58977875 241.98926376 466.5783046 C226.39922053 466.56837333 210.809296 466.58131143 195.21927108 466.60523879 C179.2021614 466.62963596 163.185107 466.63923608 147.16797912 466.63258606 C138.17929659 466.6290951 129.19070533 466.63131773 120.20203686 466.64883709 C112.54986346 466.66356682 104.8978456 466.66418449 97.24567522 466.64676618 C93.3436199 466.63825996 89.44184235 466.63609715 85.5398016 466.65141773 C81.96316524 466.66528649 78.38704403 466.66047422 74.81043731 466.6411785 C72.9134119 466.63565544 71.01636012 466.64967188 69.11938488 466.6645326 C60.85608368 466.59361738 53.57665936 465.45200106 46.94827938 460.20453358 C46.43265438 459.56258045 45.91702938 458.92062733 45.38577938 458.25922108 C44.84952938 457.6224242 44.31327938 456.98562733 43.76077938 456.32953358 C38.77504936 448.36936235 39.34856413 437.50838028 40.81546688 428.49359608 C42.44902359 423.3710849 46.03051626 419.17905105 50.38577938 416.13422108 C57.96835923 412.3630588 65.55307279 412.74951285 73.82327938 412.84125233 C75.31399767 412.84685637 76.80472153 412.85112264 78.29544735 412.85411549 C82.19504038 412.8655008 86.09429147 412.8949124 89.99375057 412.92822742 C93.98245272 412.95906554 97.97121081 412.97265001 101.95999813 412.9877367 C109.76874678 413.01978917 117.57721494 413.07090762 125.38577938 413.13422108 C125.69008373 412.35825581 125.99438808 411.58229053 126.30791378 410.78281116 C127.38208198 408.14330654 128.63049528 405.75877395 130.03812313 403.28265858 C130.56857235 402.3467992 131.09902157 401.41093983 131.64554501 400.44672108 C132.19919735 399.47734608 132.75284969 398.50797108 133.32327938 397.50922108 C133.84212704 396.5939867 134.36097469 395.67875233 134.89554501 394.73578358 C138.6045077 388.20871487 142.36306423 381.7106879 146.1262579 375.21478748 C146.63354679 374.33885441 147.14083569 373.46292133 147.66349697 372.56044483 C148.9041285 370.41829533 150.14489233 368.27622257 151.38577938 366.13422108 C150.15497993 366.13202124 150.15497993 366.13202124 148.89931583 366.12977695 C128.90894882 366.09268158 108.91875099 366.03363062 88.92852116 365.95031834 C79.26127638 365.91055487 69.59411268 365.8781487 59.92679501 365.86322498 C51.49809363 365.85019451 43.06957088 365.82319424 34.64097011 365.77960801 C30.18046865 365.75702456 25.72018723 365.74130852 21.25962353 365.74233723 C17.05537467 365.74308569 12.85161167 365.72506075 8.64748859 365.69305325 C7.11010678 365.68458169 5.57267029 365.68278557 4.03527546 365.68841839 C-8.30573259 365.727588 -17.46921391 364.03480265 -26.63375187 355.35687733 C-32.10233162 349.21955606 -34.73306534 342.91726903 -34.7484417 334.75049114 C-34.75289954 333.65142433 -34.75735738 332.55235752 -34.76195031 331.41998565 C-34.76176595 330.2128095 -34.76158159 329.00563335 -34.76139164 327.76187611 C-34.76506833 326.47919507 -34.76874502 325.19651404 -34.77253312 323.87496388 C-34.78254462 320.31181009 -34.78626854 316.74867315 -34.78892243 313.1855073 C-34.792828 309.34348905 -34.80240617 305.50148412 -34.81113529 301.65947437 C-34.83089256 292.37959237 -34.84096498 283.0997093 -34.84986308 273.81981152 C-34.8542472 269.44879535 -34.85961369 265.07778039 -34.86485195 260.70676517 C-34.88186351 246.17488513 -34.89635744 231.64300584 -34.90360069 217.11111736 C-34.90551056 213.34049828 -34.9074309 209.5698792 -34.90938663 205.79926014 C-34.90987038 204.8621016 -34.91035412 203.92494305 -34.91085251 202.95938577 C-34.91915194 187.77972059 -34.94448771 172.60013424 -34.97696731 157.42050348 C-35.01004763 141.83293592 -35.02805033 126.24540841 -35.03124493 110.65780556 C-35.03340913 101.90714608 -35.04214456 93.15660155 -35.06770611 84.4059763 C-35.08942639 76.95317854 -35.09745701 69.50052365 -35.08773933 62.04769783 C-35.08319845 58.24691934 -35.08506819 54.44643555 -35.10450077 50.64569759 C-35.12541339 46.5197477 -35.11513498 42.39444968 -35.10196781 38.2684679 C-35.11293706 37.07467608 -35.1239063 35.88088426 -35.13520795 34.65091693 C-35.05826574 24.65562695 -32.75709823 16.38408802 -25.81343937 8.95843983 C-18.11700285 2.57436194 -9.77857728 -0.02011783 0 0 Z " fill="#010102" transform="translate(34.61422061920166,22.865778923034668)"/>
<path d="M0 0 C40.30673239 -0.34351613 80.61327361 -0.60773632 120.921178 -0.76597994 C125.68248043 -0.78473999 130.44377999 -0.80415488 135.20507812 -0.82397461 C136.1529459 -0.82790927 137.10081367 -0.83184392 138.07740471 -0.83589781 C153.41481406 -0.9011251 168.75137798 -1.01936824 184.08828619 -1.15729194 C199.83162413 -1.29768724 215.57452008 -1.38090682 231.31845832 -1.41132742 C241.02979823 -1.4318857 250.73874857 -1.49674716 260.44935259 -1.618747 C267.11315801 -1.69819089 273.77573277 -1.72196892 280.43997708 -1.70252066 C284.28300646 -1.69293296 288.12187005 -1.7073531 291.96415329 -1.78808212 C316.18109758 -2.27194914 316.18109758 -2.27194914 322.35710907 3.22094536 C325.06719317 6.25163454 327.07955681 9.48148451 328.93767881 13.08539188 C330.69272574 16.2484909 332.98864163 18.85928804 335.3125 21.625 C338.97198822 26.18499056 338.97198822 26.18499056 339.08203125 29.38671875 C337.49925627 33.20937746 335.03114531 36.04667704 332.375 39.1875 C331.28025164 40.51633731 330.18780124 41.8470711 329.09765625 43.1796875 C328.30125732 44.15180176 328.30125732 44.15180176 327.48876953 45.14355469 C321.09919197 53.11114206 316.91181516 58.59823319 318 69 C320.26679804 74.32204758 323.17571628 75.78414432 328.20288086 77.93408203 C333.71906668 80.03617396 339.3920871 81.62213027 345.0625 83.25 C346.30966797 83.61351562 347.55683594 83.97703125 348.84179688 84.3515625 C351.89294273 85.24001876 354.94563904 86.12267337 358 87 C358.0093457 88.07894531 358.01869141 89.15789062 358.02832031 90.26953125 C358.06843208 94.30297938 358.13424773 98.33568163 358.20751953 102.36865234 C358.23560703 104.10846314 358.25688194 105.84839865 358.27099609 107.58837891 C358.29259653 110.1012297 358.33932986 112.61260033 358.390625 115.125 C358.39246796 116.27705933 358.39246796 116.27705933 358.39434814 117.45239258 C358.54282272 123.02557319 359.92503882 127.32067323 363 132 C366.4547723 135.07090871 369.27652158 135.24638636 373.81933594 135.18286133 C377.40912511 134.88183669 380.61936408 133.7889991 384 132.59375 C384.7211499 132.34959351 385.4422998 132.10543701 386.18530273 131.85388184 C388.46091958 131.0805576 390.7303487 130.29063942 393 129.5 C394.55300522 128.96893896 396.1063879 128.43898038 397.66015625 127.91015625 C401.44458443 126.61946663 405.223562 125.31387513 409 124 C410.79246661 126.4369153 412.58400284 128.87450511 414.375 131.3125 C414.88289063 132.00279297 415.39078125 132.69308594 415.9140625 133.40429688 C416.40390625 134.07138672 416.89375 134.73847656 417.3984375 135.42578125 C418.07398682 136.34484253 418.07398682 136.34484253 418.76318359 137.2824707 C421.43271898 140.98957324 422.24913563 142.830091 422.24050903 147.37199402 C422.24463303 149.04418251 422.24463303 149.04418251 422.24884033 150.75015259 C422.24164978 151.97366425 422.23445923 153.1971759 422.22705078 154.45776367 C422.22734283 155.74567307 422.22763489 157.03358246 422.22793579 158.36051941 C422.22851027 161.8933426 422.21674071 165.42603034 422.20278788 168.95882201 C422.19029627 172.65038223 422.18911126 176.34194546 422.18673706 180.03352356 C422.18051767 187.02456559 422.16410066 194.01554516 422.14403808 201.00655967 C422.12169335 208.96535657 422.11068924 216.92415644 422.10064721 224.88297689 C422.07973482 241.2553545 422.04454994 257.62766929 422 274 C413.3225825 274.34573268 404.64920717 274.61659958 395.96651649 274.77718258 C391.93126065 274.85439225 387.90101943 274.95839266 383.86865234 275.1315918 C361.75037546 276.0560419 347.23838016 274.12056923 328.89500427 260.99555969 C323.80197784 257.48487808 318.38737946 254.53012111 313 251.5 C310.8567291 250.26665522 308.71463794 249.03125594 306.57421875 247.79296875 C305.50478027 247.17599121 304.4353418 246.55901367 303.33349609 245.92333984 C300.43496482 244.25096329 297.53655044 242.57838453 294.63821411 240.90567017 C292.84933082 239.87326522 291.06041283 238.84092044 289.27148438 237.80859375 C287.02662364 236.51314052 284.7818281 235.2175743 282.53710938 233.921875 C277.36428226 230.93692086 272.18854991 227.95754683 267 225 C267.9468749 220.94619185 269.44573559 217.16516957 271 213.3125 C271.27328125 212.62349609 271.5465625 211.93449219 271.828125 211.22460938 C273.87330665 206.12669335 273.87330665 206.12669335 275 205 C276.99823559 204.86618958 278.99893037 204.76856185 281 204.6875 C290.34775499 204.01323571 298.26663146 200.65986015 305 194 C307.02504909 191.1371768 308.56544447 188.19435442 310 185 C310.433125 184.05125 310.86625 183.1025 311.3125 182.125 C313.06185309 174.17339503 312.57172191 166.35589922 309 159 C307.99464101 157.76001478 306.96282474 156.54111103 305.90844727 155.3425293 C302.32741855 150.65537402 302.27923734 146.94421498 302.58984375 141.20703125 C302.6101918 140.29797531 302.63053986 139.38891937 302.65150452 138.45231628 C302.71773139 135.57066554 302.82337596 132.692624 302.9375 129.8125 C303.04611446 126.92181394 303.14522319 124.03250091 303.21278381 121.14054871 C303.25492953 119.34790621 303.32048713 117.5556181 303.4125824 115.7648468 C303.51947157 111.35436674 303.48596126 109.61785266 300.67016602 106.0378418 C298.82565285 104.63012932 296.93062264 103.28708176 295 102 C294.64697266 99.91210938 294.64697266 99.91210938 294.6640625 97.34375 C294.6552002 96.40837402 294.64633789 95.47299805 294.63720703 94.50927734 C294.63317871 93.51621582 294.62915039 92.5231543 294.625 91.5 C294.06599341 71.75790855 282.26539141 62.02875228 268.85961914 48.89550781 C266.21372808 46.29114334 263.70625341 43.69682122 261.39453125 40.7890625 C259.07323135 38.0852972 257.12841045 36.5130196 254.0625 34.75 C253.24910156 34.27046875 252.43570312 33.7909375 251.59765625 33.296875 C244.56289236 29.78478235 238.3842508 29.70892555 230.64819336 29.7253418 C229.40689163 29.72023087 228.1655899 29.71511993 226.88667297 29.70985413 C223.49415794 29.69835887 220.10188771 29.69588057 216.70937037 29.69841743 C213.873772 29.69948947 211.03819601 29.69459804 208.20260245 29.689812 C201.51322498 29.6787321 194.82390368 29.67827152 188.13452148 29.68432617 C181.23844429 29.69037191 174.34257082 29.67803639 167.44652838 29.6567561 C161.51855195 29.63913727 155.59064037 29.63313899 149.66263872 29.63639385 C146.12514834 29.63820566 142.58780346 29.63558037 139.05033684 29.62167931 C135.10761387 29.60676382 131.16515053 29.61607357 127.22241211 29.62768555 C125.46817429 29.61621994 125.46817429 29.61621994 123.67849731 29.60452271 C122.60328323 29.61153702 121.52806915 29.61855133 120.42027283 29.6257782 C119.48875869 29.62561046 118.55724455 29.62544271 117.59750271 29.62526989 C114.45673154 30.07837491 112.56951938 31.16889361 110 33 C107.29940867 37.06735401 107.12540388 41.28446926 108 46 C109.70041408 49.55406315 111.73962923 52.7776262 114 56 C112.88625 56.5775 111.7725 57.155 110.625 57.75 C108.51325137 58.97865375 107.12086248 59.85286307 105.5625 61.75 C104.2353792 67.05848319 104.25355332 70.51230232 106.68359375 75.35546875 C108.91499764 79.06275013 111.58154433 82.26285928 114.4375 85.5 C115.4117035 86.63408939 116.38437952 87.76949282 117.35546875 88.90625 C118.04261963 89.70869141 118.04261963 89.70869141 118.74365234 90.52734375 C124.94254856 97.79351981 124.94254856 97.79351981 125.125 101.625 C124 104 124 104 121.44921875 106.05688477 C117.99985074 110.20183406 118.44000318 113.25104093 118.6875 118.46484375 C118.71589966 119.83123741 118.71589966 119.83123741 118.74487305 121.22523499 C118.82639454 125.1107946 118.96708469 128.99369265 119.10253906 132.87768555 C119.19314431 135.71911365 119.25348793 138.56011195 119.3125 141.40234375 C119.37473755 142.71041237 119.37473755 142.71041237 119.43823242 144.04490662 C119.52476544 148.36356376 119.39523911 151.07849475 116.56567383 154.47094727 C115.71900146 155.30553467 114.8723291 156.14012207 114 157 C109.30699946 164.10001227 109.05772723 171.71184563 110 180 C110.88882165 183.34556465 112.17682063 186.06705927 114 189 C114.43570313 189.70898438 114.87140625 190.41796875 115.3203125 191.1484375 C120.03949101 198.08537203 125.99015098 201.71709463 134 204 C136.28452807 204.27580863 138.57818383 204.4843786 140.875 204.625 C142.02742187 204.69976562 143.17984375 204.77453125 144.3671875 204.8515625 C145.67042969 204.92503906 145.67042969 204.92503906 147 205 C147.32613281 205.80824219 147.65226563 206.61648438 147.98828125 207.44921875 C148.42527344 208.51785156 148.86226562 209.58648437 149.3125 210.6875 C149.74175781 211.74324219 150.17101562 212.79898438 150.61328125 213.88671875 C151.9176505 217.00049457 151.9176505 217.00049457 153.66796875 219.70703125 C155 222 155 222 155 225 C152.55078125 226.89453125 152.55078125 226.89453125 149.3125 228.8125 C148.25675781 229.45832031 147.20101562 230.10414063 146.11328125 230.76953125 C143 232 143 232 140.4375 231.375 C139.633125 230.92125 138.82875 230.4675 138 230 C136.73736328 229.34064453 136.73736328 229.34064453 135.44921875 228.66796875 C134.53785156 228.17941406 133.62648437 227.69085938 132.6875 227.1875 C122.89182416 222.27765757 113.21782028 219.06767084 102.25 218.5625 C96.49483921 217.95127893 93.87500874 216.5007444 90.19677734 212.26782227 C88.20588172 209.77099053 86.27264934 207.23372761 84.34814453 204.68554688 C72.28892992 189.60825284 48.49343384 180.64486331 30 178 C27.61826552 177.92128596 25.23457558 177.89215993 22.8515625 177.90234375 C22.19417084 177.9037587 21.53677917 177.90517365 20.85946655 177.90663147 C18.78126269 177.91218238 16.70317073 177.92472535 14.625 177.9375 C13.20703282 177.94252136 11.78906393 177.94708315 10.37109375 177.95117188 C6.91402678 177.96213563 3.45702433 177.97936579 0 178 C-0.01030746 177.31761765 -0.02061493 176.63523529 -0.03123474 175.93217468 C-0.13923821 168.84343768 -0.25384131 161.75482937 -0.37231445 154.66625977 C-0.41568304 152.01915168 -0.45735668 149.37201528 -0.49731445 146.72485352 C-0.55497023 142.924555 -0.61867844 139.12439932 -0.68359375 135.32421875 C-0.70030624 134.13664474 -0.71701874 132.94907074 -0.73423767 131.72550964 C-0.7641555 130.0741375 -0.7641555 130.0741375 -0.79467773 128.3894043 C-0.81022202 127.41899704 -0.8257663 126.44858978 -0.84178162 125.44877625 C-0.90465129 122.86204325 -0.90465129 122.86204325 -2 120 C-3.98 119.34 -5.96 118.68 -8 118 C-8 111.73 -8 105.46 -8 99 C-5.03 98.01 -5.03 98.01 -2 97 C-1.00790168 95.14676501 -1.00790168 95.14676501 -1 93 C-0.93136073 92.03741964 -0.93136073 92.03741964 -0.8613348 91.05539322 C-0.85165597 90.03220301 -0.85165597 90.03220301 -0.84178162 88.98834229 C-0.82709839 87.80631981 -0.82709839 87.80631981 -0.81211853 86.60041809 C-0.80348534 85.31756172 -0.80348534 85.31756172 -0.79467773 84.00878906 C-0.77982834 82.64728981 -0.77982834 82.64728981 -0.76467896 81.25828552 C-0.73311371 78.26075847 -0.70832614 75.26321557 -0.68359375 72.265625 C-0.66301993 70.18625478 -0.64202334 68.10688871 -0.62062073 66.02752686 C-0.56544428 60.55641028 -0.51601544 55.08525624 -0.46777344 49.61407471 C-0.41752612 44.03044299 -0.36185691 38.44686565 -0.30664062 32.86328125 C-0.19911318 21.90890062 -0.09765615 10.95447277 0 0 Z " fill="#C7EEFD" transform="translate(45,69)"/>
<path d="M0 0 C0.77726691 -0.00581376 1.55453382 -0.01162753 2.35535428 -0.01761746 C4.9576566 -0.0322055 7.55901394 -0.01833816 10.16130924 -0.00457001 C12.04668776 -0.0091794 13.93206268 -0.01553258 15.81743008 -0.02347898 C20.99678671 -0.04019019 26.17584886 -0.03191769 31.35520661 -0.01953411 C36.94153957 -0.01049326 42.52782147 -0.02444861 48.11414433 -0.0354538 C59.05742971 -0.05325423 70.00060545 -0.04939211 80.94389515 -0.03780323 C89.83716693 -0.02877474 98.73040794 -0.02754239 107.62368298 -0.0318985 C108.88876485 -0.03251143 110.15384672 -0.03312436 111.45726441 -0.03375587 C114.02715683 -0.03503475 116.59704925 -0.03633161 119.16694165 -0.03764623 C142.58629621 -0.04873125 166.0055804 -0.03722942 189.42492132 -0.01627585 C210.80111772 0.00270428 232.17721879 0.00101001 253.55341434 -0.01811981 C277.57155745 -0.03954212 301.58964099 -0.04795566 325.60779721 -0.03567076 C328.1686141 -0.03439655 330.72943101 -0.03313906 333.29024792 -0.0318985 C334.5502557 -0.0312814 335.81026348 -0.03066429 337.10845331 -0.03002849 C345.99146621 -0.02657352 354.8744453 -0.03240717 363.75745296 -0.04181671 C374.58236152 -0.05303105 385.40715403 -0.05000854 396.23204928 -0.02869374 C401.75605583 -0.01817548 407.27986886 -0.01407483 412.80387402 -0.02729034 C417.86012114 -0.03920391 422.91599525 -0.03266852 427.97220851 -0.01138014 C429.80187003 -0.00690969 431.63156303 -0.00919025 433.46120434 -0.01888329 C435.94855253 -0.03105048 438.43462382 -0.01856952 440.92190552 0 C441.98715876 -0.014047 441.98715876 -0.014047 443.07393226 -0.02837777 C449.23555198 0.06354375 454.34543761 2.04941421 458.87678856 6.20098305 C462.71532815 12.31595822 462.72372076 18.02288476 462.65206242 25.10443878 C462.6591568 26.36336378 462.66625119 27.62228878 462.67356056 28.91936302 C462.69242951 32.39776954 462.68028022 35.87546971 462.66283762 39.35385799 C462.64943763 43.11127053 462.6649101 46.8685815 462.67665958 50.62598419 C462.69502101 57.98038997 462.68653397 65.33452973 462.66857136 72.68892717 C462.65453522 78.666948 462.65065474 84.64489671 462.65401363 90.62293243 C462.65449108 91.47434999 462.65496852 92.32576755 462.65546043 93.20298564 C462.65648678 94.93272354 462.65754214 96.66246142 462.65862619 98.39219928 C462.66719022 113.68126066 462.65052793 128.97019377 462.62079716 144.25922394 C462.59196048 159.08870583 462.58487659 173.91800294 462.60028934 188.74750519 C462.61705728 204.90298829 462.62107967 221.0583837 462.60357898 237.21386909 C462.60173463 238.93717828 462.59989991 240.66048748 462.59807491 242.38379669 C462.59716282 243.23165706 462.59625073 244.07951742 462.595311 244.95307052 C462.58970929 250.9226294 462.59300938 256.89214541 462.59961987 262.86170197 C462.60735812 270.13845904 462.6005828 277.41503434 462.57544482 284.69175482 C462.56296111 288.40318057 462.55678937 292.11432349 462.56798649 295.82575989 C462.57990244 299.85153171 462.56074709 303.87656226 462.53853703 307.90229034 C462.55089818 309.65676892 462.55089818 309.65676892 462.56350905 311.44669151 C462.49401375 318.26482419 461.68376751 322.70176012 458.02387333 328.50336456 C453.17932219 333.22369644 448.58816294 334.74464989 441.90424442 334.79047394 C440.69303928 334.80388824 439.48183414 334.81730255 438.23392582 334.83112335 C436.93484287 334.83640045 435.63575993 334.84167755 434.29731083 334.84711456 C432.94399702 334.86076081 431.59069429 334.87554876 430.23740482 334.89142609 C425.23026776 334.94767661 420.22302313 334.98307307 415.21570683 335.0190506 C410.97597777 335.05029583 406.73646743 335.08947266 402.49691486 335.13930511 C400.50998354 335.15936048 398.52294402 335.16755925 396.53592777 335.17560577 C395.33102695 335.18902008 394.12612614 335.20243439 392.88471317 335.21625519 C391.82279758 335.22354645 390.760882 335.23083771 389.66678715 335.23834991 C386.79429079 335.31775808 386.79429079 335.31775808 384.02387333 337.50336456 C383.69387333 339.15336456 383.36387333 340.80336456 383.02387333 342.50336456 C376.09387333 342.50336456 369.16387333 342.50336456 362.02387333 342.50336456 C361.36387333 340.52336456 360.70387333 338.54336456 360.02387333 336.50336456 C357.29708473 335.13997026 355.15400708 335.37852114 352.0997839 335.37866592 C350.82929601 335.37627497 349.55880811 335.37388402 348.24982059 335.37142062 C346.82667552 335.37379945 345.40353058 335.37625945 343.98038578 335.37879181 C342.47880873 335.37780628 340.97723191 335.37636975 339.47565567 335.37451863 C336.20079817 335.37145119 332.92596097 335.37157347 329.65110302 335.37407494 C324.32337371 335.37812409 318.99566039 335.37537087 313.66793156 335.37172699 C306.93618835 335.3676319 300.20444871 335.36539726 293.47270425 335.365311 C280.24244012 335.3651085 267.01221276 335.35266237 253.78196049 335.33570099 C251.70056658 335.33309513 249.61917266 335.33049632 247.53777874 335.32790446 C244.38301095 335.3239659 241.22824318 335.3200194 238.07347544 335.31604324 C226.17152619 335.30108849 214.2695758 335.2874686 202.36762333 335.27533722 C200.73510597 335.27366688 200.73510597 335.27366688 199.06960846 335.27196279 C181.43768401 335.25439239 163.80578251 335.25151829 146.17385076 335.25318763 C128.07995081 335.25446642 109.98613635 335.23673637 91.89226925 335.20216966 C80.72766897 335.18150736 69.56327334 335.17619158 58.39866216 335.19049796 C50.74600524 335.19895368 43.09350747 335.18923429 35.44088416 335.16518846 C31.02467002 335.15187338 26.60883757 335.14670554 22.192626 335.1633091 C18.14823555 335.17834654 14.10456442 335.17034109 10.06023695 335.14413956 C8.59852837 335.13872268 7.13675886 335.14171772 5.67509232 335.15405652 C-7.9669733 335.26074672 -7.9669733 335.26074672 -13.38582754 331.07628798 C-19.15058254 325.37451906 -20.54809495 320.48886951 -20.6448437 312.4205184 C-20.63369009 311.24697506 -20.62253648 310.07343173 -20.61104488 308.86432648 C-20.61884484 307.60131793 -20.62664479 306.33830937 -20.63468111 305.03702784 C-20.65548369 301.54723296 -20.64527007 298.05812493 -20.62975001 294.56832814 C-20.61841308 290.79863623 -20.63591076 287.02906045 -20.64964962 283.25939178 C-20.67186171 275.88093243 -20.66708997 268.50272765 -20.65258642 261.1242584 C-20.64128615 255.12668928 -20.63976667 249.1291914 -20.6452055 243.13161469 C-20.64597166 242.27742176 -20.64673783 241.42322884 -20.64752721 240.54315129 C-20.64912587 238.80777639 -20.65074693 237.07240151 -20.65239017 235.33702666 C-20.66664172 219.07130451 -20.65026428 202.80572336 -20.62338834 186.54002434 C-20.60105008 172.58876898 -20.60493037 158.63772164 -20.62798214 144.68647003 C-20.65475065 128.47824285 -20.66526848 112.27013918 -20.64992082 96.06189299 C-20.64832811 94.33296682 -20.64675625 92.60404064 -20.6452055 90.87511444 C-20.64404843 89.59917773 -20.64404843 89.59917773 -20.64286799 88.29746452 C-20.63855414 82.30835384 -20.64583074 76.31932161 -20.65760326 70.33022308 C-20.6716385 63.02965041 -20.66780695 55.72934647 -20.64119954 48.42880452 C-20.62807492 44.70516748 -20.62288531 40.9819782 -20.6394453 37.25834465 C-20.65713607 33.21930893 -20.63598849 29.1813999 -20.61104488 25.14240265 C-20.62219849 23.96885931 -20.6333521 22.79531598 -20.6448437 21.58621073 C-20.57314439 15.60685466 -20.01102511 11.26176939 -16.73114908 6.19964838 C-11.65846091 1.29673727 -6.91206631 -0.0908467 0 0 Z M-3.76535702 20.58562469 C-5.51595638 24.80425831 -5.38641586 28.66220444 -5.34844112 33.18720245 C-5.35209179 34.15686447 -5.35574245 35.12652649 -5.35950375 36.1255722 C-5.36759976 39.32590072 -5.3540077 42.52572146 -5.33940792 45.72602081 C-5.33888924 47.95131683 -5.33940724 50.17661331 -5.34091854 52.40190887 C-5.34082886 57.06315714 -5.33040738 61.72423229 -5.31230831 66.38544464 C-5.28960828 72.36328925 -5.28907995 78.3408812 -5.29582596 84.31875706 C-5.29916546 88.91264343 -5.2925364 93.50647209 -5.28269672 98.10034752 C-5.27884511 100.30478806 -5.27769635 102.50923502 -5.27928257 104.71367836 C-5.27965296 107.79221739 -5.26704047 110.87043101 -5.25078487 113.9489212 C-5.25326229 114.86175873 -5.25573971 115.77459625 -5.2582922 116.71509552 C-5.25120739 117.55478378 -5.24412258 118.39447205 -5.23682308 119.25960541 C-5.23477021 119.98685853 -5.23271734 120.71411165 -5.23060226 121.46340275 C-4.91955659 123.95684935 -4.41868425 125.43361856 -2.97612667 127.50336456 C-1.32612667 128.16336456 0.32387333 128.82336456 2.02387333 129.50336456 C2.02387333 135.77336456 2.02387333 142.04336456 2.02387333 148.50336456 C0.04387333 149.49336456 -1.93612667 150.48336456 -3.97612667 151.50336456 C-5.36180198 154.27471518 -5.10847847 156.52336991 -5.11656857 159.62586212 C-5.12227871 160.93254852 -5.12798885 162.23923492 -5.13387203 163.58551788 C-5.13511747 165.04218283 -5.13624255 166.49884788 -5.13725948 167.955513 C-5.14188664 169.48300039 -5.14691116 171.01048662 -5.15230465 172.5379715 C-5.16544226 176.6951477 -5.17187649 180.85230773 -5.17631531 185.00950146 C-5.1792444 187.60629685 -5.18334894 190.20308781 -5.18781948 192.79988098 C-5.20149924 200.92318824 -5.21116302 209.04648539 -5.21502137 217.16980338 C-5.21950066 226.5493109 -5.23704051 235.92867258 -5.26602197 245.30813575 C-5.28763926 252.55577129 -5.29772571 259.80336582 -5.29906249 267.05103326 C-5.30011067 271.38059607 -5.30602095 275.71002189 -5.3238821 280.03955078 C-5.34036319 284.11400004 -5.34251817 288.18820934 -5.3337431 292.26268005 C-5.33297268 293.75662122 -5.33731602 295.25057529 -5.34720135 296.74448395 C-5.35992362 298.78726084 -5.35225133 300.83013416 -5.34361935 302.87293243 C-5.34508591 304.01520168 -5.34655247 305.15747093 -5.34806347 306.3343544 C-4.7539809 311.39611144 -3.30782784 314.42384849 0.67090869 317.64912915 C4.62422368 319.83536654 7.02611463 320.00450456 11.52333927 320.00672913 C12.26121894 320.01254289 12.9990986 320.01835665 13.75933826 320.02434659 C16.23367289 320.03895301 18.70701652 320.02505896 21.18134403 320.01129913 C22.97241473 320.0159078 24.76348164 320.02226049 26.55454063 320.03020811 C31.47778664 320.04692919 36.40072309 320.03864241 41.32397032 320.02626324 C46.63284417 320.01722646 51.94166417 320.03117566 57.25052738 320.04218292 C67.65118405 320.05998738 78.05172539 320.05611956 88.45238662 320.04453236 C96.90376626 320.0355059 105.35511354 320.03427063 113.80649662 320.03862762 C115.00845812 320.03924056 116.21041962 320.03985349 117.4488042 320.04048499 C119.89041862 320.04176387 122.33203303 320.04306072 124.77364743 320.04437536 C147.67905155 320.0557868 170.58439168 320.04265859 193.48978531 320.02117389 C213.15189618 320.00330242 232.8139126 320.00640637 252.47602177 320.02484894 C275.29838428 320.04624567 298.12069068 320.05468812 320.94306183 320.04239988 C323.37579122 320.04112566 325.80852063 320.03986818 328.24125004 320.03862762 C330.03676452 320.03770197 330.03676452 320.03770197 331.86855203 320.03675762 C340.31166638 320.03330113 348.75474519 320.03913951 357.19785404 320.04854584 C367.48449262 320.05975388 377.77100908 320.05675089 388.05763364 320.03542286 C393.30797788 320.02489641 398.55811837 320.02081784 403.80846119 320.03401947 C408.61237657 320.04591608 413.41589883 320.03942592 418.21977842 320.01810926 C419.95993262 320.01363161 421.70011985 320.01593547 423.4402529 320.02561241 C425.80211275 320.03774188 428.16261867 320.02533769 430.52440739 320.00672913 C431.83726562 320.00607972 433.15012384 320.00543031 434.50276566 320.00476122 C438.64129194 319.41544574 440.78844069 318.10282711 444.02387333 315.50336456 C447.94925326 310.13653909 447.45218867 304.3508288 447.42501163 297.97127533 C447.4318083 296.80319177 447.43860497 295.6351082 447.4456076 294.43162817 C447.46129524 291.19775203 447.46356552 287.96419113 447.46002448 284.7302891 C447.45941149 281.23939418 447.47597775 277.74857351 447.49019718 274.25771332 C447.51509608 267.42214982 447.52336071 260.58666394 447.52503432 253.75105888 C447.52646054 248.1949003 447.53262848 242.6387673 447.54213619 237.08261681 C447.56854836 221.32697923 447.5823952 205.57140291 447.58014477 189.81574304 C447.5800249 188.96669378 447.57990503 188.11764453 447.57978153 187.24286652 C447.57965889 186.39277987 447.57953625 185.54269323 447.57940989 184.66684639 C447.57819013 170.88521678 447.60691003 157.10383291 447.64919663 143.32227439 C447.6922821 129.16862778 447.7130076 115.01510106 447.7104153 100.86138719 C447.7094193 92.91619163 447.71766431 84.97125381 447.74994946 77.02611732 C447.77725688 70.26270866 447.78379699 63.49967464 447.76342119 56.73623473 C447.75362157 53.28603451 447.75346638 49.83655316 447.77948093 46.3864212 C447.80256671 42.64444775 447.78876045 38.90436882 447.76558781 35.16243744 C447.78873384 33.52994453 447.78873384 33.52994453 447.81234747 31.86447197 C447.72741859 25.66865244 446.9224835 22.18872238 442.50560993 17.72238153 C439.21207967 15.01281137 436.04879645 15.36155148 431.98257065 15.3719368 C431.24563002 15.36988416 430.50868938 15.36783153 429.74941722 15.3657167 C427.25451634 15.36001585 424.75967012 15.36150772 422.26476383 15.36292267 C420.46818757 15.3603408 418.67161189 15.35732814 416.87503701 15.35391927 C411.91811973 15.34582509 406.96121691 15.34405836 402.0042938 15.3433218 C396.66607451 15.34147544 391.3278628 15.33393024 385.98964787 15.32718658 C374.30798597 15.31358569 362.62632749 15.30757584 350.94465899 15.30317593 C343.65559074 15.30041653 336.36652383 15.29617974 329.07745647 15.29167175 C308.9105214 15.27947691 288.7435874 15.26917794 268.57664871 15.26579666 C267.28509826 15.2655771 265.9935478 15.26535753 264.66285946 15.26513131 C263.36815563 15.26491303 262.07345181 15.26469475 260.73951453 15.26446986 C258.11579494 15.26402639 255.49207534 15.26357983 252.86835575 15.26313019 C250.91615752 15.26279804 250.91615752 15.26279804 248.92452095 15.26245919 C227.82773415 15.25850969 206.73098186 15.241052 185.6342084 15.21777067 C163.99325208 15.19408085 142.35231309 15.1815959 120.71134359 15.18042874 C108.55314844 15.17951066 96.39499825 15.17372486 84.23681545 15.15560913 C73.88530205 15.1402401 63.53384749 15.13506873 53.18232485 15.14334723 C47.89772682 15.14726508 42.61324741 15.14626905 37.32866383 15.13228989 C32.49449085 15.11961875 27.66052647 15.12068837 22.82635406 15.1328806 C21.07397919 15.13484943 19.32158988 15.13170492 17.56923535 15.12303624 C15.19346732 15.11202418 12.81844595 15.11937397 10.44269943 15.13142776 C9.75691158 15.12383257 9.07112373 15.11623738 8.36455444 15.10841203 C3.02083121 15.16723898 -0.28239464 16.5322429 -3.76535702 20.58562469 Z " fill="#6B5FB2" transform="translate(34.9761266708374,38.49663543701172)"/>
<path d="M0 0 C15.15124188 -0.0701289 30.30247627 -0.12300718 45.45384407 -0.15543652 C52.48914139 -0.17089529 59.52433778 -0.19196577 66.55957031 -0.22631836 C73.34820386 -0.25945098 80.13673243 -0.27685069 86.92544174 -0.28463173 C89.51621019 -0.2901773 92.10697285 -0.30100632 94.69769669 -0.31719017 C98.32479535 -0.33894818 101.95145992 -0.34196752 105.57861328 -0.34057617 C107.18731041 -0.35675491 107.18731041 -0.35675491 108.82850647 -0.3732605 C115.80511761 -0.34427754 120.93777267 0.57688806 126.06445312 5.67626953 C126.58519409 6.18755402 127.10593506 6.6988385 127.64245605 7.22561646 C128.18325806 7.77249115 128.72406006 8.31936584 129.28125 8.8828125 C129.85782349 9.45651581 130.43439697 10.03021912 131.02844238 10.62130737 C132.2422148 11.83304657 133.45224011 13.04854955 134.65869141 14.26757812 C136.48414814 16.10900942 138.32493554 17.93399295 140.16796875 19.7578125 C156.88643775 36.44842496 156.88643775 36.44842496 157.09765625 44.9140625 C157.09100226 46.48440463 157.07906939 48.05473119 157.0625 49.625 C157.05798828 50.42679688 157.05347656 51.22859375 157.04882812 52.0546875 C157.03703168 54.03649006 157.01909605 56.01825433 157 58 C155.57846115 58.01213028 155.57846115 58.01213028 154.12820435 58.02450562 C145.21072305 58.10188516 136.29339587 58.18960338 127.3761158 58.28752708 C122.79130218 58.33753993 118.20651216 58.38386933 113.62158203 58.421875 C109.19946321 58.45866504 104.77753954 58.50500746 100.35558701 58.55806351 C98.66587613 58.57664098 96.97612338 58.59173646 95.28635025 58.60334396 C92.92523326 58.62014942 90.56456649 58.64916958 88.20361328 58.68115234 C87.50014771 58.68331253 86.79668213 58.68547272 86.07189941 58.68769836 C82.0916447 58.65730678 82.0916447 58.65730678 79 61 C78.52786327 65.06095958 78.52786327 65.06095958 79 69 C81.4922991 71.60030005 82.97038577 71.99671457 86.59405518 72.39872742 C88.05632394 72.42509005 89.51894159 72.43516263 90.98144531 72.43237305 C91.7818222 72.4425647 92.5821991 72.45275635 93.40682983 72.46325684 C96.04733259 72.49340519 98.68747268 72.50265548 101.328125 72.51171875 C103.16088061 72.52856409 104.99362466 72.54671414 106.82635498 72.56611633 C111.64644762 72.61363825 116.46649338 72.64343343 121.28674316 72.66955566 C126.2068813 72.69935012 131.12685787 72.74588428 136.046875 72.79101562 C145.69785079 72.87707384 155.34880962 72.94286061 165 73 C165 81.25 165 89.5 165 98 C113.52 98 62.04 98 9 98 C9 89.75 9 81.5 9 73 C12.05765625 72.96261719 15.1153125 72.92523438 18.265625 72.88671875 C21.22777451 72.84050428 24.18979761 72.7892703 27.15185547 72.73754883 C29.21004553 72.70429989 31.26832676 72.67626786 33.32666016 72.65356445 C36.28587691 72.6200181 39.24425817 72.56770198 42.203125 72.51171875 C43.58301605 72.50213387 43.58301605 72.50213387 44.99078369 72.49235535 C49.99467369 72.39948954 49.99467369 72.39948954 54.58129883 70.59130859 C56.35599137 68.60069666 56.51158008 67.57968937 56.4375 64.9375 C56.293125 63.638125 56.14875 62.33875 56 61 C52.19358759 58.46239173 49.03139645 58.65022525 44.61328125 58.5859375 C43.38776802 58.55688828 43.38776802 58.55688828 42.13749695 58.5272522 C39.52927066 58.46749648 36.92100014 58.42108742 34.3125 58.375 C32.5436006 58.3368165 30.77471972 58.29776454 29.00585938 58.2578125 C24.67072341 58.16179832 20.3355004 58.07775265 16 58 C15.93683594 57.38108887 15.87367188 56.76217773 15.80859375 56.12451172 C14.74061536 48.72876136 11.94694666 44.5884953 7 39.125 C5.72605833 37.67199023 4.45510492 36.21635373 3.1875 34.7578125 C2.62417969 34.1302002 2.06085938 33.50258789 1.48046875 32.85595703 C-0.00929345 30.98834948 -1.0155838 29.16991742 -2 27 C-1.39671875 26.93941406 -0.7934375 26.87882812 -0.171875 26.81640625 C1.02695313 26.69072266 1.02695313 26.69072266 2.25 26.5625 C3.03890625 26.48128906 3.8278125 26.40007812 4.640625 26.31640625 C6.82364639 26.02365007 8.8773182 25.57935581 11 25 C11.93833969 21.89174979 12.37350566 20.17230803 12 17 C9.72975948 13.00595402 6.86915986 9.57485986 4 6 C2.65665591 4.00671015 1.32200396 2.00750674 0 0 Z " fill="#FDC243" transform="translate(169,113)"/>
<path d="M0 0 C0.70031012 -0.00461538 1.40062024 -0.00923075 2.12215188 -0.01398599 C4.46265926 -0.02455181 6.80206001 -0.00664953 9.14251041 0.01117325 C10.83972257 0.00942838 12.53693367 0.00592503 14.23413903 0.00081658 C18.89310714 -0.00812392 23.55170717 0.00786754 28.21062839 0.02792883 C33.23645533 0.04520273 38.26226151 0.03935717 43.28810978 0.03631973 C51.99411722 0.03422234 60.70000474 0.04677231 69.40598202 0.06927109 C81.99334373 0.10177932 94.58064746 0.11219691 107.1680466 0.11722305 C127.59023656 0.12597754 148.0123626 0.15259733 168.43451786 0.1904335 C188.27273075 0.22714958 208.11092629 0.25546333 227.9491663 0.27246475 C229.78340998 0.27404109 229.78340998 0.27404109 231.65470909 0.27564928 C237.78928376 0.28086943 243.92385854 0.28592426 250.05843341 0.29089689 C300.95084795 0.33236372 351.84319149 0.40311373 402.73554325 0.49219131 C402.73554325 5.11219131 402.73554325 9.73219131 402.73554325 14.49219131 C399.67340911 14.49577384 399.67340911 14.49577384 396.54941368 14.49942875 C348.12107994 14.55655094 299.69278966 14.62945882 251.26450859 14.7211776 C245.30750668 14.73244614 239.35050454 14.74358453 233.39350224 14.75464249 C232.20753972 14.75684617 231.02157721 14.75904985 229.79967644 14.76132032 C210.58131121 14.79672011 191.36294603 14.8215691 172.14456026 14.84253833 C152.43370365 14.86427903 132.72288947 14.89731294 113.01206893 14.94089288 C100.84344936 14.96743945 88.67488267 14.98511267 76.50623556 14.99153735 C68.16867062 14.99678205 59.8311723 15.01296803 51.49364302 15.03785697 C46.67893256 15.0519035 41.86434143 15.06103105 37.04960918 15.05719948 C32.6446217 15.05380017 28.2398895 15.06409075 23.83495434 15.08542683 C22.2386532 15.09071414 20.64232568 15.09090939 19.04602466 15.08558694 C16.88066915 15.07910075 14.71616312 15.09093618 12.55087852 15.10743046 C11.34678536 15.10932906 10.14269219 15.11122766 8.90211135 15.1131838 C5.43520089 15.52813938 3.60105335 16.56891859 0.73554325 18.49219131 C0.07554325 18.49219131 -0.58445675 18.49219131 -1.26445675 18.49219131 C-3.76991263 23.3126153 -3.54003372 27.88295362 -3.50737667 33.17602921 C-3.50927502 34.14569122 -3.51117336 35.11535324 -3.51312923 36.11439896 C-3.51682925 39.31463114 -3.50614397 42.5146356 -3.4949255 45.71484756 C-3.49373318 47.94014331 -3.49328065 50.16543957 -3.49353695 52.39073563 C-3.49197343 57.05194632 -3.4836934 61.71308006 -3.4702673 66.37427139 C-3.45326787 72.35206324 -3.44945334 78.32977062 -3.45021248 84.30758381 C-3.4499407 88.90145551 -3.44445842 93.49530872 -3.43721104 98.08917427 C-3.43402695 100.29361646 -3.43205757 102.49806075 -3.43131733 104.70250511 C-3.4291516 107.78095581 -3.42040247 110.85931656 -3.40972042 113.93774796 C-3.41017361 114.85058548 -3.41062679 115.763423 -3.41109371 116.70392227 C-3.40682873 117.54361053 -3.40256374 118.3832988 -3.39816952 119.24843216 C-3.39649367 119.97568528 -3.39481783 120.7029384 -3.3930912 121.4522295 C-3.25946978 123.57127766 -2.84235795 125.45306353 -2.26445675 127.49219131 C1.20054325 127.98719131 1.20054325 127.98719131 4.73554325 128.49219131 C4.07554325 128.82219131 3.41554325 129.15219131 2.73554325 129.49219131 C2.73554325 135.76219131 2.73554325 142.03219131 2.73554325 148.49219131 C3.39554325 148.82219131 4.05554325 149.15219131 4.73554325 149.49219131 C3.03398075 149.92531631 3.03398075 149.92531631 1.29804325 150.36719131 C0.12241825 150.73844131 -1.05320675 151.10969131 -2.26445675 151.49219131 C-3.52107122 154.00542026 -3.40325063 155.74033404 -3.42267513 158.55411148 C-3.43735836 160.16113182 -3.43735836 160.16113182 -3.45233822 161.80061722 C-3.45809368 162.98097046 -3.46384914 164.1613237 -3.46977901 165.37744522 C-3.48462841 167.23593849 -3.48462841 167.23593849 -3.49977779 169.13197708 C-3.52600114 172.5346376 -3.54784846 175.9372742 -3.56777978 179.33997393 C-3.58962304 182.89410605 -3.61701983 186.44819518 -3.64383602 190.00229263 C-3.6937854 196.7347779 -3.73871588 203.46728701 -3.78185838 210.19981897 C-3.8312116 217.86359309 -3.88613682 225.52732407 -3.94153798 233.19105649 C-4.05539248 248.95806183 -4.1620263 264.72510739 -4.26445675 280.49219131 C-9.21445675 280.49219131 -14.16445675 280.49219131 -19.26445675 280.49219131 C-19.37853943 246.48678129 -19.46701522 212.48142443 -19.5197834 178.47586551 C-19.52603687 174.4604738 -19.53250849 170.44508246 -19.53911495 166.42969131 C-19.5404265 165.63030504 -19.54173806 164.83091876 -19.54308935 164.00730866 C-19.56484117 151.0666682 -19.60426144 138.12613888 -19.65022073 125.18556434 C-19.69699165 111.90562691 -19.72475348 98.62574767 -19.73489922 85.34573126 C-19.74175709 77.15233217 -19.76341047 68.95924727 -19.80403908 60.7659449 C-19.83048534 55.14616118 -19.83845352 49.5265397 -19.83196364 43.90669829 C-19.82876355 40.66503537 -19.8363809 37.42403618 -19.86048412 34.18244553 C-19.88536354 30.66404073 -19.87937882 27.14697979 -19.86572933 23.62854385 C-19.88029354 22.60907244 -19.89485775 21.58960103 -19.90986329 20.53923655 C-19.84334819 14.19537728 -18.89639777 9.10542567 -14.26445675 4.49219131 C-9.29456336 1.11750792 -6.12036528 -0.00747982 0 0 Z " fill="#8278C0" transform="translate(34.2644567489624,38.507808685302734)"/>
<path d="M0 0 C28.05 0 56.1 0 85 0 C85 38.28 85 76.56 85 116 C84.34 115.67 83.68 115.34 83 115 C83 114.34 83 113.68 83 113 C74.95984536 109.74047785 69.41381411 109.18549193 61.078125 112.15234375 C60.45145935 112.37193253 59.8247937 112.5915213 59.17913818 112.81776428 C57.19898883 113.51418321 55.22458001 114.22546326 53.25 114.9375 C51.91051234 115.4118141 50.57067097 115.88513056 49.23046875 116.35742188 C46.7818633 117.22163669 44.336114 118.09266359 41.89160156 118.96850586 C39.93502536 119.6664571 37.97073432 120.34308856 36 121 C35.98598145 119.221698 35.98598145 119.221698 35.97167969 117.4074707 C35.93174002 112.99953955 35.86597019 108.59230342 35.79248047 104.18481445 C35.7642939 102.27898095 35.74306784 100.37303105 35.72900391 98.46704102 C35.70754217 95.72351594 35.66087635 92.98138687 35.609375 90.23828125 C35.60814636 89.38913651 35.60691772 88.53999176 35.60565186 87.66511536 C35.50755163 83.68286256 35.30031286 81.49513235 33.19506836 78.02416992 C31.14363923 76.13245611 29.89369796 75.18691183 27.26953125 74.375 C26.55651855 74.14570801 25.84350586 73.91641602 25.10888672 73.68017578 C24.3510791 73.45571777 23.59327148 73.23125977 22.8125 73 C21.6371167 72.63044189 21.6371167 72.63044189 20.43798828 72.25341797 C17.96427224 71.48226754 15.48375779 70.7381138 13 70 C12.17387207 69.7515332 11.34774414 69.50306641 10.49658203 69.24707031 C5.67357307 67.79854114 0.84159892 66.38506501 -4 65 C-4 61.41975001 -3.26989839 60.66442377 -1.1484375 57.8671875 C-0.54386719 57.06023437 0.06070312 56.25328125 0.68359375 55.421875 C1.32425781 54.58140625 1.96492188 53.7409375 2.625 52.875 C12.80565697 41.17932441 12.80565697 41.17932441 17.4609375 27.16796875 C15.7269201 19.01220895 8.29461052 11.60073306 3.20166016 5.15185547 C0 1.09426912 0 1.09426912 0 0 Z " fill="#FCFCFC" transform="translate(382,69)"/>
<path d="M0 0 C1.65 1.65 3.3 3.3 5 5 C6.20093544 6.12476997 6.20093544 6.12476997 7.4261322 7.27226257 C17.04545374 18.23155151 15.16180779 32.22481692 14.91254544 45.97276139 C14.85578238 49.63742467 14.85095806 53.30217379 14.84031677 56.96720886 C14.81248825 63.88767875 14.73883553 70.80684911 14.64817137 77.72675008 C14.54711739 85.61305303 14.49797692 93.49942236 14.45291245 101.38621294 C14.359168 117.59156594 14.20115502 133.79561643 14 150 C5.32294584 150.35280166 -3.35095674 150.61660261 -12.03348351 150.77718258 C-16.06873935 150.85439225 -20.09898057 150.95839266 -24.13134766 151.1315918 C-46.37978055 152.06187756 -61.01101085 150.05742361 -79.45352173 136.79139709 C-83.0317183 134.27420659 -86.7903757 132.15842742 -90.625 130.0625 C-92.22214844 129.15177734 -92.22214844 129.15177734 -93.8515625 128.22265625 C-94.91503906 127.61744141 -94.91503906 127.61744141 -96 127 C-96 126.67 -96 126.34 -96 126 C-56.895 125.505 -56.895 125.505 -17 125 C-16.67 122.69 -16.34 120.38 -16 118 C-16.61530075 118.00888245 -17.2306015 118.01776489 -17.86454773 118.0269165 C-24.27215276 118.11545271 -30.67958385 118.17576044 -37.08764648 118.21972656 C-39.47866881 118.23983418 -41.86964201 118.2671243 -44.26049805 118.30175781 C-47.69852831 118.35031151 -51.13590804 118.37297774 -54.57421875 118.390625 C-56.17604256 118.42159271 -56.17604256 118.42159271 -57.81022644 118.45318604 C-65.23929299 118.45542905 -65.23929299 118.45542905 -69.17260742 116.10058594 C-71.13209376 113.84815836 -71.68254937 112.94652778 -71.625 110 C-71.63789063 109.34 -71.65078125 108.68 -71.6640625 108 C-70.56325144 104.6846161 -68.99966108 103.79587251 -66 102 C-62.18886159 101.44120207 -58.41881701 101.53504822 -54.57421875 101.609375 C-53.47149124 101.61503479 -52.36876373 101.62069458 -51.23262024 101.62652588 C-47.71713508 101.6488825 -44.20267613 101.69907979 -40.6875 101.75 C-38.30144703 101.77006582 -35.91537806 101.78831645 -33.52929688 101.8046875 C-27.68580365 101.84874533 -21.84307571 101.91776998 -16 102 C-16 97.71 -16 93.42 -16 89 C-17.48846436 89.02094727 -18.97692871 89.04189453 -20.51049805 89.06347656 C-26.03611622 89.13591034 -31.56169247 89.18181264 -37.08764648 89.21972656 C-39.47866881 89.23983418 -41.86964201 89.2671243 -44.26049805 89.30175781 C-47.69852831 89.35031151 -51.13590804 89.37297774 -54.57421875 89.390625 C-56.17604256 89.42159271 -56.17604256 89.42159271 -57.81022644 89.45318604 C-65.23929299 89.45542905 -65.23929299 89.45542905 -69.17260742 87.10058594 C-71.13209376 84.84815836 -71.68254937 83.94652778 -71.625 81 C-71.63789063 80.34 -71.65078125 79.68 -71.6640625 79 C-70.56325144 75.6846161 -68.99966108 74.79587251 -66 73 C-62.18921898 72.44125447 -58.41846825 72.53473794 -54.57421875 72.609375 C-53.10740662 72.61541748 -53.10740662 72.61541748 -51.61096191 72.62158203 C-47.96961618 72.64245823 -44.3285386 72.69830377 -40.6875 72.75 C-32.540625 72.8325 -24.39375 72.915 -16 73 C-16 51.22 -16 29.44 -16 7 C-16.99 6.505 -16.99 6.505 -18 6 C-12.06 4.02 -6.12 2.04 0 0 Z " fill="#97E2F8" transform="translate(453,193)"/>
<path d="M0 0 C33.66 0 67.32 0 102 0 C102 53.29664179 102 53.29664179 86.90625 69.20703125 C76.92332108 78.68026837 64.44346716 83.60085411 50.75 83.5 C49.82977051 83.49355469 48.90954102 83.48710937 47.96142578 83.48046875 C34.3085326 83.11619988 23.82765703 77.36010912 13.97265625 68.09375 C-4.2057451 48.68224046 0 26.0442106 0 0 Z " fill="#FCCCBD" transform="translate(205,225)"/>
<path d="M0 0 C1.30748105 -0.00623996 2.6149621 -0.01247993 3.96206379 -0.01890898 C7.58975721 -0.03561845 11.21703013 -0.02734888 14.84472513 -0.0149641 C18.75754564 -0.00592244 22.67029328 -0.01987893 26.58309937 -0.03088379 C34.24768812 -0.0486831 41.91212031 -0.04482278 49.57671523 -0.03323323 C55.80511368 -0.02420471 62.03346822 -0.02297238 68.26187134 -0.02732849 C69.14786587 -0.02794142 70.0338604 -0.02855436 70.94670326 -0.02918586 C72.74650694 -0.03046475 74.54631062 -0.0317616 76.34611428 -0.03307623 C93.22833391 -0.04448616 110.1104667 -0.03136185 126.99267209 -0.00987476 C141.48270705 0.0079966 155.97261384 0.00489261 170.46264648 -0.0135498 C187.2838855 -0.03494923 204.10504837 -0.04338748 220.9262991 -0.03110075 C222.71953264 -0.02982653 224.51276619 -0.02856905 226.30599976 -0.02732849 C227.62950494 -0.02640284 227.62950494 -0.02640284 228.97974759 -0.02545848 C235.20165572 -0.0220028 241.42351561 -0.02783863 247.64541626 -0.0372467 C255.22644836 -0.04845777 262.80731476 -0.04544551 270.38832784 -0.02412373 C274.25733387 -0.01360119 278.12606352 -0.00951174 281.9950676 -0.02272034 C286.18624341 -0.03681256 290.37671954 -0.0200023 294.56787109 0 C295.79499974 -0.00892289 297.02212839 -0.01784577 298.28644276 -0.02703905 C306.46520521 0.04902706 306.46520521 0.04902706 310.53938293 2.33264923 C313.01277958 5.41673132 312.91684364 7.59821442 312.84643555 11.50793457 C312.84772461 12.72480957 312.84901367 13.94168457 312.8503418 15.19543457 C312.17926781 19.12006034 311.3630525 20.07641212 308.28393555 22.50793457 C305.71950811 23.00818056 305.71950811 23.00818056 302.75571346 23.00850582 C301.05883716 23.02322726 301.05883716 23.02322726 299.32768053 23.0382461 C298.08460195 23.02864109 296.84152338 23.01903608 295.56077576 23.00914001 C294.22714506 23.01303201 292.8935185 23.01867163 291.55990177 23.02591091 C287.89187553 23.04069839 284.22427714 23.03046519 280.55626452 23.0161742 C276.60189021 23.00508693 272.64757703 23.01699948 268.69320679 23.02601624 C260.94559171 23.0399657 253.19813937 23.03238017 245.45053201 23.01734065 C236.43366738 23.00050177 227.41684353 23.00368809 218.39996804 23.00743473 C202.31544053 23.01331635 186.23099127 22.99912946 170.14648438 22.9744873 C154.52796497 22.95056165 138.90955007 22.94348421 123.29101562 22.95397949 C106.29438216 22.96538032 89.29779707 22.96732942 72.30116421 22.9528814 C70.48997661 22.95135551 68.678789 22.94983515 66.86760139 22.94832039 C65.97639587 22.94756257 65.08519034 22.94680476 64.16697858 22.94602398 C57.87702768 22.941275 51.58709833 22.94313691 45.29714775 22.94738579 C37.63590606 22.95230467 29.97476332 22.94636287 22.31354433 22.92649149 C18.40230764 22.9165977 14.49122185 22.91153675 10.57997704 22.919384 C6.34654463 22.92770412 2.11351682 22.91290337 -2.11988831 22.89561462 C-3.98785225 22.90462969 -3.98785225 22.90462969 -5.89355284 22.91382688 C-7.02219596 22.90538694 -8.15083908 22.896947 -9.31368351 22.8882513 C-10.29157339 22.88722218 -11.26946327 22.88619305 -12.27698618 22.88513273 C-14.71606445 22.50793457 -14.71606445 22.50793457 -16.52441639 21.19876438 C-18.48816477 18.41240119 -18.22865576 15.35361753 -18.21606445 12.07043457 C-18.24700195 10.75172363 -18.27793945 9.4330127 -18.30981445 8.07434082 C-17.71606445 4.50793457 -17.71606445 4.50793457 -15.97370911 2.31678009 C-10.83472524 -0.53670116 -5.78316519 -0.04205144 0 0 Z " fill="#6D60B5" transform="translate(108.716064453125,450.4920654296875)"/>
<path d="M0 0 C0.73524902 0.00821777 1.47049805 0.01643555 2.22802734 0.02490234 C24.88545578 0.48247907 43.69132231 9.4240122 59.39428711 25.49536133 C63.20196067 29.51361393 66.53932605 33.73770148 69.75 38.25 C72.2975863 39.52379315 74.71024507 39.55786875 77.51513672 39.79467773 C84.78723159 40.42739362 91.6522034 41.49106091 98.625 43.6875 C99.28387207 43.8927832 99.94274414 44.09806641 100.62158203 44.30957031 C104.17910255 45.4963391 106.82470784 46.94133303 109.75 49.25 C109.02748047 49.66137207 108.30496094 50.07274414 107.56054688 50.49658203 C81.01868875 64.83486985 81.01868875 64.83486985 55.54168701 80.81445312 C52.06239627 82.60358096 49.66051296 82.61167845 45.7565918 82.59057617 C45.06213613 82.59093778 44.36768045 82.59129938 43.65218067 82.59167194 C41.41756062 82.58944341 39.18370344 82.56664813 36.94921875 82.54296875 C35.56433473 82.53855457 34.1794457 82.53549609 32.79455566 82.53381348 C27.67546048 82.5181233 22.55647264 82.47623941 17.4375 82.4375 C5.990625 82.375625 -5.45625 82.31375 -17.25 82.25 C-17.25 55.85 -17.25 29.45 -17.25 2.25 C-11.07741168 0.87831371 -6.13831285 -0.08519418 0 0 Z " fill="#A1E52D" transform="translate(62.25,260.75)"/>
<path d="M0 0 C2.24578322 -0.00586417 4.49155792 -0.01811523 6.73727417 -0.03642273 C11.42856183 -0.05231345 16.11217518 0.00199827 20.80224609 0.1081543 C26.79632549 0.23912954 32.77573647 0.20439009 38.77017403 0.11830425 C43.40235481 0.06837229 48.03113477 0.10118175 52.66311264 0.15909767 C54.87089773 0.17788951 57.07903181 0.17258353 59.28668594 0.14206505 C75.97844986 -0.01592641 75.97844986 -0.01592641 80.74114227 4.21583176 C83.95489405 8.24689068 86.04570393 12.65636262 87.96012497 17.41626167 C89.36118894 20.71327636 91.19285035 23.66442119 93.0546875 26.72265625 C94.32622241 28.91495782 95.5970696 31.10765842 96.8671875 33.30078125 C97.52074219 34.42226563 98.17429687 35.54375 98.84765625 36.69921875 C99.47285156 37.77945313 100.09804688 38.8596875 100.7421875 39.97265625 C101.29648437 40.9275293 101.85078125 41.88240234 102.421875 42.86621094 C103.8671875 45.55078125 103.8671875 45.55078125 105.8671875 50.55078125 C54.3871875 50.55078125 2.9071875 50.55078125 -50.1328125 50.55078125 C-48.71813282 47.01408205 -47.36464783 44.00644901 -45.515625 40.734375 C-44.9896875 39.80302734 -44.46375 38.87167969 -43.921875 37.91210938 C-43.37273437 36.94724609 -42.82359375 35.98238281 -42.2578125 34.98828125 C-41.74734375 34.08142578 -41.236875 33.17457031 -40.7109375 32.24023438 C-39.60194948 30.28358685 -38.46494592 28.34260827 -37.3034668 26.41665649 C-35.62678005 23.55474878 -34.26785458 20.63696998 -32.93579102 17.60055542 C-25.24665652 1.23072321 -17.28852739 -0.43978457 0 0 Z " fill="#8278C0" transform="translate(228.1328125,385.44921875)"/>
<path d="M0 0 C2.18096136 1.40051377 4.24832 2.90737013 6.32324219 4.4609375 C22.42262775 15.83498718 39.15296742 18.00036346 58.35449219 15.81640625 C69.64845381 13.4117853 81.71223672 7.38444297 89.88574219 -0.7890625 C93.43008646 0.55549448 96.69373412 2.12322094 99.99902344 3.9765625 C100.98813721 4.53013428 101.97725098 5.08370605 102.99633789 5.65405273 C104.05296631 6.25032471 105.10959473 6.84659668 106.19824219 7.4609375 C107.29676514 8.078479 108.39528809 8.69602051 109.52709961 9.33227539 C120.09851787 15.29430483 130.59031641 21.39174208 141.04833984 27.55029297 C143.11006275 28.75695612 145.17834439 29.9524346 147.25048828 31.14111328 C148.35086426 31.77388184 149.45124023 32.40665039 150.58496094 33.05859375 C151.59776123 33.63746338 152.61056152 34.21633301 153.65405273 34.81274414 C154.39051025 35.27414795 155.12696777 35.73555176 155.88574219 36.2109375 C155.88574219 36.5409375 155.88574219 36.8709375 155.88574219 37.2109375 C82.62574219 37.2109375 9.36574219 37.2109375 -66.11425781 37.2109375 C-63.37120724 34.46788693 -61.29749088 33.0453863 -57.95019531 31.20703125 C-56.91910645 30.63637939 -55.88801758 30.06572754 -54.82568359 29.4777832 C-53.72466309 28.87409912 -52.62364258 28.27041504 -51.48925781 27.6484375 C-49.20202325 26.38160878 -46.91556614 25.11337541 -44.62988281 23.84375 C-43.51162109 23.22274414 -42.39335937 22.60173828 -41.24121094 21.96191406 C-37.2076369 19.70326377 -33.21570111 17.38083461 -29.23925781 15.0234375 C-28.58465576 14.63824951 -27.93005371 14.25306152 -27.25561523 13.85620117 C-23.4808744 11.63083229 -19.7318301 9.36750554 -15.99316406 7.08203125 C-14.26284359 6.04142007 -12.53237759 5.00105083 -10.80175781 3.9609375 C-9.99432129 3.45796143 -9.18688477 2.95498535 -8.35498047 2.43676758 C-7.22068604 1.76037231 -7.22068604 1.76037231 -6.06347656 1.0703125 C-5.39662842 0.66264648 -4.72978027 0.25498047 -4.04272461 -0.16503906 C-2.11425781 -0.7890625 -2.11425781 -0.7890625 0 0 Z " fill="#F62A39" transform="translate(211.1142578125,305.7890625)"/>
<path d="M0 0 C6.93 0 13.86 0 21 0 C21.99 2.475 21.99 2.475 23 5 C26.70723527 7.47149018 29.57525956 7.30658144 33.86791992 7.31884766 C34.66815079 7.32889328 35.46838165 7.3389389 36.29286194 7.34928894 C38.93872355 7.38018736 41.58448367 7.39717447 44.23046875 7.4140625 C46.06465024 7.4327688 47.89882308 7.45234181 49.73298645 7.4727478 C54.56129867 7.52413186 59.38963881 7.56372397 64.21807861 7.60089111 C69.14480532 7.64089146 74.07141525 7.69200189 78.99804688 7.7421875 C88.66529082 7.83902114 98.33258271 7.92237541 108 8 C108 16.25 108 24.5 108 33 C56.52 33 5.04 33 -48 33 C-48 24.75 -48 16.5 -48 8 C-44.94234375 7.96261719 -41.8846875 7.92523438 -38.734375 7.88671875 C-35.77222549 7.84050428 -32.81020239 7.7892703 -29.84814453 7.73754883 C-27.78995447 7.70429989 -25.73167324 7.67626786 -23.67333984 7.65356445 C-20.71412309 7.6200181 -17.75574183 7.56770198 -14.796875 7.51171875 C-13.87694763 7.50532883 -12.95702026 7.4989389 -12.00921631 7.49235535 C-7.05109968 7.38567051 -7.05109968 7.38567051 -2.45019531 5.71801758 C-0.64762483 3.83840532 -0.64762483 3.83840532 0 0 Z " fill="#8278C0" transform="translate(226,178)"/>
<path d="M0 0 C9.9 0 19.8 0 30 0 C30 38.28 30 76.56 30 116 C29.34 115.67 28.68 115.34 28 115 C28 114.34 28 113.68 28 113 C18.70859846 109.23321559 13.61405729 109.44710552 4.35546875 113.125 C2 114 2 114 0 114 C0 76.38 0 38.76 0 0 Z " fill="#F2EFF2" transform="translate(437,69)"/>
<path d="M0 0 C0.82355988 -0.00287018 1.64711975 -0.00574036 2.49563599 -0.00869751 C4.23554167 -0.0107361 5.97547038 -0.00522054 7.71533203 0.00732422 C10.36673825 0.0233404 13.01661069 0.00749042 15.66796875 -0.01171875 C17.36198251 -0.00973548 19.05599532 -0.00589007 20.75 0 C21.53768768 -0.00607269 22.32537537 -0.01214539 23.13693237 -0.0184021 C27.95934129 0.04261144 31.39708713 0.61512594 35.5078125 3.3984375 C38.99012124 7.47215971 38.94703673 11.63348132 38.90625 16.76953125 C38.90912018 17.56948013 38.91199036 18.36942902 38.91494751 19.19361877 C38.91698309 20.88046987 38.91148864 22.56734485 38.89892578 24.25415039 C38.8828853 26.82427264 38.89877992 29.39281745 38.91796875 31.96289062 C38.91598581 33.60677428 38.9121411 35.25065696 38.90625 36.89453125 C38.91535904 38.03854652 38.91535904 38.03854652 38.9246521 39.20567322 C38.8621972 43.98846112 38.09102507 47.23037633 35.5078125 51.3984375 C30.94834708 55.53045304 26.45065169 55.57885252 20.55078125 55.63671875 C19.77019852 55.6447905 18.98961578 55.65286224 18.18537903 55.66117859 C16.53368336 55.6750007 14.88195935 55.68573123 13.23022461 55.69360352 C10.71477615 55.71080441 8.20064673 55.75470357 5.68554688 55.79882812 C4.07813463 55.80895692 2.47071125 55.81747244 0.86328125 55.82421875 C-0.25733452 55.85048088 -0.25733452 55.85048088 -1.40058899 55.87727356 C-6.60145738 55.85586171 -9.55294585 54.77694072 -13.4921875 51.3984375 C-16.91756133 47.27070138 -16.94558877 43.18698289 -16.92578125 38.02734375 C-16.9310231 37.22739487 -16.93626495 36.42744598 -16.94166565 35.60325623 C-16.94807047 33.91642412 -16.94676881 32.22954727 -16.93823242 30.54272461 C-16.9297252 27.97232927 -16.95849773 25.40416028 -16.99023438 22.83398438 C-16.99184676 21.19010483 -16.99126815 19.54622137 -16.98828125 17.90234375 C-16.99951523 17.1396669 -17.01074921 16.37699005 -17.02232361 15.59120178 C-16.94301208 9.46863251 -14.97232332 6.06734821 -10.77294922 1.54833984 C-7.29092822 -0.20720703 -3.81288515 -0.0292452 0 0 Z " fill="#030303" transform="translate(77.4921875,84.6015625)"/>
<path d="M0 0 C33.66 0 67.32 0 102 0 C102 53.29664179 102 53.29664179 86.90625 69.20703125 C81.80646295 74.04644185 76.46666207 77.29445517 70 80 C69.25878906 80.3196875 68.51757812 80.639375 67.75390625 80.96875 C61.82793366 83.2504079 56.29509289 83.31769628 50 83 C52.49574958 80.40026085 55.11579701 78.05990748 57.875 75.75 C61.9141103 72.26305271 64.99127415 68.3877252 68 64 C67.34515625 64.3609375 66.6903125 64.721875 66.015625 65.09375 C58.92347842 68.69992623 52.94183573 70.32363929 45 69 C39.17899716 67.01372466 33.62682682 64.07755754 30 59 C29.36465017 54.97611774 29.35029381 52.97455929 31.625 49.5625 C34.79737741 47.4754096 36.25423107 47.33898195 40 48 C41.6953125 49.12890625 41.6953125 49.12890625 43.4375 50.5 C46.08836641 52.54495408 47.02909785 53.00467644 50.5 53.5625 C54.92484812 52.85136369 58.74836553 51.25163447 62 48 C66.38308384 48.16539939 68.35765635 48.32471565 71.4375 51.5625 C71.953125 52.366875 72.46875 53.17125 73 54 C76.27876176 47.59151111 77.0933488 41.09321236 78 34 C76.046875 34.16276042 74.09375 34.32552083 72.140625 34.48828125 C70 34 70 34 67.765625 31.890625 C65.67239478 28.46365518 65.46301786 26.42694815 65.5 22.4375 C65.48453125 20.76494141 65.48453125 20.76494141 65.46875 19.05859375 C66.10837878 15.37602509 66.9922397 14.17168707 70 12 C72.78142043 11.49244153 75.1457229 11.80971486 78 12 C78 8.37 78 4.74 78 1 C52.26 1 26.52 1 0 1 C0 0.67 0 0.34 0 0 Z " fill="#F6AA99" transform="translate(205,225)"/>
<path d="M0 0 C36.3 0 72.6 0 110 0 C106.79080688 2.40689484 103.73839323 4.38183784 100.2734375 6.36328125 C98.60087891 7.32331055 98.60087891 7.32331055 96.89453125 8.30273438 C95.72144401 8.97281356 94.54826647 9.64273468 93.375 10.3125 C91.09065737 11.62024088 88.80679636 12.92882344 86.5234375 14.23828125 C84.95668369 15.13348 83.38938951 16.02789863 81.81204224 16.90429688 C79.91434511 18.01018345 79.91434511 18.01018345 77.93966675 19.54980469 C70.24905717 24.9931929 62.75923774 24.77919862 53.7109375 24.5859375 C52.15582936 24.57472431 50.6006998 24.56619418 49.04556274 24.56021118 C44.98443405 24.53747886 40.92462624 24.47869594 36.86401367 24.4119873 C32.70770122 24.35022356 28.55117193 24.32312404 24.39453125 24.29296875 C16.2623519 24.22893211 8.13149325 24.12354041 0 24 C0 16.08 0 8.16 0 0 Z " fill="#95D428" transform="translate(45,319)"/>
<path d="M0 0 C6.75684166 1.12614028 6.75684166 1.12614028 9.6796875 3.8828125 C10.35741211 4.51477539 11.03513672 5.14673828 11.73339844 5.79785156 C12.48137695 6.52456055 13.22935547 7.25126953 14 8 C14.85883789 8.82209961 15.71767578 9.64419922 16.60253906 10.49121094 C18.97774568 12.78799486 21.33238623 15.10165826 23.67333984 17.43310547 C25.12285817 18.87287258 26.58273302 20.30158327 28.04296875 21.73046875 C33.96211837 27.5836121 39.25303393 33.50606786 43 41 C43 46.61 43 52.22 43 58 C18.58 58 -5.84 58 -31 58 C-31 57.67 -31 57.34 -31 57 C-20.77 57 -10.54 57 0 57 C0 38.19 0 19.38 0 0 Z " fill="#F7AD35" transform="translate(283,113)"/>
<path d="M0 0 C28.12834512 -2.64346159 28.12834512 -2.64346159 35.30273438 1.24951172 C38.81828242 4.83965165 40.23528659 9.45295915 41.84863281 14.12207031 C43.95530951 19.38786863 47.0359346 24.15774342 49.95452881 29.00543213 C51.6252712 31.79338413 53.25238901 34.60570677 54.875 37.421875 C55.70644531 38.85418457 55.70644531 38.85418457 56.5546875 40.31542969 C58 43 58 43 60 48 C49.11 48 38.22 48 27 48 C22.33236458 39.9180757 17.66610327 31.83540433 13.00726318 23.74841309 C12.04228042 22.07339059 11.07705399 20.39850848 10.11181641 18.72363281 C8.42620321 15.79635394 6.74374304 12.86729046 5.0625 9.9375 C4.54913086 9.04651611 4.03576172 8.15553223 3.50683594 7.23754883 C3.04180664 6.42568115 2.57677734 5.61381348 2.09765625 4.77734375 C1.48676147 3.71374634 1.48676147 3.71374634 0.86352539 2.62866211 C0 1 0 1 0 0 Z " fill="#6D60B5" transform="translate(274,388)"/>
<path d="M0 0 C40.68097697 -0.09151141 81.36194055 -0.16201629 122.04299984 -0.20426132 C126.843364 -0.20926428 131.64372795 -0.21444155 136.4440918 -0.21972656 C137.87761956 -0.22130043 137.87761956 -0.22130043 139.34010748 -0.22290608 C154.824092 -0.24032179 170.30801725 -0.27186588 185.79196658 -0.30861118 C201.67431131 -0.3459882 217.55662496 -0.36822899 233.43901187 -0.37635398 C243.24306718 -0.38184848 253.04695498 -0.39921605 262.85095874 -0.43166587 C269.56959997 -0.45277378 276.28815431 -0.45920851 283.0068263 -0.45400551 C286.88594613 -0.4514379 290.7647728 -0.45543454 294.64384079 -0.4768219 C298.84618361 -0.49982292 303.04789872 -0.49197338 307.25028992 -0.48101807 C309.09609879 -0.49849512 309.09609879 -0.49849512 310.97919673 -0.51632524 C319.18117286 -0.45824263 319.18117286 -0.45824263 323.25755024 1.82303238 C325.72737634 4.9087635 325.63289592 7.09095603 325.5625 11 C325.56378906 12.216875 325.56507813 13.43375 325.56640625 14.6875 C324.89584521 18.60912592 324.07428471 19.56845583 321 22 C318.46893311 22.48101807 318.46893311 22.48101807 315.58886719 22.45410156 C313.96763947 22.45364838 313.96763947 22.45364838 312.31365967 22.45318604 C311.15312073 22.43254089 309.99258179 22.41189575 308.796875 22.390625 C307.60394836 22.38496521 306.41102173 22.37930542 305.1819458 22.37347412 C301.37088944 22.35107926 297.56077233 22.30087429 293.75 22.25 C291.16668024 22.22993915 288.58334575 22.21168766 286 22.1953125 C279.66630463 22.15120382 273.33331157 22.08215232 267 22 C267 15.07 267 8.14 267 1 C178.89 1 90.78 1 0 1 C0 0.67 0 0.34 0 0 Z " fill="#5B4EA2" transform="translate(96,451)"/>
<path d="M0 0 C16.83 0 33.66 0 51 0 C51 8.25 51 16.5 51 25 C-0.48 25 -51.96 25 -105 25 C-105 24.67 -105 24.34 -105 24 C-70.35 24 -35.7 24 0 24 C0 16.08 0 8.16 0 0 Z " fill="#685BAB" transform="translate(283,186)"/>
<path d="M0 0 C1.22404541 -0.0038269 2.44809082 -0.00765381 3.70922852 -0.01159668 C6.29476749 -0.01431622 8.88033396 -0.00695227 11.46582031 0.00976562 C15.42315009 0.03117238 19.37866419 0.00996294 23.3359375 -0.015625 C25.84896234 -0.01298173 28.36198605 -0.00785679 30.875 0 C32.05843994 -0.00809692 33.24187988 -0.01619385 34.46118164 -0.02453613 C42.60856227 0.06845964 42.60856227 0.06845964 46.6875 2.34570312 C48.4375 4.53125 48.4375 4.53125 49 8.03125 C48.34502684 12.10663857 47.63814701 13.03999372 44.4375 15.53125 C41.73680115 16.03245544 41.73680115 16.03245544 38.61499023 16.03295898 C37.44375107 16.04233994 36.2725119 16.05172089 35.06578064 16.06138611 C33.80528397 16.05015213 32.54478729 16.03891815 31.24609375 16.02734375 C29.94930191 16.02879898 28.65251007 16.03025421 27.31642151 16.03175354 C24.57507986 16.03313634 21.8342622 16.02059908 19.09301758 15.99780273 C15.579937 15.96938931 12.06772488 15.97216409 8.55457973 15.98489285 C5.20165993 15.99351961 1.84899887 15.97840677 -1.50390625 15.96484375 C-3.39768761 15.96924721 -3.39768761 15.96924721 -5.32972717 15.97373962 C-6.49781418 15.96105545 -7.66590118 15.94837128 -8.86938477 15.93530273 C-10.41348778 15.92719826 -10.41348778 15.92719826 -11.98878479 15.91893005 C-14.5625 15.53125 -14.5625 15.53125 -16.3870697 14.25209045 C-18.03832845 11.83463291 -18.02381136 9.43039178 -18.15625 6.56640625 C-15.82288632 -1.43150478 -6.60873647 -0.04521601 0 0 Z " fill="#050607" transform="translate(399.5625,294.46875)"/>
<path d="M0 0 C1.22404541 -0.0038269 2.44809082 -0.00765381 3.70922852 -0.01159668 C6.29476749 -0.01431622 8.88033396 -0.00695227 11.46582031 0.00976562 C15.42315009 0.03117238 19.37866419 0.00996294 23.3359375 -0.015625 C25.84896234 -0.01298173 28.36198605 -0.00785679 30.875 0 C32.05843994 -0.00809692 33.24187988 -0.01619385 34.46118164 -0.02453613 C42.60856227 0.06845964 42.60856227 0.06845964 46.6875 2.34570312 C48.4375 4.53125 48.4375 4.53125 49 8.03125 C48.34502684 12.10663857 47.63814701 13.03999372 44.4375 15.53125 C41.73680115 16.03245544 41.73680115 16.03245544 38.61499023 16.03295898 C37.44375107 16.04233994 36.2725119 16.05172089 35.06578064 16.06138611 C33.80528397 16.05015213 32.54478729 16.03891815 31.24609375 16.02734375 C29.94930191 16.02879898 28.65251007 16.03025421 27.31642151 16.03175354 C24.57507986 16.03313634 21.8342622 16.02059908 19.09301758 15.99780273 C15.579937 15.96938931 12.06772488 15.97216409 8.55457973 15.98489285 C5.20165993 15.99351961 1.84899887 15.97840677 -1.50390625 15.96484375 C-3.39768761 15.96924721 -3.39768761 15.96924721 -5.32972717 15.97373962 C-6.49781418 15.96105545 -7.66590118 15.94837128 -8.86938477 15.93530273 C-10.41348778 15.92719826 -10.41348778 15.92719826 -11.98878479 15.91893005 C-14.5625 15.53125 -14.5625 15.53125 -16.3870697 14.25209045 C-18.03832845 11.83463291 -18.02381136 9.43039178 -18.15625 6.56640625 C-15.82288632 -1.43150478 -6.60873647 -0.04521601 0 0 Z " fill="#050607" transform="translate(399.5625,265.46875)"/>
<path d="M0 0 C1.6953125 1.12890625 1.6953125 1.12890625 3.4375 2.5 C6.08836641 4.54495408 7.02909785 5.00467644 10.5 5.5625 C14.92484812 4.85136369 18.74836553 3.25163447 22 0 C28.0495283 0.44811321 28.0495283 0.44811321 30.9375 2.125 C32.69937187 5.23418565 32.48159369 7.50844577 32 11 C28.37417342 16.07615722 22.82075735 19.01657086 17 21 C8.56986254 22.38836256 2.05944002 20.68478378 -5 16 C-8.728129 13.16662196 -9.83035777 12.07440077 -10.5625 7.4375 C-10 4 -10 4 -8.375 1.5625 C-5.20262259 -0.5245904 -3.74576893 -0.66101805 0 0 Z " fill="#060504" transform="translate(245,273)"/>
<path d="M0 0 C8.25 0 16.5 0 25 0 C25 8.25 25 16.5 25 25 C16.75 25 8.5 25 0 25 C0 16.75 0 8.5 0 0 Z " fill="#FAFAFA" transform="translate(76,100)"/>
<path d="M0 0 C7.12641608 0 11.39597532 0.5917495 16.58203125 5.49609375 C20.25152205 9.73662923 21.38281467 13.21011986 21.26953125 18.8125 C20.68115771 23.58770553 18.78953725 27.33165037 15.26953125 30.61328125 C9.68266663 34.57203762 7.86523888 34 0 34 C0 22.78 0 11.56 0 0 Z " fill="#FAA48C" transform="translate(322,225)"/>
<path d="M0 0 C0 10.89 0 21.78 0 33 C-11.63680387 33 -11.63680387 33 -17 28 C-20.83250282 22.93677796 -21.70245866 18.22177667 -21 12 C-17.29997962 1.51660892 -10.46504571 0 0 0 Z " fill="#FCAD9C" transform="translate(190,226)"/>
<path d="M0 0 C2.24784883 1.48258615 4.44014374 3.01888652 6.6159668 4.60571289 C10.88421874 7.63908482 15.11920899 10.03313983 19.8659668 12.23071289 C19.8659668 12.56071289 19.8659668 12.89071289 19.8659668 13.23071289 C5.3459668 13.23071289 -9.1740332 13.23071289 -24.1340332 13.23071289 C-20.37480507 9.47148476 -16.2549888 7.10426328 -11.6965332 4.41821289 C-10.40779297 3.62640625 -10.40779297 3.62640625 -9.09301758 2.81860352 C-8.2622168 2.3294043 -7.43141602 1.84020508 -6.57543945 1.33618164 C-5.81948486 0.8839624 -5.06353027 0.43174316 -4.28466797 -0.03417969 C-2.1340332 -0.76928711 -2.1340332 -0.76928711 0 0 Z " fill="#F8616C" transform="translate(211.134033203125,305.769287109375)"/>
<path d="M0 0 C5.03214965 1.80011857 9.59261018 4.41256121 14.25 7 C15.07757813 7.45117188 15.90515625 7.90234375 16.7578125 8.3671875 C17.54414063 8.80289062 18.33046875 9.23859375 19.140625 9.6875 C19.85766602 10.08324219 20.57470703 10.47898437 21.31347656 10.88671875 C23 12 23 12 24 14 C9.48 14 -5.04 14 -20 14 C-17.04677047 11.78507785 -14.2959621 9.95250152 -11.125 8.125 C-7.05223398 5.71507928 -3.52238202 3.15160497 0 0 Z " fill="#F9626D" transform="translate(301,305)"/>
<path d="M0 0 C2.95849485 2.20302206 3.89387505 3.38900122 4.53125 7.05859375 C4.5209375 8.17363281 4.510625 9.28867188 4.5 10.4375 C4.5103125 11.54996094 4.520625 12.66242188 4.53125 13.80859375 C3.8941887 17.63564583 2.76218008 19.31180689 0 22 C-3.5 22.625 -3.5 22.625 -7 22 C-9.76218008 19.31180689 -10.8941887 17.63564583 -11.53125 13.80859375 C-11.5209375 12.69613281 -11.510625 11.58367187 -11.5 10.4375 C-11.5103125 9.32246094 -11.520625 8.20742187 -11.53125 7.05859375 C-10.37432265 0.39775464 -6.25195301 -0.89313614 0 0 Z " fill="#040303" transform="translate(282,237)"/>
<path d="M0 0 C2.95849485 2.20302206 3.89387505 3.38900122 4.53125 7.05859375 C4.5209375 8.17363281 4.510625 9.28867188 4.5 10.4375 C4.5103125 11.54996094 4.520625 12.66242188 4.53125 13.80859375 C3.8941887 17.63564583 2.76218008 19.31180689 0 22 C-3.5 22.625 -3.5 22.625 -7 22 C-9.76218008 19.31180689 -10.8941887 17.63564583 -11.53125 13.80859375 C-11.5209375 12.69613281 -11.510625 11.58367187 -11.5 10.4375 C-11.5103125 9.32246094 -11.520625 8.20742187 -11.53125 7.05859375 C-10.37432265 0.39775464 -6.25195301 -0.89313614 0 0 Z " fill="#040303" transform="translate(237,237)"/>
</svg>
