<?xml version="1.0" encoding="UTF-8"?>
<svg version="1.1" xmlns="http://www.w3.org/2000/svg" width="512" height="512">
<path d="M0 0 C0.78890625 0.74765625 1.5778125 1.4953125 2.390625 2.265625 C4.71075788 4.03955755 4.71075788 4.03955755 7.7578125 3.60546875 C10.43440944 2.84022759 12.84584076 1.96409313 15.375 0.8125 C24.93016973 -3.13937224 34.94769395 -3.55949772 45.171875 -3.55078125 C46.88736542 -3.55720894 46.88736542 -3.55720894 48.63751221 -3.56376648 C51.04088687 -3.56947027 53.44427878 -3.57003949 55.84765625 -3.56567383 C59.47686999 -3.5625201 63.10526196 -3.58600301 66.734375 -3.61132812 C86.92653384 -3.66829475 107.48331089 -3.1466311 123.01171875 11.75 C131.29378625 21.27903047 135.92720353 32.20235387 136.75 44.75 C137.471875 44.646875 138.19375 44.54375 138.9375 44.4375 C142.90176326 44.8779737 144.21535287 46.79291169 146.75 49.75 C148.19207941 52.63415883 147.84394887 55.16721528 147.8125 58.375 C147.80347656 59.56351562 147.79445313 60.75203125 147.78515625 61.9765625 C147.76775391 63.34941406 147.76775391 63.34941406 147.75 64.75 C148.56574997 64.74333817 149.38149994 64.73667633 150.2219696 64.72981262 C157.91693767 64.66965305 165.61179138 64.62400108 173.3069334 64.59456348 C177.26291134 64.57892043 181.21869463 64.5577073 185.17456055 64.52368164 C188.99359355 64.49103922 192.81243956 64.47313675 196.63160133 64.46536827 C198.08723709 64.45983349 199.54286285 64.44902528 200.99841881 64.43280983 C203.04042903 64.41096979 205.08167071 64.40803569 207.1237793 64.40942383 C208.28515915 64.40276199 209.446539 64.39610016 210.64311218 64.38923645 C214.10260085 64.79094307 215.97620054 65.67940732 218.75 67.75 C220.45961646 71.16923292 220.67964956 74.11325771 219.75 77.75 C216.33044679 82.90390567 212.17447041 87.44007899 207.75 91.75 C209.20810622 95.14465355 211.08766728 97.27251713 213.75 99.8125 C219.52760928 105.34583536 219.52760928 105.34583536 220.0859375 108.87109375 C220.09882812 109.63550781 220.11171875 110.39992187 220.125 111.1875 C220.15335938 111.94933594 220.18171875 112.71117187 220.2109375 113.49609375 C219.55621955 116.69755358 218.30354686 117.73623781 215.75 119.75 C212.54199219 120.29589844 212.54199219 120.29589844 208.796875 120.359375 C208.13665344 120.37591125 207.47643188 120.39244751 206.79620361 120.40948486 C204.69737374 120.45788451 202.59926778 120.47931519 200.5 120.5 C199.0728804 120.52816683 197.64579441 120.55809528 196.21875 120.58984375 C192.72932391 120.66363763 189.24003528 120.71326279 185.75 120.75 C186.60380249 121.59594727 186.60380249 121.59594727 187.47485352 122.45898438 C190.09011844 125.05326769 192.70132619 127.65159923 195.3125 130.25 C196.65538086 131.5803125 196.65538086 131.5803125 198.02539062 132.9375 C202.63646197 137.53168097 207.12231187 142.16586826 211.34765625 147.11889648 C212.58328491 148.55608922 213.88120786 149.93921852 215.1875 151.3125 C217.36999672 154.71719488 217.38734462 156.78430012 216.75 160.75 C214.79315246 163.65370925 213.2841966 165.32731318 209.8359375 166.27734375 C203.54169206 167.11276178 197.08574023 166.84648335 190.75 166.75 C190.77094727 167.32967529 190.79189453 167.90935059 190.81347656 168.5065918 C190.89696807 171.15004924 190.94876153 173.7932288 191 176.4375 C191.03351563 177.34951172 191.06703125 178.26152344 191.1015625 179.20117188 C191.16420715 183.5079916 191.15992948 186.04840703 188.94921875 189.83203125 C185.89434997 192.4962241 183.76631217 192.75 179.75 192.75 C174.61223654 190.40391807 171.06541908 186.21457974 167.21875 182.203125 C165.75449036 180.70385639 164.28962851 179.20517573 162.82421875 177.70703125 C160.52662301 175.347325 158.23400161 172.98335583 155.95166016 170.60888672 C153.74153676 168.31436041 151.51316471 166.03893214 149.28125 163.765625 C148.26073547 162.68924774 148.26073547 162.68924774 147.21960449 161.59112549 C146.57543579 160.94004822 145.93126709 160.28897095 145.26757812 159.61816406 C144.70752075 159.03875061 144.14746338 158.45933716 143.57043457 157.86236572 C141.71362624 156.47036198 141.71362624 156.47036198 139.03015137 157.07073975 C138.27770142 157.29489563 137.52525146 157.51905151 136.75 157.75 C136.61464844 158.60980469 136.47929687 159.46960938 136.33984375 160.35546875 C133.46564687 176.13773547 125.84329504 189.15840015 112.75 198.75 C112.09 198.75 111.43 198.75 110.75 198.75 C110.75 204.03 110.75 209.31 110.75 214.75 C112.64363281 214.70359375 114.53726562 214.6571875 116.48828125 214.609375 C119.01300495 214.57183264 121.53774585 214.53543515 124.0625 214.5 C125.92745117 214.44972656 125.92745117 214.44972656 127.83007812 214.3984375 C138.34957888 214.28799655 147.95540712 215.89912519 155.84375 223.3671875 C159.63988868 228.11236085 162.16612633 233.61087664 164.86132812 239.02929688 C166.00952944 241.25251744 167.31834874 243.34442968 168.6875 245.4375 C171.20796056 249.48551242 171.86147439 252.3856215 171.94287109 257.08789062 C171.96696548 258.35940979 171.96696548 258.35940979 171.99154663 259.65661621 C172.03618806 263.5056044 172.07701127 267.35442699 172.10009766 271.20361328 C172.11670017 273.23465397 172.14404621 275.26563523 172.18212891 277.29638672 C172.23680026 280.22914836 172.25875073 283.16054802 172.2734375 286.09375 C172.29610687 287.00112915 172.31877625 287.9085083 172.34213257 288.84338379 C172.32098727 295.13257876 172.32098727 295.13257876 169.34228516 298.35351562 C166.75 299.75 166.75 299.75 164.75 299.75 C164.75 306.02 164.75 312.29 164.75 318.75 C166.4 319.41 168.05 320.07 169.75 320.75 C172.08097634 324.2464645 172.01187217 325.6717765 172.04052734 329.80688477 C172.05328705 331.05570938 172.06604675 332.304534 172.07919312 333.59120178 C172.08225244 334.95793503 172.08447931 336.32467036 172.0859375 337.69140625 C172.09236848 339.09805944 172.09909707 340.50471129 172.10610962 341.91136169 C172.11809161 344.86452324 172.12178998 347.81756781 172.12060547 350.77075195 C172.12040329 354.53095998 172.14759465 358.29040355 172.18214989 362.05043125 C172.20454776 364.95978643 172.20843896 367.86896219 172.20738602 370.7783947 C172.20972691 372.1629084 172.21846409 373.54742821 172.23405075 374.93185616 C172.32780912 384.12776306 171.84420122 392.31962246 166.1421051 399.88264465 C164.44824801 402.154767 164.33309974 403.4902478 164.23828125 406.296875 C164.18510742 407.56337891 164.18510742 407.56337891 164.13085938 408.85546875 C164.10830078 409.72816406 164.08574219 410.60085938 164.0625 411.5 C164.02833984 412.38816406 163.99417969 413.27632813 163.95898438 414.19140625 C163.87671286 416.37747803 163.80749828 418.56315951 163.75 420.75 C164.94544434 420.7185791 164.94544434 420.7185791 166.16503906 420.68652344 C169.77656434 420.60336678 173.38788824 420.55133966 177 420.5 C178.25425781 420.46648437 179.50851562 420.43296875 180.80078125 420.3984375 C182.00605469 420.38554687 183.21132813 420.37265625 184.453125 420.359375 C185.56333008 420.33842773 186.67353516 420.31748047 187.81738281 420.29589844 C191.43416391 420.85593947 192.58648731 421.84419425 194.75 424.75 C195.21918683 428.50349462 195.28136381 430.78848453 193.4375 434.125 C189.91627568 437.51580861 185.56494041 436.89325289 180.99218941 436.88422108 C179.78881039 436.88774942 179.78881039 436.88774942 178.56112069 436.89134905 C175.85007007 436.89805091 173.13906725 436.89758047 170.42800903 436.89717102 C168.47382721 436.90046889 166.51964607 436.90419429 164.56546581 436.9083125 C159.17754991 436.91834907 153.78964516 436.92205194 148.40172124 436.92470181 C142.59793831 436.92859986 136.79416425 436.93817841 130.99038696 436.94691467 C116.96702275 436.96669136 102.94365781 436.976746 88.92028314 436.98564246 C82.32211816 436.99002266 75.72395398 436.99539009 69.12578964 437.00063133 C47.20282468 437.01764344 25.27986028 437.03216424 3.35688972 437.03938007 C1.93892552 437.03985483 0.52096132 437.04033072 -0.89700288 437.04080774 C-1.95179102 437.0411623 -1.95179102 437.0411623 -3.02788802 437.04152403 C-6.59069488 437.04272524 -10.15350174 437.04394069 -13.71630859 437.04516602 C-14.42336158 437.04540617 -15.13041456 437.04564632 -15.85889339 437.04589374 C-38.79377776 437.05379027 -61.72861047 437.07722985 -84.66347227 437.10972196 C-108.90229931 437.14399885 -133.1410961 437.16372914 -157.37994778 437.16702431 C-170.59672404 437.16919311 -183.81342435 437.1779959 -197.03017807 437.20348549 C-208.28198194 437.22513503 -219.53369141 437.23327125 -230.78551374 437.22351871 C-236.52988367 437.21895754 -242.27405861 437.22096538 -248.0184021 437.24028015 C-253.27262341 437.25779501 -258.52650582 437.25700974 -263.78073014 437.24138286 C-265.68583531 437.23898895 -267.59096323 437.2434217 -269.49603342 437.25521151 C-272.07794198 437.27020576 -274.65863018 437.2607453 -277.24050713 437.24498463 C-278.36020782 437.26031794 -278.36020782 437.26031794 -279.50252873 437.27596101 C-284.34748054 437.21103418 -286.86615159 436.22571833 -290.25 432.75 C-290.87890625 430.75 -290.87890625 430.75 -290.8125 428.75 C-290.81378906 428.09 -290.81507813 427.43 -290.81640625 426.75 C-289.98710137 423.82169587 -288.60733167 422.6510936 -286.25 420.75 C-283.33929443 420.26898193 -283.33929443 420.26898193 -279.92089844 420.29589844 C-278.63987244 420.29620056 -277.35884644 420.29650269 -276.03900146 420.29681396 C-274.64578629 420.31723905 -273.2525775 420.33810301 -271.859375 420.359375 C-270.43020418 420.36683869 -269.0010231 420.37253102 -267.57183838 420.37652588 C-263.81672738 420.3917725 -260.06223875 420.43104484 -256.30737305 420.4753418 C-252.47323017 420.51631613 -248.63898638 420.53454144 -244.8046875 420.5546875 C-237.2861751 420.59754097 -229.76817488 420.66577933 -222.25 420.75 C-222.60975418 419.63063553 -222.96950836 418.51127106 -223.34016418 417.35798645 C-227.29992494 404.96861324 -230.98411599 392.51253897 -234.57421875 380.01171875 C-235.16684114 377.95508166 -235.75968607 375.89850868 -236.35273743 373.84199524 C-237.90412 368.46021131 -239.45267893 363.07761919 -241.00054932 357.69482422 C-242.84436043 351.28478504 -244.69120167 344.87561812 -246.53845406 338.4665699 C-248.04544968 333.237342 -249.55035383 328.0075321 -251.05050659 322.77633667 C-253.85288049 313.01191009 -256.68391762 303.25813639 -259.59619141 293.52587891 C-260.36879128 290.92592626 -261.14032188 288.32565907 -261.91141701 285.72525978 C-262.39217048 284.11486954 -262.87776354 282.50591445 -263.36868858 280.89859581 C-269.36381019 261.26997677 -269.36381019 261.26997677 -266.34919739 254.82380676 C-265.25 253.125 -265.25 253.125 -263.25 250.75 C-264.0853125 249.31333984 -264.0853125 249.31333984 -264.9375 247.84765625 C-280.62281776 220.60346054 -292.15742862 191.05243516 -292.48828125 159.18359375 C-292.49812042 158.39557877 -292.50795959 157.60756378 -292.51809692 156.79566956 C-292.9685829 111.33817372 -282.32047703 68.71197576 -253.25 32.75 C-252.82605957 32.2245459 -252.40211914 31.6990918 -251.96533203 31.15771484 C-221.40220458 -6.48507019 -178.05399484 -31.15070722 -129.625 -36.5625 C-84.95169475 -40.83580204 -34.52787406 -30.08322903 0 0 Z " fill="#010102" transform="translate(292.25,56.25)"/>
<path d="M0 0 C0.33 0.66 0.66 1.32 1 2 C-0.36328125 4.609375 -0.36328125 4.609375 -2.3125 7.75 C-5.88808425 13.52315429 -8.07369878 18.57561833 -8.625 25.375 C-8.69976562 26.24898437 -8.77453125 27.12296875 -8.8515625 28.0234375 C-8.90054687 28.67570312 -8.94953125 29.32796875 -9 30 C-10.0725 30.2475 -11.145 30.495 -12.25 30.75 C-16.18691409 32.0623047 -17.54556181 32.74373869 -20 36 C-20.39859861 38.62153796 -20.5621671 40.81608029 -20.53125 43.43359375 C-20.5350769 44.14854507 -20.53890381 44.8634964 -20.54284668 45.60011292 C-20.54556259 47.10882987 -20.53822364 48.61759417 -20.52148438 50.1262207 C-20.50009741 52.42702095 -20.52127608 54.72468813 -20.546875 57.02539062 C-20.54423105 58.49479852 -20.53910466 59.96420447 -20.53125 61.43359375 C-20.53934692 62.11707382 -20.54744385 62.80055389 -20.55578613 63.50474548 C-20.46334106 68.2513793 -19.39577284 70.69936076 -16 74 C-12.87866256 75.34772903 -12.87866256 75.34772903 -10 76 C-10 77.32 -10 78.64 -10 80 C-10.70125 80.20753906 -11.4025 80.41507812 -12.125 80.62890625 C-19.52629311 83.03231529 -26.06933231 85.90899659 -30.09228516 92.89746094 C-32.91943366 98.61706746 -33.64174586 103.54348118 -33.5 109.875 C-33.48646484 110.75051514 -33.47292969 111.62603027 -33.45898438 112.52807617 C-33.21236254 120.25723314 -32.40989185 127.17085915 -27.09375 133.140625 C-21.63139157 138.15458088 -17.35333825 140.02880438 -10 141 C-8.33950693 142.66049307 -8.63446391 144.90361417 -8.375 147.1875 C-6.65128742 157.96713536 -1.37934293 167.08070515 6 175 C6 175.66 6 176.32 6 177 C6.804375 177.3403125 6.804375 177.3403125 7.625 177.6875 C10.81816934 179.45214621 13.72677553 181.11962757 16 184 C16.72232921 186.97534297 16.57371816 189.77313117 16.375 192.8125 C16.34792969 193.60076172 16.32085937 194.38902344 16.29296875 195.20117188 C16.22263676 197.13530157 16.11502458 199.06801304 16 201 C15.08299316 201.00410889 14.16598633 201.00821777 13.22119141 201.01245117 C9.7725206 201.03964889 6.32556086 201.08895695 2.87744141 201.15258789 C1.39382652 201.17558344 -0.08994734 201.19011973 -1.57373047 201.19555664 C-11.43634579 201.23878456 -20.16571686 201.7455499 -27.86206055 208.67700195 C-35.39627833 216.51030277 -36.67514507 225.49094317 -37 236 C-37.62044189 236.01981934 -38.24088379 236.03963867 -38.88012695 236.06005859 C-41.69134537 236.15531845 -44.50182166 236.26499302 -47.3125 236.375 C-48.77719727 236.42140625 -48.77719727 236.42140625 -50.27148438 236.46875 C-51.20927734 236.50742187 -52.14707031 236.54609375 -53.11328125 236.5859375 C-54.40939331 236.63306885 -54.40939331 236.63306885 -55.73168945 236.68115234 C-58.27742445 236.87188037 -58.27742445 236.87188037 -61 239 C-61.67704878 244.05339276 -61.67704878 244.05339276 -59.94458008 248.59130859 C-57.00981792 250.71730704 -53.9832753 250.48010168 -50.48828125 250.51171875 C-49.76005661 250.52966995 -49.03183197 250.54762115 -48.28153992 250.56611633 C-45.95858529 250.62024213 -43.63583634 250.6541208 -41.3125 250.6875 C-39.73629949 250.72067125 -38.16012612 250.75516073 -36.58398438 250.79101562 C-32.72280464 250.8759693 -28.86168613 250.94276876 -25 251 C-19.97650777 268.04640093 -14.95376355 285.09365923 -10.09375 302.1875 C-8.58014435 307.46349682 -7.03934028 312.73146296 -5.5 318 C-3.3410176 325.38932051 -1.1990423 332.78267881 0.90625 340.1875 C2.41985573 345.46349712 3.96070546 350.73144937 5.5 356 C7.6737311 363.44196641 9.8429828 370.88457469 11.95703125 378.34375 C12.81961297 381.367632 13.69424333 384.38740934 14.57421875 387.40625 C14.98885376 388.83674683 14.98885376 388.83674683 15.41186523 390.29614258 C15.96163777 392.19272169 16.51443267 394.08842785 17.07055664 395.9831543 C17.44555298 397.28119995 17.44555298 397.28119995 17.828125 398.60546875 C18.0540332 399.38043701 18.27994141 400.15540527 18.51269531 400.95385742 C19 403 19 403 19 406 C-53.27 406 -125.54 406 -200 406 C-207.15877016 381.45564516 -207.15877016 381.45564516 -209.74804688 372.52783203 C-212.26120737 363.8704837 -214.84049913 355.23848536 -217.5 346.625 C-220.41040339 337.18766722 -223.02910905 327.68694021 -225.515625 318.12939453 C-226.85300442 313.03750006 -228.28936557 308.02694506 -229.98828125 303.04296875 C-232.49001243 295.69724335 -234.40309769 288.21731389 -236.35546875 280.7109375 C-238.03365905 274.34748288 -239.90392343 268.1369339 -242.15039062 261.94921875 C-243.20204716 258.2986409 -243.55799996 254.77384248 -244 251 C-242.7995574 250.99641747 -242.7995574 250.99641747 -241.57486343 250.99276257 C-222.11236327 250.93365651 -202.6499904 250.85813472 -183.18762589 250.76428509 C-173.77581145 250.71929721 -164.3640351 250.67988948 -154.95214844 250.65356445 C-146.74985876 250.63060856 -138.54768934 250.59723763 -130.34549499 250.55129844 C-126.00147315 250.52733362 -121.65757065 250.50862625 -117.31348419 250.50238609 C-113.22586863 250.49634991 -109.13855852 250.47640359 -105.05105591 250.44572449 C-103.54985421 250.43692064 -102.04861264 250.43322653 -100.54738617 250.43499184 C-98.49934955 250.43663996 -96.45132598 250.41820796 -94.40338135 250.39872742 C-93.25667088 250.39411845 -92.1099604 250.38950949 -90.92850113 250.38476086 C-87.672966 249.95703267 -86.26467831 249.35750882 -84 247 C-83.36035246 242.37747572 -83.36035246 242.37747572 -85.25328541 238.30617046 C-87.45073029 236.66294975 -88.65718788 236.61741309 -91.38493347 236.60127258 C-92.28095779 236.58873444 -93.17698212 236.57619629 -94.10015869 236.5632782 C-95.57074738 236.56543083 -95.57074738 236.56543083 -97.07104492 236.56762695 C-98.10536148 236.5574353 -99.13967804 236.54724365 -100.20533752 236.53674316 C-103.63043559 236.50650427 -107.05525449 236.49733044 -110.48046875 236.48828125 C-112.85273679 236.47144268 -115.22499587 236.45329356 -117.59724426 236.43388367 C-123.84598997 236.38628854 -130.09469934 236.35654063 -136.34356689 236.33044434 C-142.71804993 236.30068683 -149.09240761 236.25414002 -155.46679688 236.20898438 C-167.97779653 236.122843 -180.48882658 236.05497597 -193 236 C-192.89300781 235.38511719 -192.78601563 234.77023437 -192.67578125 234.13671875 C-192.55589844 233.32847656 -192.43601562 232.52023437 -192.3125 231.6875 C-192.18488281 230.88699219 -192.05726563 230.08648437 -191.92578125 229.26171875 C-191.79125048 226.94396457 -191.79125048 226.94396457 -193.27099609 225.23779297 C-196.20651078 223.13625958 -198.51495185 223.52985432 -202 224 C-204.93706535 226.05700979 -204.93706535 226.05700979 -207.375 228.875 C-208.22835937 229.77992188 -209.08171875 230.68484375 -209.9609375 231.6171875 C-212.00854976 233.8156419 -212.00854976 233.8156419 -213 236 C-233.73816504 238.3108241 -233.73816504 238.3108241 -239.97216797 234.93066406 C-243.33569052 231.79489721 -245.10266095 227.75494365 -246.87939453 223.57714844 C-248.14277579 220.6716468 -249.57036414 217.88357334 -251.02734375 215.0703125 C-259.60137715 198.27191444 -265.95350967 181.63188904 -269 163 C-269.16846436 162.06486572 -269.33692871 161.12973145 -269.51049805 160.16625977 C-270.91640249 151.92434066 -271.35061292 143.91630821 -271.3125 135.5625 C-271.30686035 134.2535376 -271.3012207 132.9445752 -271.29541016 131.59594727 C-270.72672559 85.53531262 -251.90574392 43.69756413 -220 10.75 C-161.10102471 -46.13026041 -63.76597327 -53.66780313 0 0 Z " fill="#D3F1F5" transform="translate(286,71)"/>
<path d="M0 0 C0.33 0 0.66 0 1 0 C1.433125 1.670625 1.433125 1.670625 1.875 3.375 C2.69241329 7.00291092 2.69241329 7.00291092 5 9 C7.50375468 9.24515697 9.90549479 9.37333658 12.4140625 9.4140625 C13.14370209 9.43342865 13.87334167 9.4527948 14.62509155 9.4727478 C16.95827502 9.53258422 19.29150773 9.57894423 21.625 9.625 C23.20575082 9.66317614 24.78648076 9.70222765 26.3671875 9.7421875 C30.2446223 9.83828878 34.12215449 9.92230412 38 10 C43.02349223 27.04640093 48.04623645 44.09365923 52.90625 61.1875 C54.41985565 66.46349682 55.96065972 71.73146296 57.5 77 C59.6589824 84.38932051 61.8009577 91.78267881 63.90625 99.1875 C65.41985573 104.46349712 66.96070546 109.73144937 68.5 115 C70.6737311 122.44196641 72.8429828 129.88457469 74.95703125 137.34375 C75.81961297 140.367632 76.69424333 143.38740934 77.57421875 146.40625 C77.98885376 147.83674683 77.98885376 147.83674683 78.41186523 149.29614258 C78.96163777 151.19272169 79.51443267 153.08842785 80.07055664 154.9831543 C80.44555298 156.28119995 80.44555298 156.28119995 80.828125 157.60546875 C81.0540332 158.38043701 81.27994141 159.15540527 81.51269531 159.95385742 C82 162 82 162 82 165 C9.73 165 -62.54 165 -137 165 C-144.15877016 140.45564516 -144.15877016 140.45564516 -146.74804688 131.52783203 C-149.26120737 122.8704837 -151.84049913 114.23848536 -154.5 105.625 C-157.41040339 96.18766722 -160.02910905 86.68694021 -162.515625 77.12939453 C-163.85300442 72.03750006 -165.28936557 67.02694506 -166.98828125 62.04296875 C-169.49001243 54.69724335 -171.40309769 47.21731389 -173.35546875 39.7109375 C-175.03365905 33.34748288 -176.90392343 27.1369339 -179.15039062 20.94921875 C-180.20204716 17.2986409 -180.55799996 13.77384248 -181 10 C-180.19970493 9.99761165 -179.39940987 9.99522329 -178.57486343 9.99276257 C-159.11236327 9.93365651 -139.6499904 9.85813472 -120.18762589 9.76428509 C-110.77581145 9.71929721 -101.3640351 9.67988948 -91.95214844 9.65356445 C-83.74985876 9.63060856 -75.54768934 9.59723763 -67.34549499 9.55129844 C-63.00147315 9.52733362 -58.65757065 9.50862625 -54.31348419 9.50238609 C-50.22586863 9.49634991 -46.13855852 9.47640359 -42.05105591 9.44572449 C-40.54985421 9.43692064 -39.04861264 9.43322653 -37.54738617 9.43499184 C-35.49934955 9.43663996 -33.45132598 9.41820796 -31.40338135 9.39872742 C-29.68331564 9.39181397 -29.68331564 9.39181397 -27.92850113 9.38476086 C-24.63073075 8.95148359 -23.25877768 8.42902742 -21 6 C-20.67 4.35 -20.34 2.7 -20 1 C-13.4 1.33 -6.8 1.66 0 2 C0 1.34 0 0.68 0 0 Z " fill="#B8ABAB" transform="translate(223,312)"/>
<path d="M0 0 C40.26 0 80.52 0 122 0 C122.103125 11.3025 122.20625 22.605 122.3125 34.25 C122.35802002 37.79524414 122.40354004 41.34048828 122.45043945 44.99316406 C122.47302246 49.38232422 122.47302246 49.38232422 122.47721863 51.44866943 C122.48480734 52.86655567 122.50220391 54.28441331 122.52787781 55.7020874 C122.7515771 68.72579718 120.29113844 80.24977001 111 90 C96.84475285 102.65437895 81.82325324 101.26716224 63.77807617 101.35009766 C61.14322061 101.36664357 58.50840969 101.39391509 55.8737793 101.43212891 C52.04712978 101.48723688 48.22152553 101.50882343 44.39453125 101.5234375 C43.23162064 101.54610687 42.06871002 101.56877625 40.87055969 101.59213257 C29.00211034 101.5618686 19.70722029 97.69946442 11.19140625 89.45703125 C7.7859807 85.63882684 5.12220062 81.65429668 3 77 C2.61964096 76.16668907 2.61964096 76.16668907 2.2315979 75.31654358 C-0.73428265 67.80946212 -0.38082035 60.17795936 -0.29296875 52.24609375 C-0.28854837 50.90499242 -0.28549372 49.56388588 -0.28381348 48.22277832 C-0.26819512 43.2942724 -0.22631153 38.36587785 -0.1875 33.4375 C-0.125625 22.403125 -0.06375 11.36875 0 0 Z " fill="#D58677" transform="translate(291,147)"/>
<path d="M0 0 C0 0.66 0 1.32 0 2 C-0.60247559 2.27038086 -1.20495117 2.54076172 -1.82568359 2.81933594 C-20.19759317 11.13882279 -36.80054027 20.63861447 -52 34 C-52.94488281 34.82371094 -53.88976562 35.64742187 -54.86328125 36.49609375 C-61.723725 42.59529746 -68.64208104 48.79685842 -73 57 C-72.20335938 57.67095703 -72.20335938 57.67095703 -71.390625 58.35546875 C-61.27943531 67.00902343 -61.27943531 67.00902343 -60.5 72.5625 C-61 76 -61 76 -62.625 78.4375 C-65.77693571 80.51114192 -67.28556438 80.66859841 -71 80 C-75.09619214 77.1326655 -78.00784673 74.02789864 -81 70 C-84.36331042 71.12110347 -84.55964658 71.44497724 -86.19921875 74.3671875 C-86.59995605 75.0785083 -87.00069336 75.7898291 -87.41357422 76.52270508 C-88.04416748 77.68709106 -88.04416748 77.68709106 -88.6875 78.875 C-89.12594238 79.67639404 -89.56438477 80.47778809 -90.01611328 81.3034668 C-96.76410534 93.8908322 -102.40251972 107.16104431 -106 121 C-106.16983398 121.64163086 -106.33966797 122.28326172 -106.51464844 122.94433594 C-109.7791512 135.51237641 -111.10397121 148.06586081 -112 161 C-110.09734375 160.95166016 -110.09734375 160.95166016 -108.15625 160.90234375 C-105.07999049 160.82418675 -104.20547953 160.87157529 -101.5 162.5625 C-99.43978862 165.91034349 -99.50874541 168.14014247 -100 172 C-101.54262813 174.10358381 -102.68108317 174.84054159 -105 176 C-107.3329866 176.04022391 -109.66706666 176.04320247 -112 176 C-109.5128718 207.35090549 -101.67118176 239.08975613 -83.14111328 265.05688477 C-82 267 -82 267 -82 270 C-102.73816504 272.3108241 -102.73816504 272.3108241 -108.97216797 268.93066406 C-112.33569052 265.79489721 -114.10266095 261.75494365 -115.87939453 257.57714844 C-117.14277579 254.6716468 -118.57036414 251.88357334 -120.02734375 249.0703125 C-128.60137715 232.27191444 -134.95350967 215.63188904 -138 197 C-138.16846436 196.06486572 -138.33692871 195.12973145 -138.51049805 194.16625977 C-139.91640249 185.92434066 -140.35061292 177.91630821 -140.3125 169.5625 C-140.30686035 168.2535376 -140.3012207 166.9445752 -140.29541016 165.59594727 C-139.72672559 119.53531262 -120.90574392 77.69756413 -89 44.75 C-67.20420418 23.70123751 -31.58509772 0 0 0 Z " fill="#A4E4ED" transform="translate(155,37)"/>
<path d="M0 0 C4.87129841 2.43564921 7.41030768 5.25019322 10 10 C10.5541248 13.01039915 10.55802789 15.95687217 10.5390625 19.01171875 C10.55085541 19.8617598 10.56264832 20.71180084 10.57479858 21.58760071 C10.60994268 24.28775584 10.61921918 26.98713516 10.625 29.6875 C10.64134632 32.3983441 10.66336092 35.10884367 10.69662476 37.8195343 C10.71624766 39.50221358 10.72559038 41.18505118 10.72354126 42.86784363 C10.75912768 46.76053984 10.791121 48.68668151 13 52 C14.65 52.66 16.3 53.32 18 54 C18 60.27 18 66.54 18 73 C15.03 74.485 15.03 74.485 12 76 C10.66222202 78.67555595 10.86797828 80.73545605 10.8581543 83.73144531 C10.85111984 84.93319397 10.84408539 86.13494263 10.83683777 87.37310791 C10.83059135 89.33084137 10.83059135 89.33084137 10.82421875 91.328125 C10.81379478 92.67853579 10.80237227 94.02893921 10.78999329 95.3793335 C10.73755908 101.11792607 10.68958305 106.85638804 10.67407227 112.59521484 C10.66396243 116.10559617 10.6345604 119.61537028 10.59275246 123.12551117 C10.57452528 125.10729684 10.57708583 127.08923862 10.58000183 129.07110596 C10.42492603 140.49055654 10.42492603 140.49055654 6 145 C1.51481847 148.81680464 -2.07518458 149.56183943 -7.8046875 149.390625 C-8.5286673 149.38496521 -9.25264709 149.37930542 -9.99856567 149.37347412 C-12.29140788 149.35123667 -14.58263716 149.30106987 -16.875 149.25 C-18.43747729 149.22991841 -19.99997929 149.21167055 -21.5625 149.1953125 C-25.3756133 149.15141416 -29.18753402 149.08247971 -33 149 C-33.45375 148.04738281 -33.9075 147.09476563 -34.375 146.11328125 C-36.5729366 141.9023306 -38.55249494 140.48250169 -43 139 C-45.75250978 138.87988446 -48.48160667 138.81465267 -51.23510742 138.79467773 C-52.07435257 138.78477814 -52.91359772 138.77487854 -53.77827454 138.76467896 C-56.55397718 138.73307604 -59.32969695 138.70831126 -62.10546875 138.68359375 C-64.02932685 138.66302318 -65.95318043 138.64202668 -67.87702942 138.62062073 C-72.94209136 138.56541068 -78.00719402 138.51599666 -83.07232666 138.46777344 C-88.24031195 138.41755065 -93.40823808 138.36186864 -98.57617188 138.30664062 C-108.71739738 138.19907209 -118.85867424 138.09762418 -129 138 C-129.67413211 136.08594633 -130.3390332 134.16863974 -131 132.25 C-131.37125 131.18265625 -131.7425 130.1153125 -132.125 129.015625 C-133 126 -133 126 -133 122 C-131.20714317 121.99120064 -131.20714317 121.99120064 -129.37806702 121.98222351 C-118.09345623 121.92491752 -106.8090367 121.85211461 -95.52462101 121.76428509 C-89.72370363 121.71962916 -83.92285571 121.68036235 -78.12182617 121.65356445 C-72.51958929 121.62748405 -66.91762039 121.58704777 -61.31554985 121.53681374 C-59.18225891 121.52017711 -57.04892166 121.50864294 -54.91557503 121.50238609 C-51.91877523 121.49271025 -48.92265609 121.46460893 -45.92602539 121.43237305 C-44.61402916 121.43452568 -44.61402916 121.43452568 -43.27552795 121.4367218 C-36.25805372 121.33052826 -29.87583593 120.17285381 -24.1875 115.875 C-19.07873833 109.16062752 -17.4047597 102.77470339 -17.50170898 94.44458008 C-17.49619019 93.53606796 -17.49067139 92.62755585 -17.48498535 91.69151306 C-17.47571862 89.73549871 -17.47551573 87.779424 -17.48357964 85.82340431 C-17.49627674 82.72487589 -17.48485972 79.62722941 -17.46754456 76.5287323 C-17.44092208 71.07140844 -17.4352462 65.61430316 -17.43664551 60.15692139 C-17.4388797 51.41246442 -17.42473432 42.66827677 -17.38105965 33.9239254 C-17.37123561 30.87604394 -17.37992877 27.8285885 -17.38975525 24.78071594 C-17.38361082 22.90955324 -17.37669901 21.03839285 -17.36889648 19.16723633 C-17.37661575 18.32397797 -17.38433502 17.4807196 -17.39228821 16.61190796 C-17.34978788 11.66739739 -16.73624858 8.2842199 -14 4 C-9.57470609 0.08927515 -5.72962419 -1.12300634 0 0 Z " fill="#5FB5FD" transform="translate(439,302)"/>
<path d="M0 0 C1.22212189 -0.0127597 2.44424377 -0.02551941 3.70339966 -0.03866577 C5.01283539 -0.04089142 6.32227112 -0.04311707 7.67138672 -0.04541016 C9.04654067 -0.05184886 10.42169329 -0.05857799 11.79684448 -0.06558228 C14.67660693 -0.07753001 17.55624969 -0.08126602 20.43603516 -0.08007812 C24.09395683 -0.0798758 27.75109402 -0.10709801 31.40883064 -0.14162254 C34.25049226 -0.16406774 37.09197089 -0.16791024 39.93371201 -0.16685867 C41.92755669 -0.17031258 43.92134424 -0.19187279 45.91506958 -0.21395874 C58.58537338 -0.15113725 68.77372138 2.81405685 78.28857422 11.35302734 C83.0785235 16.29199727 86.58720122 22.69245417 86.85498047 29.63037109 C86.81244141 30.50822266 86.76990234 31.38607422 86.72607422 32.29052734 C86.01475342 32.30510986 85.30343262 32.31969238 84.57055664 32.3347168 C81.3510109 32.4091374 78.13250904 32.50581735 74.91357422 32.60302734 C73.79402344 32.62558594 72.67447266 32.64814453 71.52099609 32.67138672 C70.44785156 32.70683594 69.37470703 32.74228516 68.26904297 32.77880859 C67.27928467 32.80499268 66.28952637 32.83117676 65.26977539 32.8581543 C62.70583418 33.10192293 62.70583418 33.10192293 60.90307617 34.60375977 C58.9249868 37.43856986 59.36941181 39.9616782 59.72607422 43.29052734 C60.66980575 45.13680893 60.66980575 45.13680893 62.72607422 46.29052734 C65.51748183 46.62162257 68.0982411 46.77910412 70.89404297 46.80224609 C71.68885574 46.8201973 72.48366852 46.8381485 73.30256653 46.85664368 C75.83951523 46.91079704 78.37627528 46.94465763 80.91357422 46.97802734 C82.63430362 47.01119608 84.35500812 47.04568533 86.07568359 47.08154297 C90.29250834 47.16901208 94.50847034 47.22903387 98.72607422 47.29052734 C98.72607422 52.57052734 98.72607422 57.85052734 98.72607422 63.29052734 C50.87607422 63.29052734 3.02607422 63.29052734 -46.27392578 63.29052734 C-46.27392578 58.01052734 -46.27392578 52.73052734 -46.27392578 47.29052734 C-42.66233521 47.26079834 -42.66233521 47.26079834 -38.9777832 47.23046875 C-31.03084318 47.16362138 -23.08403517 47.08598111 -15.13724804 47.00300026 C-10.31817197 46.95301197 -5.49911809 46.90668219 -0.67993164 46.86865234 C3.96912022 46.8318315 8.61798754 46.78548033 13.26688194 46.73246384 C15.04229184 46.71390284 16.81774132 46.69880121 18.59321022 46.68718338 C21.07624923 46.67035001 23.55886401 46.64132243 26.04174805 46.609375 C26.7790213 46.60721481 27.51629456 46.60505463 28.27590942 46.60282898 C31.96855106 46.54196171 33.57017849 46.39445783 36.72607422 44.29052734 C37.09023469 41.85359424 37.09023469 41.85359424 36.91357422 39.16552734 C36.88650391 38.25544922 36.85943359 37.34537109 36.83154297 36.40771484 C36.79673828 35.70904297 36.76193359 35.01037109 36.72607422 34.29052734 C33.17001318 33.1990607 29.82930512 33.13399091 26.12158203 33.08520508 C25.4675087 33.07530548 24.81343536 33.06540588 24.13954163 33.0552063 C21.98613048 33.02371883 19.8326973 32.99888462 17.67919922 32.97412109 C16.1827539 32.95354053 14.68631426 32.93254377 13.18988037 32.91114807 C9.25755413 32.85604117 5.32517641 32.80658187 1.39276123 32.75830078 C-2.62248294 32.70800248 -6.63765267 32.65235995 -10.65283203 32.59716797 C-18.52646694 32.48972567 -26.40016427 32.38824998 -34.27392578 32.29052734 C-34.13689918 30.68491511 -33.99320218 29.07987119 -33.84667969 27.47509766 C-33.76737213 26.58123352 -33.68806458 25.68736938 -33.60635376 24.76641846 C-32.66683974 17.76900981 -27.55457374 11.77225886 -22.12939453 7.53271484 C-15.35342055 2.99637858 -8.22408331 0.05861348 0 0 Z " fill="#5A5959" transform="translate(326.27392578125,68.70947265625)"/>
<path d="M0 0 C0.65880661 0.00424484 1.31761322 0.00848969 1.99638367 0.01286316 C4.0852576 0.02955679 6.17314014 0.06718817 8.26171875 0.10546875 C9.68423078 0.12052778 11.10675805 0.13421406 12.52929688 0.14648438 C16.00292226 0.17942872 19.47597362 0.23114467 22.94921875 0.29296875 C23.20243896 0.8977002 23.45565918 1.50243164 23.71655273 2.12548828 C26.2120111 8.04364743 26.2120111 8.04364743 30.01171875 13.16796875 C30.60984375 13.80863281 31.20796875 14.44929688 31.82421875 15.109375 C32.52546875 15.82996094 33.22671875 16.55054688 33.94921875 17.29296875 C34.83609375 18.23011719 35.72296875 19.16726563 36.63671875 20.1328125 C41.15468175 24.81884649 45.05755563 28.40644923 50.94921875 31.29296875 C53.13964844 33.00830078 53.13964844 33.00830078 54.94921875 35.29296875 C55.18481445 38.09448242 55.18481445 38.09448242 54.8125 41.2734375 C54.62034912 43.00859619 54.62034912 43.00859619 54.42431641 44.77880859 C54.18914307 46.51831787 54.18914307 46.51831787 53.94921875 48.29296875 C53.81435059 49.30697754 53.67948242 50.32098633 53.54052734 51.36572266 C53.1019684 54.4508103 52.62365382 57.52766273 52.13671875 60.60546875 C50.13831474 73.63661292 48.47729422 86.69269005 46.87890625 99.77734375 C45.95997093 107.29087511 44.96076563 114.79140868 43.94921875 122.29296875 C36.35921875 122.29296875 28.76921875 122.29296875 20.94921875 122.29296875 C17.74082468 112.94922462 15.0794744 103.56089231 12.59375 94.00390625 C10.92442943 87.67408435 9.03889443 81.4846772 6.92675781 75.28955078 C5.25432768 70.16282564 3.93226732 64.94744452 2.57421875 59.73046875 C-0.66425544 47.57607787 -0.66425544 47.57607787 -4.11328125 35.48046875 C-4.42628174 34.3356604 -4.42628174 34.3356604 -4.74560547 33.16772461 C-6.77111005 26.51476772 -10.31669947 24.11568994 -16.05078125 20.29296875 C-17.01975681 15.51792703 -16.63900498 10.68489437 -14.36328125 6.35546875 C-10.23462608 0.88779028 -6.73878467 -0.08602704 0 0 Z " fill="#B1D8FC" transform="translate(280.05078125,286.70703125)"/>
<path d="M0 0 C0.87438721 0.01023193 1.74877441 0.02046387 2.6496582 0.03100586 C16.04565232 0.4684109 25.9345999 6.77190656 34.9375 16.375 C43.90732269 27.09300159 46.25223466 38.98713306 45.1875 52.5625 C43.17488947 61.29905933 38.16593565 68.70529476 30.875 73.875 C21.1893118 79.80930312 11.76146295 81.08767917 0.6875 78.4375 C-11.21892025 74.76226075 -21.76899259 68.00366384 -27.95703125 56.91015625 C-33.93200682 45.44386552 -36.36993543 33.65994205 -32.7890625 20.921875 C-28.45142328 11.57558055 -21.66831376 5.37579056 -12.26342773 1.36962891 C-8.17571965 0.02348258 -4.27433854 -0.075817 0 0 Z " fill="#030303" transform="translate(159.8125,360.4375)"/>
<path d="M0 0 C4.17258102 0.76639243 5.44499883 2.2579987 8.0625 5.5625 C8.53264564 8.40741505 8.69988071 10.64093676 8.63012695 13.47387695 C8.63085709 14.25489273 8.63158722 15.03590851 8.63233948 15.84059143 C8.62886758 18.41137156 8.59002813 20.98031935 8.55078125 23.55078125 C8.54145164 25.33724477 8.53433622 27.12372112 8.52934265 28.91020203 C8.51028438 33.60409078 8.46119395 38.29720157 8.40582275 42.99078369 C8.35460484 47.78346229 8.3318232 52.57626703 8.30664062 57.36914062 C8.25307386 66.76726823 8.16777541 76.16481933 8.0625 85.5625 C8.8359375 85.8615625 9.609375 86.160625 10.40625 86.46875 C16.60243797 89.02012152 19.07184447 92.88436541 22.046875 98.63671875 C23.0625 101.5625 23.0625 101.5625 23.03271484 103.66357422 C23.00472846 106.25862564 23.15805561 108.11927361 24.0625 110.5625 C27.38605469 113.52571222 31.21574355 115.346084 35.1875 117.3125 C37.46523162 118.51358765 39.742566 119.71542889 42.01953125 120.91796875 C43.18564941 121.51915527 44.35176758 122.1203418 45.55322266 122.73974609 C51.05307764 125.59642602 56.46645639 128.59998594 61.875 131.625 C63.32253662 132.41052246 63.32253662 132.41052246 64.79931641 133.21191406 C73.38119422 137.9780835 73.38119422 137.9780835 76.0625 142.5625 C75.99939022 145.71798924 75.55114121 147.70019198 74 150.4375 C70.69679777 152.35548839 67.70087845 152.26618331 64.0625 151.5625 C59.41146614 149.48518342 55.10428922 146.87531602 50.75 144.25 C49.5056191 143.51845449 48.26016591 142.78873007 47.01367188 142.06079102 C42.31378361 139.30859491 37.64226817 136.50971213 32.97119141 133.70898438 C31.15352729 132.62008143 29.33363235 131.53488907 27.51098633 130.4543457 C25.91610724 129.50702346 24.32824115 128.54776101 22.7487793 127.57495117 C19.14459076 125.21345214 19.14459076 125.21345214 15.02734375 124.85571289 C12.84068532 125.59256006 12.84068532 125.59256006 10.0625 127.125 C3.97612746 129.79353915 -3.22029785 129.55057351 -9.375 127.3125 C-10.6434375 126.44625 -10.6434375 126.44625 -11.9375 125.5625 C-12.783125 125.046875 -13.62875 124.53125 -14.5 124 C-19.5354115 118.9645885 -22.22222846 113.07027631 -22.5 105.9375 C-22.11592957 98.77155435 -19.73181075 93.92972933 -14.4375 89.125 C-11.96361322 87.06155352 -10.05664047 86.27172545 -6.9375 85.5625 C-6.94638245 84.55660828 -6.95526489 83.55071655 -6.9644165 82.51434326 C-7.04547519 73.03845573 -7.1054523 63.56263847 -7.14474869 54.086483 C-7.16563056 49.21457224 -7.19395914 44.34294118 -7.23925781 39.47119141 C-7.28269419 34.77035012 -7.30663259 30.06977799 -7.31700897 25.36875153 C-7.32440432 23.57455456 -7.33884567 21.78037246 -7.36042023 19.98628998 C-7.38942537 17.47458472 -7.39345729 14.96399401 -7.39160156 12.45214844 C-7.40598267 11.70911972 -7.42036377 10.966091 -7.43518066 10.20054626 C-7.40763321 6.75855295 -7.18534263 4.89271904 -5.0927124 2.10455322 C-2.9375 0.5625 -2.9375 0.5625 0 0 Z " fill="#030303" transform="translate(181.9375,98.4375)"/>
<path d="M0 0 C9.24 0 18.48 0 28 0 C25.95467052 1.02266474 23.90872081 2.0443119 21.8515625 3.04296875 C14.50121577 6.82130487 9.87971614 11.21713268 6.6471386 18.9206028 C5.44845441 22.77223605 5.59582058 26.63347375 5.63110352 30.63549805 C5.62733704 31.57619141 5.62357056 32.51688477 5.61968994 33.48608398 C5.61327894 35.51799717 5.61356724 37.54994036 5.61987495 39.58185387 C5.62900699 42.79718908 5.61873858 46.01194397 5.60325623 49.22724915 C5.5632035 58.36478828 5.56196016 67.50228024 5.56420898 76.63989258 C5.56426001 82.2371977 5.54513796 87.83418731 5.51487541 93.43140602 C5.50403122 96.60020247 5.51618885 99.76840214 5.52870178 102.93717957 C5.51980076 104.87568763 5.50972756 106.81419078 5.49829102 108.75268555 C5.50803452 109.63432877 5.51777802 110.51597198 5.52781677 111.42433167 C5.45755227 117.3783434 5.45755227 117.3783434 3.12345886 120.54957581 C0.48000294 122.35518292 -1.02043034 122.46464115 -4.203125 122.390625 C-5.1828125 122.37773437 -6.1625 122.36484375 -7.171875 122.3515625 C-8.18765625 122.31804687 -9.2034375 122.28453125 -10.25 122.25 C-11.28125 122.23195313 -12.3125 122.21390625 -13.375 122.1953125 C-15.91761064 122.14822712 -18.45833162 122.0824805 -21 122 C-23.06639958 109.85207519 -24.70431333 97.66777446 -26.18774414 85.43670654 C-27.51134566 74.54138624 -29.02228069 63.68887989 -30.78100586 52.85351562 C-33.38832702 36.19818446 -33.38832702 36.19818446 -30.5 31.625 C-28.42088273 30.27357378 -26.5821933 29.37709167 -24.33203125 28.39453125 C-19.28200921 25.88961011 -15.9153363 22.2142121 -12.1875 18.0625 C-11.53330078 17.35931641 -10.87910156 16.65613281 -10.20507812 15.93164062 C-5.568521 10.87831433 -2.56906608 6.4226652 0 0 Z " fill="#B0D7FA" transform="translate(402,287)"/>
<path d="M0 0 C7.26 0 14.52 0 22 0 C25.68858427 11.89380233 29.26333701 23.77171977 32.4375 35.8125 C35.11666455 45.96484296 38.09546337 55.99514257 41.22802734 66.01611328 C43.30953029 72.69219046 45.2066824 79.36933 46.953125 86.140625 C48.56851868 92.09588228 50.40436575 97.98152547 52.21630859 103.87939453 C55.32493302 114.01347703 58.2940162 124.1861956 61.23632812 134.36962891 C61.92523695 136.74248813 62.62405165 139.11207431 63.328125 141.48046875 C63.69421875 142.72441406 64.0603125 143.96835937 64.4375 145.25 C64.74558594 146.28640625 65.05367188 147.3228125 65.37109375 148.390625 C66 151 66 151 66 155 C58.74 155 51.48 155 44 155 C42.989375 151.535 41.97875 148.07 40.9375 144.5 C40.59517334 143.32703369 40.25284668 142.15406738 39.90014648 140.94555664 C38.33683791 135.58859676 36.77604542 130.23093908 35.22265625 124.87109375 C32.38693577 115.09888814 29.50192166 105.34750417 26.5 95.625 C23.58959661 86.18766722 20.97089095 76.68694021 18.484375 67.12939453 C17.14699558 62.03750006 15.71063443 57.02694506 14.01171875 52.04296875 C11.50998757 44.69724335 9.59690231 37.21731389 7.64453125 29.7109375 C5.96634095 23.34748288 4.09607657 17.1369339 1.84960938 10.94921875 C1 8 1 8 0 0 Z " fill="#9D9696" transform="translate(42,322)"/>
<path d="M0 0 C0.02187378 1.51352051 0.02187378 1.51352051 0.04418945 3.05761719 C0.10224114 6.80764891 0.17947292 10.55708446 0.26245117 14.30664062 C0.29566835 15.92828686 0.32371035 17.55004781 0.34643555 19.171875 C0.38004155 21.50570477 0.4323576 23.83848635 0.48828125 26.171875 C0.49786613 27.25647003 0.49786613 27.25647003 0.50764465 28.36297607 C0.59528892 31.37565562 0.82834075 33.66719755 2.21948242 36.36425781 C4.28680024 38.45754761 4.28680024 38.45754761 9 40 C9 46.27 9 52.54 9 59 C7.02 59.99 5.04 60.98 3 62 C1.66222202 64.67555595 1.86797828 66.73545605 1.8581543 69.73144531 C1.85111984 70.93319397 1.84408539 72.13494263 1.83683777 73.37310791 C1.83059135 75.33084137 1.83059135 75.33084137 1.82421875 77.328125 C1.81379478 78.67853579 1.80237227 80.02893921 1.78999329 81.3793335 C1.73755908 87.11792607 1.68958305 92.85638804 1.67407227 98.59521484 C1.66396243 102.10559617 1.6345604 105.61537028 1.59275246 109.12551117 C1.57452528 111.10729684 1.57708583 113.08923862 1.58000183 115.07110596 C1.42492603 126.49055654 1.42492603 126.49055654 -3 131 C-7.48518153 134.81680464 -11.07518458 135.56183943 -16.8046875 135.390625 C-17.5286673 135.38496521 -18.25264709 135.37930542 -18.99856567 135.37347412 C-21.29140788 135.35123667 -23.58263716 135.30106987 -25.875 135.25 C-27.43747729 135.22991841 -28.99997929 135.21167055 -30.5625 135.1953125 C-34.3756133 135.15141416 -38.18753402 135.08247971 -42 135 C-42.45375 134.04738281 -42.9075 133.09476563 -43.375 132.11328125 C-45.5729366 127.9023306 -47.55249494 126.48250169 -52 125 C-54.75250978 124.87988446 -57.48160667 124.81465267 -60.23510742 124.79467773 C-61.07435257 124.78477814 -61.91359772 124.77487854 -62.77827454 124.76467896 C-65.55397718 124.73307604 -68.32969695 124.70831126 -71.10546875 124.68359375 C-73.02932685 124.66302318 -74.95318043 124.64202668 -76.87702942 124.62062073 C-81.94209136 124.56541068 -87.00719402 124.51599666 -92.07232666 124.46777344 C-97.24031195 124.41755065 -102.40823808 124.36186864 -107.57617188 124.30664062 C-117.71739738 124.19907209 -127.85867424 124.09762418 -138 124 C-138 122.68 -138 121.36 -138 120 C-137.11927732 119.99780016 -137.11927732 119.99780016 -136.22076225 119.99555588 C-121.92319108 119.95847744 -107.62583456 119.89944909 -93.32845879 119.81609726 C-86.41428115 119.77631586 -79.50021718 119.74391891 -72.5859375 119.72900391 C-65.91384145 119.71459047 -59.24214849 119.67946925 -52.57019424 119.63169098 C-50.02413112 119.6168483 -47.47801772 119.60895734 -44.93191147 119.60811615 C-41.36682276 119.60575356 -37.80271317 119.57872854 -34.23779297 119.54589844 C-33.18402969 119.5509288 -32.13026642 119.55595917 -31.04457092 119.56114197 C-25.26183729 119.47869901 -21.4134609 119.15066025 -17 115 C-14.29631859 110.66745451 -14.72751337 105.82025081 -14.76049805 100.87036133 C-14.75848389 99.95910492 -14.75646973 99.04784851 -14.75439453 98.10897827 C-14.75085452 96.13378515 -14.75160934 94.15858069 -14.75617027 92.18338966 C-14.76177489 89.0506503 -14.75258474 85.91827965 -14.7389679 82.78556824 C-14.70189495 73.87973415 -14.68327406 64.97402436 -14.69458008 56.06811523 C-14.70045201 50.61565924 -14.68206714 45.16372092 -14.64869118 39.71137047 C-14.64076751 37.64029068 -14.64197271 35.56915401 -14.65271568 33.49808693 C-14.7595159 11.97645943 -14.7595159 11.97645943 -9 5 C-3.64652636 0 -3.64652636 0 0 0 Z " fill="#87C6FA" transform="translate(448,316)"/>
<path d="M0 0 C3.27036728 -0.14510162 6.53991007 -0.23399373 9.8125 -0.3125 C10.74126953 -0.35439453 11.67003906 -0.39628906 12.62695312 -0.43945312 C15.17719714 -0.48548641 17.4944289 -0.48332865 20 0 C22.07421875 2.45703125 22.07421875 2.45703125 23 5 C25.03123075 7.03123075 29.17768866 6.25669618 31.97265625 6.31640625 C32.77029892 6.33718735 33.56794159 6.35796844 34.38975525 6.37937927 C36.94724611 6.44496158 39.5048428 6.50379967 42.0625 6.5625 C43.79232882 6.60567699 45.52214679 6.64929101 47.25195312 6.69335938 C51.50119504 6.80147739 55.75051289 6.90048535 60 7 C60 12.28 60 17.56 60 23 C12.15 23 -35.7 23 -85 23 C-85 17.72 -85 12.44 -85 7 C-82.59750977 6.9906543 -80.19501953 6.98130859 -77.71972656 6.97167969 C-69.78470626 6.9379228 -61.84994639 6.88238121 -53.91513443 6.81609726 C-49.10389078 6.77657644 -44.29283141 6.74441063 -39.48144531 6.72900391 C-34.83874281 6.71386755 -30.19654679 6.67947611 -25.55406952 6.63169098 C-23.78228913 6.61684591 -22.01043644 6.6089572 -20.23859406 6.60811615 C-17.75779631 6.60575406 -15.27840696 6.57873769 -12.79785156 6.54589844 C-11.69733459 6.55344398 -11.69733459 6.55344398 -10.57458496 6.56114197 C-7.12739121 6.49047005 -5.32088692 6.25263716 -2.57513428 4.09088135 C-0.97087702 2.09257212 -0.97087702 2.09257212 0 0 Z " fill="#FC7F86" transform="translate(365,109)"/>
<path d="M0 0 C2.22297254 1.20302043 4.14861298 2.45012138 6.13671875 4.0078125 C6.96300781 4.60980469 7.78929687 5.21179688 8.640625 5.83203125 C11.35629351 8.19921022 13.00381992 10.50851905 14.88671875 13.5703125 C15.4796875 14.52035156 16.07265625 15.47039062 16.68359375 16.44921875 C20.00959295 22.30548079 19.92042018 28.44145971 19.13671875 35.0078125 C17.15225738 40.09711381 14.1091619 43.80595554 9.38671875 46.5703125 C2.96244747 49.22062974 -3.36976282 48.778923 -9.86328125 46.5703125 C-18.76342143 42.59753699 -25.2920072 36.01363402 -28.86328125 27.0078125 C-31.00898774 20.57069302 -31.02098439 12.64737567 -28.30078125 6.4453125 C-27.09421875 5.23875 -27.09421875 5.23875 -25.86328125 4.0078125 C-24.95578125 3.0590625 -24.04828125 2.1103125 -23.11328125 1.1328125 C-16.942564 -2.980999 -6.75489665 -2.34071453 0 0 Z " fill="#FCFCFC" transform="translate(170.86328125,376.9921875)"/>
<path d="M0 0 C5.94 0 11.88 0 18 0 C18.00410889 2.08272217 18.00821777 4.16544434 18.01245117 6.3112793 C18.02975158 13.24044654 18.07442308 20.1692504 18.13209057 27.09819317 C18.16618774 31.2938044 18.19144336 35.48905819 18.19555664 39.68481445 C18.1998771 43.74411942 18.22864473 47.80262046 18.27343178 51.86167336 C18.28628841 53.39993394 18.29075711 54.93829132 18.28615379 56.47659874 C18.25506782 70.03576763 21.03793 82.36142268 30 93 C32.08621554 94.99944708 34.21475573 96.87036418 36.4609375 98.6875 C36.96882813 99.120625 37.47671875 99.55375 38 100 C38 100.33 38 100.66 38 101 C29.91627136 101.91860553 22.72869459 98.65662952 16.21484375 94.015625 C10.49019636 89.14578921 6.12621328 83.85624346 3 77 C2.61964096 76.16668907 2.61964096 76.16668907 2.2315979 75.31654358 C-0.73436699 67.80924866 -0.37993613 60.17758885 -0.29296875 52.24609375 C-0.28736328 50.7343844 -0.28309768 49.22266954 -0.28010559 47.71095276 C-0.26873155 43.76041223 -0.23933001 39.81021033 -0.20599365 35.85980225 C-0.17513087 31.8173887 -0.16156586 27.77491965 -0.14648438 23.73242188 C-0.11445178 15.82144298 -0.06174625 7.91080282 0 0 Z " fill="#C76C58" transform="translate(291,147)"/>
<path d="M0 0 C25.41 0 50.82 0 77 0 C77 7.26 77 14.52 77 22 C53.57 22 30.14 22 6 22 C2.47058824 11.41176471 2.47058824 11.41176471 1.3125 7.625 C0.93544922 6.40683594 0.93544922 6.40683594 0.55078125 5.1640625 C0 3 0 3 0 0 Z " fill="#726A6A" transform="translate(315,455)"/>
<path d="M0 0 C2.64 0 5.28 0 8 0 C9.33241878 2.66483756 9.45137532 5.0700439 9.796875 8.03515625 C9.94866211 9.30431885 10.10044922 10.57348145 10.25683594 11.88110352 C10.33703979 12.56198029 10.41724365 13.24285706 10.49987793 13.94436646 C12.17195766 28.10420515 14.16605936 42.19382758 16.42480469 56.27172852 C16.63008789 57.57553467 16.83537109 58.87934082 17.046875 60.22265625 C17.23088867 61.36484619 17.41490234 62.50703613 17.60449219 63.68383789 C18 67 18 67 18 74 C9.09 74 0.18 74 -9 74 C-9 63.8884273 -9 63.8884273 -8.30078125 59.55078125 C-8.14577148 58.5553833 -7.99076172 57.55998535 -7.83105469 56.53442383 C-7.65993164 55.47118896 -7.48880859 54.4079541 -7.3125 53.3125 C-5.45666833 41.33247432 -3.81609414 29.33331164 -2.25 17.3125 C-2.13749908 16.45065094 -2.02499817 15.58880188 -1.90908813 14.70083618 C-1.26973759 9.80094201 -0.63345321 4.90065993 0 0 Z " fill="#018DCB" transform="translate(348,335)"/>
<path d="M0 0 C16.17 0 32.34 0 49 0 C47.02 2.64 45.04 5.28 43 8 C42.17444156 12.40297833 41.9622039 14.39686465 44.38574219 18.140625 C44.93391602 18.83671875 45.48208984 19.5328125 46.046875 20.25 C46.59698242 20.95640625 47.14708984 21.6628125 47.71386719 22.390625 C48.13829102 22.92171875 48.56271484 23.4528125 49 24 C43.28925873 24.14886633 37.57965854 24.2574597 31.86743164 24.32958984 C29.92647618 24.35967215 27.98565564 24.40054963 26.04516602 24.45263672 C23.24721935 24.52583255 20.45107664 24.55954101 17.65234375 24.5859375 C16.36129982 24.63238907 16.36129982 24.63238907 15.04417419 24.67977905 C10.33813858 24.6823789 7.70607117 24.19887697 4.10351562 21.0546875 C3.5793103 20.52004883 3.05510498 19.98541016 2.51501465 19.43457031 C0.18381166 17.22714967 -2.39859212 16.51277084 -5.4375 15.625 C-6.48808594 15.30789062 -7.53867187 14.99078125 -8.62109375 14.6640625 C-9.40613281 14.44492188 -10.19117188 14.22578125 -11 14 C-11 12.68 -11 11.36 -11 10 C-10.37351562 9.86464844 -9.74703125 9.72929687 -9.1015625 9.58984375 C-8.28429687 9.37457031 -7.46703125 9.15929687 -6.625 8.9375 C-5.81289063 8.74027344 -5.00078125 8.54304687 -4.1640625 8.33984375 C-1.08490851 6.76917071 -1.08490851 6.76917071 0 0 Z " fill="#FC636E" transform="translate(439,137)"/>
<path d="M0 0 C0.83595703 0.01353516 1.67191406 0.02707031 2.53320312 0.04101562 C4.58491498 0.07618783 6.63629275 0.12998952 8.6875 0.1875 C8.2030542 1.20263672 7.7186084 2.21777344 7.21948242 3.26367188 C4.84863525 9.62866622 5.20581815 16.26508868 5.17578125 22.96875 C5.15891062 24.39222743 5.14075721 25.81569018 5.12138367 27.23913574 C5.07413565 30.96097219 5.04416431 34.6827491 5.01794434 38.40478516 C4.98801058 42.21268467 4.94152474 46.02037951 4.89648438 49.828125 C4.81073856 57.28114786 4.74326678 64.73418608 4.6875 72.1875 C4.3575 72.1875 4.0275 72.1875 3.6875 72.1875 C3.50687012 71.49938232 3.32624023 70.81126465 3.14013672 70.10229492 C1.03680899 62.11748887 -1.11947527 54.14812312 -3.3125 46.1875 C-3.72024658 44.69476563 -3.72024658 44.69476563 -4.13623047 43.171875 C-4.85831894 40.56517703 -5.61008655 37.96940523 -6.375 35.375 C-6.58334473 34.61276123 -6.79168945 33.85052246 -7.00634766 33.06518555 C-9.03261917 26.41057093 -12.57665856 24.0113943 -18.3125 20.1875 C-19.28147556 15.41245828 -18.90072373 10.57942562 -16.625 6.25 C-11.86174741 -0.05809127 -7.4073053 -0.22800703 0 0 Z " fill="#89C6FA" transform="translate(282.3125,286.8125)"/>
<path d="M0 0 C-0.60328125 0.25394531 -1.2065625 0.50789063 -1.828125 0.76953125 C-5.8984797 3.07557753 -7.520247 6.67186868 -9 11 C-10.54361326 23.08504057 -8.30953034 31.89665734 -1.0625 41.5 C1.68915282 44.95734509 3.77336525 46.64747688 8 48 C8 48.33 8 48.66 8 49 C-2.28996439 49.78816749 -9.48082145 47.45194924 -17.375 40.75 C-22.88115322 35.51180714 -26.6500642 29.61800519 -27.23828125 21.85546875 C-27.43773923 11.99804544 -27.43773923 11.99804544 -25.4375 7.4375 C-24.2309375 6.2309375 -24.2309375 6.2309375 -23 5 C-22.0925 4.05125 -21.185 3.1025 -20.25 2.125 C-14.60087486 -1.77825865 -6.52568257 -0.35252787 0 0 Z " fill="#EADDD8" transform="translate(168,376)"/>
<path d="M0 0 C4.35432986 0.85423184 6.21445655 2.87681742 9.3125 6.0625 C9.80032959 6.56128662 10.28815918 7.06007324 10.79077148 7.57397461 C14.04417732 10.92647442 17.1384542 14.38837786 20.1640625 17.9453125 C23.30001351 21.45490874 26.6918305 24.709611 30.05859375 27.99609375 C32 30 32 30 32 31 C30.98679687 31.14695313 30.98679687 31.14695313 29.953125 31.296875 C23.02142581 32.36108138 23.02142581 32.36108138 18 37 C16.85185003 39.29629994 16.69230191 41.07698086 16.4375 43.625 C16.29166667 45.08333333 16.14583333 46.54166667 16 48 C10.93376232 43.76183463 6.19961931 39.32591037 1.5625 34.625 C0.60827148 33.66400391 0.60827148 33.66400391 -0.36523438 32.68359375 C-1.91250332 31.12469121 -3.45736492 29.56348584 -5 28 C-3 23 -3 23 -1.9140625 20.76953125 C-0.59622494 16.77659607 -0.53337447 12.86792617 -0.375 8.6875 C-0.33632813 7.85154297 -0.29765625 7.01558594 -0.2578125 6.15429688 C-0.16404841 4.10320741 -0.08095755 2.05163485 0 0 Z " fill="#F87D84" transform="translate(452,176)"/>
<path d="M0 0 C0.86653702 -0.00478363 1.73307404 -0.00956726 2.62586975 -0.01449585 C4.45396749 -0.01789007 6.28212632 -0.00872098 8.11010742 0.01220703 C10.89836021 0.03894936 13.68257609 0.01246244 16.47070312 -0.01953125 C18.25131092 -0.01622643 20.03191621 -0.00981869 21.8125 0 C22.64079819 -0.01012115 23.46909637 -0.02024231 24.32249451 -0.03067017 C28.4502094 0.05228433 31.21432446 0.41806359 34.54125977 2.97900391 C36.97265625 5.6640625 36.97265625 5.6640625 37.03515625 9.2890625 C35.9993423 12.57929505 35.59733747 13.63200177 32.97265625 15.6640625 C31.00636292 16.05174255 31.00636292 16.05174255 28.74829102 16.06811523 C27.90053604 16.08079941 27.05278107 16.09348358 26.17933655 16.10655212 C25.26679611 16.10361649 24.35425568 16.10068085 23.4140625 16.09765625 C22.47336411 16.1028981 21.53266571 16.10813995 20.5634613 16.11354065 C18.57381172 16.11996456 16.58412417 16.11861909 14.59448242 16.11010742 C11.54992999 16.10160376 8.5072573 16.13034336 5.46289062 16.16210938 C3.52994848 16.16372162 1.59700301 16.16314341 -0.3359375 16.16015625 C-1.2464537 16.17139023 -2.15696991 16.18262421 -3.09507751 16.19419861 C-9.38619944 16.12484121 -9.38619944 16.12484121 -12.59790039 13.81665039 C-14.58921145 10.8179502 -14.67595487 9.1953897 -14.02734375 5.6640625 C-9.90699426 0.12432841 -6.43450175 -0.07843289 0 0 Z " fill="#070404" transform="translate(341.02734375,213.3359375)"/>
<path d="M0 0 C25.74 0 51.48 0 78 0 C78 0.33 78 0.66 78 1 C61.17 1 44.34 1 27 1 C27 5.62 27 10.24 27 15 C65.61 15 104.22 15 144 15 C144 10.38 144 5.76 144 1 C133.11 1 122.22 1 111 1 C111 0.67 111 0.34 111 0 C122.22 0 133.44 0 145 0 C145 5.28 145 10.56 145 16 C97.15 16 49.3 16 0 16 C0 10.72 0 5.44 0 0 Z " fill="#E9636C" transform="translate(280,116)"/>
<path d="M0 0 C-4.625 4.875 -4.625 4.875 -8 6 C-9.07785697 7.76770385 -9.07785697 7.76770385 -10 10 C-10.474375 10.87914063 -10.94875 11.75828125 -11.4375 12.6640625 C-12.2109375 14.12972656 -12.2109375 14.12972656 -13 15.625 C-13.515625 16.58664063 -14.03125 17.54828125 -14.5625 18.5390625 C-16.5294648 22.95719146 -16.5294648 22.95719146 -18 32 C-25.26 32 -32.52 32 -40 32 C-38.96663278 21.66632781 -37.2543903 15.58944344 -29.625 8.625 C-26.02785217 5.81398382 -22.18132247 3.80065233 -18 2 C-17.0925 1.5875 -16.185 1.175 -15.25 0.75 C-10.19817985 -0.41580465 -5.16094843 -0.15031889 0 0 Z " fill="#434343" transform="translate(332,69)"/>
<path d="M0 0 C2.203125 1.515625 2.203125 1.515625 4 4 C4.2906124 6.89449949 4.38186045 9.37949935 4.25 12.25 C4.23195313 12.99507812 4.21390625 13.74015625 4.1953125 14.5078125 C4.14835649 16.33909701 4.07661652 18.16971649 4 20 C4.91910156 19.95746094 5.83820313 19.91492188 6.78515625 19.87109375 C9.93879236 19.99754574 11.0547559 20.13773788 13.4375 22.0625 C16 25 16 25 16.0625 28.625 C14.6192026 33.20959173 14.6192026 33.20959173 12 35 C9.27562722 35.32657168 6.84510237 35.46445597 4.125 35.4375 C3.41730469 35.45748047 2.70960938 35.47746094 1.98046875 35.49804688 C-1.58178178 35.49473007 -3.80614231 35.11531643 -6.8828125 33.28515625 C-11.85267977 27.92100062 -11.36599741 21.84698695 -11.375 14.9375 C-11.39949219 13.94427734 -11.42398437 12.95105469 -11.44921875 11.92773438 C-11.47840913 4.70311644 -11.47840913 4.70311644 -9.1953125 1.34765625 C-5.95070018 -0.64414313 -3.72547226 -0.53221032 0 0 Z " fill="#040202" transform="translate(350,167)"/>
<path d="M0 0 C2.64 0.33 5.28 0.66 8 1 C8.07476562 1.6290625 8.14953125 2.258125 8.2265625 2.90625 C9.28320454 9.78478249 11.41424857 13.84703822 16 19 C16.79019531 19.8971875 17.58039063 20.794375 18.39453125 21.71875 C20.57633696 24.16512113 22.77789848 26.59025435 25 29 C24.06409496 30.1055189 23.12620142 31.20935453 22.1875 32.3125 C21.66542969 32.92738281 21.14335937 33.54226563 20.60546875 34.17578125 C19.12827531 35.85424679 17.59960869 37.43882034 16 39 C12.17444746 37.42529581 9.75542436 34.99021491 6.875 32.0625 C6.00617188 31.18722656 5.13734375 30.31195313 4.2421875 29.41015625 C0.69265097 25.59471367 -0.24957258 23.58460835 -0.1953125 18.45703125 C-0.18886719 17.38388672 -0.18242187 16.31074219 -0.17578125 15.20507812 C-0.15064453 13.52575195 -0.15064453 13.52575195 -0.125 11.8125 C-0.11597656 10.68134766 -0.10695313 9.55019531 -0.09765625 8.38476562 C-0.07406862 5.58963172 -0.041153 2.79492155 0 0 Z " fill="#84C1F4" transform="translate(317,262)"/>
<path d="M0 0 C0.20505665 3.83253129 0.32820828 7.66363766 0.4375 11.5 C0.49615234 12.57765625 0.55480469 13.6553125 0.61523438 14.765625 C0.73701408 20.47187423 0.5533423 24.12021572 -3.28125 28.53125 C-4.49648812 29.71306099 -5.73380208 30.87295797 -7 32 C-7.73089844 32.763125 -8.46179688 33.52625 -9.21484375 34.3125 C-9.78332031 34.869375 -10.35179687 35.42625 -10.9375 36 C-11.52402344 36.5775 -12.11054688 37.155 -12.71484375 37.75 C-13.35099609 38.36875 -13.35099609 38.36875 -14 39 C-15.10865985 38.08877273 -16.21172219 37.17073341 -17.3125 36.25 C-18.23482422 35.48429687 -18.23482422 35.48429687 -19.17578125 34.703125 C-21.05932329 32.94461466 -22.51573656 31.10080364 -24 29 C-23.57589844 28.52691406 -23.15179688 28.05382812 -22.71484375 27.56640625 C-20.78906726 25.39514617 -18.8959938 23.19729514 -17 21 C-16.35546875 20.29101562 -15.7109375 19.58203125 -15.046875 18.8515625 C-10.70752453 13.801142 -9.09619088 9.82152512 -8.38671875 3.1875 C-8.25910156 2.465625 -8.13148438 1.74375 -8 1 C-5.29120665 -0.35439668 -2.99066732 -0.06501451 0 0 Z " fill="#87C6FA" transform="translate(387,262)"/>
<path d="M0 0 C2.73852773 2.45193761 3.2240542 4.62173288 3.46875 8.15234375 C3.49522081 9.74721019 3.50512475 11.34242214 3.5 12.9375 C3.52835937 13.73607422 3.55671875 14.53464844 3.5859375 15.35742188 C3.60034682 19.70543559 3.4020466 21.47982284 0.66015625 25.02734375 C-2 27 -2 27 -5.0625 27.625 C-8 27 -8 27 -10.1484375 25.05859375 C-12.72170726 20.80781268 -12.62564896 17.31482886 -12.5625 12.4375 C-12.58634766 11.58736328 -12.61019531 10.73722656 -12.63476562 9.86132812 C-12.62471521 5.58990086 -12.61152766 3.68602849 -9.69140625 0.41015625 C-5.99803252 -1.52497861 -3.95094009 -1.17064891 0 0 Z " fill="#050303" transform="translate(389,162)"/>
<path d="M0 0 C2.71593197 2.01994941 4.6727252 3.62796975 5.48120117 7.01733398 C5.67343422 9.36442507 5.68231945 11.64608111 5.625 14 C5.64433594 14.7940625 5.66367187 15.588125 5.68359375 16.40625 C5.64760185 20.72527795 5.37824497 22.51224651 2.65234375 26.02734375 C0 28 0 28 -3.0625 28.5625 C-6.8365258 27.83981421 -7.76353793 27.1348295 -10 24 C-10.59860974 20.65823917 -10.55805386 17.38647544 -10.5 14 C-10.51546875 13.09765625 -10.5309375 12.1953125 -10.546875 11.265625 C-10.50809731 4.7121956 -10.50809731 4.7121956 -8.15234375 1.41015625 C-5.1507863 -0.55638139 -3.52137671 -0.64678348 0 0 Z " fill="#070403" transform="translate(323,161)"/>
<path d="M0 0 C10.89 0 21.78 0 33 0 C33 3.63 33 7.26 33 11 C22.11 11 11.22 11 0 11 C0 7.37 0 3.74 0 0 Z " fill="#B3DAFE" transform="translate(407,466)"/>
<path d="M0 0 C5.73400017 2.00690006 10.99468125 6.80186251 13.75 12.3125 C14.10872645 16.18674565 14.31710729 18.46183906 12.125 21.75 C8.97306429 23.82364192 7.46443562 23.98109841 3.75 23.3125 C1.40666298 21.7014558 -0.29210997 20.30553164 -2.25 18.3125 C-2.81460938 17.76980469 -3.37921875 17.22710937 -3.9609375 16.66796875 C-6.89515958 13.6166533 -8.14492478 11.87608525 -8.9375 7.625 C-8.25 4.3125 -8.25 4.3125 -6.1875 1.8125 C-3.25 0.3125 -3.25 0.3125 0 0 Z " fill="#060707" transform="translate(80.25,93.6875)"/>
<path d="M0 0 C3.72004188 0.71234845 4.68353774 1.52868581 6.9375 4.5625 C7.36556075 7.53530809 7.54301118 10.03728876 7.5 13 C7.52384766 13.75087891 7.54769531 14.50175781 7.57226562 15.27539062 C7.56108237 19.51384258 7.28419216 21.12457306 4.5625 24.5625 C1.9375 26.5625 1.9375 26.5625 -0.625 27.125 C-3.80060981 26.39216697 -5.01522307 25.04847913 -7.0625 22.5625 C-8.5560473 19.5754054 -8.36881228 16.5251552 -8.4375 13.25 C-8.48648438 11.93386719 -8.53546875 10.61773437 -8.5859375 9.26171875 C-7.82748286 3.90159525 -5.39148574 0.99027289 0 0 Z " fill="#050606" transform="translate(182.0625,50.4375)"/>
<path d="M0 0 C1.13888672 -0.02320313 1.13888672 -0.02320313 2.30078125 -0.046875 C6.01686562 -0.02084289 7.92905799 0.08760351 11.00390625 2.30859375 C13.17371533 5.48682586 12.97776318 7.74614645 12.5 11.5 C10.95737187 13.60358381 9.81891683 14.34054159 7.5 15.5 C4.85882311 15.67704592 2.26803404 15.77741548 -0.375 15.8125 C-1.09558594 15.84150391 -1.81617188 15.87050781 -2.55859375 15.90039062 C-6.07311053 15.94246127 -8.09860224 15.79186809 -10.9765625 13.69921875 C-13.20469009 10.48271661 -13.04539618 8.31777326 -12.5 4.5 C-9.15586226 -0.37686754 -5.42948525 -0.1106177 0 0 Z " fill="#030304" transform="translate(42.5,197.5)"/>
<path d="M0 0 C7.92 0 15.84 0 24 0 C24 5.85481364 22.35050189 7.419425 18.5 11.3125 C17.97535156 11.86228516 17.45070313 12.41207031 16.91015625 12.97851562 C15.61778434 14.32963171 14.31031927 15.66628217 13 17 C9.61042892 15.56652501 7.7219322 13.81218308 5.375 11 C3.6266832 8.92339664 1.92037235 6.92037235 0 5 C0 3.35 0 1.7 0 0 Z " fill="#C46A56" transform="translate(340,263)"/>
<path d="M0 0 C4.71296857 1.17824214 6.10278929 2.13870888 9 6 C9.64840857 9.21106087 9.5642291 12.29984687 9.4375 15.5625 C9.43169922 16.41263672 9.42589844 17.26277344 9.41992188 18.13867188 C9.33823051 22.3049316 9.23664817 25.37538658 7 29 C2.71428571 32 2.71428571 32 0 32 C0 21.44 0 10.88 0 0 Z " fill="#BE6753" transform="translate(428,166)"/>
<path d="M0 0 C0 9.9 0 19.8 0 30 C-5 29 -5 29 -7.27734375 26.46875 C-9.37656929 22.24173803 -9.63187719 19.14419041 -9.5625 14.5 C-9.58634766 13.76652344 -9.61019531 13.03304687 -9.63476562 12.27734375 C-9.6240757 8.29356506 -9.16883996 5.67673584 -6.71484375 2.46875 C-4 0 -4 0 0 0 Z " fill="#CE8273" transform="translate(276,167)"/>
<path d="M0 0 C2.875 2.0625 2.875 2.0625 5 5 C5 8.54361243 4.65850044 10.86591591 2.875 13.9375 C-0.22289358 15.69297303 -2.52844534 15.48723574 -6 15 C-8.5 12.9375 -8.5 12.9375 -10 10 C-10 6.15050705 -9.86589381 3.95866815 -7.25 1.0625 C-4.45370167 -0.25797421 -3.05488134 -0.59607441 0 0 Z " fill="#F25F69" transform="translate(185,197)"/>
<path d="M0 0 C4.53786224 2.26893112 5.94678157 4.09866534 9 8 C6.69 10.31 4.38 12.62 2 15 C-2.53786224 12.73106888 -3.94678157 10.90133466 -7 7 C-4.69 4.69 -2.38 2.38 0 0 Z " fill="#07A3E9" transform="translate(351,303)"/>
</svg>
