<?xml version="1.0" standalone="no"?>
<!DOCTYPE svg PUBLIC "-//W3C//DTD SVG 20010904//EN"
 "http://www.w3.org/TR/2001/REC-SVG-20010904/DTD/svg10.dtd">
<svg version="1.0" xmlns="http://www.w3.org/2000/svg"
 width="512.000000pt" height="512.000000pt" viewBox="0 0 512.000000 512.000000"
 preserveAspectRatio="xMidYMid meet">

<g transform="translate(0.000000,512.000000) scale(0.100000,-0.100000)"
fill="#000000" stroke="none">
<path d="M1753 4675 c-294 -53 -538 -233 -678 -498 -194 -367 -131 -806 159
-1106 121 -125 253 -206 423 -258 81 -25 101 -27 263 -27 162 0 182 2 263 27
170 52 302 133 423 258 290 300 353 739 159 1106 -195 369 -606 572 -1012 498z"/>
<path d="M3550 3761 c-39 -21 -80 -89 -80 -133 0 -16 6 -43 14 -61 8 -18 111
-129 230 -247 119 -118 216 -219 216 -224 0 -6 -101 -112 -224 -236 -240 -241
-247 -251 -232 -335 9 -47 62 -100 114 -114 81 -22 95 -13 344 236 l228 228
228 -228 c249 -249 263 -258 344 -236 52 14 105 67 114 114 15 84 8 94 -232
335 -123 124 -224 230 -224 236 0 5 97 106 216 224 119 118 222 229 230 247
20 46 17 83 -9 133 -36 69 -117 98 -194 70 -15 -6 -128 -111 -250 -233 l-223
-222 -222 222 c-123 122 -236 227 -251 233 -43 15 -98 12 -137 -9z"/>
<path d="M1673 2550 c-518 -54 -961 -359 -1192 -819 -118 -234 -183 -572 -148
-766 21 -112 50 -183 110 -267 90 -126 236 -222 382 -253 104 -22 2086 -22
2189 0 184 39 353 170 436 340 48 98 64 175 63 310 -5 702 -532 1318 -1233
1440 -111 19 -480 28 -607 15z"/>
</g>
</svg>
