<?xml version="1.0" standalone="no"?>
<!DOCTYPE svg PUBLIC "-//W3C//DTD SVG 20010904//EN"
 "http://www.w3.org/TR/2001/REC-SVG-20010904/DTD/svg10.dtd">
<svg version="1.0" xmlns="http://www.w3.org/2000/svg"
 width="512.000000pt" height="512.000000pt" viewBox="0 0 512.000000 512.000000"
 preserveAspectRatio="xMidYMid meet">

<g transform="translate(0.000000,512.000000) scale(0.100000,-0.100000)"
fill="#000000" stroke="none">
<path d="M681 4784 c-169 -45 -301 -180 -346 -351 -13 -50 -15 -295 -15 -1864
0 -1187 4 -1825 10 -1860 33 -173 176 -326 349 -371 61 -16 198 -17 1876 -17
1972 -1 1871 -4 1987 55 117 59 223 202 248 333 6 35 10 673 10 1860 0 1590
-2 1814 -15 1866 -45 172 -179 305 -352 350 -85 22 -3669 21 -3752 -1z m502
-558 c69 -28 107 -104 92 -183 -9 -48 -71 -109 -120 -119 -56 -10 -102 4 -144
44 -128 121 9 326 172 258z m640 0 c69 -28 107 -104 92 -183 -9 -48 -71 -109
-120 -119 -56 -10 -102 4 -144 44 -128 121 9 326 172 258z m2655 -2173 l-3
-1308 -24 -34 c-13 -18 -42 -42 -65 -52 -39 -18 -107 -19 -1826 -19 -1719 0
-1787 1 -1826 19 -23 10 -52 34 -65 52 l-24 34 -3 1308 -2 1307 1920 0 1920 0
-2 -1307z"/>
<path d="M1159 2857 c-69 -47 -100 -137 -68 -200 6 -12 54 -66 107 -119 l97
-98 -97 -97 c-53 -54 -102 -111 -107 -126 -27 -71 -2 -153 59 -194 37 -25 115
-31 153 -12 12 6 66 54 120 107 l97 97 98 -97 c53 -53 107 -101 119 -107 38
-19 116 -13 153 12 61 41 86 123 59 194 -5 15 -54 72 -107 126 l-97 97 97 98
c53 53 101 107 107 119 45 89 -38 223 -140 223 -62 0 -88 -16 -191 -117 l-98
-97 -98 97 c-54 53 -111 101 -126 107 -45 17 -100 12 -137 -13z"/>
<path d="M3239 2857 c-69 -47 -100 -137 -68 -200 6 -12 54 -66 107 -119 l97
-98 -97 -97 c-53 -54 -102 -111 -107 -126 -27 -71 -2 -153 59 -194 37 -25 115
-31 153 -12 12 6 66 54 120 107 l97 97 98 -97 c53 -53 107 -101 119 -107 38
-19 116 -13 153 12 61 41 86 123 59 194 -5 15 -54 72 -107 126 l-97 97 97 98
c53 53 101 107 107 119 45 89 -38 223 -140 223 -62 0 -88 -16 -191 -117 l-98
-97 -98 97 c-54 53 -111 101 -126 107 -45 17 -100 12 -137 -13z"/>
<path d="M1855 1426 c-124 -54 -124 -231 -1 -287 39 -18 79 -19 706 -19 627 0
667 1 706 19 61 28 89 73 89 143 0 61 -17 94 -69 132 -27 21 -38 21 -714 23
-556 2 -693 0 -717 -11z"/>
</g>
</svg>
