<svg xmlns="http://www.w3.org/2000/svg" width="512" height="512" viewBox="0 0 24 24" fill="#000000"><g fill="none" stroke="#000000" stroke-linecap="round" stroke-linejoin="round" stroke-width="1.5"><path d="M15.3 12.705a3.17 3.17 0 0 1-1.3 1.3m-4-.001a3 3 0 0 1-1.65-2.579V5.848A3.398 3.398 0 0 1 12 2.76a3.401 3.401 0 0 1 3.64 3.089v2.518M5.33 10.626a6.643 6.643 0 0 0 2 4.707c.204.242.428.466.67.67m2.82 1.179a6.673 6.673 0 0 0 7.221-3.735a6.662 6.662 0 0 0 .629-2.821M12 21.25v-3.998M8.36 21.25h7.28"/><path d="m20 4.01l-4.36 4.357l-5.63 5.627l-1.98 1.979L4 20"/></g></svg>