<svg xmlns="http://www.w3.org/2000/svg" width="512" height="512" viewBox="0 0 24 24" fill="#000000"><g fill="none" stroke="#000000" stroke-linecap="round" stroke-width="1.5"><path stroke-miterlimit="10" d="m20.951 9.554l-4.902 4.902m0-4.902l4.902 4.902"/><path stroke-linejoin="round" d="M3.049 14.088V9.912c0-.416.142-.814.395-1.108c.253-.293.597-.458.955-.458h1.89c.236-.001.469-.073.675-.21l3.969-2.63a1.21 1.21 0 0 1 .672-.204c.236.001.467.074.671.212c.204.137.374.334.492.57c.118.237.18.506.18.78v10.273c0 .273-.062.542-.18.778a1.476 1.476 0 0 1-.492.571c-.203.137-.435.21-.67.212a1.207 1.207 0 0 1-.673-.204l-3.97-2.631a1.233 1.233 0 0 0-.674-.209h-1.89c-.358 0-.702-.165-.955-.459a1.702 1.702 0 0 1-.395-1.107"/></g></svg>