<svg xmlns="http://www.w3.org/2000/svg" width="512" height="512" viewBox="0 0 24 24" fill="#000000"><g fill="none" stroke="#000000" stroke-linecap="round" stroke-width="1.5"><path stroke-linejoin="round" d="M3 14.088V9.912c0-.416.142-.814.395-1.108c.254-.293.597-.458.955-.458h1.89c.237-.001.47-.073.675-.21l3.97-2.63c.204-.135.436-.205.672-.204c.236.001.467.074.67.212c.205.137.374.334.492.57c.118.237.18.506.181.78v10.273c0 .273-.063.542-.181.778a1.477 1.477 0 0 1-.491.571c-.204.137-.435.21-.671.212a1.208 1.208 0 0 1-.673-.204l-3.969-2.631a1.233 1.233 0 0 0-.675-.209H4.35c-.358 0-.701-.165-.955-.459A1.702 1.702 0 0 1 3 14.089"/><path stroke-miterlimit="10" d="M16.228 15.715a5.344 5.344 0 0 0 0-7.559m2.267 9.884a8.552 8.552 0 0 0 0-12.093"/></g></svg>