<svg xmlns="http://www.w3.org/2000/svg" width="512" height="512" viewBox="0 0 24 24" fill="#000000"><g fill="none" stroke="#000000" stroke-linecap="round" stroke-width="1.5"><path stroke-linejoin="round" d="M4.603 14.088V9.912c0-.416.143-.814.396-1.108c.253-.293.596-.458.954-.458h1.89c.237-.001.47-.073.675-.21l3.97-2.63a1.21 1.21 0 0 1 .672-.204c.236.001.467.074.671.212c.204.137.373.334.491.57c.118.237.18.506.182.78v10.273a1.762 1.762 0 0 1-.182.778a1.477 1.477 0 0 1-.49.571c-.205.137-.436.21-.672.212a1.208 1.208 0 0 1-.672-.204l-3.97-2.631a1.233 1.233 0 0 0-.675-.209h-1.89c-.358 0-.701-.165-.954-.459a1.702 1.702 0 0 1-.396-1.107"/><path stroke-miterlimit="10" d="M17.831 15.715a5.344 5.344 0 0 0 0-7.559"/></g></svg>